/* XPM */
static char *_a10f5957e114a39cb534cc863a90ad1WmVP6niUxsixow9M[] = {
/* columns rows colors chars-per-pixel */
"48 48 255 2 ",
"   c #040003",
".  c #0B0104",
"X  c #04010A",
"o  c #0C030B",
"O  c #060A0D",
"+  c #0A090D",
"@  c #040800",
"#  c #13040B",
"$  c #1A030E",
"%  c #140A0D",
"&  c #180909",
"*  c #0B0413",
"=  c #0D0914",
"-  c #070310",
";  c #130B13",
":  c #190D14",
">  c #160D1B",
",  c #1C0C1C",
"<  c #160416",
"1  c #131317",
"2  c #1D1215",
"3  c #15111B",
"4  c #1B131B",
"5  c #1A1A1B",
"6  c #13160B",
"7  c #260607",
"8  c #250B19",
"9  c #390C1B",
"0  c #22151C",
"q  c #241B1D",
"w  c #291C1B",
"e  c #251717",
"r  c #38131D",
"t  c #211102",
"y  c #1B1421",
"u  c #1E1B23",
"i  c #171020",
"p  c #190922",
"a  c #200F21",
"s  c #231522",
"d  c #241B23",
"f  c #2B1C24",
"g  c #27192B",
"h  c #371B28",
"j  c #2D1C32",
"k  c #2C2124",
"l  c #2D242B",
"z  c #252628",
"x  c #332525",
"c  c #32252B",
"v  c #342A2D",
"b  c #3A2D2C",
"n  c #362826",
"m  c #2C2633",
"M  c #352B33",
"N  c #3B2D35",
"B  c #352D39",
"V  c #3B2C3A",
"C  c #372433",
"Z  c #3C3133",
"A  c #3D333C",
"S  c #37363A",
"D  c #373130",
"F  c #27221D",
"G  c #562719",
"H  c #762616",
"J  c #712D0F",
"K  c #432C36",
"L  c #572A35",
"P  c #423435",
"I  c #433A34",
"U  c #43343C",
"Y  c #45393C",
"T  c #4B3D3D",
"R  c #4C3639",
"E  c #543C3D",
"W  c #58393A",
"Q  c #4F3329",
"!  c #7A2A2C",
"~  c #683827",
"^  c #653C3A",
"/  c #743A3A",
"(  c #703028",
")  c #46433D",
"_  c #57433C",
"`  c #5E513E",
"'  c #744539",
"]  c #6C4831",
"[  c #3E2E40",
"{  c #3D3541",
"}  c #3D3943",
"|  c #433542",
" . c #443B43",
".. c #4A3C43",
"X. c #4A3C4B",
"o. c #483846",
"O. c #573C45",
"+. c #592F42",
"@. c #683A44",
"#. c #783F49",
"$. c #4D4244",
"%. c #4D444B",
"&. c #47454A",
"*. c #534543",
"=. c #53454C",
"-. c #55494C",
";. c #5B4C4C",
":. c #5A4646",
">. c #5B524E",
",. c #4C4953",
"<. c #544B53",
"1. c #5A4C53",
"2. c #584958",
"3. c #5D5254",
"4. c #5C535A",
"5. c #575659",
"6. c #4E5549",
"7. c #634345",
"8. c #6B4345",
"9. c #664A4A",
"0. c #784948",
"q. c #63514E",
"w. c #7A5448",
"e. c #684A52",
"r. c #625454",
"t. c #655A56",
"y. c #63555C",
"u. c #655B5C",
"i. c #6A5C5D",
"p. c #6B5757",
"a. c #76575A",
"s. c #754B54",
"d. c #6B625D",
"f. c #6A6259",
"g. c #71635C",
"h. c #63674F",
"j. c #655B63",
"k. c #6B5C63",
"l. c #655662",
"z. c #765A63",
"x. c #5C6161",
"c. c #6C6164",
"v. c #6C646A",
"b. c #676769",
"n. c #726563",
"m. c #756966",
"M. c #72646B",
"N. c #756A6B",
"B. c #796C6B",
"V. c #7A6669",
"C. c #7D726E",
"Z. c #767069",
"A. c #746C73",
"S. c #7A6C74",
"D. c #766975",
"F. c #7D7272",
"G. c #7A7479",
"H. c #6B6B75",
"J. c #5C5561",
"K. c #873718",
"L. c #883607",
"P. c #833C28",
"I. c #87342C",
"U. c #8F451E",
"Y. c #875335",
"T. c #985334",
"R. c #984C28",
"E. c #A65A3A",
"W. c #AD5231",
"Q. c #9C6C39",
"!. c #A2632C",
"~. c #C76D39",
"^. c #C85938",
"/. c #8C4A4A",
"(. c #845849",
"). c #855856",
"_. c #955757",
"`. c #955546",
"'. c #8F665C",
"]. c #B47448",
"[. c #A5735B",
"{. c #B56F4C",
"}. c #866365",
"|. c #81726E",
" X c #817E68",
".X c #827574",
"XX c #847975",
"oX c #857A7A",
"OX c #8A7D7C",
"+X c #857778",
"@X c #946E71",
"#X c #A76664",
"$X c #CD734D",
"%X c #C77A67",
"&X c #C17974",
"*X c #E07C5C",
"=X c #AF8B57",
"-X c #8D827C",
";X c #9C9074",
":X c #B0836B",
">X c #D0864F",
",X c #E98E5B",
"<X c #D3976B",
"1X c #D0856B",
"2X c #E79C75",
"3X c #E49370",
"4X c #D5A773",
"5X c #F7B177",
"6X c #7D7982",
"7X c #8A7B81",
"8X c #9B7F84",
"9X c #8D8182",
"0X c #898989",
"qX c #928583",
"wX c #958B89",
"eX c #999597",
"rX c #948E8F",
"tX c #A79998",
"yX c #AE8E89",
"uX c #ABA691",
"iX c #A59EA9",
"pX c #A7A5AA",
"aX c #B5A9A8",
"sX c #BAB2AE",
"dX c #B6B3B7",
"fX c #ADA9B3",
"gX c #9F9FA3",
"hX c #CB9B8B",
"jX c #D2AD8F",
"kX c #E7A884",
"lX c #E7B497",
"zX c #F3B28A",
"xX c #C8BAB7",
"cX c #EDBFA9",
"vX c #E19480",
"bX c #D9C896",
"nX c #FCCA9C",
"mX c #E4C996",
"MX c #F9C7A2",
"NX c #FED5A6",
"BX c #FEDCAC",
"VX c #F8DAA5",
"CX c #FCDBB3",
"ZX c #FCE3AB",
"AX c #FBE6B7",
"SX c #FEF2BA",
"DX c #BBB5C0",
"FX c #D0CDD0",
"GX c #FEE9CA",
"HX c #FCF4C6",
"JX c #FDF7D8",
"KX c #ECEEC7",
"LX c #FBFAE8",
"PX c #FFFDF5",
"IX c #EFF1E1",
/* pixels */
"N.sXaXsXsXd.# *.aXtXb : : q.xXaXtXaX0X6.) gXaXaXi.|.tXxXsXsXt.b n r.n.& _ tXn & t.xXtXk . A.iXD.",
"r.i.qXXXoX3.n OXOXB.*.Z & p.tXqX|.qXrX0X5.F.C.|.*.g.B.qXOXm.b k r.n.*.;.n.b I OXZ.OXm.d.3.S.M.g ",
"qX9Xr.m.9XZ T C.OXqXn.n e qXOX+XXXXXZ.d.I 3.-XXXg.t.OXtXC.>.b n d.B.;.9XZ.w Z.wXXXXXB.9XrX=.s d ",
"F.F.oXD T Z r.B.OXOX3.k w .X+X;.|.OX.Xd.*.I n.n.n.T _ XXm.;.b e *.n T wXt.e I -X|.C.n..X7XS.V 4 ",
"-.c.u.Z n Y c.F.9XwXB.n.n |.r.r.XX|.n.q.q.:.:.p.;.p.n ;.*.e e *.C.t.e P m.>.t.wXB.XX3.oX9XA.X.< ",
"oXc.I x -.B.B.c.S.OXF.N.x ;._ p.m.B.a.9.a.q._ *.n.p.:.n e P _ C.XXwX*.Y wXt.t.-XC.-Xn.-.c.%.0 d ",
"u.N.w b C.F.c.m.OX.XN.r.& *..Xp.;.:.7.8.s.V.n.:.;.;.P e n.;.I XX.XC.m.Y :.n.I |.m.n.C..X3.c f 0 ",
"k k n i.m.u.m.c.C.m.C.p.n +X.Xa.q._ 9.w.^ W 9.p.R P ..;.;.:.:.;.XXn.N.n._ r.b B.B.m.>.r.-.1.N 2 ",
"F k 3.F.oX3.r.u.oXB.n.w E z.z.a._ ] w.' ^ 7.^ 9.@XV.1.O.o.z.@X8.r.m.m.r.n.m.w ) qXr.x b 1.y.k % ",
"2 $.3.d.XXN.-.t.OXr.b w 7.9.a.a.^ (.[.(.^ 8.0._.hX}.E O.O.z.@X8.E q.g.t.*.t.*.I b Z r.m.m.c # : ",
"e b d.u.9XOXT $.t.T R 7.9.}.}.a.^ ).#X_./ / `.&XlX'.W W O.W @.@.E :.p.g.*.t.B.;.w b r.i.-.v 2 % ",
"3.Z n 3.F.F.3.;.P P p._ }.yXyX).@.#./.I.! ! W.3XzX[.' ^ 7.E 7.W E q.p.i.;.q.i.r.n b k Z b Y f f ",
"B.OX3.Z 1.i.T Y E e.a.8.@XhXMXlX/ ( ! I.! H W.,X3X1XhX(.Q W W ` 9.9.7.:.:.R P n ;.;.b k -.$.c % ",
"OXN.F.i.Z 3.;.;.:.e.a.w.' ~ :XlX`.P.I.I.H R.*X~.L.J kXhXG ~ w.:X9.:.R E O.:.E O.n.m.-.b 0 x 2 . ",
"c.9XN.N.$.$.$.y.8Xa.8.w.~ ~ :XkX2X{.P.K.1XMX,X>XL.J MXcX] ] Y.[.8.W W @.s.a.9.e.r.k.u.T 2 : 0 2 ",
"u.N.*.c.$.Z $.n.}.).0.~ ' Y.Y.T.$X$XW.U.$XzX5X~.U.U.MXlXJ ~ ] Y.' ^ 8.8.}.@X9.r.i.i.3.w Z .X-.T ",
"Y =.u.N.$.x ..e.L / /.P.H P.P.J R.$X^.W.{.<X5XR.K.T.CXlXT.T.J ( ' ~ / L L :.3.5.y.oXi.Z oXrXk . ",
"Y =.u.k.N P r.z.@._.&X%XJ K.K.K.$X*X$X~.zXNXnXzXkX<XBXMXU.E.K.J H ! _./.s.e.5.,.S.A.Y Y eX3.$.e ",
"U ;.y.1.Y N P :.s._.&X2X{.!.!.R.zXkXW.K.kXCXNXNX].Q.ZXAX].kX>XE.E.%X%X_.(.e.,.,.A..Xn c 3.N.r.2 ",
"P 1.r.=.Y =...O.+.#./.{.zX].!.!.nXCXzX<XBXAXBXNX4X4XZXjX=XNXkX].2X2XE.P.' 7.<.,.-.;.k B.k.Z b P ",
"Y c U k.=.k.M.=.$ L ).`.kX4X<XQ.nXBXZXBXHXHXmX=XmXSXSXSXVXVX=XkXzX<XT.G G h B H.U 2 $.i..Xu.Y % ",
"7Xk.1.y...=.1.=.2.V.s.(.jXMXZXVXCXAXZXmXHXJXAXbXAXSXSXHXHXHXmXAXAXlXY.~ ).R } m k -.k.B.;.b   # ",
"S.M.1...=.c 0 %.DXv.e _ ' hXGXJXJXJXJXJXJXLXLXJXJXHXHXKXJXJXGXGXuX;Xt t tXqXZ X d -.3.c.Y     . ",
"..1.r.=.Y N # d 5.G..Xi.t Q g.t.f.sXIXIXLXPXPXPXLXLXLXFXh. X` ` 6 6 f.B.c.c.%.o $.F.M.-.v 2 . 0 ",
"U k.c.-.%.N ; ; J.6XdXaX%.2 Z v.4.1 ,.S A S S S D v z F @ S >.) >.b.wXpXrXG.M . A 9Xk.3.Z v x c ",
"A 1.u.N U ..; 4 M G.FXgXfXFXFXFX,.} H.0X6X6XG.6XA.H.b.x.z x.dXdXfXeXA A.-.k q ; c Y Z c.-.Y 3.Z ",
"1. .k A v.N o ; X o m v.,.5.rX0XB 0XdXiXpXiXpXpXfXpXgXeX5.S S 5.G.%.k N # . % . Z 3.Y w -.k v % ",
"N.l d v j...o 4 o X = ; X = u u =  .H.H.5.5.5.5.5.,.,.&.D 1 5 1 q   . $ 8 T k . $.F.k.2 k . . c ",
"N c 1.-.M <.U ; l y d M y ; l y X = g 3 u y 1 = + O O O O O O O     8 $ h R c . 3.3.k...c F.tXZ ",
"2 =.S...U c %.%.4 > g X. .{ &.} * = u 4 u u y 3 1 1 1 1 O O O O + # 9 7 9 7 U  .3.-...c tXaX..k ",
"c c.+X<.4.=.0  .B > 3 B B B m m X * B &.B { { } z z z z O O O O o . r @.@.r R 4.B.k.$.$.G. .-.2 ",
"v.M.M.S.c.k.v : } > > B g l i > X X l } { } &.&.u u u u + + + o o f +.9 @.a.i.1.m.k.=.k.M.j.M.c ",
"M.u.u.k.k.v.y.<.m m m y y * X * = = = = y y y 4 1 = o o . $ 8 0 8 N K 8 R p.r.k.+Xi.c A.S.l.| < ",
"u.M.Y k.S.y.y.4.V %.%.* * * { > = = = * * * * * o X o o $ 8 @.e.K 0 # ..y.y.k.M.M.1.0 j.2.X.a * ",
"% =.y.y.j.c. .4. .}  .* * X * X - X X X X X X X X X X . . # 8 8 $ 8 $ U k.....N.1.;.f f o.V p g ",
"1.+X+XN.M.G.y.y.d M B X o   X X X X X X X X X X     X . # # < $ $ # K i.V.S...=.U k.S.d V 2.j p ",
"7Xu.u.M.M.k.%.Y M ..%. .> = 4 ; 4 ; u d ; > 3 4 d l 4 > s l c U | U =.k.z.S.;.w S.+XA.l.V m j < ",
"1.=.u.k.u...d c M  .M A  .A.A.4.l %.v.j.j.b.v.v.A.4.A g 4.v.j.j.N.l.k.M.N.M.N r..Xl.4.k.D.o.> < ",
"s 1.4.k.Y U 0 U 4.$.k 2 5 &.5.% v %.4.u.4.b.v.j.,.4 l d <.4.4.v.j.y.y.l.k...0 k.M.c.l.2.l.[ g p ",
"0 X.S.2.o N C r.$.c &.$.2 ; 4 z v <.4.4.5.c.v.y.d u M } 4.j.4.j.G.M.1...U f 1.k.N.M.k.4.2.X.2.> ",
", C | V l.V  .=.=.=.5.%.d v U c.$.Y  .=.| 1.=.f l  .,.4.%.,.4.4.4.U A c o M 1.u.1.M.y.4.%.N s o ",
"<.< s =.l.V C X.4.<.<. .4 <. .%.<. .N K c K h 0 V  . .%.A <.<. .l l <. .l Z  .4.1.$. .4.=.l # # ",
"2.V a o.o.C s C X.|  .M M <.M  .X.=.%.o.K h h h M A M  . .%.A ; A A <.U N M q M N N A M ..v 0 2 ",
"g s s V [ =.{ V { { %.A  .<.A m %.A A O.C C h C A A } <.%.%.Z ; %.<. .<.=.U l k k d v d U $.A 0 ",
"a o.X.s g o.C X.B B ,. .A X.<.A M m | | V C K V ..} }  .A  .l  .%. .<.<.$.M U  .1.U d v ..%.k . ",
"C =.[ g j , { 4.| ; B A A } %.A d |  .U | C C f U A A  .M M l M A %.U M A c d  .%.%.Z M 1.A ;   ",
"C a < a < g y g s d 4 d d y l d 0 f 0 8 , < 8 8 d s s d d l ; ; > l 4 ; d 0 ; f A l : q c : o % ",
", o g < < j y , , ; ; o ; X ; ; ; < , < $ $ 8 8 # o o > o = 4 o X   ; o o # 2 .   ; % 0 0 d k 0 "
};
