/* XPM */
static char *c8dad9531d8b47bfc76bbbb8ae9018b9xBf7yQYxgR27Jo4x[] = {
/* columns rows colors chars-per-pixel */
"48 48 253 2 ",
"   c #040005",
".  c #0A0004",
"X  c #060109",
"o  c #0B040C",
"O  c #0E080F",
"+  c #13030C",
"@  c #1A0C0D",
"#  c #16040A",
"$  c #0F0911",
"%  c #0F0611",
"&  c #130512",
"*  c #140B14",
"=  c #1A0D15",
"-  c #160C1A",
";  c #1B0D1B",
":  c #1A0316",
">  c #17111A",
",  c #1C131C",
"<  c #1B1316",
"1  c #270818",
"2  c #211413",
"3  c #23141B",
"4  c #25191C",
"5  c #291B1D",
"6  c #291616",
"7  c #2F0C0A",
"8  c #33211C",
"9  c #1D0D20",
"0  c #1E1821",
"q  c #231522",
"w  c #291523",
"e  c #231B24",
"r  c #2B1C25",
"t  c #2A1E2A",
"y  c #28192A",
"u  c #381828",
"i  c #2F172B",
"p  c #2D2123",
"a  c #27212A",
"s  c #2C232D",
"d  c #2A252B",
"f  c #312424",
"g  c #372A26",
"h  c #32242C",
"j  c #35292D",
"k  c #3B2C2C",
"l  c #3B2726",
"z  c #3E312D",
"x  c #2D2631",
"c  c #332531",
"v  c #342B34",
"b  c #3A2D34",
"n  c #362E39",
"m  c #3B2D3A",
"M  c #3A2635",
"N  c #3C323C",
"B  c #3A3136",
"V  c #551107",
"C  c #731B16",
"Z  c #712A13",
"A  c #48172E",
"S  c #42262C",
"D  c #42322E",
"F  c #452A37",
"G  c #423334",
"H  c #42353C",
"J  c #46393B",
"K  c #4B3C3C",
"L  c #483638",
"P  c #573A39",
"I  c #5C2E31",
"U  c #6B3426",
"Y  c #76382A",
"T  c #673C39",
"R  c #773938",
"E  c #73292C",
"W  c #4A2317",
"Q  c #4E413E",
"!  c #53413F",
"~  c #784338",
"^  c #704336",
"/  c #3D3441",
"(  c #3F3941",
")  c #433642",
"_  c #453A44",
"`  c #4A3C44",
"'  c #4C3E4A",
"]  c #4A3547",
"[  c #553A45",
"{  c #5E3C55",
"}  c #683948",
"|  c #773848",
" . c #683048",
".. c #4E4243",
"X. c #464149",
"o. c #4C434C",
"O. c #49444A",
"+. c #534544",
"@. c #53454D",
"#. c #56494B",
"$. c #5B4C4C",
"%. c #594746",
"&. c #5D514E",
"*. c #4D4753",
"=. c #534652",
"-. c #544A54",
";. c #5B4D54",
":. c #5A4D5A",
">. c #594955",
",. c #5E5154",
"<. c #5D535B",
"1. c #555158",
"2. c #6A4242",
"3. c #64444A",
"4. c #67484A",
"5. c #774B46",
"6. c #745149",
"7. c #684B58",
"8. c #794D58",
"9. c #635454",
"0. c #63555C",
"q. c #655A5C",
"w. c #6B5C5C",
"e. c #695759",
"r. c #775959",
"t. c #62524E",
"y. c #6E605E",
"u. c #72615F",
"i. c #645561",
"p. c #655B63",
"a. c #6A5D63",
"s. c #695E68",
"d. c #735C64",
"f. c #734B63",
"g. c #6D6264",
"h. c #6B616A",
"j. c #726564",
"k. c #776A66",
"l. c #72656B",
"z. c #756A6D",
"x. c #7B6C6B",
"c. c #7B6865",
"v. c #7C716E",
"b. c #73716B",
"n. c #736D75",
"m. c #7B6D73",
"M. c #766874",
"N. c #7E7272",
"B. c #7A747A",
"V. c #6C6870",
"C. c #5E5660",
"Z. c #893010",
"A. c #862C29",
"S. c #873E28",
"D. c #8F3632",
"F. c #A63C2A",
"G. c #A2320B",
"H. c #AA4F19",
"J. c #87432B",
"K. c #9A4D29",
"L. c #9A4A3B",
"P. c #8D5038",
"I. c #B35838",
"U. c #AA4E2F",
"Y. c #B5652E",
"T. c #BA6737",
"R. c #B06A3B",
"E. c #9C421C",
"W. c #C86F38",
"Q. c #CC5F30",
"!. c #8C3647",
"~. c #884743",
"^. c #9B524D",
"/. c #904E4F",
"(. c #AB4D50",
"). c #956454",
"_. c #B9755B",
"`. c #AF6A50",
"'. c #8C5462",
"]. c #816A6B",
"[. c #986A69",
"{. c #837473",
"}. c #867A7A",
"|. c #8C7C7A",
" X c #847778",
".X c #8B7778",
"XX c #B97965",
"oX c #AF746F",
"OX c #AE5264",
"+X c #CF744C",
"@X c #E17C67",
"#X c #C76C65",
"$X c #8E817E",
"%X c #83817D",
"&X c #928A7F",
"*X c #B58675",
"=X c #DC9558",
"-X c #CC8C4F",
";X c #C48B72",
":X c #EA9762",
">X c #F2926A",
",X c #D1A86B",
"<X c #ECAB74",
"1X c #F8AC74",
"2X c #F9B87B",
"3X c #EDB56D",
"4X c #E59F5B",
"5X c #FBC376",
"6X c #D7C87D",
"7X c #7C7981",
"8X c #877C83",
"9X c #997D80",
"0X c #8A8687",
"qX c #938483",
"wX c #998A89",
"eX c #9B948C",
"rX c #988D96",
"tX c #949098",
"yX c #AA9696",
"uX c #AA9CA5",
"iX c #A9A6AB",
"pX c #B4A7A5",
"aX c #B5B1B4",
"sX c #9F9AA0",
"dX c #CF9788",
"fX c #EF9D8E",
"gX c #CEAE90",
"hX c #FBB984",
"jX c #F2B38C",
"kX c #C2ABA7",
"lX c #C7B9AC",
"zX c #C7B9B7",
"xX c #DBC78A",
"cX c #E9CA8E",
"vX c #F9C888",
"bX c #FED89B",
"nX c #F8D390",
"mX c #FAE397",
"MX c #FFE18E",
"NX c #F9CCA7",
"BX c #FEE5A5",
"VX c #FFECB5",
"CX c #FCF3BC",
"ZX c #EBE5AE",
"AX c #C7C6B1",
"SX c #C1BDC7",
"DX c #D6C6C7",
"FX c #F9EBC6",
"GX c #F9F4CA",
"HX c #F8F5D9",
"JX c #E0E0C5",
"KX c #FEFCE4",
"LX c #E6DAC5",
/* pixels */
"j.zXaXpXzXj.. Q pXpXG # 6 9.DXpXyXkXwXP ..pXpXpXk.qXpXpXkXlXw.l f +.j.@ +.eXz 2 x.zXwXp @ q.DX8X",
"&.$.$Xj.{.$.f $X Xv.$.G @ e.pX$X.XeXyXwXg.N.v.N.9.x.x.|.|.x.D 6 t.w.D &.9.l L $X{.|.y.w.,.a.z.4 ",
"$XqX$.k.wXg G k.N.qXv.z 2 qX Xx.|. X{.v.+.q.b.g.e.$.].wXx.t.l 8 e.{.%.|.x.f k.eX X$XN.|.wX` 2 g ",
"k.}.qXg J g 9.j.{.qXe.g 2 {.x.+.v.N.v.x.#.&.&.9.$.K P c.w.t.G 6 K k +.$Xt.8 Q |.{.{.j.{.}. XG 3 ",
"+.k.y.L f L j.}.wXwX{.j.z x.w.9.{.j.j.j.9.+.$.u.{.w.%.t.%.6 6 ! x.t.5 G x.+.w.|.N.$X$.}.8Xm.#.@ ",
"{.j.J g &.x.k.y.|.{.x.v.f +.J +.w.{.c.].%.%.r.9XwXx.$.k 2 G K {.|.wXQ Q eXj.9.|.v.qXk.#.j.+.@ 3 ",
"w.k.5 z {.N.w.w.y.u.w.9.@ Q w.Q $.t.d.6.} 8.8.3.e.%.G l c.e.D .Xx.c.j.Q +.j.` w.{.x.{.x.,.r 4 < ",
"g f g w.j.w.j.e.#.$.w.K k |.w.%.r.8.4.8.'.'./.T 4.3.! 4.].].P 4.u.k.k.k.$.$.G j.x.j.$.$.J $.G 4 ",
"5 2 $.wXk.j.&.w.` >.d.l L r.r.4.} T ~.^.~./.5.T T 6.5.2.} } 3.3.9. X0.#.$.w.2 9.}.$.5 L 9.e.5 2 ",
"2 K 9.j.x.j.+.$.>.d.3.S 3.2.[.[.I R OX(.A.Y R T T ~ oX/.| | } 3.e.d.#.;.{.{.%.L G G q.l.j.f . 3 ",
"g k e.w.9.9...` K r.4.T T 5.oX[. .!.OX!.A.E Y R D.R ~./.| | } 3.L D 3.%.3.{.e.;.h b 9.9.;.G 3 # ",
"j.g f 9.,.j.e.$.P 4.2.I I U Y U E !.(.(.(.A.Z D.D.D.L.^.!.| | } 5.[.P P P L e.@.5 f 5 G k K 5 f ",
"N.}.#.p $.x.9.G ^ T T ~ ~.~ U Z W E E (.#X#X(.Z.F.F.F.(.(.E R ).dXdX*Xr.P [ L r 0.q.j 5 +.K r # ",
"qXx.N.9.k ,.#.S 6.U ~ oXXXXX_.`.~.E C C fX@X+XZ.+X@XI.F.A.A.L.fX`.P.).5.P S F :.a.l.+.j 2 g 3 @ ",
"j.qXz.z.J G z 8 5.~.).XX_._._.`.@X+XZ Z Z U.hXhX1X+XQ.G.U.U.I.>XK.Z ~ ^ 2.4.@.' #.w.j...@ # 5 2 ",
",.g...a.K 2 g P T *X;X).Z Z S.T.>X>X+XK.K.R.hXhX:XH.H.W.>X+XU.K.K.J.Y Y T 4.e.a.9.a.w.r f m.K G ",
"K #.q.x.k p +.%.P *XdX;XS.V Z E.+X:XY.H.T.-X=X=X=XH.Y.1X1XT.Y.K.J.P.Y U T T d.0.9.}.a.k 8XrXg . ",
"J #.e.a.f j ..$.4.[.*X;X~.V Z.Z.W.+XY.T.:X<X2XvX<X=X=X1X2XY.-XK.J.J.J.Z ~.[.8.7.e.l.+.` rXq.#.3 ",
"H ;.9.#.J b b >.f. .~.^.C C I.T.+X<XhX2X<XvXbXBX2X5X5X3X5X-X3X<XZ.Z.I.U.`.oX'.f.e.m.G b $.j.;.@ ",
"B ;.,.` H q.H w { A R ^.A.A.U.2XhXnXbXnXjXBXBXcX,X3X3X4X5X3X3XnX-XH.+XT.L.E  .{ [ ;.f j.q.b b J ",
"j p H q.,.#.q.J L T ).XXL.I.W.nX,X,XVXBXBXVXZXxXcXbXmXMXMXnXBXcX-X-X<XR.U T S i H 4 ;.q.N.q.` = ",
" Xq.#.q...+.b H {.].V `.fXjXhXvXgXxXCXCXCXCXCXZXCXVXmX6XxXmXVXxXcXbXbX`.U r.[ t J $.m.m.;.G + = ",
"}.<...@.J < + B.aX&X7 ~ XXdXNXVXGXFXGXFXFXFXGXGXGXGXCXZXZXZXGXGXFXNXNXU 7 6.m.B.e h ,.j.K . + & ",
";.;.q.-.` e = 0XiXeX].W 7 2.gXgXkXlXLXKXHXKXKXHXHXKXKXHXHXJXAXlXkX6.7 I P u.z.m., & 0.$.b 5 = 5 ",
"` 9.a.<.) , * B 0XtXiXpXwX5 5 2 p J q.v.}.0X0X%X%X0X0X0XB...< . @ 6 G wXuX8X1.*.* & p.>.h h t r ",
"b -.,.H r b = 4 *.n.tXiXSXB.0XaXiXn.X.N -.1.-.O.X.O.X.n > > B.0XiXuX8Xm.8Xp.1.n & + m 0.@.J ;.c ",
"<.v , H m.) * * X o.7XB.tX8XtXiXtXn.n.tXaXaXaXiXiXaXiXsX*.a h.h.B.8X8X<.:.- o & . 3 ' r ' r h o ",
"M.v = B  Xs 4   * X   X X , V.7X<.*.<.B.0X0X7Xn.V.B.B.n.v a -.j v h m & + : + 1 o H @.3 q . o t ",
"h v @...r -.B   * x * $ > e e > e - , x B _ _ v v v v N o o o o o . + 3 : # u F F ' i.H h M.rXm ",
"< ..h.` B , o.O o t x N / X.X./ a $ X * X   X o O * * $ o o o o o . + 1 u A A A ] ' ' c rXuX' t ",
"h p.z.p.-.p.v B O $ a n a v v a , * , v d _ O.N N x e e o o o o o . + 1 A  . .A 7.i.>.=.m.) =.q ",
"n.a.0.p.i.a.v , ( 0 x a - 0 e > , * 0 N v N X.O.B e d O.o o o o o . # 1  .A 1 8.7.s.0.M.l.i.l.c ",
"z.p.a.h.a.h.p.-.e d e   o O o o X * e d e > N X.v o e B o o o o O . 1 A I 1 u 3.m.i.m M.M.<./ - ",
"<.a.` p.z.0.<.<.v N N * > e , o X $ * , s e , 0 > o , a o o o X e r u A u 1 r :.l.:.r p.>.' e & ",
", ..<.<.0.s._ <._ s v ( N v > X o X X o e 0 X X * $ * o o o o X = 3 1 1 F u w h.:.>.h c ' N ; q ",
",.B. XM.a.n.<.<.s e q -.*.N d > o X X X   X X X O o o $ o o X o o + : 1 F ] 2 ..J a.M.h ) =.t 9 ",
"0Xs.<.M.h.h.o.N n c = s e e e e o O   X O O o o X O O o       . + + # # [ 1 w r M.m.M.i.m c t - ",
"<.-.p.h.s.-.s x N =.m r s _ N v e s s v s v c s x v t d j e = O o + 2 3 M @.F 0.m.q.<.p.s.] 9 - ",
"e <.<.s.o.s x n <.) v e e ' -.* v -.C.i.<.s.s.p.-.s n B <.-.-.-.@.@.@.@.>.@.r p.h.a.i.:.<.m y ; ",
", o.m.>.& c v <.@.v o.<.t - , v N -.<.<.>.s.s.i.t e N N <.p.s.h.m.s.>.' m r @.0.l.l.p.<.=.' >.; ",
"e N ) M :.m _ o.o.@.:.' c n ` h.X._ _ @._ >.' q s _ o.1.o.>.:.:.:.) N v * v -.0.=.p.;.>.' m q % ",
"*.9 w ' i.m v _ :.-.>.) e >._ @.-._ B N c H w w v _ _ o.) -.:._ c c -._ h m ) <.>.' ) ;.@.c & & ",
"*.c w ] ] c e c ` ) _ c s ' s n X.o.o._ b w h c v B v _ _ @.N * N N o.) m m t N N m H m ' v q ; ",
"s y w M F ' m v ( ) ' N ) @.H v o.N N ' c c i w B N N -.@.=.n - o.o.) =...H v c c t b t ) ' n , ",
"s / ) w i ] m *.c c ' ) H ' =.B v s N N m M H m ) B n N ) _ c _ ' _ -.@.` n ) _ @.H e c ) ' c - ",
"/ _ M i M 9 m :.) ; m _ _ ' =.) e ( ) N H M M t N B N _ n v c v N o.) v N c t ) ` ' n n >.b - o ",
"' y ; q q y - y , q ; r w q t q , e , ; ; ; w 3 t 0 , 0 t s - - , s q * r q - t m h q t m - o 3 ",
"*.y c & : y & ; ; = = = & o * + & O - & & + 3 ; O X o * o & - o X   * + & * , o + , ; r s e c H "
};
