/* XPM */
static char *_c9a5d022f1e4be4dba8fa8eab2cf10dCJ0udTBYiK8ztNYJ[] = {
/* columns rows colors chars-per-pixel */
"48 48 246 2 ",
"   c #030003",
".  c #0B0206",
"X  c #05000A",
"o  c #0B020C",
"O  c #0D0A0D",
"+  c #12030D",
"@  c #180708",
"#  c #1F150E",
"$  c #0D0412",
"%  c #0E0814",
"&  c #120613",
"*  c #1B0512",
"=  c #130A14",
"-  c #1A0D13",
";  c #150B1A",
":  c #1A0D1B",
">  c #15061A",
",  c #1C131C",
"<  c #191418",
"1  c #260409",
"2  c #230D1B",
"3  c #290A16",
"4  c #23141B",
"5  c #2C1E1D",
"6  c #241719",
"7  c #350C0E",
"8  c #2D2519",
"9  c #33271C",
"0  c #1D1321",
"q  c #1C1B20",
"w  c #1C0D22",
"e  c #221623",
"r  c #251A24",
"t  c #2B1C24",
"y  c #261C2A",
"u  c #2A1D2C",
"i  c #281326",
"p  c #371A27",
"a  c #2C2224",
"s  c #2D222C",
"d  c #292529",
"f  c #332424",
"g  c #33242C",
"h  c #35292D",
"j  c #3C2E2D",
"k  c #372828",
"l  c #3E332C",
"z  c #2E2431",
"x  c #2C2631",
"c  c #312532",
"v  c #352A34",
"b  c #3A2D35",
"n  c #362C39",
"m  c #3A2D3B",
"M  c #3B2535",
"N  c #3E3134",
"B  c #3C323C",
"V  c #373536",
"C  c #4A0814",
"Z  c #481C25",
"A  c #751F22",
"S  c #59262B",
"D  c #452937",
"F  c #433433",
"G  c #42343C",
"H  c #443C3A",
"J  c #4B3C3B",
"K  c #483738",
"L  c #523D3C",
"P  c #563639",
"I  c #4D2F2E",
"U  c #762D29",
"Y  c #66363C",
"T  c #79373A",
"R  c #6A2B2F",
"E  c #6A1E18",
"W  c #4D423D",
"Q  c #51483E",
"!  c #6B4A3D",
"~  c #3D3441",
"^  c #423643",
"/  c #443A44",
"(  c #4B3C44",
")  c #453C49",
"_  c #4A3E4A",
"`  c #493644",
"'  c #573C46",
"]  c #683C45",
"[  c #723241",
"{  c #4C424C",
"}  c #4D4245",
"|  c #534444",
" . c #5B4345",
".. c #554945",
"X. c #52454D",
"o. c #56494C",
"O. c #5B4C4B",
"+. c #5A454B",
"@. c #5C514D",
"#. c #4E4452",
"$. c #494B58",
"%. c #524552",
"&. c #544A54",
"*. c #5B4E54",
"=. c #564D5A",
"-. c #5B4D5A",
";. c #594253",
":. c #5E5253",
">. c #5C525C",
",. c #5B575B",
"<. c #4E534F",
"1. c #66484B",
"2. c #77484A",
"3. c #675048",
"4. c #765449",
"5. c #684E55",
"6. c #635454",
"7. c #635955",
"8. c #63555C",
"9. c #6A565C",
"0. c #65595D",
"q. c #6B5C5B",
"w. c #6B5754",
"e. c #745959",
"r. c #754A52",
"t. c #6C625D",
"y. c #706355",
"u. c #5C5362",
"i. c #5C4D60",
"p. c #635662",
"a. c #655A63",
"s. c #6B5E64",
"d. c #685A66",
"f. c #775D65",
"g. c #685C71",
"h. c #6D6263",
"j. c #6D656A",
"k. c #736564",
"l. c #756A65",
"z. c #72646A",
"x. c #756A6B",
"c. c #7B6C6B",
"v. c #7A6765",
"b. c #7D726D",
"n. c #747068",
"m. c #766A74",
"M. c #7E7273",
"N. c #7C7878",
"B. c #6F6571",
"V. c #5E605F",
"C. c #8C1A1C",
"Z. c #8F160D",
"A. c #A51A07",
"S. c #96241D",
"D. c #A6291B",
"F. c #B1260E",
"G. c #891C26",
"H. c #983536",
"J. c #8D2D2F",
"K. c #A72A23",
"L. c #A63937",
"P. c #B3342D",
"I. c #C83C35",
"U. c #CC3529",
"Y. c #B74639",
"T. c #B1522B",
"R. c #B7672D",
"E. c #A4452E",
"W. c #CA4227",
"Q. c #CB5939",
"!. c #D15230",
"~. c #D9693A",
"^. c #CD713A",
"/. c #893B49",
"(. c #973E4B",
"). c #864748",
"_. c #875456",
"`. c #904C50",
"'. c #AA494A",
"]. c #AA5656",
"[. c #B0514F",
"{. c #8D5B65",
"}. c #A55B68",
"|. c #856969",
" X c #80726E",
".X c #827473",
"XX c #847A74",
"oX c #86797C",
"OX c #8B7D7B",
"+X c #887777",
"@X c #947373",
"#X c #B56E6D",
"$X c #BE6D42",
"%X c #CF594E",
"&X c #E65A44",
"*X c #D16A4C",
"=X c #FA795A",
"-X c #ED6D4C",
";X c #EA7361",
":X c #BB833D",
">X c #8E817F",
",X c #CA9557",
"<X c #ED8F5E",
"1X c #D98C70",
"2X c #E9946E",
"3X c #D2B273",
"4X c #F8B174",
"5X c #EFC67C",
"6X c #756E80",
"7X c #897C84",
"8X c #997D80",
"9X c #8C8287",
"0X c #928482",
"qX c #958988",
"wX c #968B96",
"eX c #999299",
"rX c #8F8A90",
"tX c #A89A96",
"yX c #AC8D9A",
"uX c #ACA39D",
"iX c #9A97A5",
"pX c #A39DA4",
"aX c #B5A9A6",
"sX c #BBB8A9",
"dX c #AEA7AD",
"fX c #F1B082",
"gX c #C1BFAD",
"hX c #CAB4AF",
"jX c #EABC98",
"kX c #FED595",
"lX c #F4CF8D",
"zX c #FFE89D",
"xX c #D6CFAF",
"cX c #FFD2A8",
"vX c #FEEBA8",
"bX c #F9E9B7",
"nX c #FFF9B9",
"mX c #F5EBAE",
"MX c #DDD69F",
"NX c #B5BBD0",
"BX c #C3B6C4",
"VX c #FAECC5",
"CX c #FCF4C9",
"ZX c #FFFADB",
"AX c #FFFFE5",
"SX c #C1C1D1",
/* pixels */
"c.sXuXaXhXq.. | aXtXF 6 6 0.hXtXyXhX8XL | hXaXuX7.M.tXaXaXaX7.j k ..t.6 ..qXH 8 n.sXqXj . *.BXrX",
"7.q.0Xb.+X6.f OXOXc...K @ q.uX+Xv.@XyXtX1.0XOX.X@.x.c.OX0Xc.F f O.7.F O.6.l W >X.XXXk.h.X.8.B.c ",
"0X>X7.c.0Xl J b.OX0Xc.j # qX0X XOX+X|.+XL 0.0XM.q.O.c.qX.X6.j k 7.c....Xt.k l.qX.XOXb.OX9X{ e z ",
"b.+X0XK K l 6.c.+X>X6.k # +XOX..OX+X+XOX .j  X Xc.K F +Xk...k # W l ..XXO.8 W .Xb..Xl.M.7XN.m : ",
":.x.0.f 5 F l.+XOXqXc.k.f b.6.O..Xc. Xc.O.1.1.l.OXOX# O.K 6 5 K c.7.6 } h.:.t.>Xl.XX:.XX9Xm.X.; ",
".Xk.K a ..c.c.l.b.OXM.c.5 ..J O.k.>X Xv.1.5. .6.>Xq.O.6 @ F O..Xb.qX| } qXt.q.+Xb.0Xl.| h.X.e u ",
"0.c.6 f .XM.k.c.OX+Xc.6.@ W .X@...7.b.q.1.e.1.5.J 7.5 l q.O.K XXl.l.x.J ..b.W c.l.l..XM.:.g s r ",
"N f 5 O.c.h.x.k.M.c..X7.f .X+X7.k.t.6.w.1.f.{.|.F 9 F q.v.l...Q l.7.l.l.| k.K c.l.l.:.*.o.*.B e ",
"6 6 ..OX.X0.7.l.k.c.c.f J M..Xl.l y.3.L ' 1.' 1.1.P P w.w.v.w.l t.x.x.7.0.q.F | >XO.5 j *.0.s + ",
"6 ( 8.c.x.z.J 7.c.O.F 5 O.c.c. X3.P ! e.1.] r.] 2._.2.2.4.e.w.J 7.h.x.7.....| L J N :.s.z.g + - ",
"f k s.h.7X7Xj K O.F k k L .X|.3.! ! ! {._.2.2.R ).#X_.S S |.|.P O.q.l.9. .9.9.O.j j *.*.X.h < = ",
"0.b t | oX7Xo...k F q. .P e.1.Y R ).#X).T /.H.`.].].U U R _.{.1.' 9.k.9.K v.+.L F k 6 N h H t a ",
"M.qX*.2 :.qXo.k K O.O. .] |.] Y U H.#X'.J.H.E.%X'.L.J.J.A }.}.[ 1.f.e.5.5. .K K *.6.b g X.G 6 + ",
"oXz.oX8.5 *.o.h o.6.1.1.] @X_.T U H.%X[.Y.S.K.P.K.K.K.H.G.].#X`.2.1.P I p D L  .s.k.X.b a g 6 - ",
"z.0Xx.x.( N N f :.O.1.] r.{.`.U J.C.L.%X%XP.D.A.U.U.I.P.S.H.J.}.{.Y S I I P ' | O.s.h.( r - r t ",
"6.k.| z.} t h q.q.1.P ] Y [ ).`.C.Z.D.P.I.&XW.F.U.U.I.W.P.C.G.'.#XT Y Y P Y 1.e.6.0.0.g h M.( ( ",
"( ( s.m.h 4 ..6.v.3.r.)./.(./.[.D.A.A.A.U.&X=X=XW.-X=X!.P.P.K.L.].H.).).2.2.r.f.*.7Xs.s oXwXa . ",
"( X.*.f.t h 0.k.e.4.)./.J.H.L.%X!.W.W.W.!.&X~.W.~.<X<X=X=XW.F.%X*XJ.U U T Y Y  .0.z.{ ( 9XX.( - ",
"G +.8.+.b M G ' 4.`.`.(.G.C.L.Q.~.!.!.~.-X*X^.T.^.4X<X~.~.!.!.=X;XS.A A U T Y P 8.m.B v %.j.*.= ",
"b o.9.( ( 6.J k 4.`.[.'.K.K.%X;X-X~.Q.^.R.R.2XlX4X5X4XT.R.*X~.Q.;XK.S.H.J.T 1.+.' *.s s.j.B B ( ",
"4 4 b 9.*.*.7XP 2.J.J.J.Y.Y.!.Q.*X4XfX2X,X3XkXkXzXzXlX:XR.4X4X^.Q.Y.L.[.'./.] p.%.%.*.a..Xd.( = ",
"7Xz.8.z.o.( f.K Y S U [.*XT.Q.T.$XkXcXkXlXvXvX3X3XvXvX5X5X5XlX:XR.*X%X[.].R D m _ =.p.s.*.B . * ",
"+Xa.J ( ( b F ( ' Z R [.1X*X<X1XfXbXbXbXbXCXVXjXMXmXnXnXvXlXzXlX,X2X2X'.'.[ ' i u p._ d.` . . + ",
"9.8.6.+.N b O { eXf.P R #X1X2XcXVXVXVXbXVXbXCXVXCXCXbXMXbXnXnXvXnXcXcX].C [ yXg.& c >.` v e & r ",
"G d.f.8.( h   &.rXiX=.f 9 4.@XjXxXxXxXZXAXZXZXZXAXAXZXCXAXxXxXxXCX4.Z S Z 5.wX6Xy & d.X.b b v s ",
"p ' s.G h B   < $.NXSXiX7XF 1 # 9 8 Q gXxXgXsXsXsXsXuXtXqXl # # 8 8 F  XqX7X#.B     c B.X._ p.m ",
"' G t G z.&.  % u.g.7XeXuXtX.Xc.n.n.h a H H B B V V d 5 < O x.oXXXtXN.n.,.=.{ r o o { s { g m & ",
".Xg - B m.,.  < ; i z.9X9XrXrXeXdXdXN.rXpXpXpXpXdXdXpXeX) n rXwX9XeXN.<.V . t * * r -.r r o & s ",
"g 4 *.*.a { < X + 2 * 4 O V <.V.j.a.{ 9XeX9X9XrX7X7X9XrX{ s =.{ x V q   .   1 p * o a.m s m.eXm ",
"2 ( z.o.b / d o t 2 t , O < < O q , = B =.#./ ~ ~ ~ ~ B $ X 0 ; ; o   . @ 7 ] ] @ s _ r eXdX) u ",
"g f.M.>.:.,.B x < < g g 4 x x d v d - O = < = o < = O X   X X % %   . 1 R C C Z D o.X._ N.^ %., ",
"f.8.h.s.>.j.V B < r < r , x x d v v d o   < r , x d < = O o $ $ O + 3 C R R 1 7 v.6.*.m.B.d.B.z ",
"x.s.z.z.j.j.p.>.B G = = e r e , e z z 0 o s ) ~ ~ v & $ . o o X O . 1 1 S S 1.L q.x.g m.m.>.m > ",
">.0.{ 8.z.0.p.>.b { - . o o o & = 0 0 = % n z 0 0 y ; $ o . . X - @ Z Y S 1  .7.x.s.- p.%.) e & ",
"r } 8.:.p.s.{ >.G c y . o = : : $ $ $ $ $ y ; X & ; 0 o . . . . a f D p 7 1 F h.0.O., r _ ^ 0 u ",
"8.N.7Xm.j.m.8.8.s b c o , n ~ c o X X o X X % $ $ X = o . . . & { J ' p p @ K } H 0.m.s ^ -.c e ",
"rXa.8.x.j.a.{ B B ( b r u c m e ; % = 0 = $ $ = = % o o o . & y e - + * p + o.6 x.N.x.p.v z u > ",
">.*.0.j.s.&.t s B _ b c = & : 0 = % $ & ; = = ; $ $ o X o X   & ; & * : u ( b 8.N.8.*.d.B.^ ; > ",
"6 *.8.a.( v g B &.( b m z y 0 y u z z z u z s y y y u s u u e y e z n n >.{ , s.h.s.8.&.-.m i w ",
"& _ m.*.o s ) d.X.v _ X.r u e s ) %.p.p.u.d.d.>./ ) { #.=.>.>.>.m.B.=.~ n : &.d.z.z.a.-.%.) i.w ",
"e m ~ ~ =.n B _ &.{ =.%.s m _ B.{ / / %.` -.;.u c ) %.>.{ &.>.p.u.^ ~ z $ c &.d.X.s.>.&._ m e $ ",
"#.& e #.&.n n _ u.%.=._ e %./ %.&./ m m g D i 2 m ) ) #.~ =.=.{ c s =./ s n / >.&.( G *.X.s & & ",
"#.u 0 #.~ n z m #.) ) m z ( z B _ X.X.` m p p p v B n / / %.B : B B %./ b c e B m b B b _ b r e ",
"z e u c ~ #.~ m _ ^ _ ^ ) %.B v X.G G ' M M p p B B ~ &.%.=.~ , %.%./ &.{ B c c s r v r / X.^ r ",
"; _ ~ 0 u ) z ) m m %._ ^ _ %.B v c G ` G D G D ( B B / ^ ) z ) { / &.#._ v ^ / &.^ e s G / c + ",
"n ) n y u e v #.^ e ~ ) ^ / { ~ e / ` G ` D D p G B B / n v z v B { B c B c r / _ { B m &.b : . ",
"m u e : & y ; e e e 0 y e e u e , r 2 2 2 2 i 2 r e 0 e y z ; = < z 0 = r e - s B s : r m , o o ",
"c 0 e : o i & ; : = ; ; & o & o & & : * * * 2 2 + . o : o = , $ .   - & & ; , o + < : r r r g v "
};
