/* XPM */
static char *_6a81a4a756844f9f4dade455f91d26buMHN2jzYnLGUt0oE[] = {
/* columns rows colors chars-per-pixel */
"48 48 254 2 ",
"   c #020003",
".  c #0B0204",
"X  c #04000B",
"o  c #0C020C",
"O  c #0C090A",
"+  c #12040D",
"@  c #150807",
"#  c #060113",
"$  c #0B0413",
"%  c #0C051A",
"&  c #0D0919",
"*  c #0B0815",
"=  c #140512",
"-  c #130B14",
";  c #130B1B",
":  c #1B0D1A",
">  c #1A0716",
",  c #1C131C",
"<  c #191216",
"1  c #1E1807",
"2  c #220D1B",
"3  c #241413",
"4  c #21121D",
"5  c #2B1D1B",
"6  c #27191C",
"7  c #351C19",
"8  c #240F0B",
"9  c #2C221A",
"0  c #3C271B",
"q  c #140D23",
"w  c #1C1322",
"e  c #1C1628",
"r  c #1F1C30",
"t  c #231523",
"y  c #241A24",
"u  c #2A1B26",
"i  c #241B2A",
"p  c #2C1D29",
"a  c #261426",
"s  c #331D2C",
"d  c #241D34",
"f  c #2E1629",
"g  c #2C2223",
"h  c #2C232C",
"j  c #2A282B",
"k  c #332523",
"l  c #32232C",
"z  c #342B2C",
"x  c #3B2D2B",
"c  c #372825",
"v  c #3D312D",
"b  c #2C2533",
"n  c #2D2737",
"m  c #332532",
"M  c #342B34",
"N  c #3A2C35",
"B  c #3C2D39",
"V  c #372937",
"C  c #3C3134",
"Z  c #3C323C",
"A  c #37333A",
"S  c #1F222A",
"D  c #731A06",
"F  c #7F371A",
"G  c #742813",
"H  c #472A2D",
"J  c #47342B",
"K  c #462D38",
"L  c #443433",
"P  c #41343D",
"I  c #4C3C3B",
"U  c #493838",
"Y  c #533C3A",
"T  c #583A36",
"R  c #59322E",
"E  c #65372B",
"W  c #773929",
"Q  c #663C37",
"!  c #773B35",
"~  c #70292D",
"^  c #4D241B",
"/  c #4D413E",
"(  c #53433E",
")  c #5E413B",
"_  c #69443C",
"`  c #784A37",
"'  c #382E42",
"]  c #3D3342",
"[  c #3E3B45",
"{  c #3A3448",
"}  c #423542",
"|  c #453B44",
" . c #4A3B45",
".. c #4B3D4A",
"X. c #473A49",
"o. c #543C44",
"O. c #713E42",
"+. c #4C424C",
"@. c #4A4346",
"#. c #554543",
"$. c #5B4443",
"%. c #53444C",
"&. c #544A4C",
"*. c #5B4B4A",
"=. c #574747",
"-. c #5E524B",
";. c #4B4654",
":. c #544652",
">. c #544B53",
",. c #5B4C54",
"<. c #5B4E59",
"1. c #574B57",
"2. c #5C5254",
"3. c #56525D",
"4. c #5C535B",
"5. c #555156",
"6. c #634C4B",
"7. c #684948",
"8. c #744A48",
"9. c #61524D",
"0. c #63594D",
"q. c #634E56",
"w. c #645453",
"e. c #6B5653",
"r. c #63555B",
"t. c #645A5D",
"y. c #6B5C5C",
"u. c #685856",
"i. c #755A59",
"p. c #765251",
"a. c #6D615E",
"s. c #656059",
"d. c #77655A",
"f. c #5D5763",
"g. c #584D62",
"h. c #645661",
"j. c #645C64",
"k. c #6B5C64",
"l. c #695C69",
"z. c #6E586A",
"x. c #6C6264",
"c. c #6B636C",
"v. c #676268",
"b. c #726463",
"n. c #7A6464",
"m. c #776965",
"M. c #7A6A65",
"N. c #72646B",
"B. c #746B6C",
"V. c #7B6D6C",
"C. c #7D716C",
"Z. c #736671",
"A. c #746C73",
"S. c #7A6C73",
"D. c #786B7A",
"F. c #7C7172",
"G. c #7B737B",
"H. c #777479",
"J. c #6E6B75",
"K. c #9B3217",
"L. c #8E2F11",
"P. c #A93716",
"I. c #853323",
"U. c #853A35",
"Y. c #953429",
"T. c #851F00",
"R. c #9C4318",
"E. c #8D411D",
"W. c #AC451B",
"Q. c #864739",
"!. c #994C30",
"~. c #A94E2F",
"^. c #B46B38",
"/. c #C56A37",
"(. c #CC5635",
"). c #874E47",
"_. c #865A55",
"`. c #8F5652",
"'. c #AA5B4B",
"]. c #91745B",
"[. c #B57A4A",
"{. c #B76C5B",
"}. c #856A69",
"|. c #81726E",
" X c #84786E",
".X c #837473",
"XX c #847975",
"oX c #8B7C7A",
"OX c #857878",
"+X c #916F6E",
"@X c #AB736C",
"#X c #CA5D42",
"$X c #CB744B",
"%X c #E27255",
"&X c #C67565",
"*X c #BE9758",
"=X c #8C827A",
"-X c #91867B",
";X c #B78761",
":X c #A08469",
">X c #D6865A",
",X c #D3854F",
"<X c #E58B56",
"1X c #D39270",
"2X c #F28E71",
"3X c #CAAF75",
"4X c #FDA67A",
"5X c #F2AE75",
"6X c #F8C17D",
"7X c #7D7A82",
"8X c #7B6D84",
"9X c #887983",
"0X c #8E7D8D",
"qX c #8A8487",
"wX c #948583",
"eX c #998C89",
"rX c #999298",
"tX c #958B94",
"yX c #AD9B92",
"uX c #B7A9A7",
"iX c #B1ABB5",
"pX c #B8B3BA",
"aX c #A9A6AB",
"sX c #ADA09C",
"dX c #D39388",
"fX c #F19D86",
"gX c #D6AF95",
"hX c #FFB787",
"jX c #EFB68A",
"kX c #C3B6B4",
"lX c #D7B2A5",
"zX c #F3A6A0",
"xX c #DED09C",
"cX c #FCC989",
"vX c #FCC897",
"bX c #F1CD93",
"nX c #CFC8B6",
"mX c #F8D6A6",
"MX c #E9D7AF",
"NX c #FCE9A7",
"BX c #FFF5B8",
"VX c #FCEAB8",
"CX c #BBBBC4",
"ZX c #D4D1DA",
"AX c #D4CACF",
"SX c #EEDACA",
"DX c #FAEAC7",
"FX c #FFF5C8",
"GX c #FDF6D6",
"HX c #F7E9D7",
"JX c #F8EDE5",
"KX c #FCF5E8",
"LX c #FFF8F6",
"PX c #EADEE2",
/* pixels */
"x.kXuXaXpXy.@ @.uXuXC . 5 9.AXuXyXsXoX*.#.kXuXuXy..XsXkXkXuXw.c k =.m.< ( eXv 8 M.nXeXg = l.AX0X",
"2.*.wXB.V.2.z qXOXF.*.C 3 u.uXeX.X-XeXeX-.-XoXoXw.m.V.wXwX|.L k w.y.L -.u.c L =X XoXa.k.<.l.D.a ",
"wXeX2.V.wXC U b.F.wXV.x 3 wXOXOX-XXXV.V.I u.wX.Xm.=.m.wX.Xw.x c y.XX=.wXC.k m.eX X=XC.qXtXX.4 m ",
"x.XXqXg L v 2.V.OXwXu.k 3 .XV.=.b..X-XeX/ c V.|..XL x |.y.#.x 3 / v =.wXw.9 ( oX X Xb..X9X9X] a ",
"#.F.x.x L @.b.V.oXqXOXV.x .Xu.u.|.|.|.|.9.*.=.m.m.|.@ #.=.5 5 L m.*.5 L |.=.a.=X X=X=.OX9XF.1.: ",
"XXB.I g 2.C.V.b.B..XXXV.c *.I w.m.m.m.m.I #.U U .XoX#.5 3 L =.OX.XwXU U yXm.w.oXC.-XV.&.N.+.> t ",
"a.V.6 z F.V.b.b.S.S.b.w.3 #.m.=.9.9.9.9.9.b.y.y.I =.k x y.w./ C.|.|.|.L #.m.( a..XC.XXF.2.y t : ",
"c c x t.b.y.b.r.y.x.k.w.x |.b.#.e.e.e.p.7.6.Y Y L L U e.m.u.#.u.V.a.b.V.=.-.L b.V.m.*.,.P >.Z t ",
"g 5 *.oXV.w.y.r.k.y.r.k L 0.*.Y T }.+XO.Q p.7.7.T J ) e.m..Xw.k u.M.u.y.y.|.3 #.XX=.6 L 5.c.M - ",
"@ #.y.y.OXV.&.*.r.*.U 6 ( ( 9.i.p._.).! ! ! E _ T T T d.oXw.#.$.U *.$.*.$.y.*.#.x v u.N.A.h + , ",
"< C b.y.oXXX .=.9Xb.L c J 7.yXyX_.).Q.U.@X`.).Q.E Q Q _.i.e.i.M.n.n.$.6.#.u.V.#.5 z 2.2.&.z , - ",
"w.x l r.OXV.&.*.|.q.$.Y J _ lXgXQ.Q.Q.U.Q.'.1XdXW ! ).8.Q 7.6.6.6.6.U Y e.y.a.=.9 c 9 P g @.h z ",
".XoX#.u r.V.*.o.Y 7.p._ R Q gXdXW I.F G I.'.2XfXU.U.! ! @X@X7.R Y 6.6.e.6.u.x 3 *.w.z g @.Z h - ",
"wXV..Xw.I #.I =.$.7.p.8.E ! {.dX{.'.L.E.!.#X2X2X!.I.U.dXdX+X+X) 7.6.7 Y U c 5 *..X.X&.z , g 6 - ",
"b.0XV.B.I L U H ) R _ ` ! ! G !.>X,X~.>X4X2X(.P.Y.I.U.zXdXE 8._ 7 0 H H 6.6.#.y.b.V.N.P < O , < ",
"q.k.o.k.*.m.M.6.i.8.).`.'.I.D D ~.<XcX5X2X%XP.(.%XK.Y.1X{.! ^ Q 0 p.7.7.Y ( $..Xy.a.t.< h G.I z ",
"I o.r.N.,.|.}.Q Q U.{.&X2X#XK.P.L./.<X<X<XL.W.4XhXK.~.~.!.G E E 8.}.}.7.o.U ( w.u.XXk.z wXrXz . ",
"U $.r.k.L 6.7.Q ~ U.Y.K.#X%XK./.^./.$X,X,XL.R.hXhX~.K.L.L.G W E Q 8.8.) o.n.U b.V.F.@.I tX4.@.- ",
"K =.q.q.I ) p.`.Q.L.L.T.W.$XR.>X5X5XcXcXcX6X^.cXcX~.$XR.D I.!.W _.8.p.i.i.n.w.,.F.OXC z 5.B.5.- ",
"L *.q.%.o.T ).@X{.~.L.R.$X4X>X[.*XbXNXNXbX3X>XbXvX[.vX$X!.&XfX&X`.7.7.}.n.|.r.#.&.&.g B.x.Z Z @.",
"g V  .:.r.7.R W 1XfX~.^.1XvXvXjXbXBXBXBXNX3XNXVXmX;XmXvX1X1XhX{.8.q.z.z.9XS.4.qXA , &.t.G.j.@.- ",
"F.j.1.4.l k 8.].@X1X[.[.1XjXBXFXVXFXBXxXxXxXGXFXFXGXMX].gXbX1X` R s K 1.N.Z.A.A.< >.A.A.5.A . + ",
"A.f.+.[ A &.M.d.:XgXbXmXmXmXVXFXMXDXGXDXGXGXGXSXSXKXHXnXDXDX3X` i.q.X.V V c.+.j j 4.4.c.| . . . ",
"t.4.A * 5.qXs.@ 0 ].yXDXGXGXGXGXKXHXHXKXKXKXJXHXPXKXJXKXHX-Xd.8 =.9XZ.a y G.t - v.H.v.>.V 6 - 6 ",
"@.j.M   @.v.rXG.x./ #.-.0.nX=XAXLXKXJXJXKXLXLXLXPXN.4.&.P . P r.z.z.g.a ; V , , A qXc.>.V N M h ",
"| +.j X >.H.aXaXtXz A @.v.@.< z A z j j M A A A Z X i 4.;.l.8XtX0X8Xl.n o u 4 Z t V A c.:.+.j.A ",
"3.Z e o e n 7XH.H.aXZXZXtXM H.G.qXqX7X9XqXqXqXqXj.h [ ZXZXZXqXf.J.g.:.h , y %.H.j.j.| h +.b A - ",
"H.Z w o X * n [ +.| v.qXA.j.pXaXCXpXiXiXpXCXCXCXiX5.* H.J.v.A $ t o -     6 S.N.c.G.j.y u o - h ",
"M b e * * ; $ ; # X $ , n n g.D.J.7X3.;.[ ;.;.[ 3.S * j h *     . O z 9 . z t..Xk.h.j.Z b D.rXB ",
"y | | , w b w ] ] n n ' i $ q d r r $ X # & & # X     X o     O . 1 k 9 < +.| S.h.>.| h rXiX..h ",
"n c.c.M i $ i A [ { ;.g.b # % i e $ % % & # # # X X o o o . o < 9 1 @ 0.=.x.N <.Z.k.:.:.G.| >.w ",
"J.c.v.v.M * , b n b n ' e # d ;.;.n { { n e e n w = o = + . + 3 u.J . ( u.w.r.4.j.j.>.Z.Z.l.Z.b ",
"A.j.v.c.5.Z , $ n { ' d d & q d { d d { ' e q r $ o o + > 2 H H 7 x I =.y.,.k.h.D.l.M N.S.h.B : ",
"l.v.| v.B.4.h w w q ; q & % % % e e e e d q % q $ X o o 6 K K K 6 I l  .x.t.t.k.N.<., h.<...y o ",
", @.v.4.v.v.+.;.# X & e r e % # # # # # % $ # # - o , B o.U 8 @ r.k.l &.2. . .b.<.%.t u ..B : 4 ",
"3.G.7XH.B.H.f.f.# # # # # X X # $ # # % # $ % % # = = + : . @ L B.,.V S.k.N.+. .P j.Z.p Z :.p y ",
"qXl.4.B.c.t.+.[ b & & q $ $ ; # # # $ $ % $ $ $ $ $ o o . . 3 b.S.r.r.N.h.S.,.y S..XA.r.m m u : ",
"4.4.j.c.j.5.h A Z m t t w i : ; $ - $ # # $ ; $ - o o - < h &.t.V.t.r.k.N.Z.B r.F.r.,.h.Z. .= > ",
"i 4.t.j.P A h Z h. .m a 4 ..:.: ] 1.3.f.3.l.c.j.>., h g %.5.t.t.t.r.t.x.k...t k.k.k.r.:.r.P t 4 ",
"- %.H.>.+ A A h...l %.:.4 : 2 m A 4.1.f.>.j.l.h.p y V | >.t.j.r.S.N.2.+.Z y <.k.N.N.h.<.:.+.<.4 ",
", m Z Z >.V ] >.:.,.2.%.p B +.k.+.| | %.} :.%.p l | +.<.>.>.>.<.j.P N h + M <.r.>.c.4.<.:.P u = ",
":.: t ..<.V m +.<.,.,. .4 <.| >.>.| Z P l B f a N | | +.| :.:...M h +.>.h Z  .r.<...} 4.,.l = = ",
":.m t .. .m y B ..|  .B p :.h Z +.:.%. .N s m s V B V | } +.Z - Z Z +.| M M y P B B P B  .m t : ",
"i w p m P ..] m } } ..P } :.| M +.} P +.m m s m B Z Z :.+.:.Z : >.| | @.+.Z V V p t m y P ..B 4 ",
"; X.} 4 p } m X.V m :.X.} ..:.B V m B P B V K B | Z Z | } | b | +.+.4.>...V } | <.| t h } +.l = ",
"A | B a s 4 b >.] w } } } X.+.Z t } } B P m m p Z B Z | V M m M Z >.| V } M u | ..:.P B <.Z > o ",
"A , 4 a 2 a - i a t t a i i h t w i : : : : a 4 y t t y p h : : , m t - y t - h P l : p m : + = ",
"[ M s > > p - & a ; : = = $ - X = = : = = = 2 2 + o o : + = , = X   - o o = , o o , : y u p p 4 "
};
