/* XPM */
static char *e7a4711e63954e5182024b4d8b746560ppNxm9PiCzPvPnF3[] = {
/* columns rows colors chars-per-pixel */
"48 48 256 2 ",
"   c #05000C",
".  c #0B010D",
"X  c #090205",
"o  c #13040C",
"O  c #190609",
"+  c #0C0512",
"@  c #0C0913",
"#  c #060A16",
"$  c #130513",
"%  c #130A14",
"&  c #1A0C14",
"*  c #1B0D1A",
"=  c #150918",
"-  c #0D1419",
";  c #14121A",
":  c #1C121C",
">  c #191417",
",  c #1A110B",
"<  c #260207",
"1  c #380801",
"2  c #270D17",
"3  c #380D14",
"4  c #221313",
"5  c #22141C",
"6  c #2B1C1D",
"7  c #261A18",
"8  c #371612",
"9  c #2B211B",
"0  c #35261B",
"q  c #190823",
"w  c #1C1B23",
"e  c #181A25",
"r  c #1B1F30",
"t  c #231522",
"y  c #241A24",
"u  c #2B1D24",
"i  c #261C29",
"p  c #2B1C2A",
"a  c #25172A",
"s  c #2A1833",
"d  c #300D21",
"f  c #1E2328",
"g  c #2C222B",
"h  c #272429",
"j  c #322525",
"k  c #33242C",
"l  c #3B2C2C",
"z  c #352A2B",
"x  c #3A302B",
"c  c #2D2532",
"v  c #282B34",
"b  c #342432",
"n  c #352A33",
"m  c #3A2C34",
"M  c #3B2C3B",
"N  c #352B3A",
"B  c #2C313E",
"V  c #3C3334",
"C  c #3D323C",
"Z  c #34363C",
"A  c #49101A",
"S  c #7D0600",
"D  c #702B19",
"F  c #422429",
"G  c #5D262A",
"H  c #422B33",
"J  c #572738",
"K  c #423434",
"L  c #42343C",
"P  c #45393D",
"I  c #4A3C3C",
"U  c #493934",
"Y  c #573939",
"T  c #4D352B",
"R  c #632A34",
"E  c #6B3B3B",
"W  c #79373A",
"Q  c #722F2D",
"!  c #481E23",
"~  c #4E423B",
"^  c #54453E",
"/  c #57513E",
"(  c #6B433A",
")  c #774235",
"_  c #6A432B",
"`  c #3C3441",
"'  c #3B3B47",
"]  c #393548",
"[  c #433543",
"{  c #453A42",
"}  c #4A3C44",
"|  c #4B3D4A",
" . c #463849",
".. c #553B49",
"X. c #6A3A44",
"o. c #773947",
"O. c #64364B",
"+. c #3E414F",
"@. c #4D4244",
"#. c #4E424C",
"$. c #44444B",
"%. c #544344",
"&. c #5C4445",
"*. c #5A4A46",
"=. c #52444B",
"-. c #5A4B4C",
";. c #554949",
":. c #494754",
">. c #534452",
",. c #554A53",
"<. c #5A4C53",
"1. c #5B4C59",
"2. c #5A4757",
"3. c #5C5353",
"4. c #5C525B",
"5. c #565456",
"6. c #5A514D",
"7. c #634344",
"8. c #674749",
"9. c #63524E",
"0. c #69514B",
"q. c #664855",
"w. c #774755",
"e. c #635354",
"r. c #655956",
"t. c #63555C",
"y. c #69545B",
"u. c #655A5B",
"i. c #6B5C5C",
"p. c #6A5656",
"a. c #775259",
"s. c #6D615D",
"d. c #686156",
"f. c #74655B",
"g. c #565562",
"h. c #574D65",
"j. c #665A62",
"k. c #6B5D64",
"l. c #695966",
"z. c #705463",
"x. c #5D6370",
"c. c #6D6364",
"v. c #6D656A",
"b. c #736564",
"n. c #756A65",
"m. c #796C66",
"M. c #72656C",
"N. c #756A6B",
"B. c #7B6C6B",
"V. c #7B666A",
"C. c #7D726C",
"Z. c #696673",
"A. c #7B6C73",
"S. c #776975",
"D. c #7E7473",
"F. c #7A747C",
"G. c #96190D",
"H. c #AB1A1D",
"J. c #992712",
"K. c #A92D1A",
"L. c #B43717",
"P. c #B52918",
"I. c #921A28",
"U. c #8B2B2C",
"Y. c #992926",
"T. c #8A382B",
"R. c #953328",
"E. c #872D35",
"W. c #942935",
"Q. c #873538",
"!. c #983935",
"~. c #AC302D",
"^. c #B41D22",
"/. c #C73B33",
"(. c #C72F1E",
"). c #B26119",
"_. c #94453E",
"`. c #AE4837",
"'. c #B86323",
"]. c #C4461C",
"[. c #C9483B",
"{. c #CC523C",
"}. c #D14F30",
"|. c #E1423E",
" X c #D16D30",
".X c #863948",
"XX c #8B3B4C",
"oX c #AA3A49",
"OX c #8C4B4F",
"+X c #B25052",
"@X c #8D5866",
"#X c #87686B",
"$X c #837474",
"%X c #857975",
"&X c #857B7A",
"*X c #8A7C7B",
"=X c #867679",
"-X c #896F70",
";X c #A46E5F",
":X c #DA5844",
">X c #CD4A4A",
",X c #E95347",
"<X c #DD7A53",
"1X c #D06449",
"2X c #F27A58",
"3X c #E9704E",
"4X c #C8776A",
"5X c #EE6363",
"6X c #D18B37",
"7X c #8C827A",
"8X c #92867D",
"9X c #B18E76",
"0X c #BCAD7E",
"qX c #F08E53",
"wX c #D8A856",
"eX c #CF8D6E",
"rX c #FF986E",
"tX c #FDB86B",
"yX c #F7AA6E",
"uX c #E49B55",
"iX c #F9C876",
"pX c #FFD073",
"aX c #777888",
"sX c #7B7E96",
"dX c #8A7C81",
"fX c #7B828D",
"gX c #8B8387",
"hX c #968788",
"jX c #8B8C96",
"kX c #998B92",
"lX c #989296",
"zX c #9C9288",
"xX c #A79594",
"cX c #B8ABAA",
"vX c #BAB2A8",
"bX c #A6A4AB",
"nX c #A8A09D",
"mX c #CBB499",
"MX c #FFB993",
"NX c #C2B6B1",
"BX c #FB9F88",
"VX c #FDDB97",
"CX c #F2D08C",
"ZX c #FEE698",
"AX c #F7E48E",
"SX c #D3C9A3",
"DX c #F4D7AD",
"FX c #FAE6A7",
"GX c #FCEBB7",
"HX c #FFF3B9",
"JX c #FFF1A5",
"KX c #CABDC9",
"LX c #F7EBC6",
"PX c #FBF1D4",
"IX c #FFFAE3",
"UX c #FBDEC1",
/* pixels */
"N.NXcXvXcXc.O P vXcXj 7 O e.NXnXkXcXhXI U cXvXvXu.A.xXvXvXNXk.6 l *.i., *.xXx , i.NXzXj X j.KXkX",
"6.r.&X&XD.i.j *XhXN.I I X e.xX*X=XhXxXhXr.%XD.&X3.b.m.8X8Xm.K 7 e.s.I *.i.l ~ *XC.%Xb.s.;.M.A.t ",
"zXn.;.c.%Xj P *XhXkX$Xl 4 xX*X$XhX-X$X*XK r.gXB.n.3.C.zX$X*.z j i.m.*.*Xb.l m.zX%X%Xm.*XkX#.: i ",
"C.&XhXx z V ;.b.B.*Xu.K 7 $XhXI -X$X#X=XI j b.m.C.I U $Xs.*.K 6 I z ~ 7Xr.6 ^ %Xm.$Xn.B.dXA.b $ ",
"3.D.c.V 9 l b.%X&XkXB.N.l m.i.e.=Xm.$Xb.I *.*.s.C.%X, r.;.7 4 ~ n.9.4 U m.9.i.hXB.%X6.%XhXF.{ = ",
"&XN.I x I N.N.N.b.*X$XD.4 %.@.e.N.*X=XD.I %.I *.8Xm.-.j o K I C.C.8X^ I hXp.p.*X%X7Xb.%.M.=.5 u ",
"3.D., V D.N.r.%X&X%XB.-., ;.b.-.@.3.n.i.e.%.&.8.I ;.j j b.r.x 7XC.m.n.I *.b.I B.B.m.$X$Xr.5 u u ",
"6 h 9 i.%Xi.b.c.N.c.%Xr.l gX$XB.c.N.-.e.e.s.#X0.0.U l y.l.$XK ~ C.s.m.b.^ e.l b.B.b.-.-.@.;.L u ",
"6 7 ;.&XA.3.c.v.@.u.u.V m =XV.M.} M.-.;.i.#X@XOXY 8.q.y.V.A.t.j s.C.B.r.i.m.7 *.*X9.j l e.r.u O ",
", ;.;.i.*XD.@.3.@.,.,.l <.y.z.q...z.t.&.8.w.OXo.E E 8.w.q.2.q.e.9.s.b.i.%.*.*.^ K K r.b.b.k O & ",
"7 j u.s.*XhXI ;.3.,.-.I ..8.q.O.w.a.@Xw.o..X.XQ.OXOX.Xo.R O.8.8.&.8.0.0.p.i.0.^ 9 l e.r.-.n 4 o ",
"b.z > r.A.&X3.<.M.t.y.p.2 a.w.X.X.w.o.o.W E.E.E.+X4X.XQ o.X.Y X.8.X.Y Y e.&.9.*.j z j K m P u 6 ",
"N.&X3.> c.hX,.@.3.e.V.-XJ X.o.X.o.W W Q.E.U.!.U.+X+XXXW W E E E E X.X.7.7.&.*.*.e.e.j 6 -.} u o ",
"hXu.gX3.n <.<.K e.B.*X#XR o.XX.XW Q.Q.U.!.Y.R.Y.Y.R.U.E.E.W W W E X.X.X.7.&.*.*.b.m.-.l 7 k 7 O ",
"k.gXD.b.} m L u t.V.-Xa.o.o.XXOXT.R.R.Y.~.{.{.K.S J.Y.W.W.U.U.E.W W E X.7.8.*.*.i.b.u.K 4 & u 7 ",
"u.k.P r.@.j m t.y.8.8.o.OX.XXX+XR.Y.K.K.L.{.{.G.G.~.~.~.Y.Y.Y.W.E.Q.W W ( 7.7.*.b.s.r.6 k $X%.K ",
"} ;.i.N.P u P =.y.w.o.Q Q.W.+XoXY.~.[.[.{.qXqX XJ. X2X:X~.Y.W.I.W.I.E.OXW ) ( 7.p.*Xi.H =XkXj O ",
"P -.t.l.L m =.y.w.@X+X+X~.Y.Y.Y.H.~.{.3XqXrXyXqX XqXrX3XP.~.G.I.~.~.~.+XT.W ) 8.#XB.P P hX%.P 4 ",
"P <.t.-.L j k 8.w.+X+X>X>X/.^.H.P.P.L.}. X).6XiXtX X X].].}./.[.>X>X>X`.R.T.W 8.#X=Xl k } i.-.& ",
"L <.e.} P <.I F OXQ.R.[.|.,X|.|.}.L.L. X).'.wXpXtXuX X}.].].3X3X5X5X>X~.R.T.W 8.8.<.j N.u.l K } ",
"L k H e.t.=.A.Y ) !.Y.K.P.(.,X,X].].qXyXwXiXAXAXiXiXuX X3X2X X3X{.[.3XK.~.T.OX8.&.u y.t.$Xk.%.2 ",
"$Xt.<.1.=.P k.7.W _.`.1XL.}.:XrXMXyXyXiXCXVXZXAXwXZXwXuXyXqXyXyX<X{.:XL.~.T.Q Y -.-.i.A.<.H o & ",
"A.y.=.} | k L F Q D `.1X1X1XBXMXCXVXFXVXFXHXJXAXJXZXVXVXVXtXCXVXyX<X2XqX`.D ( 9.I e.3.M.P X o O ",
"-.<.-.=.=.m } &.G _.D 4X4XeXDXDXVXCXHXGXGXHXHXFXFXFXFXCXZXFXCXVXVXyX<X<X`.D -XC.9 V ;.@.n 5 & u ",
";.l.t.e.u 5 hXdX@X( 1 ( 9XmXPXUXGXCXFXDXLXLXLXLXLXPXDX0XGXGXGXGXHXDXeX4X_.1 9.N.v.F.% n n n k k ",
"C <.M.L o 5 A.N.zXf.U *.U -XnX#XSXDXSXLXIXIXIXIXIXIXIXLXDXLXmXSXmX9X_ R G T r.6.,.5.% g #.{ 4.V ",
"#.{ g } % . P N.*XhXnXgX& V V , / / f.7X7X7X7X*X8XzX8Xn.U ~ 9 0 9 8.0.T 0.$XN.3.C h . y #.h n @ ",
"j.g 5 n X . h 4.v +.jXjXjXbXbXjXN.4.3.3.,.,.,.,.5 X X z v.v.v.v.N.gX=X=.<.P g g b * & & y   . h ",
"z y =.{ } g X @ # Z g.x.fXsXlXsXjXjXjXbXlXjXjXlXw ' Z.g.aXZ.Z.S.Z.#.c * : $ O 2 2 F J [ N F.gXv ",
"g P k.,.4.m . . e # - v v ] :.x.aXsXaXx.g.aXF.5.e ] ] ] g.$.' ' N i % + * o O < J O.O.q.A.bX` h ",
"} t.S.j.,.C > h $.v h Z e   v v +.h.+.r f v v f - e # - B e - - $ $ $ & O < A R o.A 3 q.z.| :.w ",
"M.N.v.v.c.| : y y Z +.Z v ` $.' ' :.' v # - - # ; # - - B e #   . o & 2 < < 1 A R J J O.2.2.4.N ",
"A.t.k.M.k.k.4.y @ Z f Z v h h B :.v ` 5.B ' $.$.w ; @ @ e     @   o O O 3 G Q R < Y 2.j.l.t.| a ",
"M.M.#.k.S.<.t.4.Z ; Z > ; ; ; ; w v ; gXaXN c i + + . +   +   . @ & < < 3 G G Y U P k t.2.| s q ",
"$ } k.j.k.j.>.c.{ h h ; @ % % @ + ` ; % w         + + +   . + . . o O 3 < R A Y e.@.t p | [ q s ",
"<.=XgXA.j.M.j.4.h Z w y ; w w ; : % % @ + + +           + . + % > 5 H Y ! < 8 ^ %.l.k.p  .h.s q ",
"dXj.4.M.M.j.#.{ m C { ` + : c c g c c i c c c g i y y w c N ` ` C k H O 3 8 8 U A.=XS.j.M b s q ",
",.<.t.v.M.<.p n L { n [ #.+ % : = + . . = + % + = % + + w * $ . * & O < F Y 0 ;.$Xj.1.l.S. .q q ",
"u ,.v.k.=.n b C #.b k y i [ p : . + . . $ + + + + + . . . + + % $ o & < 2 0 7 d.b.k.j.1.h.` s q ",
"& 1.A.t.$ g L t.=.L n } * = = n g | >.[ [ ` ` M g g p i i i g g p p L 2 6 6 x 6.N.M.l.4.2.| h.q ",
"* n { L 1.b m | 4.1.t.1.b [ | k.| [ [ >.| 2.>.i c #.>.4.#.>.,.4.4.C m j o m <.3.=.k.1.1.#.m y = ",
">.y t #.1.n g | 4.,.>.} t 1.[ | 2.[ M M p M p p C |  .#.C ,.,.} g p ,.L u { L t.<.} L <.>.k = % ",
"<.5 * } { b : C >.| | C b <.b M | >.>.[ b p b p M C n C [ #.C = m m =.L n m t L C V L m } n y : ",
"y u k n n #.{ C [ [ [ ` [ <.M b >.[ M | M M b p [ [ C ,.#.#.C : #.=.L =.#.L k u k u m h L | C 5 ",
"& #.L * t L L | m C | | [ >.1.[ N b [ [ M N [ m | [ [ | L } p { | { ,.=.} m L { ,.{ u n L | g % ",
"n { n t p t n >.C p M b [ | >.[ t  .| [  .M n p [ m m C n k g k m =.L n L k y { #.#.m n ,.C * . ",
"k 5 * & . y * b t t * t t t p t : a * * * = t : p t y p u k $ $ : k 5 % u t * g C g & 5 k * o * ",
"5 . * * $ t : * * . = . $ . $ $ = $ * $ $ $ t : * $ $ * . o * . . X * % $ & 5 o . * % : y h g 5 "
};
