/* XPM */
static const char *Y29sbGVjdGlibGU_[] = {
/* columns rows colors chars-per-pixel */
"32 32 139 2 ",
"   c #0B0D0E",
".  c #0E100F",
"X  c #0F1110",
"o  c #121211",
"O  c #131719",
"+  c #211C16",
"@  c #2B2114",
"#  c #25211B",
"$  c #2C251C",
"%  c #30261C",
"&  c #34291C",
"*  c #3B2C1B",
"=  c #0D1C27",
"-  c #111B23",
";  c #0F2538",
":  c #142737",
">  c #12273A",
",  c #14293C",
"<  c #2F2820",
"1  c #312A21",
"2  c #3C3126",
"3  c #412E18",
"4  c #46341D",
"5  c #49361F",
"6  c #413323",
"7  c #4C3720",
"8  c #4C3925",
"9  c #47392B",
"0  c #4B3C2C",
"q  c #543D24",
"w  c #5D4226",
"e  c #5B442B",
"r  c #53402B",
"t  c #4F4030",
"y  c #544332",
"u  c #5A4632",
"i  c #5F4B38",
"p  c #654A2F",
"a  c #664C31",
"s  c #6B4F33",
"d  c #6D5236",
"f  c #755433",
"g  c #7E5A37",
"h  c #72563A",
"j  c #77593C",
"k  c #7A5C3E",
"l  c #182E41",
"z  c #132E46",
"x  c #1F374C",
"c  c #21374A",
"v  c #243D53",
"b  c #103A61",
"n  c #354858",
"m  c #30506E",
"M  c #224B72",
"N  c #484A4B",
"B  c #54595D",
"V  c #725A42",
"C  c #795F45",
"Z  c #7D6144",
"A  c #7B6349",
"S  c #6F6051",
"D  c #555C60",
"F  c #85623F",
"G  c #806246",
"H  c #8B6846",
"J  c #87684A",
"K  c #936C46",
"L  c #906D4B",
"P  c #94704D",
"I  c #9F764F",
"U  c #947353",
"Y  c #9A7654",
"T  c #9C7856",
"R  c #957758",
"E  c #A17B56",
"W  c #A57E59",
"Q  c #9C7E61",
"!  c #AD835C",
"~  c #A5805C",
"^  c #B2875F",
"/  c #9C8166",
"(  c #87837F",
")  c #AE8865",
"_  c #B08760",
"`  c #B48961",
"'  c #BB8E65",
"]  c #B28D69",
"[  c #BB9067",
"{  c #BD9269",
"}  c #B39274",
"|  c #BD9670",
" . c #B9997A",
".. c #C2956B",
"X. c #C5996F",
"o. c #C39062",
"O. c #CDA37C",
"+. c #145089",
"@. c #0C5090",
"#. c #145A9C",
"$. c #24629B",
"%. c #0F5AA1",
"&. c #115EA6",
"*. c #1865AD",
"=. c #1361A9",
"-. c #2F70AC",
";. c #3C76AC",
":. c #2374BF",
">. c #3178BA",
",. c #76838F",
"<. c #6B8FB1",
"1. c #5F9ED8",
"2. c #70A0CD",
"3. c #65A2DC",
"4. c #4F9BE1",
"5. c #72AEE7",
"6. c #999A9A",
"7. c #8495A3",
"8. c #A0AAB4",
"9. c #C3A180",
"0. c #CBAB8D",
"q. c #D5B494",
"w. c #DCBB9B",
"e. c #DAB491",
"r. c #E0BE9E",
"t. c #CABFB5",
"y. c #E5C19F",
"u. c #EAC7A7",
"i. c #EDCCAD",
"p. c #EFCFB0",
"a. c #F0CFB0",
"s. c #F5D3B4",
"d. c #8AC2F6",
"f. c #94CCFF",
"g. c #B8D3ED",
"h. c #D2CDC9",
"j. c #CCE2F6",
"k. c white",
"l. c None",
/* pixels */
"l.l.l.l.l.l.l.l.l.l.l.l.l.l.l.l.l.l.l.l.l.l.l.l.l.l.l.l.l.l.l.l.",
"l.l.l.l.l.l.l.l.l.l.l.l.l.l.l.l.l.l.l.l.l.l.l.l.l.l.l.l.l.l.l.l.",
"l.l.l.l.l.l.l.l.l.l.l.l.l.l.l.l.l.l.l.l.l.l.l.l.l.l.l.l.l.l.l.l.",
"l.l.l.l.l.l.l.l.l.l.l.l.l.l.l.l.l.l.l.l.l.l.l.l.l.l.l.l.l.l.l.l.",
"l.l.l.l.l.l.l.l.l.l.l.l.l.l.l.l.l.l.l.l.l.l.l.l.. o l.l.l.l.l.l.",
"l.l.l.l.l.l.l.l.l.l.l.l.l.l.l.l.l.l.l.l.l.l.l.1 2 # l.l.l.l.l.l.",
"l.l.l.l.l.l.l.l.l.l.l.l.l.l.l.l.l.l.l.4 5 l.l.y T 9 l.l.l.l.l.l.",
"l.l.l.l.l.l.l.l.l.l.l.l.l.l.l.l.l.l.l.a e 4 # Z ` 9 l.l.l.l.l.l.",
"l.l.l.l.l.l.g l.l.l.l.l.l.l.l.l.l.l.e E H & 0 _ Z + l.l.l.l.l.l.",
"l.l.l.l.l.Z T H l.l.l.l.l.l.l.l.l.l.j [ L @ u } B > - l.l.l.l.l.",
"l.l.l.l.l.A q.Q 3 l.l.l.l.l.l.4 5 e W ! a l.u ( ;.$.; l.l.l.l.l.",
"l.l.l.l.l./ s. .e w l.l.l.l.l.p 5 e ' H 4 l.u ,.4.3.m l.l.l.l.l.",
"l.l.l.l.V q.a.w.R f w 4 4 4 7 P 7 e ! e 4 @ e 7.d.j.2.c l.l.l.l.",
"l.l.l.l.A s.i.a.9.Y k a a a s _ d h ! a a r h 6.g.k.f.v l.l.l.l.",
"l.l.l.l.A s.i.i.r.q.] T E E E ' W W ' E E Y W } h.k.f.v l.l.l.l.",
"l.l.l.l.V 0.w.i.i.u.O.` ^ ^ ^ ! ^ ^ ! ` ......' t.j.5.x l.l.l.l.",
"l.l.l.l.l.Z  .p.p.e.X.E K K K K K K H I ......o.8.1.>.l l.l.l.l.",
"l.l.l.l.l.q ] y.w.| Y h p p p g p s F d U U Y Q <.:.&., l.l.l.l.",
"l.l.l.l.l.0 { O.] P u $ $ $ % f & 6 P $ 2 2 8 D -.*.=., l.l.l.l.",
"l.l.l.l.l.9 ' ! j f &   o o o e o $ ~ <     @ n %.#.+.: l.l.l.l.",
"l.l.l.l.l.2 ! J $ 6 l.l.l.l.l.$ o $ ' V   l.* N @.+.z l.l.l.l.l.",
"l.l.l.l.l.& k i   l.l.l.l.l.l.o o $ T W 2 l.8 S M b - l.l.l.l.l.",
"l.l.l.l.l.+ & 1 l.l.l.l.l.l.l.l.l.l.y ' C   y ) N = O l.l.l.l.l.",
"l.l.l.l.l.l.X l.l.l.l.l.l.l.l.l.l.l.$ U V   t _ G + l.l.l.l.l.l.",
"l.l.l.l.l.l.l.l.l.l.l.l.l.l.l.l.l.l.l.2 1 o $ Z ` 9 l.l.l.l.l.l.",
"l.l.l.l.l.l.l.l.l.l.l.l.l.l.l.l.l.l.l.. o l.l.y T 9 l.l.l.l.l.l.",
"l.l.l.l.l.l.l.l.l.l.l.l.l.l.l.l.l.l.l.l.l.l.l.1 2 # l.l.l.l.l.l.",
"l.l.l.l.l.l.l.l.l.l.l.l.l.l.l.l.l.l.l.l.l.l.l.l.. o l.l.l.l.l.l.",
"l.l.l.l.l.l.l.l.l.l.l.l.l.l.l.l.l.l.l.l.l.l.l.l.l.l.l.l.l.l.l.l.",
"l.l.l.l.l.l.l.l.l.l.l.l.l.l.l.l.l.l.l.l.l.l.l.l.l.l.l.l.l.l.l.l.",
"l.l.l.l.l.l.l.l.l.l.l.l.l.l.l.l.l.l.l.l.l.l.l.l.l.l.l.l.l.l.l.l.",
"l.l.l.l.l.l.l.l.l.l.l.l.l.l.l.l.l.l.l.l.l.l.l.l.l.l.l.l.l.l.l.l."
};
