/* XPM */
static const char *ZmluLWFyYnJlLWphdW5l[] = {
/* columns rows colors chars-per-pixel */
"32 32 145 2 ",
"   c #383F17",
".  c #3A3E19",
"X  c #42391C",
"o  c #4C3521",
"O  c #4E3E22",
"+  c #543A25",
"@  c #5A3F28",
"#  c #2E4612",
"$  c #2F4912",
"%  c #334315",
"&  c #3C4717",
"*  c #334C13",
"=  c #3A4D15",
"-  c #3B4419",
";  c #345312",
":  c #3A5511",
">  c #3C5A11",
",  c #435513",
"<  c #445C11",
"1  c #4C5C12",
"2  c #535616",
"3  c #525C14",
"4  c #5D5C16",
"5  c #57591B",
"6  c #5B5A1B",
"7  c #4F660F",
"8  c #51660F",
"9  c #476010",
"0  c #4C6210",
"q  c #536510",
"w  c #586511",
"e  c #566810",
"r  c #5B6A11",
"t  c #626016",
"y  c #646D11",
"u  c #6A6F12",
"i  c #726D1F",
"p  c #7C6A1E",
"a  c #637010",
"s  c #6C7211",
"d  c #757512",
"f  c #797612",
"g  c #757912",
"h  c #7D7912",
"j  c #5D4229",
"k  c #5D492A",
"l  c #69492F",
"z  c #6A4A30",
"x  c #6D5732",
"c  c #745335",
"v  c #785436",
"b  c #735835",
"n  c #7B5638",
"m  c #7F593A",
"M  c #746026",
"N  c #7D6D23",
"B  c #827C13",
"V  c #8B7E16",
"C  c #8C7D1A",
"Z  c #825B3B",
"A  c #917B21",
"S  c #89603D",
"D  c #8D6341",
"F  c #926742",
"G  c #9C6D46",
"H  c #A37249",
"J  c #AA784E",
"K  c #B37C4E",
"L  c #B47E51",
"P  c #858012",
"I  c #8B8213",
"U  c #8D8813",
"Y  c #918613",
"T  c #968913",
"R  c #9C8D13",
"E  c #9D8E13",
"W  c #9E8E13",
"Q  c #988A14",
"!  c #998A15",
"~  c #9B8C14",
"^  c #9D8D14",
"/  c #9E8D14",
"(  c #9E8E14",
")  c #998B13",
"_  c #958318",
"`  c #94841C",
"'  c #9D9014",
"]  c #9E9014",
"[  c #9E9114",
"{  c #A08F14",
"}  c #A0891F",
"|  c #A09014",
" . c #A19214",
".. c #A39314",
"X. c #A39214",
"o. c #A29017",
"O. c #A29217",
"+. c #A49515",
"@. c #A69515",
"#. c #A79615",
"$. c #A89715",
"%. c #A89815",
"&. c #AA9915",
"*. c #AA9815",
"=. c #AB9A15",
"-. c #AA9A15",
";. c #AB9817",
":. c #A99A17",
">. c #AA9A16",
",. c #AC9A15",
"<. c #AC9B15",
"1. c #AD9B15",
"2. c #AD9C15",
"3. c #AE9C15",
"4. c #AF9D15",
"5. c #AC9C16",
"6. c #AE9D16",
"7. c #A3901B",
"8. c #AA9619",
"9. c #B09E16",
"0. c #B19F16",
"q. c #B29F16",
"w. c #B39F18",
"e. c #B2A016",
"r. c #B3A116",
"t. c #B3A116",
"y. c #B4A116",
"u. c #B4A216",
"i. c #B5A316",
"p. c #B5A216",
"a. c #B6A416",
"s. c #B7A416",
"d. c #B7A516",
"f. c #B8A516",
"g. c #B9A517",
"h. c #B9A617",
"j. c #B4A118",
"k. c #978120",
"l. c #9B8224",
"z. c #BB8151",
"x. c #C18655",
"c. c #C48856",
"v. c #CD8D59",
"b. c None",
"n. c black",
/* pixels */
"b.b.b.b.b.b.b.b.b.b.b.b.b.b.b.b.b.b.b.b.b.b.b.b.b.b.b.b.b.b.b.b.",
"b.b.b.b.b.b.b.b.b.b.b.p.f.f.f.f.3.( Y r b.b.b.b.b.b.b.b.b.b.b.b.",
"b.b.b.b.b.b.b.b.b.3.#.#.p.p.f.r.=.) I u < > b.b.b.b.b.b.b.b.b.b.",
"b.b.b.b.b.b.b.b.f.f.3.,.,.=.s.p.| I I I g r 8 b.b.b.b.b.b.b.b.b.",
"b.b.b.b.b.b.b.b.f.p.r.s.f.s.f.f.=.E ) Q Q f e 8 b.b.b.b.b.b.b.b.",
"b.b.b.b.b.b.b.$.9.,.8.j.s.s.r.9.,.~ I Y ) U d f h b.b.b.b.b.b.b.",
"b.b.b.b.b.#.$.,.9.p.} A T ' | | ( ) Q ( | ( ~ Q s ; b.b.b.b.b.b.",
"b.b.b.b.( ,.p.f.f.f.r.l.7.r.p.,.) Y #.3.r.r.T f e ; ; b.b.b.b.b.",
"b.b.b.E ( | r.f.9.9.f.j.w.r.=.U B Q 9.f.,.=.B 0 : * * # # b.b.b.",
"b.b.b.I C k.| #.Q | 3.=.| ` i y g ( =.,.=.I d 0 = * # % # # b.b.",
"b.b.b.b.B C A I d U P d M N d f B h B f s r q < % .   . # # b.b.",
"b.b.b.h I E { Q Y Q Y Y A V d s r q 2 3 8 < ; $ % . % # # # # b.",
"b.b.b.I | =.9.,.| { ) Y I B d s 0 > * & , : : > 1 , * # # # b.b.",
"b.b.b.3.s.s.s.s.p.3.Y h h P s y r 0 < q t 1 7 q 0 < ; $ # b.b.b.",
"b.b.b.3.3.p.f.s.f.f.r.r.p.p.I u f y r d f s y q 9 : $ # b.b.b.b.",
"b.b.b.B ' ,.9.=.p.p.f.f.9.$.Q B h d s y d B f q : $ # # b.b.b.b.",
"b.b.b.g =.3.3.Q _ $.3.' ' ) P s f h d u r s u , & * # # b.b.b.b.",
"b.b.b.d Y #.| T p V Q ) ) E Q U h d y 0 0 0 , * * = ; $ b.b.b.b.",
"b.b.h U Q E Y B u V ) ( ( Q ) B r 0 0 9 9 : * # * ; ; ; # b.b.b.",
"b.b.f ) Q Y ~ h f f h I I B h u 0 0 : ; ; ; $ % X * ; ; $ b.b.b.",
"b.b.b.P a y u r e < 0 u u 0 1 < > : ; = ; ; $ . X - % # # b.b.b.",
"b.b.b.b.b.< ; > = & < > : : < q 0 > $ % % % - X % % # # b.b.b.b.",
"b.b.b.b.b.b.b.b.* 2 4 w e 8 8 8 < : % - X X . % # b.b.b.b.b.b.b.",
"b.b.b.b.b.b.b.b.b.h h h d 6 5 , * - x b - % b.b.b.b.b.b.b.b.b.b.",
"b.b.b.b.b.b.b.b.b.b.b.b.b.j z k O j n b b.b.b.b.b.b.b.b.b.b.b.b.",
"b.b.b.b.b.b.b.b.b.b.b.b.b.z m m c + j b.b.b.b.b.b.b.b.b.b.b.b.b.",
"b.b.b.b.b.b.b.b.b.b.b.b.b.n F F D + + b.b.b.b.b.b.b.b.b.b.b.b.b.",
"b.b.b.b.b.b.b.b.b.b.b.b.b.Z L J G @ o b.b.b.b.b.b.b.b.b.b.b.b.b.",
"b.b.b.b.b.b.b.b.b.b.b.b.b.S c.x.H + o b.b.b.b.b.b.b.b.b.b.b.b.b.",
"b.b.b.b.b.b.b.b.b.b.b.b.c K v.v.H + o o b.b.b.b.b.b.b.b.b.b.b.b.",
"b.b.b.b.b.b.b.b.b.b.b.b.K v.L v.z.l + @ @ b.b.b.b.b.b.b.b.b.b.b.",
"b.b.b.b.b.b.b.b.b.b.b.b.K G F K K v + + b.b.b.b.b.b.b.b.b.b.b.b."
};
