/* XPM */
static char *result[] = {
/* columns rows colors chars-per-pixel */
"32 32 96 2 ",
"   c #3B3E19",
".  c #47341F",
"X  c #403A1C",
"o  c #4C3521",
"O  c #4C3C22",
"+  c #503723",
"@  c #533B25",
"#  c #5A3F28",
"$  c #2E4613",
"%  c #2F4912",
"&  c #354316",
"*  c #3C4617",
"=  c #324C12",
"-  c #384816",
";  c #3E4618",
":  c #345212",
">  c #3A5611",
",  c #3C5911",
"<  c #444D16",
"1  c #425413",
"2  c #4B5615",
"3  c #425D11",
"4  c #4A5D12",
"5  c #545B14",
"6  c #695C1F",
"7  c #476110",
"8  c #4C6210",
"9  c #536411",
"0  c #5B6314",
"q  c #576810",
"w  c #5C6B11",
"e  c #646515",
"r  c #636D11",
"t  c #696D12",
"y  c #736D15",
"u  c #73661C",
"i  c #786A1B",
"p  c #6B7111",
"a  c #747413",
"s  c #7A7612",
"d  c #777912",
"f  c #7C7912",
"g  c #5E422A",
"h  c #62442C",
"j  c #63492C",
"k  c #6D4C31",
"l  c #704F33",
"z  c #7B5536",
"x  c #7C5739",
"c  c #7E583A",
"v  c #847D13",
"b  c #887F14",
"n  c #81761D",
"m  c #8D7C1B",
"M  c #825B3C",
"N  c #897522",
"B  c #957D23",
"V  c #937828",
"C  c #89603F",
"Z  c #8C6341",
"A  c #916642",
"S  c #956944",
"D  c #9C6C45",
"F  c #9D6E48",
"G  c #A06F47",
"H  c #A5734B",
"J  c #A9774E",
"K  c #AB794F",
"L  c #B37D50",
"P  c #858212",
"I  c #8D8313",
"U  c #928613",
"Y  c #998716",
"T  c #968913",
"R  c #9B8C13",
"E  c #968518",
"W  c #9E8C1A",
"Q  c #9C9215",
"!  c #A18B1F",
"~  c #A49414",
"^  c #A89715",
"/  c #A79815",
"(  c #AC9B15",
")  c #AA931F",
"_  c #B09E16",
"`  c #B19D1A",
"'  c #B4A216",
"]  c #B9A516",
"[  c #B5A01A",
"{  c #9B8420",
"}  c #C28654",
"|  c #C48856",
" . c #CA8B57",
".. c #CE8E59",
"X. c #D08F5A",
"o. c None",
/* pixels */
"o.o.o.o.o.o.o.o.o.o.o.o.o.o.o.2 o.o.o.o.o.o.o.o.o.o.o.o.o.o.o.o.",
"o.o.o.o.o.o.o.o.o.o.I ~ ~ T Q P I R R T r o.o.o.o.o.o.o.o.o.o.o.",
"o.o.o.o.o.o.o.o.o.R ^ ] ' _ ] ' ( ~ T I P 9 o.o.o.o.o.o.o.o.o.o.",
"o.o.o.o.o.o.o.o.r T ~ ^ _ ] _ ( ( W T U f 8 : o.o.o.o.o.o.o.o.o.",
"o.o.o.o.o.o.o.I s ^ ' _ ' ] ' ' ( ~ m u 6 7 q p o.o.o.o.o.o.o.o.",
"o.o.o.o.o.o.U ~ _ _ ' ( ( ] ] ( Q R U u a d v I T o.o.o.o.o.o.o.",
"o.o.o.f U E N W _ ' ' ' ( ^ ~ U U U U b I I T I d w 8 , o.o.o.o.",
"o.o.T T ( ( W V ! _ ( ( ~ b U b s v R R R R R U a 3 7 , = o.o.o.",
"o.o.W ( ' ( ` ) _ ~ ^ ~ R R R b e y m R U P p w 8 3 7 , : o.o.o.",
"o.v I ' ' ] ] ] ' _ ' ( R U b f 0 6 u v d w 7 , , 8 7 > = % o.o.",
"o.a n ( ( ` ] ' ( ] ~ I T R R T u i I R P w 7 , , , > : : % $ o.",
"o.e m W B m ^ ( T I r t y U U T E T R Q v d p q , = : : % $ $ o.",
"o.v T R B N I I f t 4 5 y b b U R W U f r p r 8 , : = = % $ o.o.",
"o.r f I W N E E 6 4 2 4 9 t p w r 9 4 3 8 8 3 % & & : : = $ o.o.",
"o.9 w d T U R R p 3 ; < - 3 3 > 1 9 9 9 9 8 7 % $ & - - & $ $ o.",
"o., 8 d R T R R T f p 5 t t 9 p p f t 7 8 8 , % %     & $ $ $ o.",
"o.- t f b I T T T R U s f s p f s t 4 , 7 , > : = - : : % $ $ o.",
"o.o.8 0 p d s b b I s d a 9 w w 8 = = 3 7 9 8 7 3 : : = $ $ o.o.",
"o.o.$ = 9 e 5 9 e a a 9 > - > : : : > 8 9 7 3 , , : % $ $ o.o.o.",
"o.o.o.= = - & < 1 4 8 = : : : : = * = , 1 : : : : % $ o.o.o.o.o.",
"o.o.o.o.o.o.- < 8 9 3 3 8 3 : $ = & & & & = = $ % o.o.o.o.o.o.o.",
"o.o.o.o.o.o.o.8 4 8 8 8 3 > = *   &   X & $ $ $ o.o.o.o.o.o.o.o.",
"o.o.o.o.o.o.o.o.o.o.: = & $   o   &   . . o.o.o.o.o.o.o.o.o.o.o.",
"o.o.o.o.o.o.o.o.o.o.o.o.O - O @ O o o o o o.o.o.o.o.o.o.o.o.o.o.",
"o.o.o.o.o.o.o.o.o.o.o.o.# j h @ h g + @ o o.o.o.o.o.o.o.o.o.o.o.",
"o.o.o.o.o.o.o.o.o.o.. + M Z M k x k @ g o o o.o.o.o.o.o.o.o.o.o.",
"o.o.o.o.o.o.o.o.o.o.z G L A D C Z M # h g o o o.o.o.o.o.o.o.o.o.",
"o.o.o.o.o.o.o.o.o.o.....G H | A F S l g h # o.o.o.o.o.o.o.o.o.o.",
"o.o.o.o.o.o.o.o.o.o.o.G A  .| k Z K F h # h o.o.o.o.o.o.o.o.o.o.",
"o.o.o.o.o.o.o.o.o.o.o.o.o...D o k J H o.o.o.o.o.o.o.o.o.o.o.o.o.",
"o.o.o.o.o.o.o.o.o.o.o.o.o.o.o.o.o.o.o.o.o.o.o.o.o.o.o.o.o.o.o.o.",
"o.o.o.o.o.o.o.o.o.o.o.o.o.o.o.o.o.o.o.o.o.o.o.o.o.o.o.o.o.o.o.o."
};
