/* XPM */
static char *result[] = {
/* columns rows colors chars-per-pixel */
"32 32 116 2 ",
"   c #273F1C",
".  c #2A3F1D",
"X  c #323B1E",
"o  c #3A391E",
"O  c #473520",
"+  c #4C3421",
"@  c #4D3A23",
"#  c #503723",
"$  c #543A25",
"%  c #593E27",
"&  c #5B3F28",
"*  c #13461A",
"=  c #1C441B",
"-  c #134C1A",
";  c #1B4C1B",
":  c #0F581C",
">  c #12541B",
",  c #19561A",
"<  c #115C1B",
"1  c #1B5C1B",
"2  c #23411C",
"3  c #2C441E",
"4  c #25491D",
"5  c #2A4B1E",
"6  c #24541B",
"7  c #2B561B",
"8  c #235A1C",
"9  c #0F661C",
"0  c #11631B",
"q  c #1C6319",
"w  c #1B6B1A",
"e  c #246416",
"r  c #246E17",
"t  c #2A6B16",
"y  c #246319",
"u  c #2C6418",
"i  c #236C18",
"p  c #31671E",
"a  c #3B661B",
"s  c #35691C",
"d  c #386F1D",
"f  c #267317",
"g  c #2D7516",
"h  c #2F7A17",
"j  c #237218",
"k  c #2D7D18",
"l  c #317515",
"z  c #3D7315",
"x  c #347B15",
"c  c #3B7E13",
"v  c #3A7318",
"b  c #3E4223",
"n  c #3B5E20",
"m  c #4D671D",
"M  c #4E691E",
"N  c #47741F",
"B  c #4E771A",
"V  c #447C1B",
"C  c #4B7E19",
"Z  c #5E422A",
"A  c #62452C",
"S  c #654B2F",
"D  c #69492F",
"F  c #6E4D32",
"G  c #714F33",
"H  c #765336",
"J  c #7B5738",
"K  c #7D5839",
"L  c #4D6421",
"P  c #5F7F22",
"I  c #637C26",
"U  c #855D3C",
"Y  c #8C623F",
"T  c #8B6240",
"R  c #936743",
"E  c #956945",
"W  c #9A6C47",
"Q  c #A3734A",
"!  c #A9774F",
"~  c #AA784F",
"^  c #B47D4F",
"/  c #3C8314",
"(  c #3F8C17",
")  c #428214",
"_  c #458B14",
"`  c #498E13",
"'  c #4C8518",
"]  c #4B8918",
"[  c #5A861E",
"{  c #5F8D1E",
"}  c #469215",
"|  c #4B9313",
" . c #4E9A13",
".. c #519316",
"X. c #529C14",
"o. c #5B9E15",
"O. c #57A114",
"+. c #5BA414",
"@. c #5FA814",
"#. c #62A615",
"$. c #64AB15",
"%. c #69AE15",
"&. c #63A019",
"*. c #6FA21C",
"=. c #6EA919",
"-. c #75A31D",
";. c #6DB115",
":. c #71B416",
">. c #5E8520",
",. c #6C8327",
"<. c #668C21",
"1. c #688E21",
"2. c #BB8252",
"3. c #C08553",
"4. c #CE8E59",
"5. c None",
/* pixels */
"5.5.5.5.5.5.5.5.5.5._  .O._ ( k l |  . ./ 5.5.5.5.5.5.5.5.5.5.5.",
"5.5.5.5.5.5.5.5.5. .X.%.%.#.:.$.+.O.X.} ( w 5.5.5.5.5.5.5.5.5.5.",
"5.5.5.5.5.5.5.5.5.( O.%.$.:.;.$.%.O. .| | j : 5.5.5.5.5.5.5.5.5.",
"5.5.5.5.5.5.5.5.w } @.@.$.:.:.;.%.O...] d q < 5.5.5.5.5.5.5.5.5.",
"5.5.5.5.5.5.5.X._ o.;.;.%.:.:.:.#.+.| m a w j x } 5.5.5.5.5.5.5.",
"5.5.5.5.5.) ' X.:.%.%.%.+.%.:.$. .X. .B c c | _ } / 9 5.5.5.5.5.",
"5.5.5./ | o.>.[ *.:.:.;.%.o.| ` _ ` |  .| ` |  .k w 9 < - 5.5.5.",
"5.5.X...$.%.#.,.1.$.@.+.+.` `  .x c |  .X.X. .| c q < < - 5.5.5.",
"5.5.X.+.;.%.;.-.;.@.+.@.X. . .| p s C | | ( k w q < 0 < - * 5.5.",
"5.5._ #.;.:.:.;.;.;.%.;.X. ._ / w n m V / w 0 : : 9 0 < > * 5.5.",
"5.x N &.#.=.:.;.%.:.@.} |  . . .V m _  .| f 1 : : > > > : - * 5.",
"5.e V <.<.I o.%.X.| x r z _  .| ....| X.| x x w < > > > - * * 5.",
"5.) | X.{ I ` | ) x 0 8 a _  ._  .X. ._ k w g w < > - - * * * 5.",
"5.5.x ` X.I [  .v 8 1 8 w g x l c x t q 0 0 0 - ; - - ; ; - 5.5.",
"5.5.i h } | ..X.h 6 4 5 - > 0 > - , 1 0 9 0 9 - *   - ; 2 * * 5.",
"5.< 9 j  .| | X. ./ y 5 7 i 0 i r x x 0 9 9 < > * = X 3 = * * 5.",
"5.- 1 x |  .X.X. .|  .x x / j x c / l > : 0 < > - 2 3 - - * * 5.",
"5.5.t l h x / } ` | } c c g j l l 8 ; > < 9 < < > > > : - * 5.5.",
"5.5.; > i x l l x / x f t , 0 1 > > > < 9 0 9 9 : < - * * * 5.5.",
"5.5.5.* , 7 6 ; 7 u g q - - > > > 4 > < 0 < > > > > - * * 5.5.5.",
"5.5.5.5.5.; ; 3 > < < > > < > - - ; = > ; ; > - > * * 5.5.5.5.5.",
"5.5.5.5.5.5.- ; 1 9 0 < 9 < > - = =   2 2 * - * * 5.5.5.5.5.5.5.",
"5.5.5.5.5.5.5.0 0 < 0 < < > - . X   * o X = * * 5.5.5.5.5.5.5.5.",
"5.5.5.5.5.5.5.5.5.5.> - 2 * . O X = X O + 5.5.5.5.5.5.5.5.5.5.5.",
"5.5.5.5.5.5.5.5.5.5.5.5.@ 3 b $ $ @ + + + 5.5.5.5.5.5.5.5.5.5.5.",
"5.5.5.5.5.5.5.5.5.5.5.5.$ S Z & Z D + $ + 5.5.5.5.5.5.5.5.5.5.5.",
"5.5.5.5.5.5.5.5.5.5.5.+ F R J H H J # A $ + + 5.5.5.5.5.5.5.5.5.",
"5.5.5.5.5.5.5.5.5.5.D U ^ W R T Y U Z Z A + + 5.5.5.5.5.5.5.5.5.",
"5.5.5.5.5.5.5.5.5.5.4.4.2.R 2.Q E E H $ A Z + 5.5.5.5.5.5.5.5.5.",
"5.5.5.5.5.5.5.5.5.5.5.2.Y 2.4.Y U ! Q F & A 5.5.5.5.5.5.5.5.5.5.",
"5.5.5.5.5.5.5.5.5.5.5.5.5.4.3.A Z Q ! U 5.5.5.5.5.5.5.5.5.5.5.5.",
"5.5.5.5.5.5.5.5.5.5.5.5.5.5.5.+ # 5.5.5.5.5.5.5.5.5.5.5.5.5.5.5."
};
