/* XPM */
static char *_a8a54394bf64d94d138f3c7171b27efSxh02a0TYg8jImLO[] = {
/* columns rows colors chars-per-pixel */
"64 64 255 2 ",
"   c #19060B",
".  c #0E0016",
"X  c #1A0719",
"o  c #1B180E",
"O  c #240B19",
"+  c #261419",
"@  c #2E2B19",
"#  c #0D0526",
"$  c #130A2B",
"%  c #180626",
"&  c #1A0A34",
"*  c #181634",
"=  c #23022B",
"-  c #27092A",
";  c #281529",
":  c #371C2D",
">  c #290636",
",  c #340A38",
"<  c #2A1537",
"1  c #371939",
"2  c #30052C",
"3  c #1B2A3D",
"4  c #372829",
"5  c #3B2334",
"6  c #392637",
"7  c #31312C",
"8  c #1E2F0E",
"9  c #44362C",
"0  c #432A38",
"q  c #483739",
"w  c #503D37",
"e  c #1A4E3A",
"r  c #1D543B",
"t  c #25573A",
"y  c #375532",
"u  c #356B32",
"i  c #314513",
"p  c #434F15",
"a  c #4C4228",
"s  c #55473B",
"d  c #4B4E37",
"f  c #625B38",
"g  c #556D30",
"h  c #656E36",
"j  c #576E14",
"k  c #1D184A",
"l  c #290B46",
"z  c #360B46",
"x  c #291747",
"c  c #3B1C43",
"v  c #371648",
"b  c #381952",
"n  c #2C1851",
"m  c #272646",
"M  c #3B2546",
"N  c #393A58",
"B  c #2E2F52",
"V  c #3A3D63",
"C  c #1D334E",
"Z  c #431849",
"A  c #451955",
"S  c #462949",
"D  c #4B3646",
"F  c #533A48",
"G  c #462855",
"H  c #562B59",
"J  c #493655",
"K  c #563957",
"L  c #532D46",
"P  c #473865",
"I  c #553565",
"U  c #512F69",
"Y  c #643969",
"T  c #603357",
"R  c #1D5345",
"E  c #1E445A",
"W  c #1D5355",
"Q  c #17535F",
"!  c #1C535B",
"~  c #1D5B5E",
"^  c #1B5754",
"/  c #194A4C",
"(  c #295649",
")  c #22455B",
"_  c #234B5D",
"`  c #284758",
"'  c #245454",
"]  c #22555D",
"[  c #29535B",
"{  c #215B5E",
"}  c #295858",
"|  c #354758",
" . c #336849",
".. c #1B5562",
"X. c #1B5A61",
"o. c #1D556A",
"O. c #1B5A68",
"+. c #1E4C68",
"@. c #274C65",
"#. c #364864",
"$. c #255461",
"%. c #225A61",
"&. c #225D6B",
"*. c #2A5566",
"=. c #345566",
"-. c #325871",
";. c #1F6065",
":. c #23616D",
">. c #276269",
",. c #366066",
"<. c #5A4B44",
"1. c #574748",
"2. c #585547",
"3. c #484558",
"4. c #5A4857",
"5. c #52504C",
"6. c #655749",
"7. c #64495A",
"8. c #68565A",
"9. c #735C59",
"0. c #634C4A",
"q. c #566E4F",
"w. c #686849",
"e. c #6B6B5C",
"r. c #686556",
"t. c #766858",
"y. c #78745A",
"u. c #6F734C",
"i. c #474665",
"p. c #5A4766",
"a. c #524F71",
"s. c #664965",
"d. c #6C5363",
"f. c #695766",
"g. c #735A68",
"h. c #6D5174",
"j. c #776767",
"k. c #787566",
"l. c #746272",
"z. c #7A6775",
"x. c #7C7777",
"c. c #6D6869",
"v. c #85785C",
"b. c #826E5C",
"n. c #867968",
"m. c #856E79",
"M. c #877779",
"N. c #8B7575",
"B. c #59870A",
"V. c #6B960A",
"C. c #739716",
"Z. c #6B9315",
"A. c #72A70D",
"S. c #588D36",
"D. c #769426",
"F. c #739036",
"G. c #75AA2B",
"H. c #7BC22A",
"J. c #5A904E",
"K. c #6F944E",
"L. c #6FAA50",
"P. c #7C8773",
"I. c #77AB74",
"U. c #539165",
"Y. c #7AC548",
"T. c #8BB81A",
"R. c #84AF12",
"E. c #98BD2C",
"W. c #8AB52D",
"Q. c #90C519",
"!. c #99C726",
"~. c #99D228",
"^. c #91CB36",
"/. c #AADA28",
"(. c #A9DA39",
"). c #ABD630",
"_. c #B5E630",
"`. c #ABDF1E",
"'. c #C3F139",
"]. c #859847",
"[. c #949558",
"{. c #8DAE4E",
"}. c #888669",
"|. c #98976B",
" X c #898777",
".X c #978977",
"XX c #969577",
"oX c #928E6E",
"OX c #A7997C",
"+X c #A08F71",
"@X c #90AA78",
"#X c #A9A675",
"$X c #A5BF52",
"%X c #95CD4B",
"&X c #ACD74C",
"*X c #B9E448",
"=X c #B8EC50",
"-X c #ACCC65",
";X c #BCEE6E",
":X c #9ADC62",
">X c #C7EB55",
",X c #C9F759",
"<X c #D4FB5D",
"1X c #CCF648",
"2X c #C9FA65",
"3X c #D6FA69",
"4X c #CBEF70",
"5X c #E3FD76",
"6X c #CBDD7E",
"7X c #777282",
"8X c #856885",
"9X c #897885",
"0X c #907990",
"qX c #7F8482",
"wX c #8A8587",
"eX c #998988",
"rX c #9A9386",
"tX c #9A8798",
"yX c #9E9992",
"uX c #A69888",
"iX c #A99996",
"pX c #AD988D",
"aX c #87B587",
"sX c #A5A887",
"dX c #B9A989",
"fX c #AAA896",
"gX c #B5AC9A",
"hX c #B9B498",
"jX c #BEB589",
"kX c #AC96A9",
"lX c #BAB6A6",
"zX c #B7A9A9",
"xX c #C5B79A",
"cX c #C4BC8C",
"vX c #C2ADA6",
"bX c #C6BAAD",
"nX c #BBC79D",
"mX c #CCC597",
"MX c #D2E586",
"NX c #DDF394",
"BX c #D2F588",
"VX c #E4FD85",
"CX c #E6FC95",
"ZX c #C9C8A8",
"AX c #D9DABA",
"SX c #D1CDB2",
"DX c #E3D9B6",
"FX c #D8FFAB",
"GX c #E6FFB3",
"HX c #E4FFAA",
"JX c #D6D7C7",
"KX c #E4DEC3",
"LX c #F6FAD8",
"PX c #EBEEC8",
"IX c #FCFDE2",
/* pixels */
"! ! ! ! ! ! ! ! ! ! ! ! ! W ! ! _ +.+.+.@.@.$.] ............! ! ] ] ] ! ! ! ] $.@.@.@.E *.} ' ' ' } } [ [ [ $.[ ] ] ! ! ! ! ! ! ",
"! ! ! ! ! ! ! ! ! ! ! ! ! W W ! _ ] $.$.] ' ' ' >.{ ! W ^ ^ ^ W ^ ' ' ' ' } } } / } } ' ' ' ' ' ' } } [ [ [ [ [ ] ! ! ! ! ! ! ! ",
"! ! ! ! ! ! ! W W W W ! ! W W W / R ( ( t t t t t t e e e e e e r R R R e e e e t t t e t t t ( ' [ [ [ [ [ [ ] ] ] ! ! ! ! ! ! ",
"! ! ! ! ! ! W W ^ ^ W W W W R R q.J.K.L.L.L.L.L.K.L.I.I.I.I.I.I.aXaXaXaXaXaXaXaX@XK.S.J.J.J.g  .( } [ [ [ [ $.] ] ] ! ! ! ! ! ! ",
"! ! ! ! ! ! ! W W ^ { ~ ^ R  .u L.%X^.^.^.&X&X&X;X;XBXBXFXFXFXFXGXGXGXGXGXGXGXHXBX;X;X;X;X:XS.g  . .} ' ] *.$.$.] ] ] ] ] ] ] ] ",
"! ! ! ! ! ! ! W ' R ^ ^  .U.L.L.^.~.!.).,X,X,X>X=X=X>X4X4XBXMXMXMXMXMXMX6XMXMX6X>X=X2X2X3X=XV.B.S.q.u  .} } $.$.] ] ] ] ] ] ] ] ",
"! ! ! ! W W ! W r r t r u L.Y.G.Q.R.T.2XVXVXVX5X*X>X>X4XVXVXNXNXNXNXNXNXMXNXMX-X&X=X2X2X,X,XT.W.^.G.L.L.U. .} } ] ] ] ] ] ] ] ] ",
"! ! ! ! W ! W R  .J.L.J.S.G.^.Q.Q.Q.T.^.=X;X;X>X>X1X<X3XVXVXCXCXCXCXCXCXCXCX6X$X^.&X*X(.(.!.T.~.~.H.^.:XL.u u e ' ] ] ] ] ] ] ] ",
"........X.%.} u L.%XH.^.~.~.(.,X3X2X2X&X^.~.(._.1X1X1X>X5XVXVXVXVX5X5XVXVX5X5X5X*X*X*X*X*X!.!.(.=X=X(.(.%X{.L.u ( ] ] ] ] ] ] ] ",
"........X.' ( u G.^.V.V.Q.~.*X,X2X2X2X(.~././.`./._.'.1X,X<X3X3X3X3X>X>X>X3X5X5X<X<X<X<X*X!.!.(.=X,X=X=X;X%XG.g ( ] ] ] ] ] ] ] ",
"......~ ^ R g F.Z.B.V.A.Q.!.!.*X*X=X=X~.Q.~.~.!./.).).).).)._._.1X_._././.'.1X1X,X,X,X,X*XR.R.(.,X<X*X^.G.D.S.u ( ] ] ] ] ] ] ] ",
"! ! X.~ ^ r J.F.B.B.Z.B.B.V.V.A.T.T.Q.A.V.V.A.T.A.T.!.!.Q.!./././././.`._.'._.~.!.E.E.E.E.R.A.T.!.E.C.D.F.F.u.5.' ] ] ] ] ] ] ] ",
"^ ^ X.X.o.'  .g g j j j j Z.D.C.Z.V.V.V.C.V.C.C.C.V.R.).*X(.(.T.R.R.Q./._./.(.!.G.G.W.E.E.W.G.G.C.D.j g h w.2.5.[ [ [ [ [ ] ] ] ",
"^ ^ ~ X.o.] ( y d p p g j h F.F.F.F.F.F.D.D.D.D.C.C.W.%X&X&X&XG.Z.W.&X*X>X=X4X-X{.{.{.{.{.].].].].].f s 5.3.3.i.[ [ [ [ [ [ ] ] ",
"^ ^ ^ ~ &.] ( 7 7 @ a h h u.w.d f f g g g g F.F.D.D.D.F.F.K.K.g g h ].$X-X-X#X|.}.y.t.t.y.r.r.t.v.n.4.J p.P P a.=.] ] ] ] ] ] ] ",
"^ ^ ^ ~ %.] ' 3 ; 4 a f w.u.d   o o o o o 8 }.[.F.D.j p i 8 7 7 7 8 p F.].K.w.d F 5 - - O X X - ; 5 < l > & b a.*.] ] ] ] ] ] ] ",
"] ! ! ! %.] ] ` ; + 9 f w.y.e.6 ; : ; 6 + q M. Xu.K.u.u.d 7 | 3.3.5.y.#X#X#X}.2.m.8XH v c 1 c v c s.h.A A v B | $.] ] ] ] ] ] ] ",
"] ] ] ] ! ! ] [ M ; s w.6.<.1.1 ; f.f.f.; ; 6 + @ }.sXlXwX3.3.a.i.4.y.#X|.|.}.<.s.I b G K K I P I Y U A A b V -.$.] ] ] ] ] ] ] ",
"] ] ] ] ! ! ] [ N < 6 6 6 - % % S kXkXtX1 - 1 : 7 oXgXlXwX3.N 3.3.4.y.#X[.|.}.1.S v > G 9Xx.x.7Xc l z > , v N =.$.{ { { { { ] ] ",
"] ] ] ] ! ! ] [ N m < M c > - - J kX0X0XS ; S D 2. XrXzXz.4.p.3.K 4.y.#X[.|.n.1.1 z > M wXP.P.x.M > z z z b V #.$.{ { { { { ] ] ",
"] ] ] ] ] ] ] [ | 3 < c , 2 = - J kXtX0X1 - 1 6 D 9XkXzX9Xl.p.s.h.d.y.OX#XOXN.F , , > M z.x.P.wXJ z A z z v V #.$.{ { { { { { ] ",
"] ] ! ] ! ] ! ] | m & > , = % % M 8Xz.z.1 X O O : K K 4.K K J K J 4.0.9.6.9.8.1 2 , > M c.r.5.4.G z b z z v V #.$.{ { { { { { ] ",
"! ! ! ! ! ! ! $.=.m * , , 2 = = S 4.s.7.: X X % - ; - S s.s.s.s.s.s.K 0 0 L L 1 2 , > v h.K 5 - z z z > z v V #.$.~ ~ ~ ~ ~ ~ ~ ",
"! ! ! ! ! ! ! $.*.C x S Z , , < K S D 7.q ; 0 D 7.0 ; 0 8.7.1.F F 0 5 : 0 D D : 0 0 1 S D 0 1 < v A A z z v #.@.$.~ ~ { ~ ~ ~ ~ ",
"! ! ........! $.@.B c S S Z c 1 < ; 6 f.k.n.oXOXuXuXXX.Xn.n.n.n.y.t.y.y.k.y.n.k.y.y.k.k.e.2.1.6 G A v z z b #.*.$.%.%.%.%.%.X.~ ",
"! ! ! ! ! ! ! ] _ C & > > , G h.K 4.p.z.M.}.oXOXKXKXDXDXKXKXKXKXAXAXAXAXAXAXKXZXXX X}.k.e.6.d 1.K Z > z z n #.*.%.%.%.%.%.%.~ X.",
"! ! Q Q Q Q ....*.B & > , , S 8X0XtXz.f.m.x.M.M.zXzXvXvXvXvXvXvXlXlXlXlXbXbXbXfXwXM.x.j.j.j.8.8.d.Z = > > x #.*.%.%.%.%.%.%.%.X.",
"! ! Q Q Q Q ...._ C - > 2 2 1 8XtX0XM ; ; ; X X     O O O O O O     X   O   + + X X X X + q t.8.d.S = , = < #.*.%.%.%.%.%.%.%.%.",
"Q Q Q Q ........*.C % = = 2 , K K ; ; % ; ; X ; ; ; : 5 5 : : : 0 0 5 5 : : : 5 ; 5 : O + 0 9.8.d.S - < > B ` $.%.{ { { { { { { ",
"Q Q Q Q ........_ B x Z G Z = - . 6 f.4.4.8.8.8.z.g.l.9Xm.m.m.m.m.0X9Xg.7.g.g.d.g.d.8.F q 9.N.j.D 6 M 1 < B [ ! { { { { { { { { ",
"Q Q Q Q ........_ #.p.h.h.Y c > % f.kXeXk.y.6.w.r.8.8.8.M.M.M.M.m.N.m.8.0.g.g.8.0.t..Xj.N.zXiX8.; O S J J 3.=.{ { { { { { { { { ",
"Q Q Q Q ! ......@.` N K K H , - % J z.4.j.XXoXXX}.rXrXc.x.M.M.M.N.m.9.0.9.9.t.t.OXxXbXt.N.eXg.F ; ; M J G N _ / { { { { { { { { ",
"Q Q Q Q ........*.C * > - K s.s.; ; % X : zXfXyXfXsXlXk.s 1.7.8.1.g.7.g.8.t.u.#XDXSXbX6.4 0 q 0 O 6 4.S J N [ { { { { { { { { { ",
"Q Q Q Q ........o.E * < < 8XkXkX9Xf.J < ; F c.fXlXsXlXeX1.7.8.d.d.l.d.j.rX.X[.#XdXuXn.q 1.q : g.4.z.z.M J | [ { { { { { { { { { ",
"................o.E * < ; p.tXtXtXl.8.4 + @ q  Xk.yXJXzXf.d.s.s.l.j.t.XXDXDXcX#Xn.n.<.9 9 q D tX9X4.6 M J N [ { { { { { { { { { ",
"................o.E * < < - 1 z.m.4.f.0 1.iX.XuX1.8.tX9Xl.g.f.7.f.j.}.cXmXcXu.a .XuX8.9 1.j.M.9X4.; < M J N [ { { { { { { { { { ",
".................._ m < S S S J 4.4.z.1.<.iXrXiXD D K 4.f.g.f.1.0.rXjX#XcXcXv.a s 4.0.1.<.8.N.M.M.f.K J J 3.=.{ { { { { { { { { ",
"................! _ i.h.h.p.K S S K tX4.8.gXiXeXD K 4.4.f.x.M.k. XlXv.f +XOXv.r.j.l.8.1.1.t.n.N.m.f.s.p.J 3.=.{ { { { { { { { { ",
"............Q Q Q [ | p.h.1 c I G - % ; l.iXiXeX0 4.7.F 8.uXSXSXZXSXr.@ <.9.6.t.9X0XM.j.<.6.s t.4.; 1 1 M | =.{ { { { { { { { { ",
"............Q Q W _ 3 & v G s.0XM 4.l.% 1 6 S S 0 7.7.w r.sXZXhXZXSXuX9 F 7.<.j.g.z.j.8.<.s a pXz.; 1 M M N =.%.{ { { { { { { { ",
"........X.X.......@.m l b G I K j.iXM.4 ; < G I c K 7.1.r.gXAXmXcXmXdXs w F 8.7.D f.j.<.9 s b.iXz., v A b N *.{ { { { { { { { { ",
"........X.......O.@.n l n A U s.n.xXpXeXq ; < K J 4.7.1.6.gXSXxXjXcXjXv.s <.j.g.q q q w 6.N.uXeXs.Z A A b V =.%.{ { { { { { { { ",
"..X.....X.........*.P U U A A S 8.bXzXiXq + + 2.9 <.t.t.n.uX.Xy..XoX+XoXpXn.t.w 9 4 q 0..Xn.8.7.S Z A A b #.=.*.{ { { { { { { { ",
"X.X.............o.*.V U U A v c D 8.8.w <.<.6..XOXgXxXgXn.8.<.<.n.N..XuXxXdXcXOXt.6.<.w 7.D 6 1 Z Z Z Z b N @.] { { { { { { { { ",
"X.X.X.X.........Q @.k n U A Z Z p.S 5 4 1.rXbXhXOXuXbX.Xq 5 z.g.z.j.j.y.dXdXdX#X#XOXuXtXK I U U v v Z v b N *.$.{ { { { { { { { ",
"X.X.X.X...X.......@.k n l z Z G G M M D 1.f.r.<.0.6.j.1.D S s.4.4.F q 9 t.b.n.oX+X+X.XeXS G U G v Z Z Z n V =.$.%.{ { { { { { { ",
"....X.X.X.X.X...O.*.k l l z v G G M G p.J S M 6 6 6 S 6 M S p.s.4.K D 0 F 1.8.9.9.g.l.z.S G G G z z z z x V -.%.%.{ { { { { { { ",
"X.X.X.X.X.......&.*.k l l = = = % . . % X . . X X X X X X X X X X                   X O X X % % = = > > < V -.] %.{ { { { { { { ",
"X.X.X...........&.@.V N M M d.8.8.c.x. X XrX.XrXfXfXfXfXfXfXfXfXgXgXgXgXhXhXhXhXsXXX X X X XwXwXwX5.4.i.i.#.-.O.%.{ { { { { { { ",
"X.X.~ X.........-.-.a.a.s.s.eXkXzXbXSXJXJXKXAXKXLXIXIXIXLXLXLXLXIXIXIXIXIXIXIXLXPXZXZXAXJXJXJXJXJXx.l.h.a.i.-.&.%.{ { { { { { { ",
"X.X.X.X.~ X.X.$.3 3 x x 1 - ; 4 6 0 q q w s s <.e.e.e.e.e.k.e.e.r.r.r.r.k.e.r.r.2.2.2.5.2.5.5.5.1.; M x n x ` *.%.%.%.{ { ~ ~ ~ ",
"X.X.X.X.~ X.X.] C m < < 1 1 ; @ 4 4 4 4 4 9 4 9 r.r.r.w.2.2.2.2.2.2.2.2.r.2.d d @ @ @ @ 7 7 @ @ 4 6 v b b n #.,.%.%.%.{ { ~ ~ ~ ",
"........Q ..Q ] a.p.s.s.7.yXlXhXZXZXSXSXZXSXZXKXLXLXPXLXLXLXLXPXLXLXLXPXLXPXPXPXSXSXnXhXnXnXZXZXZXuX7.s.Y I #.=.{ { { { { { { { ",
"~ ......Q ..Q $.N J G G D 4.6.w.u.y.}.oX}.6.2.w.y.oXXXsXsXsXXXXXoXoXsXsXsXXXP.u.y.w.e.oXsXXX|.oXv.0.L H H U i.=.$.{ { { { { { { ",
"Q ~ ! ......Q $.N P U H H S 0 q s 0.8.g.d.5 5 5 q 8.c.x.M.x.5.1.d 5.x. XwXk.5.7 7 6 5.8.8.6.2.<.8.L H H H U i.#.$.~ ~ ~ ~ ~ ~ ~ ",
"......X.......$.V P U U G H K K 7.7.d.h.s.H H G 4.f.l.9XtXtXg.l.l.z.wXwXwXx.f.4.D S s.f.d.8.8.d.d.T H T H U P #.$.~ ~ ~ ~ ~ ~ ~ ",
"............o.@.B G G G S H K K s.s.s.s.Y H S Z 7.K 8.z.9X9Xm.l.z.z.z.z.m.m.g.4.F K 7.d.d.8.8.7.h.Y Z A Z c B =.*.%.%.%.~ ~ ~ ~ ",
"............o.@.& = = = , S K H K K K K H Z Z Z K 7.7.7.d.g.g.g.s.7.s.7.d.g.d.7.D F 7.7.7.7.7.4.s.Y , 2 2 > m =.*.%.%.%.~ ~ ~ { ",
"............o.@.& > > > > c S S Z Z Z Z 1 , , c c S c 1 1 S J G G G G G 1 1 1 1 - - < > < < - - - , 2 2 = & m =.} { X.X.~ ~ ~ ~ ",
"..........o.o.@.$ & & $ # $ $ % % % % % & # # $ # # # $ # $ $ # $ $ $ $ # $ # $ # # $ $ # # # # $ % = > $ $ 3 [ { { ~ ~ ~ ~ ~ ~ ",
"o.o.........o.$.E E E E E ) ) ) ) ) ` ) ) ) ) ) ) ) ) ) ) ) ) ) ) ) ) _ _ _ _ _ _ ) _ ) ) _ _ @._ @.@.@.*.*.*.%.~ ~ X.X.X.X.X.X.",
"o.o.........o.o.o.o.o.O.%.%.%.%.%.%.%.%.&.&.&.&.>.>.:.:.:.:.:.:.:.:.:.:.&.&.&.O.&.O.:.O.&.&.&.:.:.&.&.:.&.O.X.~ ~ ~ ~ ~ ~ ~ ~ ~ ",
"o.o.o.....o.o.o.o.o.o.....X.X.~ X.X.%.%.%.%.%.%...X.~ Q ~ ~ X.X.X.X.X.;.;.;.;.X.X.X.>.X.X.X.X.X.&.O.O.O.O.X.X.~ ~ ~ ~ ~ ~ ~ ~ ~ ",
"o.o.........o.o.o.o.o.X.....Q Q ! ! ........%.X.X.X.X.~ ~ ~ X.X.~ ~ ~ ~ ~ ~ ~ ~ ~ ~ X.~ ~ ~ X.X.X.X.O.O.O.X.X.~ ~ ~ ~ ~ ~ ~ ~ ~ "
};
