/* XPM */
static char *result[] = {
/* columns rows colors chars-per-pixel */
"32 32 174 2 ",
"   c #14130F",
".  c #131311",
"X  c #1C161A",
"o  c #1F1F1A",
"O  c #1A1616",
"+  c #2A1C0E",
"@  c #231B1C",
"#  c #22191A",
"$  c #321E16",
"%  c #25231F",
"&  c #29241E",
"*  c #39291E",
"=  c #251624",
"-  c #291726",
";  c #251925",
":  c #2A1926",
">  c #2C192A",
",  c #2B1729",
"<  c #311D2D",
"1  c #331D31",
"2  c #391D36",
"3  c #242422",
"4  c #2F2C28",
"5  c #342027",
"6  c #32212C",
"7  c #3E2137",
"8  c #3C213A",
"9  c #352632",
"0  c #49351E",
"q  c #593318",
"w  c #643B1F",
"e  c #42252F",
"r  c #41223F",
"t  c #48263B",
"y  c #6B3B29",
"u  c #633B28",
"i  c #754321",
"p  c #7A4526",
"a  c #4A1E46",
"s  c #4B1F48",
"d  c #461D42",
"f  c #442242",
"g  c #492346",
"h  c #4C264A",
"j  c #51294E",
"k  c #592C47",
"l  c #552A52",
"z  c #5E2B5B",
"x  c #5A2757",
"c  c #65344F",
"v  c #622D5F",
"b  c #6D2C5A",
"n  c #633250",
"m  c #6C3553",
"M  c #73365D",
"N  c #743758",
"B  c #652B63",
"V  c #682D64",
"C  c #6E2C6A",
"Z  c #6D2568",
"A  c #72266B",
"S  c #712C6D",
"D  c #79286F",
"F  c #763766",
"G  c #7A2773",
"H  c #762B71",
"J  c #7B2A75",
"K  c #7E2B79",
"L  c #574143",
"P  c #5E5448",
"I  c #6C5E4F",
"U  c #755A5D",
"Y  c #7E634B",
"T  c #7C6D60",
"R  c #83452B",
"E  c #864E2C",
"W  c #8F542E",
"Q  c #864A32",
"!  c #925234",
"~  c #985436",
"^  c #A2693E",
"/  c #B56F3E",
"(  c #B3753F",
")  c #803F62",
"_  c #83297D",
"`  c #8C2D7B",
"'  c #822B77",
"]  c #843379",
"[  c #8F307A",
"{  c #813579",
"}  c #92327C",
"|  c #993D7A",
" . c #953C78",
".. c #8D5745",
"X. c #AD6B48",
"o. c #AF7240",
"O. c #B77D4B",
"+. c #80656F",
"@. c #816364",
"#. c #8F7878",
"$. c #C17A45",
"%. c #CE7B50",
"&. c #B18057",
"*. c #BB8150",
"=. c #A98568",
"-. c #C68146",
";. c #D6874F",
":. c #DD8D48",
">. c #D68946",
",. c #DA8654",
"<. c #DB8953",
"1. c #DE8859",
"2. c #D9835A",
"3. c #D6935C",
"4. c #E6934F",
"5. c #E38A5A",
"6. c #EB9B58",
"7. c #F39B52",
"8. c #EFA66A",
"9. c #F3AA6D",
"0. c #EBAD7A",
"q. c #862A82",
"w. c #8C2C84",
"e. c #8F2C89",
"r. c #8A2783",
"t. c #902887",
"y. c #922C8A",
"u. c #8C3384",
"i. c #8E3D89",
"p. c #9F3C82",
"a. c #A23E81",
"s. c #8F4E8A",
"d. c #9A4492",
"f. c #9F4598",
"g. c #A45884",
"h. c #A44E9D",
"j. c #906D8A",
"k. c #967A80",
"l. c #A85CA0",
"z. c #99948F",
"x. c #AE9F92",
"c. c #B5A292",
"v. c #AA8BA8",
"b. c #BFA7B1",
"n. c #B6B5B2",
"m. c #C3AB97",
"M. c #C2A4A6",
"N. c #DDBFA6",
"B. c #D2BBA7",
"V. c #C2A3BA",
"C. c #C0B0BE",
"Z. c #C9B4BD",
"A. c #CCC4BC",
"S. c #C2C0BD",
"D. c #D7C6B8",
"F. c #E3CDBB",
"G. c #CACACA",
"H. c gray76",
"J. c #D1CBC2",
"K. c #D8D5CF",
"L. c #D8D0D3",
"P. c #E3D7CE",
"I. c #E6DACF",
"U. c #E4E3DE",
"Y. c #EBE4DE",
"T. c #FBECDF",
"R. c #F2E4D7",
"E. c #E9DCE8",
"W. c #EEECEB",
"Q. c #EBE7E9",
"!. c #F2E9EC",
"~. c #FDFDFD",
"^. c #F4F3F4",
"/. c None",
/* pixels */
"/./././././././././././././././././././././././././././././././.",
"/./././././././././././././././././././././././././././././././.",
"/./././././././././., , > , , - = /././././././././././././././.",
"/././././././././., z J J K J G x 1 /./././././././././././././.",
"/././././././././.; h H e.y.y.y.w.' a /././././././././././././.",
"/././././././././.; 1 l K y.y.y.y.w.H d X /././././././././././.",
"/././././././././.; h H u.y.y.y.t.H S B f = /./././././././././.",
"/././././././././.5 b [ [ } } p.p.| | |  .N 5 /././././././././.",
"/./././././././.: u p R R p ~ 1.5.5.5.5.5.5.o.0 /./././././././.",
"/././././././.1 6 y p p p i ! 2.<.2.5.5.5.5.5.X.e > /./././././.",
"/././././.< 8 l l c c c c n M | ) | a.a.a.a.a.| ' J a - : /././.",
"/./.> < r l l B B B B B B B v J n D ` ` ` w.u.u._ ' A Z d . /./.",
"/.: r h j l z H G ] ] ] ] F L L u y Q ! ~ ..@.U 6 , : : # . /./.",
"/.; < 1 < < 1 8 r T k.k.k.#.T Y $.>.:.:.:.O.I P o /././././././.",
"/./././././././.3 n.Q.U.U.K.c.^ 4.7.7.7.7.o.& 3 /./././././././.",
"/./././././././.3 G.~.~.~.W.B.3.6.6.8.9.9.&.4 /././././././././.",
"/./././././././.9 C.E.E.W.Q.A.B.0.D.F.F.F.D.z.3 /./././././././.",
"/././././././.2 H d.h.s.v.L.A.J.R.!.m.=.=.m.S.3 /./././././././.",
"/./././././.< G y.e.e.w.K j.b.Z.^.~.R.P.P.Y.G.3 . /././././././.",
"/./././././., G y.y.y.e.H F d.l.Q.~.~.~.~.~.G.3 . /././././././.",
"/././././././.2 A K _ S z C w.f.E.~.~.~.~.~.G.3 . /././././././.",
"/./././././././.: : d h h z C i.V.Q.~.~.~.^.S.% /./././././././.",
"/././././././././.  : 8 t k n M g.M.I.T.T.R.x.% /./././././././.",
"/./././././././././.X $ q p p E %.^ 2.9.9.8.*.@ /./././././././.",
"/./././././././././.. + q i i E $.W / <.<.:.o.@ /./././././././.",
"/./././././././././.. O : k k c m m m N ) F c O /./././././././.",
"/./././././././././.O O g _ J B K q.q.q.q.q.A : /./././././././.",
"/././././././././.. 6 h S y.w.S e.y.y.y.y.y._ h X /././././././.",
"/././././././././.X f v H y.e.w.y.y.y.y.y.y.w.z @ /././././././.",
"/./././././././.O 9 l H e.y.e.w.y.y.y.y.y.y.e.J = /././././././.",
"/./././././././.; h z J y.y.u.C e.y.y.y.y.y.y.' > /././././././.",
"/././././././.r 8 l v J y.y._ V w.y.y.y.y.y.y.w.l ; /./././././."
};
