/* XPM */
static char *result[] = {
/* columns rows colors chars-per-pixel */
"33 54 6 1 ",
"  c #212E2F",
". c #354344",
"X c #655E57",
"o c #978E84",
"O c #BCB2A9",
"+ c None",
/* pixels */
"++++++++++++++......+++++++++++++",
"+++++++++++++++++++++++++++++++++",
"+++++++++++++++++++++++++++++++++",
"+++++++++++++++++++++++++++++++++",
"+++++++++++++++++++++++++++++++++",
"+++++++++++++++ooooo+++++++++++++",
"++++++++++++++ooOOOXX++++++++++++",
"+++++++++++++ooOOOOOXX+++++++++++",
"+++++++++++++oOOOOOOOXX++++++++++",
"++++++++++++ooOOOOOOOoX++++++++++",
"++++++++++++oOOOOOOOOOX.+++++++++",
"+++++++++++ooOOOOOOOOOo.+++++++++",
"++++++++++ooOOOOOOOOOOo..++++++++",
"++++++++++oOOOOOOOOOOOoX.++++++++",
"++++++++++oOOOOOOOOOOOoX.++++++++",
"+++++++++ooOOOOOOOOOOOXX..+++++++",
"+++++++++oOOOOOOOOOOOoXXX.+++++++",
"+++++++++oOOOOOOOOOOOXXXX..++++++",
"++++++++XoOOOOOOOOOOOXXXXX.++++++",
"++++++++XOOOOOOOOOOOoXXXXX.++++++",
"++++++++XOOOOOOOOOOOoXXXX. ++++++",
"++++++++XOOOOOOOOOOOoXX...  +++++",
"+++++++XXOOOOOOOOOOOX...... +++++",
"+++++++XXoOOOOOOOOOoX...... +++++",
"+++++++XXXXXoOOOOOoo.......  ++++",
"+++++++XooXXXXXooooo.......  ++++",
"++++++XXoooooooooooX.....    ++++",
"++++++XooooooooooooX...      ++++",
"++++++Xoooooooooooo.          +++",
"++++++XooooOOOOOOoo.          +++",
"+++++XXoooOOOOOOOOX           +++",
"+++++XoooOOOOOOOOOX           +++",
"+++++XoooOOOOOOOOo.           +++",
"++++XXooooOOOOOOOX.            ++",
"++++XoooooooOOOOo..            ++",
"++++XooooooooooXX..            ++",
"+++XXoooooooooooX..            ++",
"+++Xoooooooooooo....           ++",
"+++XoooooooooooX....           ++",
"+++XoooooooooooX.....          ++",
"+++Xooooooooooo.......         ++",
"+++XooooooooooX........        ++",
"+++XoooooooooXX........        ++",
"+++XooooooooXXX.........      +++",
"++++oooooooXXX...........    ++++",
"+++++oooooXXXX...........  ++++++",
"+++++++ooXXXX............++++++++",
"+++++++++++XX..........++++++++++",
"++++++++++++++......+++++++++++++",
"+++++++++++++++++++++++++++++++++",
"+++++++++++++++++++++++++++++++++",
"+++++++++++++++++++++++++++++++++",
"+++++++++++++++++++++++++++++++++",
"+++++++++++++++++++++++++++++++++"
};
