/* XPM */
static char *result[] = {
/* columns rows colors chars-per-pixel */
"32 32 51 1 ",
"  c #2F6E04",
". c #326E05",
"X c #2F7502",
"o c #2F7801",
"O c #327503",
"+ c #3B7506",
"@ c #347904",
"# c #397906",
"$ c #3E7208",
"% c #4C6D0F",
"& c #43740A",
"* c #4B730D",
"= c #427809",
"- c #52730F",
"; c #5E6716",
": c #566F11",
"> c #5D6E14",
", c #557411",
"< c #5B7213",
"1 c #5B7813",
"2 c #646D17",
"3 c #676A18",
"4 c #6B6D19",
"5 c #77671F",
"6 c #746D1D",
"7 c #7A6D1F",
"8 c #647316",
"9 c #677817",
"0 c #677218",
"q c #6C7319",
"w c #72731B",
"e c #7D741F",
"r c #7D6621",
"t c #7E6C20",
"y c #7F7120",
"u c #846524",
"i c #8B6326",
"p c #846B23",
"a c #8D6B26",
"s c #8F6628",
"d c #936629",
"f c #956A29",
"g c #9A6D2B",
"h c #857223",
"j c #8C7425",
"k c #917227",
"l c #957229",
"z c #9E712C",
"x c #A16F2E",
"c c #A3742E",
"v c None",
/* pixels */
"OOXO@@OOOOOOOOO@@O.OOOOOOX@@@O O",
"@OO@@O.OOOO.OO@@@OX#OOOOOO@@@OOO",
"O@@@OO@O.OOOOO@OOO+33=&OO@@OO@O.",
"OOOOOOOOO*6+XO:*+#>usu6OOOOO@O.X",
"OOOOOOOO@-a7<2ii:O=7fff0*OOOOOOO",
"OOOOOO@@-axccczzt03ufsff>+OOOO@@",
"#OO@OO@#<qlchq9k8#$7fgzcp*@@@O@O",
"OOXO@#>&@9cck&@#OO.&,lcck*X@@@O@",
".OXX**s,0fcccz,@&*X&tgcca*XX@OOO",
"OO&*:rdfccccccl9patagcccxa,@OOOO",
"OX>dsd78ecccccccggcccccck8p1OOOO",
"O$tat4+&3accccccccccccccg8,w&.OO",
"$rsu%X->*kcccccccccccccczfru5$OX",
"#+&pa2a3pcccccccccccccccczfd>OO ",
"OX.><,7gccccccccccccccccccfq>+OO",
"OOO+X&afzcccccccccccccccccl4u>@O",
".OOOX+-8kccccccccccccccck1123@@O",
" O+&@@=pzcccccccccccccccgw#@@O@O",
"O%4u2O=pzgccccccccccccccza2@OOO@",
" .;s7<6ffzcccccccccccccccy&OOOOO",
" %5ippaccccccccccccczzccxgt#OOOO",
"OOO+#&7gcccczcccccxzlzczgf0#@O.O",
"O@O@@0pjzcch-*qzcczffggw**@@OOOO",
"OO@OO##<fccz6@@ey9kxxxh<@oOOO@O.",
"@OOOO#8fcccz7$O=@2gcccl1@@OO@OO ",
"OOOOO+<q9hcj&O*&4i49qlj<@@OOOO@O",
"OOOOOO@@<accl766p3@@tll,@OOOO@@@",
"OOO@@O@O<8fcc0#O+*@&>qz4#O@@@O@O",
"OOOO@@OOX*7pf2OO@oO@@08+OOX@OOO@",
"OOOOO@OO@Oo$,+OOOOO@@@OXOOOO@OOO",
"OOO@OOOOOOOOOOO@OOO@@OOOOO#OOOOO",
"vvvvvvvvvvvvvvvvvvvvvvvvvvvvvvvv"
};
