/* XPM */
static char *_0614bb47964466ad9376e8be5461fd9G0CVMJiS6YYXFpKz[] = {
/* columns rows colors chars-per-pixel */
"64 64 256 2 ",
"   c #180509",
".  c #0A0518",
"X  c #1B031B",
"o  c #170717",
"O  c #1B1419",
"+  c #110A09",
"@  c #230A0A",
"#  c #27150A",
"$  c #24081A",
"%  c #261719",
"&  c #331C16",
"*  c #2B231B",
"=  c #35251B",
"-  c #352B12",
";  c #0A0A28",
":  c #1A0826",
">  c #0E1125",
",  c #1A1425",
"<  c #0C0A33",
"1  c #1B1836",
"2  c #250A27",
"3  c #2B152C",
"4  c #2B1B2B",
"5  c #271726",
"6  c #351A28",
"7  c #250A34",
"8  c #2A1736",
"9  c #361A36",
"0  c #320D2E",
"q  c #292728",
"w  c #33232C",
"e  c #382728",
"r  c #3A362A",
"t  c #2A2737",
"y  c #342533",
"u  c #392938",
"i  c #393738",
"p  c #293837",
"a  c #1A2622",
"s  c #44311C",
"d  c #452A29",
"f  c #46382A",
"g  c #462B37",
"h  c #4B3B3C",
"j  c #473636",
"k  c #523C37",
"l  c #552E31",
"z  c #431D32",
"x  c #18483A",
"c  c #1F573F",
"v  c #38463A",
"b  c #304832",
"n  c #4A4229",
"m  c #494438",
"M  c #57473A",
"N  c #544F33",
"B  c #68573B",
"V  c #654B36",
"C  c #64602F",
"Z  c #301A43",
"A  c #163B48",
"S  c #193C53",
"D  c #0F3F41",
"F  c #3A2845",
"G  c #383646",
"H  c #243C54",
"J  c #2A364B",
"K  c #1B3E63",
"L  c #243B61",
"P  c #422C44",
"I  c #472848",
"U  c #493846",
"Y  c #533A46",
"T  c #4B3955",
"R  c #553C55",
"E  c #492D53",
"W  c #653C45",
"Q  c #533A62",
"!  c #194848",
"~  c #1D5348",
"^  c #1C4254",
"/  c #1C4C53",
"(  c #1A4A57",
")  c #1C5558",
"_  c #0C5D5D",
"`  c #234B4C",
"'  c #274848",
"]  c #3B4346",
"[  c #295449",
"{  c #234354",
"}  c #274957",
"|  c #265558",
" . c #355858",
".. c #35564E",
"X. c #3B6357",
"o. c #316457",
"O. c #1D5563",
"+. c #1E5766",
"@. c #1D4E6C",
"#. c #264A66",
"$. c #235364",
"%. c #225B6A",
"&. c #285668",
"*. c #295576",
"=. c #2F526A",
"-. c #346367",
";. c #1F605A",
":. c #484647",
">. c #5B4B43",
",. c #54444A",
"<. c #584847",
"1. c #595648",
"2. c #4A4855",
"3. c #584757",
"4. c #595859",
"5. c #49574E",
"6. c #644B47",
"7. c #665848",
"8. c #654A57",
"9. c #685857",
"0. c #725A57",
"q. c #755A4B",
"w. c #59665A",
"e. c #486A54",
"r. c #6C644A",
"t. c #76684A",
"y. c #6B6659",
"u. c #776859",
"i. c #7B735A",
"p. c #717751",
"a. c #5B4866",
"s. c #5A5168",
"d. c #664A67",
"f. c #675768",
"g. c #725A69",
"h. c #614D71",
"j. c #6B5974",
"k. c #735B73",
"l. c #764F6E",
"z. c #506F6B",
"x. c #696766",
"c. c #786867",
"v. c #697466",
"b. c #787769",
"n. c #776876",
"m. c #7A7577",
"M. c #6D6D72",
"N. c #86785A",
"B. c #837051",
"V. c #866A68",
"C. c #867767",
"Z. c #927C6B",
"A. c #877977",
"S. c #917A77",
"D. c #846A79",
"F. c #7A8C5E",
"G. c #7A8366",
"H. c #7A8575",
"J. c #6E8072",
"K. c #928959",
"L. c #87856A",
"P. c #958669",
"I. c #898678",
"U. c #968777",
"Y. c #8C9578",
"T. c #979679",
"R. c #8D9668",
"E. c #A28B7A",
"W. c #A69778",
"Q. c #A7946F",
"!. c #9AA57B",
"~. c #9EA26C",
"^. c #A7A57B",
"/. c #AFAB75",
"(. c #9C975C",
"). c #7A6884",
"_. c #7C7581",
"`. c #877887",
"'. c #8E738D",
"]. c #7B8483",
"[. c #8A8688",
"{. c #978887",
"}. c #9B9686",
"|. c #9B8B95",
" X c #9A9697",
".X c #8D8C8D",
"XX c #A38B8A",
"oX c #A79888",
"OX c #AB9C9B",
"+X c #A79796",
"@X c #B29A9A",
"#X c #AF948F",
"$X c #9DA388",
"%X c #9AA897",
"&X c #9FB39A",
"*X c #A7A687",
"=X c #B6A889",
"-X c #ACB389",
";X c #B7B789",
":X c #A9A797",
">X c #B7A998",
",X c #AAB599",
"<X c #B7B799",
"1X c #A899A3",
"2X c #B49CA5",
"3X c #ABA6A6",
"4X c #B8A8A6",
"5X c #BAB5A6",
"6X c #B8ACB4",
"7X c #BAB5B5",
"8X c #ACB7A6",
"9X c #9CA5A1",
"0X c #C6B898",
"qX c #C4B293",
"wX c #C3AAA8",
"eX c #C5B8A8",
"rX c #C8BAB7",
"tX c #D5BCB8",
"yX c #CAB3AF",
"uX c #BAC49A",
"iX c #B9C4A7",
"pX c #B7C6B3",
"aX c #C6C59A",
"sX c #D1C692",
"dX c #C8C6AA",
"fX c #D4C7AB",
"gX c #C9C6B8",
"hX c #D5C9B7",
"jX c #CBD4BB",
"kX c #D6D4B7",
"lX c #D1D4A9",
"zX c #E2CDBB",
"xX c #E3D6B7",
"cX c #E6D0AF",
"vX c #EDE7B9",
"bX c #D6E0AC",
"nX c #C8BAC3",
"mX c #BFC1C0",
"MX c #CBC7C6",
"NX c #D6CAC7",
"BX c #DBD5C6",
"VX c #D1D2D1",
"CX c #E3CAC8",
"ZX c #E5D8C7",
"AX c #E7D9D6",
"SX c #ECD6D9",
"DX c #D9E4C8",
"FX c #DCEFCE",
"GX c #E9E4C9",
"HX c #EBE4D8",
"JX c #F5E8D8",
"KX c #E7F7DA",
"LX c #F4EECD",
"PX c #F9FBE5",
"IX c #F3F3E9",
"UX c #E6D7E2",
/* pixels */
"_ ) $.A A A / ( } ! [ [ ` ` x x c ! $.S / ~ ! ! ( ( D x x x | ~ x x ! ! ! ) / ) ) ! ! / $.( ! ! ! / / / / ! / / ` ` ! A '  .| ) ",
") ! | z.M.z.z.X.z.z.e.b e.e.e.e.e.z.! z.z.z.z.z.-.| ..e.e.X.X.X.[ o.X.X.X.-.z.|  .z.X. .=.} X.X.X.-.-.[ ` z.X.z.e.e.z.z.z. .| ! ",
"$.| ' pXPXFXKXDXFXKX8Xb lXbXbXbXFXKXv pXPXKXKXPXH.v.KXFXKXFXPX%X5.KXKXFXKXIXVXp pXKXPXPX.X5.KXKXKXPXIX,Xb KXIXKXKXGXKXPX7X] [ ~ ",
"=. .5.Y.<X<XL.L.uXDX<Xr ;X;X-X-X/.dXr :XdX<X<XkXy.v.GXuXuXuXkXY.N iXuXaXlXjXVXq ,X<X<XdXI.1.dX;XdX<XdX*Xr BXjX5X*XW.<XZX5X5.' [ ",
"=.J H.kX>XZ.M f f I.{.n lXaXdXaXaXBXr :X5X<X<XBXm.1.dX*X-X!.-XG.N <X;X;X-XuXpXq :XiX<XjX X:.jXdXdXdXdXY.m 3X4.r N V n u.ZXx.v ..",
"=.} v.LXk 6.yXu.k <.9.= U.T.T.T.L.L.* c.:XT.T.I.r <.}.T.-X$X<Xb.1.<X*X-X-XI.m.O v.Y.I.}.4.i L.L.G.T.L.1.r .X:.h oXcXB & hXy.v [ ",
"*.} 5.gXj k 0XP.0.u <.e h 9.9.r.r.r.% x.U.b.C.b.e r L.}.*X*X<Xy.m :XI.T.I.{.9.O m u.y.c.q q u.p.t.r.1.>.i 4.t f.0.Z.V.= rXy.b [ ",
"@.#.v.gX<.d ^.P.c.u HXI.A.6X4X5XeXeXe [.rXeXeXAXx.4.NX>X<X5XgXA.r NXgXNX4XVXnX5 OX6X4XMXU ,.NXeXfXeXhX4Xx.IXn.f.CX#XY i 6Xw.[ c ",
"@.S 5.MX9.% 0.8.q }.GXL.c.3X X X:X:Xy m. X+X|.6Xs.T 1X{.+X1X1Xg.y 1X+X|.1X1X'.8 1X|.1X6XU ,.6XoXXX}.+XA.j NXrXh h j % 4.7Xv.[ ~ ",
"=.} 5.5X}.b.4 U M.8X>Xr.% y u q % w o 4 8 y 4 9 2 : 3 2 X 5 o   + O 5 5 o 2 . : u P u y 5 % i % % O 3 . 5 OXgXc.9.O ].7X.X5.[ [ ",
"#.H 2.5X5XgXY UXPXBXS.g X o + O q 4 u t Z : 9 U T 3.E R R 3.4XoXoXXXA.5 E 3.3.3.,.j 5 3 8 5 e e w , 8 : w 9.T.HXIX:. XMX X4. .~ ",
"#.} q f n m % Y y.h $ 2 9 9 5 <.m.2.u F F T `.OXD.).j.f.e >.ZXfXxXPXtX5 j.n.`.m.OXgXf.5 u j h 9.9.U Q Q 5   = 9.9., i m q a [ [ ",
"}  .r L.T.C.e A.{.Y X 0 Q Y j {.m.u , u 9.hXkXoXY R y ,.P.P.i.u.7.S.+X1Xf.w 5 j hXGXfXm e w j {.>X7.i a.3.O Y NXnXq v.I.I.w.[ ~ ",
"^ p v.fXdXdXA.4XHXm.2 Z 9 n.+XBXOX% f.{.dXoXT.eX6Xu 6 #X0Xn N oX}.j j +XAX9.= oX0XW.P.eXoX>.% U.xXeXc.,.P X ,.VXnX3.:X5XjX.Xx x ",
"} ' v.>X^.>Xu. XHXx.X P ,.5XdXT.m q oXGX>X>.o f.rXu.U.C.# # N.xXPXU.e h XXL.K.lXi.# n ;XlX0XN M C.JX-X7.j o <.NXnX4.:X-X<Xp.c ~ ",
"| ' 1.<X-X<Xb.>XKXw.o 3.I.:XY.m b.AXoXU.oX9.8 X c.xXxX- e NXC.W.>XC.+Xe   <XvXaXm   f qXP.^.kX=XM }.<XC.Y $ >.BXrX<.*X;X-XG.c ~ ",
") ` v *X!.-Xi.:XDXy.. 2.I.v.q 1.T.xXrXe d 6X+X% f hXhX# M JX>.y.u.M CXq.@ :XGX7.% 3.yXu.- N.=XqXM r C.A.f.o 0.BX6X<.~./.(.R...[ ",
"O.| 4.:X<XiXy.,XKXb.: 3.:Xv q rX0XN.0.6.M hXrX% # OXNX@ f ZX9.A.A.M yXu.@ :XBXO 5 n.BXu.Z.6.B W.hXf m |.k.X x.AXrXm !.R.K.F...` ",
"O.| p :.1.m * r m w 2 d.HX:.% OXyX>.k U.E.eX5X# * 4XCX% k eX7.}.{.k #XU.# #XJXj 4 n.eX<XW.n M oXhX* e NXn.3 w j e O r m m q [ [ ",
"+.$.2.+X7X7Xq y. X3.2 d.AXn * >X4Xk k n Q.xXoX@ # yXSXh V.eX7.eXZXu.#X#X7.@XZXj o ,.fX^.t.r.f C.ZXf r AXn.X h +X{.e :X3X:Xm.[ | ",
"+.} w.eX*X<X1.gXPXb.$ R BX-X7.>XfXqX0X0XqX0XC.+ t.fX{.8.g d oXBXhXP.0.g Y S.eXu.  e ^.sXsXfXfXxXkXy.y.AXk.X 9.PXHXm ^.*X>XH.' | ",
"O.` v.>XT.*Xy.:XDXy.X I 5XlXB f t.N.N.N.N.Q.N.P.=X0X<.9 6 @ r *XxXp.% g Y g oXfXZ.E.Q.(.Q.P.C.u.M f 5XMXR X 8.hXyXn ^.~.*XG.' } ",
") ` x.:X}.<Xy.*XBX9.2 I y.hXP.- # % 5   6.N.U.0XP.U.w P d 6.C.0XkXT.0.Y 6 l N.W.;XQ.sXi.  X 2 2 e }.HXy.X 2 <.eX5Xn /.~.^.b.' } ",
"$.` 4.4X5XdXy.+XBX9.0 R e T.0X(.& % n.`.<.u.0XP.*XU.w h NXJXZXkX<XhXAXSX#X@ f C.N.W.Z.f 8.R P 9 +XeXI.:.d.2 m.ZXhXN ;X/.*Xb.{ #.",
"&.{ U >X>XeX9.9.+XU 2 d.<.n sXsX/.;XBXnX6 g 0XC.V.>.0.wXtXXXc.8.U f.+XOXZXeXj y.C.Z.<.d @XtXwXdXfXoX0.j R 9 Y A.0.j U.C.A.s.} #.",
"&.} 5 j 7.M = {.NXY 2 8.U.;XB.cXvXLX5Xw 2 8.yXu.k U.fXPX0.  5 $ $ X o   oXdXI.<.u.{.f.Y = U.JXxX=XP.V.XXD.$ h 4X@Xe f y.,.t #.#.",
"| ` :.eXkXhXu.}.JX7.$ @X>XxX=Xu.<.d.`.d.T P U % 7.0X>XA.R 2 $ e e 6 4 U  XC.ZX>X  y 3 R h S.S.C.}.C.#XhXCX= n JXhXC.fXkXZX4.{ =.",
") ` v.eXoX<XT.oXkX>.@ 4X>Xr.k u 6 : a.`.P R 6 # eXZX9.g 2 u '.ZXZXBXn.2 6 ,.gXeX0.<.u U c.c.6 % r u.7.E.CX= r dX0XW.0XT.<Xb.[ / ",
"| ' b.:X*X*XT.>XBX<.$ 2X4X  e h M V.8.g.n.U % 4XCXOXy 9 6 V.eXaXlXkXoXy 8 8 3.{.JXt.6 8.9.>.U.7.e % e XXCX6 e gXfXR.^.-X*XJ.[ | ",
"| ` b.:X^.*XY.>XZX<.@ 2X@Xj 4X6.U.JX>X<.4X& @ eXhX% 2 : 2XNXqX;X(./.GXUXF : 2 +XvXn # A.S.U.kXeX<.D.c.V.tXe u NXkXT.^.!.*XJ.' ) ",
") ` b.:X$X*XY.>XBX<.  @XP.t.0XoXU.XX>XW.W.P.K.fXZXe 2 2 wXyXN.t.p.p.T.MX8 7 2 {.LXK.C.tX>XE.P.C.oX>XP.B.yXd u NXgX*X!.!.:XJ.` ) ",
") ` b.:X$X-XI.<XhXM   4X*XaXt.B - s t.B./.=XN.0XfXd X 2 wXeXu.N.N.C oXNXF 7 3 {.eXP.U.fXU.N.f f 7.B =X0XyXk y nX5X*X*X-X:XJ.! ) ",
") x v.:XT.*XT.:XkXj X |.}.T.P.P.t.B /.(.qXoX@ #XzXd X 9 MXeXu.t.C C <XVXZ 7 2 +XrX* c.CX>X=Xi.N p.N.qXE.#X6 y 6X:X$XT.T.$XH.x | ",
") A x.:X:X*X}.5XBX,.o `.M.y.fXE.E.zX=XP.t.q.& @XeX# 2 7 3.>X}.N.C ^.:Xu : 9 @ {.6Xy <.S.0.Z.hX*Xu.>Xu.l wX6 u nX6X}.}.Y.:Xm.` | ",
"@.=.t u e h i u U o o 1X X% +Xc.g.'.u.#X8.$ $ XXdX:XG Z P |.OX0XcXfX|.I 2 u }.5X:X% @ d V.V.@X{.e 9.e 8.tXl $ U U u i i G t { &.",
"*.#., |.rXOXO [.VX8.  |.MX% # 5   $ 8.c.R u I U I.HXf.T 8 3 e XXoXC.I 9 g m kXdXc.6 z l W W @ @ % % @ 0.tXe ,.MX7XO M.mX3X] } *.",
"&.H 2.2X4XyXh OXHXy.  @XkXU.L.r >.oXoXj P E E 4 :.gX:XA.8 7 7 2 2 8 2 6 >XW.aXY.+ g Y W l q.C.u.k u.oXE.CXd M BXMXe :XgXgXm.} $.",
"( { :.U.L.U.m }.dX1.  '.oXGX*X<XfXfX=Xe U 8 f.n.U [.eXrX3 7 : 9 7 : $ d W.fXT.- ,.g.W 6.V =XxXLXhXU.zX#XS.$ M ZXNXr Y.%X[.w.` / ",
") { :.U.T.T.<.A.:Xx.$ z g >.hXeXfX0XfXdXA.8.<X7.9.g c.AXrXXX1.r 4 n.gXGXhXS.6 e }.oXU.B.qX^.0XaXaX=X0.9 0 X <.4X4Xq I.:X Xv.` / ",
"$.^ :.:XI.}.h m.8X9.$ I 6 {.HXb.N i.C.oXc.I.kXN.C.8.g U 3XJXPXfXhXIXPXZXS.u 6 {.T.=X0XN.W.C.7.N i.LX{.3 F 2 ,.rX:Xr G.$X$Xw.! | ",
"$.^ ] [.L.{.1.{.gXy.$ 6 Y rXHXx.  %   $ @ >XLXN.N.9.2 I a.n.c.oXdXU.A.8.5 6 f U.Q.qXxXt.    o   m eXrX9.8 2 4.rX6Xr Y.$X}.w.! &.",
"O.^ G [.I.}.<.I.eX7.@ Y C.ZXu.j ,.f.D.|.S.u.*XdX>XU.0 I E 3 e :XdXm   y g e y.hX=XoXP.t.9.D.`.A.7.f gX{.3.X ,.MX7Xr L.!.}.w.` &.",
"O.^ G [.I.+Xm I.5Xy.$ d.CXU.e S.hXZXIXJXhXoX9.3.c.+Xg.8.g g >.5X5XC.,.e 8.C.U.[.g 0.W.0XfXfXZXzX0Xf y.gX`.o j gXrXe G.T.T.5.` | ",
"$.^ G {.I.:Xh A.eXu.X l.rX% 6 +X#X7.k j Z.hXR X e yXSX<.6.S.,.+XgX9.V.0.0.wXNXh 3 3 tXQ.N B N P.>X= * gX`.o <.BXNXe G.!.$X5.| $.",
"&.{ q <.f r * * f * $ d.CXh   |.4Xj % 9.W.eXA.o e rXwXl q.wX9.A.4X% E.CX@ `.JX,.8 R #XZ.C.7.& #X4X% j 3X'.7 4 :.y % n N N m | ) ",
"$.} ] m.}.:X* A.gX3.2 d.nXh $ +XyXk 9.{.XXeXn.$ = yX2X% s W.j c. X* 7.7.$ '.AX<.7 '.4XZ.U.q.f wXtXe q .X).2 T 7X3Xq Y.kX<Xw.! | ",
"$.} 2.+X}.oXj 4XJXc.X E 3.u 4 g.>XoXOXj e 4XS.@ n eXwX6 M qXM I.gXf U.S.2 `.ZXC.5 3.wX= # B.W.W.C.e r :.P 2 9.NXMXi T.!.Y.w.| %.",
"$.{ 2.+XI.{.i OXNX9.: I n.3Xc.o c.>X+X<.<.+X9.# U.zXyX6 t.cXB T.:Xf U.'.X g.zX>X5 P @XE.U.W.Q.t.- 1.dXb.U 5 <.gXrXm R.!.Y.5.! | ",
"$.{ 2.|.`.+Xu 1XBX1.o u 9.gX5X9.4 3 +XyXhXV % y >X>X9.e 6.E.B =XZXM c.c.Y D.wXwXR : h >XwXoXk f n :XgXf.9   6.kX5Xv R.F.F.e.c ) ",
"&.} G |.|.1XF  XBX1.o U r c.}.rX3.: 9 +XwXC.j D.SXS.j Y k Z.oXV N.0.{.wX2Xe M tX2Xg D.tXS.<.# C.oXgXx.T u o 9.ZXeXm R.p.p.e.[ ) ",
"*.L 1 j.`.`.8 `.7Xi O F j k 9.yX{.6 2 X j hXAXwXc.c.A.{.<.M >XB r.C.XXXXf e M u.=XGX5Xj u % w S.rX0.3.R T o ,. Xm.* 9.7.M v } $.",
"*.S > 5 u u 8 T 4.% + 5 h Y 0 8.D.6 2 8 u c.{.S.g.n.|.|.3.6 #X@X#X4X<.j S.S.{.c.T.W.9.w u u u ,.3.u 3.I y . h 4.,.e % = 6 , { &.",
"&.H t |.|.6X3.3XIX5XeX9.$ 9 9 2 9 9 F Z $ 6 g R a.a.3.3.U u `..X|.[.3.u f.4.,.,.U % o O u u u 9 9 9 P X u I.5XBXAX4. X%X9X] ' / ",
"&.H t `.m.[.w y g.NXPXA.+ 5 : : 3 8 7 7 u % $ 5 1 ; > + o O o , , . o . o o o . , , 5 y 5 q 5 y 5 o 4 O <.gX5X:Xy.j x.]..X] ' } ",
"*.H 1 `.M.5 y u 9 +XJXP.I.8X&X%X%X%Xp 9X%XY.Y.%Xi ].VXpXiXdXDXw.i MX8X7XpXgX3Xi  X[.%XjXI.b ,X,X:X}.<X:X1.rXA.e o 5 4 u ).G H $.",
"*.H 1 )., 4 j.'.E g.5X1.:XDXpXiXMXpXp %X,X,X,X8X5.H.VXiXiXiXDXv.] VXjXjXgXjX8X:.8X8X8XgXY.b gXgXdXdXjX:Xm nX3.5 '.'.R X '.G } $.",
"*.L Z ).u q e U f.o O + :.4.w.x.4.] . q 4.:.:.4.t :.I.H.H.b..X2.u 3XI..X.X.X.Xo i 4.4.4.i + i 4.r.y.b.v.O G , T '.0 I 0 '.E } | ",
"*.H 8 '.t :.m.9.i 3.m.5 4.M.M.M.m._.5 f.[.`.`.[.t :.I.A.A.A..X3.t  X[.[.A..X[.. s.`.[..Xs.5 4.x.b.b.m.x.o s.h.j.'.'.l.2 '.G ` ) ",
"*.S 1 `.s.4 g U w 4 n.5 n.`._._.m.[.4 n.`._._.`.y :.I.A.A.A..X3.q [.A.m.b.b.x.O m.`.m.m.4.y 1XM.m.A.`.M.o h.a.7 a.d.P 3 `.G ! ! ",
"=.H ; a.).3.g g P s.n.3 f.n.f.f.s.j.8 a.n.j.j.n.y U `.`.`.`.|.3.4 `.A.c.y.m.f.o f.n.n.`.3.5 n.f.f.M.m.n.. h.j.E Z 9 P j.f.t ' &.",
"=.J : u j.j.k.k.k.).j.3 a.a.a.a.a.R 3 T a.a.a.a.Z F a.a.a.h.h.F 7 h.3.3.3.d.T : h.h.h.h.T 8 h.d.j.f.j.f.X T ).).k.k.j.j.F > J { ",
"=.} , . > > > > . ; . > ; ; ; ; > ; ; ; ; > > < < < < < < < < ; ; 1 . ; . > < < < < < < < ; < < ; ; > ; ; > > ; : : > > 1 > ' } ",
") | { H / / / / / } ^ ^ ^ ^ ^ ^ ^ ^ A ^ ^ ^ ^ ^ S ^ K #.K K ( S #.} ! ` ` ! ^ ( ^ ^ ^ ^ ^ } S S S S ^ ^ ^ S S S H H ! { } } | / ",
";.| ` | ) _ _ _ %.O.%.+.%.%.%.+.O.O.O.+.+.%.%.%.O.%.@.*.*.@.%.+.O.O.;.) ~ | %.%.+.O.O.O.) O.%.O.+.+.%.+.+.%.+.( } } ) ) | } | ) "
};
