/* XPM */
static char *_3b247a632d44efab133db1a851afbc045q7Fsh4fNnDh7yn[] = {
/* columns rows colors chars-per-pixel */
"64 64 256 2 ",
"   c #050806",
".  c #060519",
"X  c #170418",
"o  c #041719",
"O  c #170D0D",
"+  c #290106",
"@  c #280619",
"#  c #340219",
"$  c #261917",
"%  c #371012",
"&  c #0A2C16",
"*  c #090828",
"=  c #160627",
"-  c #051629",
";  c #180835",
":  c #061936",
">  c #171936",
",  c #10102F",
"<  c #260728",
"1  c #370828",
"2  c #261829",
"3  c #37182B",
"4  c #260635",
"5  c #390637",
"6  c #261737",
"7  c #331B3F",
"8  c #163729",
"9  c #162939",
"0  c #0E3030",
"q  c #2E2D33",
"w  c #342513",
"e  c #5B0709",
"r  c #451616",
"t  c #520A10",
"y  c #6B1718",
"u  c #6B0D1B",
"i  c #492D13",
"p  c #6C2616",
"a  c #743016",
"s  c #491626",
"d  c #461634",
"f  c #500C30",
"g  c #6C132F",
"h  c #4F2E32",
"j  c #702E32",
"k  c #004519",
"l  c #0A5A1D",
"z  c #064725",
"x  c #164437",
"c  c #104C30",
"v  c #274B38",
"b  c #304C36",
"n  c #136937",
"m  c #2C6833",
"M  c #34611D",
"N  c #4C461A",
"B  c #504E2E",
"V  c #774F29",
"C  c #576A32",
"Z  c #74501B",
"A  c #121745",
"S  c #2A164B",
"D  c #172D46",
"F  c #173747",
"G  c #123951",
"H  c #282846",
"J  c #273849",
"K  c #38384A",
"L  c #293A55",
"P  c #382D4D",
"I  c #143D61",
"U  c #4D324A",
"Y  c #6D2E49",
"T  c #531B4F",
"R  c #17474A",
"E  c #1B564A",
"W  c #0C4C58",
"Q  c #154D56",
"!  c #1B4B54",
"~  c #144E5B",
"^  c #1C4E5A",
"/  c #194555",
"(  c #0C575B",
")  c #1B5356",
"_  c #15545C",
"`  c #1C535B",
"'  c #13595D",
"]  c #1A595E",
"[  c #165555",
"{  c #0B4643",
"}  c #29454A",
"|  c #265447",
" . c #224C5A",
".. c #264757",
"X. c #364A5B",
"o. c #205259",
"O. c #275656",
"+. c #375859",
"@. c #324844",
"#. c #197346",
"$. c #2F7152",
"%. c #174A63",
"&. c #0B5A62",
"*. c #085667",
"=. c #155462",
"-. c #1B5561",
";. c #145A61",
":. c #195961",
">. c #19586A",
",. c #1A5D75",
"<. c #0D4B63",
"1. c #284B63",
"2. c #225562",
"3. c #235C6B",
"4. c #295768",
"5. c #345667",
"6. c #2D5670",
"7. c #0D646A",
"8. c #16626A",
"9. c #056674",
"0. c #136577",
"q. c #09737A",
"w. c #296369",
"e. c #266575",
"r. c #356F67",
"t. c #4E5151",
"y. c #714B4C",
"u. c #476C52",
"i. c #696A47",
"p. c #475967",
"a. c #50566A",
"s. c #6A4C6D",
"d. c #487170",
"f. c #736672",
"g. c #873419",
"h. c #8C3530",
"j. c #AD3A30",
"k. c #82163E",
"l. c #8D4E1B",
"z. c #8A4723",
"x. c #974A28",
"c. c #894636",
"v. c #915032",
"b. c #AF4F34",
"n. c #B0723C",
"m. c #926430",
"M. c #C35B2D",
"N. c #871544",
"B. c #843A4C",
"V. c #AD2B45",
"C. c #8F534C",
"Z. c #A35A4B",
"A. c #94684C",
"S. c #A76A46",
"D. c #B67054",
"F. c #936C6C",
"G. c #AE7172",
"H. c #964D63",
"J. c #C56D55",
"K. c #0C9138",
"L. c #23A639",
"P. c #25E238",
"I. c #11944B",
"U. c #308C4F",
"Y. c #15AB53",
"T. c #36AE4C",
"R. c #2E9069",
"E. c #36AB66",
"W. c #1E9065",
"Q. c #4F8E51",
"!. c #4EA955",
"~. c #69B453",
"^. c #4B8F6C",
"/. c #708F76",
"(. c #5AA866",
"). c #4EAE6F",
"_. c #6BB16B",
"`. c #63955B",
"'. c #15D44B",
"]. c #2DEB4A",
"[. c #39CA6C",
"{. c #35D45E",
"}. c #76CA5A",
"|. c #6ECA4F",
" X c #50D36F",
".X c #76C871",
"XX c #6AE773",
"oX c #58D24B",
"OX c #BB895B",
"+X c #938F74",
"@X c #B48A6D",
"#X c #8FAE78",
"$X c #9D9D68",
"%X c #CB8F54",
"&X c #E69A59",
"*X c #D8A458",
"=X c #F3B14E",
"-X c #CB926C",
";X c #EA9371",
":X c #D7A778",
">X c #D5AF72",
",X c #F1AF70",
"<X c #88CD71",
"1X c #F7C475",
"2X c #F8C14E",
"3X c #4D7686",
"4X c #6C6C8D",
"5X c #93738C",
"6X c #74AD87",
"7X c #608E94",
"8X c #66D58E",
"9X c #92A893",
"0X c #95AEAA",
"qX c #A49991",
"wX c #C99388",
"eX c #D0B88D",
"rX c #EEB790",
"tX c #D2B3A7",
"yX c #EBA9A2",
"uX c #8BCD8C",
"iX c #B8CDB5",
"pX c #9ADEA9",
"aX c #EBC78C",
"sX c #F5D289",
"dX c #FACA98",
"fX c #F4CB93",
"gX c #FEE599",
"hX c #CFCEAE",
"jX c #FBDBA6",
"kX c #F0D1AF",
"lX c #D4E7B8",
"zX c #FEE9A8",
"xX c #FBF4A9",
"cX c #FEE7B8",
"vX c #FDFDBC",
"bX c #FAF9B7",
"nX c #EEEFB9",
"mX c #D9CA8F",
"MX c #ABB1D2",
"NX c #C3B9C1",
"BX c #B4D0D5",
"VX c #BCE5EA",
"CX c #9CC3D1",
"ZX c #F8D9CF",
"AX c #D3E9D2",
"SX c #FEFBC8",
"DX c #FEF9D7",
"FX c #F8EDCB",
"GX c #C6D6E6",
"HX c #CCEDF2",
"JX c #E5F9E6",
"KX c #FAFEE8",
"LX c #E8FDF9",
"PX c #F4FCFA",
"IX c #EFE9EB",
"UX c #CDD5CF",
/* pixels */
"o.o.o.o.o.o.o.o.o.o.o.o.) ) o.o.` ` ` ` ` ` ` -.;.;.' ' ' ] ] ] ] ' ' ' ' ' ' ' ' ' ' -.-.>.>.-.] [ ] ] ` ) ` ` ) ) ) ) ) ) ` ` ",
"o.o.o.o.o.o.o.o.o.o.o.o.) ) o.o.` ` ` ` ` ` ` ] ;.;.;.;.:.:.] :.:.:.;.;.;.' ' ' ' ' ' ' -.-.=.-.] [ [ ` ) ) ) ) ) ) ) ) ) ) ) ) ",
"o.o.o.o.o.o.o.o.o.o.o.o.) ) ) o.` ` ` ` ` ` ` -.-.:.:.:.>.>.3.3.3.>.>.>.>.>.:.:.] ] _ ) ) ` ) ) ) ) ) ` ` ` ` ` ` ` ` ` ` ` ` ` ",
"o.o.o.o.o.o.o.o.o.o.o.o.) ) ) ) ` ` ` ` ` ` ` -.-.-.2.2.6.6.6.6.3.3.3.3.3.3.3.4.` ` ) ) ) ) ) ) ) ) ) ` ` ` ` ` ` ` ` ` ` ` ` ` ",
"o.o.o.o.o.o.o.o.o.o.o.o.o.o.o.o.` ` ` ` ` ` -.-.=.-.G - : 9 D F F F F F F } ..F R R ! ! ! o.o.4.` ) ) ) ) ) ` ` ` ` ` ` ` ` ` ` ",
"o.o.o.o.o.o.o.o.o.o.o.o.o.o.o.o.` ` ` ` ` ` -.-.-.6...- 9 0 8 x v v v v x v v 8 x x x x O.O.o.^ ` ` ) ) ) ) ` ` ` ` ` ` ` ` ` ` ",
"o.o.o.o.o.o.o.o.) ) ) ) ) ) ) ) ` ` ` ^ ^ ~ ~ ^ D F 1.d.r.^.(.6XuX<X<X<X.X<X.X_._.`.Q.u.| | E ! o.o.o.) ) ` ) ) ` ` ) ) ` ` ` ` ",
"o.o.o.o.o.o.o.o.) ) ) ) ) ) ) ) ` ` o.o.Q Q Q ..: - F r.r.U.!._..X}.}.}.}.<X}.~.~.~._._.u.| | O.o.o.o.` ` ` ) ) ` ) ) ) ) ) ` ` ",
"o.o.o.o.o.o.o.o.o.) ) ) ) ) ) ) ) )  . .Q ~ 2.L : - F d.$.U.U.!.~.~.~.~.|.}.}.}.~.~.(.(.& - 9 X...O.o.) ` ` ` ^ ) ^ ^ ) ^ ^ ^ ` ",
"o.o.o.o.o.o.o.o.o.o.) ) ) ) ) ) ` ^  . .^  .G F 1...O.r.$.U.U.(.(.(._._.~.}.<X<X<X~._.Q.o o 0 O.X...o.) ` ` ^ ^ ^ ^ ^ ^ ^ ^ ` ` ",
"o.o.o.o.o.o.) ) ) ) ) ) ) ) ` ` ) ) ) ^ F J 9 F d.r.u.$.U.Q.!.n O.O.$.d.`._.<X<X_._..X(.Q.`.(.6X+.}  .! ` ` ` ^ ) ) ) ) ` ` ` ` ",
"o.o.o.o.o.o.) ) ) ) ) ) ` ` ` ` ` ` _ ^ : * 9 9 x n ^.(.!._.).n { 9 } p.t.u.Q.Q.Q.#X_.uXuXuXuXpXp.J ..! ^ ` ` ^ ) ) ) ` ^ ` ` ` ",
"o.o.o.o.o.o.) ) ) ) ) ) ) ) ` o. . .) R - * D ..{ z $.(.(.(.).$.8 2 O q h t.t.p.u./.6X/.6X6X6X6XJ > L  .^ ` ` ` ` ` ^ ^ %.%.o.o.",
"o.o.o.o.o.o.) ) ) ) ) ) ) ) ) o. . .` R * * H X.O.E ^._.U.$.R.$.t.qXF.j + + 6 6 2 0 8 8 8 8 8 8 > 6 J .. .` ` ^ ` ` ^ ^ %.%.o.` ",
"o.o.o.o.o.o.) ) ) ) ) ) ) ) ) ) ^ ^ ^ / * = 6 H D F r.7X^.r.r.$.B fXrX%Xv.t @ < 2 2 q U K K K K P H H X. .) ` ` ` ` ` ` %.-.-.-.",
"o.o.o.o.o.o.) ) ) ) ) ) ) ) ) ` ` ~ ^ ..* X < = , > F G / ! R x N aX,X&X&XJ.j # @ @ < 4 ; 6 ; 6 4 ; X.5.) ` ` ` ` ` ` ` -.-.-.-.",
") ) ) ) o.o.o.) ) ) ) ) ) ` ` ) ^ ^ ! } X @ + + O . A S S S 6 O i jXdXx.x.;X;Xv.C.3 X = ; ; ; ; = = X.2.' ' ` ^ ` ` ` ` ` ` ` ` ",
") ) ) ) o.o.) ) ) ) ) ) ) ` ` ) ^ ^  .} qXwXwXwX+XqXP ; S s.5XC.m.dX:Xt t D.;XrXZXy.X = 4 4 ; , ; > ..-.' ' ` ^ ` ` ` ` ` ` ` ` ",
") ) o.) o.o.) ) ) ) ) ) ) ) ) ` ` ^  .@.eXjXdXdXkXZXU < < 5XyX-X>XjXwX% + wXrXjXFXU X H t.h K p.X.1.^ _ ' ' ` ` ` ` ] ] ] ] ` ` ",
"o.) o.o.o.o.) ) ) ) ) ) ) ) ) ` _ -.%.@.eXsX*Xn.D.-Xs X @ G.:XsXzXcXtX@ @ tXvXbXDXy.. f.KX+Xb +.4.2.Q ' ' ' ' ` ` ` ] ] ] ] ` ` ",
"o.o.o.o.o.o.) ) ) ) ) ) ) ) ) ] =.=.^ @.mXgX,Xl.x.Z.+ # + A.-XzXzXvXtX$ O tXnXbXFXt.  f.FX+Xb O.] ;.:.] -.' ' ' ` ` ] ] ` ` ` ` ",
"o.o.o.o.o.o.) ) ) ) ) ) ) ) ) ] &.=.` b $X*X*X%XJ.J.Z.C.A.:X,XgXxXvXkX$ $ hXbXbXDXi.O +XFX$Xv E ] ;.:.] -.' ' ' ` ` ] ] ` ] ` ` ",
"o.o.o.o.o.o.) ) ) ) ) ) ) ) ) ] &.&.[ b V m.&X1X,X,X1X1XsXgXgXxXgXvXcXhXhXSXbXvXSXhXlXnXSXqXx E ) ` _ ' ' ' ' ` ` ] ] ] ] ] ] ] ",
"o.o.o.o.o.o.) ) ) ) ) ) ) ) ) ' &.&.[ | B y.@X:X>X,X>X,XrXsXgXgXbXvXSXSXSXvXvXvXSXSXvXSXSX9X8 R ! ^ ^ ) _ _ ` ` ` ] ] ] ] ] ] ] ",
"o.o.o.o.o.o.o.o.) ) ) ) ) ) ` ;.&.&.' ) O.9 = @ % r r t h.;X,XfXgXbXvXSXvXvXbXbXbXSXvXnXSXlXx R Q Q Q Q ) ) ` ` ` ` ` ` ` ` ` ` ",
"o.o.o.o.o.o.o.o.) ) ) ) ) ) ` ] &.&.=.-.-.1.D * . X < 1 Y G.wX;XfXgXzXzXzXzXxXxXjXcXbXlXiX9X| ` Q ~ ) ~ ) ) ) ) ` ` ` ` ` ` ` ` ",
"o.o.o.o.o.o.o.o.) ) ) ) ) ) ) ] ' &.=.-.1.1...9 . . * = 4 5 g g -X,X1X1XsXsXsXsXsXaXmX+Xb 0 %.<.~ ~ _ _ _ _ _ ) ` ` ` ` ` ` ` ` ",
"o.o.o.o.o.o.o.o.) ) ) ) ) ) ) ] ' ' =.-...R | $.| | 8 9 D ; d g D.rXaXaXaXaXfXfXrXeXhX/.p. .<.<.<.~ _ _ _ _ _ _ -.` ` ` ` ` ` ` ",
"o.o.o.o.o.o.) ) ) ) ) ) ) [ ) [ ' ' =.2.9 o & l l l l c c 0 . < 1 3 r i i r s d @ < 6 6 L 1.G ~ W W W W ~ ~ _ =.3.^ ^ -.` ` ` ] ",
"o.o.o.o.o.o.) ) ) ) ) ) ) ) ) [ [ _ =.2.J & n T.!.!.T.T.).R.+.a.H = + + % s < = ; ; ; , : D +.r.w.w.w.w.r.w.o.) ^ ^ ^ ` ` ` ` ] ",
"o.o.o.o.o.o.) ) ) ) ) ) ` ` ) ) ) [ >.1.9 +._.XXXXXXXXXX8X8XE.R.5.. % C.C.C.1 . * , , , * a.JXJXJXJXJXJXJXAXAX7XR Q ` ` ` ` ] ` ",
"o.o.o.o.o.o.) ` ) ) ` ` ` ` ` ) ) ) ) | v m T.T.T.T.T.T.!.).W.W.$.& B A.c.C.q p.X.J , .   B DXDXDXKXKXKXKXDXKX9X8 / ) ` ) ) ] -.",
") ) ) ) ) ) ` ` o.o.-.-.` ` _ ) Q x c Q.~.oXT.L.K.#.k     z R.W.).8X#XC V h u.^.^.8 t.+XB i.jXjXcXcXcXcXcXcXcXF.$ 8 R ` E ) ) =.",
") ) ) ) ) ) ` ` ` ` -.-.` ^ ` ^ F 8 C ~.|.oXoX XU.r.J . . @.^.R. XXX.XM N C U.R.^.& B DXSXeXZ l.v.v.z.V v.D.OX@XUXUXO.Q E E ) =.",
") ) ) ) ) ) ` ` ] ] ` ` ^ ^  ...t.i.+X$X<X<X}.(.x D > X   v ^.U. XpXpXU.M u.U.U.^.& B DXSX>XZ m.x.x.z.z.z.S.n.kXKXLX5.Q ) ) _ =.",
") ) ) ) ) ) ` ` ] [ ) ) ^ ^ ..K h j p a N B M b * * = 2   v ).).).E.).T.U.U.I.I.^.  i cXSXmXZ x.x.x.z.g.g.b.b.rXDXAXO.~ ` ` =.=.",
"` ` ` ` ) ) ` ` o.w.d.5. ...t.d g u u u u s 1 = 4 * , p.x $.8X8XE.n I.Y.Y.Y.Y.I.$.  w cXbXeXa x.g.g.x.x.g.b.x.rXDXAXO.Q ` ` =.>.",
"` ` ` ` ) ) ` ` ! CXLX0XF X.U B.V.V.V.V.N.g 5 5 = X > p.O.E U.#.$.#.I.E.I.I.I.U.+.  i zXbX>Xg.j.g.z.S.S.b.x.x.fXDXAXO.~ -.-.>.>.",
"` ` ` ` ) ` ` o.! BXPXAXp.P Y H.b.j.j.V.g f 1 = < @ 2 p.+.E x 8 v $.c n n n m m @.  i jXxX>Xg.j.a -XSXcXS.z.z.fXSXlXO.~ >.>.>.>.",
"` ` ` ` ) ) ) o.G 3X0X0XGX5XY J.M.M.b.b.h.g 5 < f r 3 h q 2 2 q h i.i.C B C C i.q   i jXxX>Xg.j.a OXSXcXOXz.V kXSXAXO.=.=.=.=.=.",
"` ` ` ` ` ` ` ` 2.G 0 p.PXqXh.;X&X=X=X=X%Xv.1 5 g N.g g g g g u S.,X;X,X,X,X&X:Xy.O h cXbX>Xg.j.g.%XbXzXS.p v.kXSXlXO.=.=.=._ ) ",
"` ` ` ` ` ` ` ` ~ =./ 6.MXs.Z.,X,X2X2X=X%XA.d f g N.g k.N.N.N.u b.,X,X,X,X,X&X;XY X s cXcX>Xa h.a %XxXxXD.p a kXSXlX) ' _ ` ) ) ",
"] ] ] ` ` ` ` ' _ [ W G A ; G.,X1X1X,X&XS.C.d 4 f f f Y g j j s j S.S.S.A.A.C.C.h X w kXzX-Xp h.p D.zXcXD.p a kXSXlX) ' ' ' ` ` ",
"] ] ] ` ` ` ` _ ' [ ) %.A = G.rXfXdXrX-Xg j 4 4 5 5 3 U h t.i.i.B N N N N q q q q X w kXzX%Xy h.y p S.OXc.p a fXFXiXR W ' _ ` ` ",
"] ] ] ] ` ` ` _ _ W R G p.4Xf.F.F.y.Y f 5 5 4 ; 4 = 9 +.$.m Q.Q.U.U.U.U.U.$.$.$.+.- w hXzX:Xe y y p Z.C.h.y p rXDXiXo.W ' ' [ [ ",
"] ] ] ] ` ` ` ` =.2.6XBXLXPXa.s.T 5 5 S 4 4 S ; ; - z U.K.K.T.L.L.L.L.Y.K.I.I.I.w.o $ hXzX-Xe e u t u e e y y yXDXUXR W ' ' [ [ ",
"` ` ` ` -.-.] -.~ G GXPXLXIXa.s.s.T 5X9X4X4X4X* 9 0 l E.{.'.].P.P.P.P.P.'.'.'.Y.R.o O hXjX%Xp y u u u e e p y wXDXAX) W ' ] [ [ ",
"` ` o.` -.` ` `  .} BXLXJXPXK H T S GXBXHXLXMX* } E n 8X{.].].].].P.].].'.'.'.[.).0 $ tXdXOXz.c.y u u u y wXG.C.+X9X) W ' ' [ [ ",
"^ ` o.o.o./ 3XHXHXJXLXLXHXPXK * ; ; MXHXHXLXMX- +.| #.8X8X X X X X X X X[.[.[.).^.8 3 G.:X,X,Xl.e e e u e yXFXA.8 { _ _ _ _ [ [ ",
"^ /  . . .F 7XLXLXKXLXLXHXLXp.* A A CXHXHXHXVXGX0X  0 x 8 z z k & k k k k k z z & $ @ s C.OX*Xn.v.v.v.Z.C.@XkX+X0 W ' _ ' _ [ [ ",
"2.2.O.d.d.p.0XPXKXJXAXiXX.7X3XG <.<.e.;.7XVXBXLXBX2 X X = , , * . . - o o o . . = 4 < # + + j jXxXgXxXbXnXi.8 +.Q ' =._ ] ] [ [ ",
"2.^ O.GXLXLXPXPXKXKXPX0X- D %.>.,.*.*.W 7XHXVXHXAXIXF.@ 1 4 4 ; H L 1...L H 4 = 4 4 @ # 1 # j ZXbXxXxXbXAX/.{ =._ :.=._ ] ] [ [ ",
"4.^ ..GXLXLXJXPXPXAXAXCX/ <.<.*.*.*.<.=.3X7X4XNXIXKXtX# # 1 4 , G 3.e.,.>.G ; 4 1 d s s 1 @ h tX$X$X#X9X0Xd.W &.' ) ' ) ' ' ' ' ",
"^ ) ..VXLXLXLXPXPXp.0 +.~ <.*.*.*.*.*.=.: . 2 5XkXDXkXy.y.d U L W 9.q.9.0.G ; 4 Y H.C.y.C.h 3 q 8 & 8 9 0 ^ 8.( ' ) ) ) ' ' ' ' ",
"2.! o.CXVXVXVXHXGXd.F 2.[ ( ( *.*.*.*.=.F . < 1 F.tXyXG.H.d U 5.*.9.9.9.0.I S 5 Y B.y.Y j s H 1.) E ) 2.^ =.&.&.' ) ] ' ] ] ] ] ",
"o.o./ ^ ! ! ! !  ./ 4.~ ' ( ' ( *.*.*.-.F = U h p j j j s < 9 4.8.9.9.9.0.I S 5 f g g y p s H 4.' ( ( =.=.>.;.( ' ) ] ' ] ] ] ] ",
"o.o.) ` ` ` ` ` -.-.-.-.] ' ;.;.' ' <.%.J 3 C.Z.c.c.c.C.s $ J ] 8.9.9.9.0.2.A 4 d B.h.h.c.h K 5.2.( ' _ =.=.;.' ' ' ' ' ] ] ] ] ",
"2.o.` ` ` ` ] ] -.-.:.:.:.:.:.' [ ` 1.5.H 3 c.v.h.h.h.B.s 2 ..w.e.8.8.0.e.4.> 4 d Y h.g.h.j U X.o.3.3.-.-.=.' ' ' ' ' ' ] ] ] ] ",
"2.2.` ` ` ` ] ] ] ] :.:.:.:.:.] o.1.X.X.S d j j j j h.Y f < K X.5.1.-.2./ L ; 4 1 g u y C.y.y.a.a.5.5.4.-.-.;.;.' ] ] ] ] ] ] ] ",
"2.2.` -.` ` ` -.] ] :.:.:.:.:.-./ D > = 5 d y.h j j j Y d < > D : : : : - : * 6 1 f f g j Y U K H : D 5.2.-.;.;.' ] ] ] ] ] ] ] ",
"2.2.` 2.` ` -.-.-.-.:.:.] :.:.-./ : * ; 4 < = $ @ < < < < > > : : : : : : - * = = < @ @ @ X = * - - D 1.2.-.;.;.' ] ] ] ] ] ] ] ",
"2.2.2.2.` ` -.-.-.-.:.:.:.:.:.-.1...L L L L L L L L L L 1.1.1.1.1.1. .1.1. .....L L J K L J J L .... .4.-.-.;.;.' ] ] ] ] ] ] ] ",
"2.2.2.2.-.-.-.-.-.-.:.:.:.:.:.-.4.6.e.e.3.3.3.e.,.,.,.,.,.,.>.>.>.:.:.>.w.>.:.>.w.w.w.e.e.3.3.3.e.w.3.-.:.:.;.;.-.-.] ] ] ] ] ] ",
"2.2.2.2.-.-.-.-.-.-.:.:.:.:.:.-.-.3.8.( 7.0.,.,.0.0.9.9.9.*.*.&.&.( ( ' 8.8.( 7.7.7.7.7.7.7.&.;.&.8.>.W :.:.:.:.-.-.] ] ] ] ] ] "
};
