/* XPM */
static char *_92d7eb752774228bbe6830546b305dbfVFUJvwLVD0oFgNO[] = {
/* columns rows colors chars-per-pixel */
"48 48 244 2 ",
"   c #0C0302",
".  c #0C020D",
"X  c #040008",
"o  c #11040F",
"O  c #140C0A",
"+  c #130A06",
"@  c #0C0112",
"#  c #0D001D",
"$  c #110512",
"%  c #140A14",
"&  c #190E1A",
"*  c #150A19",
"=  c #1C1213",
"-  c #1D121D",
";  c #191518",
":  c #1B110B",
">  c #221915",
",  c #261C1A",
"<  c #22161A",
"1  c #2A211D",
"2  c #050528",
"3  c #1B0E21",
"4  c #140A27",
"5  c #1D1427",
"6  c #191738",
"7  c #130D38",
"8  c #221523",
"9  c #251A24",
"0  c #291D2A",
"q  c #271B29",
"w  c #281B35",
"e  c #2D2323",
"r  c #2C222C",
"t  c #332B25",
"y  c #352B2C",
"u  c #392D2D",
"i  c #32272A",
"p  c #3B322D",
"a  c #3A342E",
"s  c #2A2538",
"d  c #322534",
"f  c #362B34",
"g  c #392D33",
"h  c #352B3A",
"j  c #392D3A",
"k  c #3D3433",
"l  c #3D333C",
"z  c #34313D",
"x  c #1E223E",
"c  c #413535",
"v  c #433935",
"b  c #41353A",
"n  c #453B3C",
"m  c #493F3C",
"M  c #41372F",
"N  c #4B423D",
"B  c #484037",
"V  c #55483E",
"C  c #1B1747",
"Z  c #16124B",
"A  c #241347",
"S  c #261958",
"D  c #1D244A",
"F  c #2C254B",
"G  c #292647",
"H  c #362B49",
"J  c #3C3443",
"K  c #393548",
"L  c #282556",
"P  c #352C56",
"I  c #393758",
"U  c #2C304E",
"Y  c #3A2A66",
"T  c #393A67",
"R  c #3A3C78",
"E  c #282B68",
"W  c #423642",
"Q  c #453A44",
"!  c #493E44",
"~  c #453A48",
"^  c #4A3D4B",
"/  c #43354A",
"(  c #443856",
")  c #463865",
"_  c #4A3A79",
"`  c #412B77",
"'  c #3B4A6F",
"]  c #3E4059",
"[  c #4D4344",
"{  c #4D434B",
"}  c #4E4845",
"|  c #514644",
" . c #534A44",
".. c #52454B",
"X. c #564C4B",
"o. c #594F4D",
"O. c #5C534D",
"+. c #5D5043",
"@. c #4D4352",
"#. c #474459",
"$. c #524752",
"%. c #554A52",
"&. c #594D52",
"*. c #594D5A",
"=. c #54495B",
"-. c #5D5353",
";. c #5D525B",
":. c #555052",
">. c #615655",
",. c #635A55",
"<. c #61565B",
"1. c #655B5B",
"2. c #6A5E5C",
"3. c #695B57",
"4. c #60564E",
"5. c #6B625C",
"6. c #66615B",
"7. c #72675C",
"8. c #47486A",
"9. c #544865",
"0. c #5A5465",
"q. c #474976",
"w. c #564979",
"e. c #575778",
"r. c #485371",
"t. c #655A62",
"y. c #685C65",
"u. c #675978",
"i. c #6D6362",
"p. c #6D6669",
"a. c #716564",
"s. c #746A65",
"d. c #71656A",
"f. c #756C6B",
"g. c #796E6C",
"h. c #796D65",
"j. c #7C726D",
"k. c #79756A",
"l. c #696579",
"z. c #756C73",
"x. c #796D73",
"c. c #756978",
"v. c #7D7373",
"b. c #7D737B",
"n. c #7B7776",
"m. c #667376",
"M. c #83776C",
"N. c #817573",
"B. c #837974",
"V. c #82757A",
"C. c #857B7B",
"Z. c #897E7C",
"A. c #887E75",
"S. c #816E76",
"D. c #8C817C",
"F. c #8E8675",
"G. c #8F8377",
"H. c #3C3B82",
"J. c #3C408A",
"K. c #574C85",
"L. c #575795",
"P. c #4E508A",
"I. c #665B9C",
"U. c #5B6597",
"Y. c #596E90",
"T. c #696B87",
"R. c #656898",
"E. c #707290",
"W. c #6F5BA5",
"Q. c #6565A7",
"!. c #6C78A6",
"~. c #7472B2",
"^. c #5D62A5",
"/. c #777CC3",
"(. c #877A82",
"). c #8978B3",
"_. c #8F7CC6",
"`. c #728297",
"'. c #7786A6",
"]. c #748BB3",
"[. c #7B86C4",
"{. c #7D91CC",
"}. c #8D8283",
"|. c #898388",
" X c #948A85",
".X c #958989",
"XX c #9B9289",
"oX c #9A8E93",
"OX c #9D9292",
"+X c #9C979A",
"@X c #838499",
"#X c #A49A8E",
"$X c #A49B98",
"%X c #A9A498",
"&X c #B0A39E",
"*X c #8895A9",
"=X c #8499B8",
"-X c #8F91B0",
";X c #A89BA6",
":X c #8AA5B9",
">X c #94A2B2",
",X c #A8A3A6",
"<X c #B2A6A4",
"1X c #B5ACAB",
"2X c #B6ACA6",
"3X c #BBB4AC",
"4X c #BDB2B4",
"5X c #AFAAB6",
"6X c #C4B8B6",
"7X c #C0B7A8",
"8X c #CAC0BA",
"9X c #8788C8",
"0X c #8697C6",
"qX c #8B99D4",
"wX c #938FCD",
"eX c #8BA5C5",
"rX c #94AAC8",
"tX c #97B4C8",
"yX c #96ACD9",
"uX c #A8BADA",
"iX c #A5B3CD",
"pX c #9AA7E5",
"aX c #9DBAE4",
"sX c #A3A8E9",
"dX c #A6B5E7",
"fX c #ADB8F6",
"gX c #9E98DF",
"hX c #C7BAC3",
"jX c #ACC6DC",
"kX c #B9CED9",
"lX c #B9D3E7",
"zX c #B8C5FB",
"xX c #B5CAEA",
"cX c #BFE1EF",
"vX c #D1C6C4",
"bX c #C2D2EB",
"nX c #C6DBF9",
"mX c #CFD9F2",
"MX c #CDE4EF",
"NX c #C9E8F5",
"BX c #D6EDF8",
"VX c #DBF5FB",
"CX c #EAF8FD",
"ZX c #E5DAD7",
/* pixels */
"f.1X3X4X1X1.= | <X$Xb -   -.6X<X$X1X X[ v <X1X4X;.c.;X;X4X4X1., t  .6.  4.XXM : 5.vX$X< = d.hX*.",
"2.2.}.Z.Z.-.u N. Xj...g . 1.$X}.}.oX$XXXd.a.v.V.$.c.b.|..Xd.u > 5.5.a O.+.t v D.j.Z.f.i...d.(.q ",
"}.v.-.i.C.k N N.D.D.p.g < }.}.j.N.N.v.f.[ g &...~ @.b.+X(.-.u u 5.D.O. Xh.t a.#XB.N.j.}.OX%.0 q ",
"N.B.v.u m p -.B.Z.C.-.g e V.Z. .g.Z.V.1...f d f h ^ ^ b.y...u , p t N  XO.1  .D.h.D.N.a.V.x.d o ",
">.i.1.v 1 c a.N.Z..XV.p.y x.1.,.D.v.-.f %.j 3 ~ h d W { Q = > N f.,.: N s. .5. Xj.D.>.N.}.x.{ o ",
"C.a.k t | g.g.a.j.}.(.V.e X.| O.g.}.y.^ 0 / 5 u.w j ^ 8 % [ o.v.B. XN N OX5.O.D.D.Z.s.[ 1.^ & 0 ",
"i.a., u N.N.a.5.B.Z.v.1.= [ g.O.| -.1.W / w 9.w s ^ d d d.2.k C.i.f.5.a N 5.N 2.s.O.i.g.X.9 0 9 ",
"u e k y.N.a.i.,.j.g.f.X.y v.N.5.5.d.%.W w ) w.7 P w w *.z.v.v O.a.5.f.h. .O.v 7.h.j.O.X.[ &.g & ",
"0 9 ! v.N.,.,.s.v.s.s.i k v.v.i.u V.*.=.7 ).Y ` ) 7 w 9.y.x.1.y 5.j.f.O.a.j.= | C.,.1 t o.a.t = ",
"8 ! &.i.f.a. .,.C.-.u = [ C.C.v.{ 9 / 9.A ).W.` S A A F c.*.X.o.X.5.a.5.N 5. .N k k ,.5.g.e   : ",
"< g 1.s.N.C.N N >.v p t k C.Z.v.k r ^ H P _ _.K.Y Y 7 w =.c.}. Xh.j.B.D. .,.B. .1 e -.1.[ t >   ",
"-.t e o.g.C.-.| > t 2.>.> v.B.2.[ Q 9.( A A ~._.).Y ) 4 =.0.p.v.A.f.a.h.i.-.h. .1 t 1 m e m 1 t ",
"N.D.X.> X.Z.[ c c s.v.i.e = y d.&.q K T.w.S _ wX)._ P u.K ;.,.,.s.B.a.6.X.,.t e [ -.p e O.n 1   ",
"B.h.N.1.e &.n n e n m c n [ [ -.g - 3 H K.` I.W.wX_ w.@X@ l [ B v  .v  .k N n k n o.-., , 1 ,   ",
"7.A.h.f.n ! b.Q a.1.| v.}.C.5.} (.Q 4 ( Y K.).wX9XY R.( w y.Z.j.6.,.5.k X.O.B.f.j.X.,.N , + , , ",
">.5.X.i.o.y.4Xt.<X$XXX6X$X8X6X2.1XE.s ) P ~.~.gXK.Q.).I ( +X6X2X7XF.XX&XB.1.D.,.i.s.v > e B.N n ",
"m n >.f.b ..C.f.}.a.G.G.V %Xj.j.oX~ w w.L 9XwX_.~.~.R.6 w (.&.,.7.F.F. Xj.5.,.f.,.o.y k Z.OXy + ",
"b ..&.p.k -.d.X.2.B.M.h.+.2X$Xd.x.t.F w.L.sXgX^.sXI.q.F ( l.V.N.#XF.k.M.XXg. .s.,.2.N n  X,.| > ",
"g &.&.-.b [ f.Z.i.N.7.A.#X<XN.v.y.e.F R L./.zX[.qX~.R.6 H E.hXOX%X#XA.3X2X5.i. .,.X.t t N 5.X.O ",
"g X.1.[ b e &.<.O.t t N X.b k Q H 6 L P.H.~.pXpXsX^.L.8.4 H y.!  .N B O.N n -.v O.v p i.-.t p N ",
"i y k <.k >.1X X3Xk.O ; ; & & X 2 P E Q.E /.qXzXpXR R T T 4 X & X X   O   v.6XXXv.h.t ,.v.1.n O ",
"V.p.X.1.b a.6XX.%X%X; J z h h 5 G Z R P.P.[.fXzXpX~.R L.C ( w K ~ 0.{ l O  XZXh. Xa.1 i.O.p   + ",
"V.<.b ! g i.6X5.%X%X; s K K K s P K.H.H./.fXnX{.!.pX~.T e.P 6 0.( l.@.{ % V.}.v v.B.n i.n X     ",
"<.>.-.[ c -.vXj.3X+X5 J #.I #.U 2 L.Q.^.qXzXdXpXyX[.qXU.!.2 I e.H 9.h 0.r (.4X5.<XD.t O.y > + > ",
"c >.1.<...g s.XX$X.Xq K ( P U P L P.~./.qXyX].`.tXeX0X9XU.7 r.e.8.#.0.0.$.[ <Xa.OX,.k O.k y t t ",
"t [ -.Q Q &.}.XXoXd.w H P P F C T Q.P.[.qX].=X:XY.=X0X!.P.R.6 G s l.5 0.f [ 2X.XOX1.n 5.o.N ,.k ",
" .c 9 Q l v.vXB.<XoXq H F P G C q.wX^.pXqX].eXtX].=X0X0XU.~.2 U I T.=.0.% z.6XB.Z.g.k = o.e u O ",
"h.t = y g g.%Xv N..Xw ( F F G P C wX9X9X0XyX:X:X:XeX0X].zXP.6 8.6 ] K s & z.}. .Z.g.k e e     i ",
"1 1 &.! ! 1.2Xg.OX|.d ( F F G 8.L S fX~.qXdXrXtXjXuXR.yX].7 T.] G 6 s K . .X<X7.j.5.k k e z.OXg ",
": m y.%.b k B.h.N.<.5 K P P P 8.K.Z Q.pX[.xXlXlXlXjX].dXE q.' 2 x ] U K % n v.D.XX .v 1 OX,XQ 9 ",
"t 2.f.1.! | 2XD.<Xb.q H H P A F -XS P.fX].rXlXNXjX=XaX!.Z R.q.6 G G #.z . v.6XM.&XZ.p o.x.b ..= ",
"s.f.x.p.n -.#X5.oX(.w K G F G -XR.R L.sXzXeXlXVXtXuXnXU.P.D iXe.D s s K - C.vX3.#XB.t i.p.<.d.e ",
"z.t.d.t.Q i.2XO.}..Xd K G 7 T.E.!.!.L.qXdXuXjXBXjXnX'.=XR.0XP.0X' 6 K s - C.<XN }.s.v 5.i.-.n % ",
"p.z.! i.{ o.1XB.1X(.3 ( I 2 T.8.eX' 0XeX{.cXlXNXlXlX].uX' xX' 0XI 7 K 0.9 a.6XZ.6X2.[ y.X.! < . ",
"& { t.;.n b j.a.N.Q 3 / w 6 r.*X`.' ].aX].NXcXNXBXiX:XuXY.0X!.-XD s I #.9 c N.M.j.| N i ! k % 8 ",
";.b.b.f.n i.&X5..X(.8 5 6 I 6 E.'.].Y.aXeXxXNXNXMXtXbX'.rX*XuXq.I 6 4 h $ f. XM.D.s.| , y &.q & ",
"(.y.t.d.k [ B.O.a.V.8 H I T I 6 :XtXrX!.nXlXMXVXkXMXiX*XbXbXY.U r.I 9.h . x.h.+.h.j.[ -.k r r * ",
"*.*.t.i.n -.s.| g.S.$ 5 P T.'.'.r.:XjXxXnXmXBXCXVXkXlXkXiXT.r.-XE.T.I * % N. X+.3.5.[ -.z.Q & @ ",
"9 ;.<.1.! | f.g.N.1.$ # 7 P E.>XiX>XxXCXBXmXCXCXCXCXBXMX>XuXbXiXE.8.6 * o | 5.M.3. .n <.<.f 8 * ",
"& { x.%.[ e 1.g.g...W / 0.0.l.@X5X>X@XT.T.+X|.+X`.m.>X>X*X`.*XT.`.e.c.t.} t B.5.5.u Q %...Q =.- ",
"- j Q j 9 %.z.[ v.D.Z.$X1X+X}.|.$X$Xz.oX:.|.y p.z.6.+X,XC.|.,X|.,Xn.+X1X$X2.XXO.x.d.d %.$.j 3 . ",
"$.- 9 ^ d l $.d.-.| j.O.O.$Xf.D.1XO.s.2X5.O.1.o.-.}.f.i.j.}.p.f.s.-.XX} .XX.[ g.y.*.l $.{ r % % ",
"$.f & ^ q W *.<.X.| B.i.a.OXs.5. X5.s.$X2.| 5.} -..Xv.f.p.oXv.i.f.i.n.v.i.1.-.d.%.$.j W ~ f 8 & ",
"5 5 0 l 8 ^ y.Q &.1.-.f.}.C.i.v.V.f.C.v.X.f.k -.;.;.b.|.(.(.+X(.+Xn.z.Z.! n d...$.t.9 r W { J - ",
"& Q Q j 8 q l ^ { e g } n n n n { { n g l n [ { g g b $.W Q Q ! W Q $.J Q d Q { $.d 9 j ^ W q . ",
"h ~ l r j j J %.Q g Q { Q Q Q Q Q ! b g { W j d l j W @.~ ^ ^ ^ j @.J J @.@.l ^ @.^ W J *.j & $ ",
"h - & - & 8 & q 9 - q 9 q q q q 8 9 9 - & & - - 9 3 8 0 h d 8 3 * 0 3 3 0 h 8 8 Q q & 8 j 8 $ . ",
"& $ 5 & . q % $ q $ $ o $ o o . . % % % $ $ % % * @ . % X @ * * @ @ 3 X X @ 8 @ @ - q 9 q d 0 - "
};
