/* XPM */
static const char *YnVpc3Nvbg__[] = {
/* columns rows colors chars-per-pixel */
"32 32 136 2 ",
"   c #493D1C",
".  c #4D3B22",
"X  c #523D26",
"o  c #533B29",
"O  c #3F4A07",
"+  c #3C4409",
"@  c #414D06",
"#  c #41450E",
"$  c #444C0B",
"%  c #455405",
"&  c #495506",
"*  c #475804",
"=  c #495C03",
"-  c #455209",
";  c #49530B",
":  c #535F07",
">  c #51560D",
",  c #585F0D",
"<  c #444412",
"1  c #4A4516",
"2  c #464910",
"3  c #4D4D13",
"4  c #4D421C",
"5  c #4F4A18",
"6  c #534A1C",
"7  c #4E5410",
"8  c #575616",
"9  c #5A5C13",
"0  c #5C531B",
"q  c #4D6102",
"w  c #526402",
"e  c #5A6706",
"r  c #576A01",
"t  c #5B6D01",
"y  c #5D650D",
"u  c #5E7101",
"i  c #60660C",
"p  c #627500",
"a  c #667900",
"s  c #6A7D01",
"d  c #667109",
"f  c #6D710F",
"g  c #73780E",
"h  c #636314",
"j  c #6C6A14",
"k  c #757415",
"l  c #554423",
"z  c #594625",
"x  c #5D4C24",
"c  c #5D4729",
"v  c #5C5020",
"b  c #60482C",
"n  c #625423",
"m  c #64522A",
"M  c #6A5529",
"N  c #6E5533",
"B  c #735736",
"V  c #6F6320",
"C  c #6E8100",
"Z  c #738502",
"A  c #768901",
"S  c #7B8E00",
"D  c #7B8F00",
"F  c #7B8E01",
"G  c #788C02",
"H  c #7A8D03",
"J  c #7B8E02",
"K  c #7B8F03",
"L  c #7A8D00",
"P  c #7C8F00",
"I  c #7C8F01",
"U  c #7C8F03",
"Y  c #788C05",
"T  c #788B01",
"R  c #7D9000",
"E  c #7D9100",
"W  c #7D9001",
"Q  c #7E9100",
"!  c #7E9101",
"~  c #7F9201",
"^  c #7D9003",
"/  c #7E9203",
"(  c #809301",
")  c #809302",
"_  c #809303",
"`  c #819503",
"'  c #829502",
"]  c #839602",
"[  c #839702",
"{  c #839603",
"}  c #839703",
"|  c #849702",
" . c #849704",
".. c #859803",
"X. c #869902",
"o. c #869903",
"O. c #849804",
"+. c #869A04",
"@. c #889B03",
"#. c #899C03",
"$. c #899D03",
"%. c #8A9D03",
"&. c #899C04",
"*. c #8A9E04",
"=. c #8C9F04",
"-. c #8CA004",
";. c #8DA104",
":. c #8CA005",
">. c #8DA105",
",. c #8EA204",
"<. c #8FA305",
"1. c #90A405",
"2. c #91A405",
"3. c #92A505",
"4. c #93A605",
"5. c #92A506",
"6. c #93A706",
"7. c #94A705",
"8. c #94A806",
"9. c #96AA06",
"0. c #97AB06",
"q. c #96AA07",
"w. c #97AB07",
"e. c #98AB06",
"r. c #98AC07",
"t. c #99AD07",
"y. c #9AAE07",
"u. c #9BAF07",
"i. c #93A309",
"p. c #9CB007",
"a. c #9CB008",
"s. c #9DB008",
"d. c #9DB108",
"f. c #9EB208",
"g. c #2F6E04",
"h. c black",
/* pixels */
"g.g.g.g.g.g.g.g.g.g.g.g.g.g.g.g.g.g.g.g.g.g.g.g.g.g.g.g.g.g.g.g.",
"g.g.g.g.g.g.g.g.g.g.g.g.g.g.g.g.g.g.g.g.g.g.g.g.g.g.g.g.g.g.g.g.",
"g.g.g.g.g.g.g.g.g.g.0.@.3.L L g.d.3.R P g.g.g.g.g.g.g.g.g.g.g.g.",
"g.g.g.g.g.g.g.g.g.p.p.y.d.<.%.0.d.y.R @.p.0.g.g.g.g.g.g.g.g.g.g.",
"g.g.g.g.g.g.g.g.g.g.<.d.d.d.d.d.0.&.R =.3.R t g.g.g.g.g.g.g.g.g.",
"g.g.g.g.g.g.g.y.0.y.0.d.d.d.d.d.p.y.%.3.P s C a g.g.g.g.g.g.g.g.",
"g.g.g.g.g.P ] y.d.d.d.d.0.<.y.d.d.p.p.7.R P R Z p g.g.g.g.g.g.g.",
"g.g.g.g.g.g.o.y.d.d.d.y.L ] p.d.d.d.0. .T L a a % g.g.g.g.g.g.g.",
"g.g.g.g.a ] o.<.y.d.d.y.] <.d.p.y.y.] O.<.3.Z * g.g.g.g.g.g.g.g.",
"g.g.g.g.g.d.3.o.y.d.3.L s o.<.%.| ( L y.d.y.s = g.g.g.g.g.g.g.g.",
"g.g.g.g.a R Z T %.=.P a p a C a R ] ( <.p.3.a = * g.g.g.g.g.g.g.",
"g.g.g.g.a w u 0.y.3.T L L a u a o.0.e.y.O.<.a w ; @ * = = g.g.g.",
"g.g.C P L 0 d &.y.<.R R T a p s L g i.Y r p p t 6 O * = = g.g.g.",
"g.g.s T R j V L ( R P R R R T s d x d r u p p e v @ - @ % g.g.g.",
"g.g.g.Z C Z M f L T C T Z P s y M h Z T a a a i n = * O + g.g.g.",
"g.g.q a Z p h j a t p p s Z q n k s Z R T L s 6 9 u t % + g.g.g.",
"g.= t P R L Z T s u u r p t r h Z L L R R T u 5 * t u % g.g.g.g.",
"g.= r C s R R R Z u & = p p p p T T L L R u = = t u u * g.g.g.g.",
"g.g.w t a T C T a p w * u t p p a r s u u w = = w q w q = g.g.g.",
"g.g.w u p u w q 3 0 & * q q w = t t p p u w ; $ = = = = g.g.g.g.",
"g.- * % : e w = -   0 t r t w = q q p e & * 5 3 * - * @ + g.g.g.",
"g.= * O < 4 + @ @ # m h p p p t = = = 4     . $ O + + + g.g.g.g.",
"g.= = = %   1 * * * 7 B , > t w @ - 2 l o   + + @ O - O + g.g.g.",
"g.= = = O + l 6 = 5 < m m   1 < m N x 8 ; + + + * = * O + g.g.g.",
"g.g.g.g.g.+ # b ; < . 4 x   . 4 N 2 * = = @ + + + @ + + + g.g.g.",
"g.g.g.g.g.g.g.g.g.+ # X z +   # z + - O @ O + + g.g.g.g.g.g.g.g.",
"g.g.g.g.g.g.g.g.+ + + < c +   g.c + g.+ + + + + g.g.g.g.g.g.g.g.",
"g.g.g.g.g.g.g.g.g.g.g.g.g.g.g.g.g.g.g.g.g.g.g.g.g.g.g.g.g.g.g.g.",
"g.g.g.g.g.g.g.g.g.g.g.g.g.g.g.g.g.g.g.g.g.g.g.g.g.g.g.g.g.g.g.g.",
"g.g.g.g.g.g.g.g.g.g.g.g.g.g.g.g.g.g.g.g.g.g.g.g.g.g.g.g.g.g.g.g.",
"g.g.g.g.g.g.g.g.g.g.g.g.g.g.g.g.g.g.g.g.g.g.g.g.g.g.g.g.g.g.g.g.",
"g.g.g.g.g.g.g.g.g.g.g.g.g.g.g.g.g.g.g.g.g.g.g.g.g.g.g.g.g.g.g.g."
};
