/* XPM */
static char *_e7806698c4f4415c2aa2dc337d6a86dMw1ZXRFQPEpONoTW[] = {
/* columns rows colors chars-per-pixel */
"48 48 248 2 ",
"   c #0C0103",
".  c #0C040D",
"X  c #06030C",
"o  c #12040B",
"O  c #1A030E",
"+  c #16090D",
"@  c #17090A",
"#  c #0C0511",
"$  c #130A13",
"%  c #1A0C13",
"&  c #13031A",
"*  c #160C1B",
"=  c #1B0D1B",
"-  c #1B0415",
";  c #1C121C",
":  c #1C1216",
">  c #220D1D",
",  c #26041A",
"<  c #241616",
"1  c #23141B",
"2  c #251A1C",
"3  c #2A1C1D",
"4  c #271917",
"5  c #32001D",
"6  c #30211F",
"7  c #2C221B",
"8  c #1B0B23",
"9  c #1C0525",
"0  c #1C1721",
"q  c #2B0A26",
"w  c #230C2D",
"e  c #2B0D2B",
"r  c #240623",
"t  c #360829",
"y  c #241522",
"u  c #2B1424",
"i  c #241A23",
"p  c #2B1D23",
"a  c #2C132C",
"s  c #2C1D2A",
"d  c #25142B",
"f  c #34112D",
"g  c #351928",
"h  c #2D1734",
"j  c #3A1432",
"k  c #391B36",
"l  c #351838",
"z  c #310A32",
"x  c #2D2225",
"c  c #2D222A",
"v  c #322425",
"b  c #352926",
"n  c #32242B",
"m  c #362A2C",
"M  c #3A2D2D",
"N  c #392925",
"B  c #3C312E",
"V  c #2D2231",
"C  c #332534",
"Z  c #362933",
"A  c #3A2D32",
"S  c #3B2C3B",
"D  c #37263A",
"F  c #3E3235",
"G  c #3D313A",
"H  c #35323A",
"J  c #470A2D",
"K  c #4B0835",
"L  c #451736",
"P  c #58153B",
"I  c #520B31",
"U  c #621136",
"Y  c #6F0C36",
"T  c #422B3A",
"R  c #423534",
"E  c #43343C",
"W  c #46393C",
"Q  c #4A3C3C",
"!  c #473A36",
"~  c #472C33",
"^  c #46001D",
"/  c #4E433C",
"(  c #51423C",
")  c #3D1B45",
"_  c #3C2D41",
"`  c #3B2443",
"'  c #3F3443",
"]  c #373340",
"[  c #2D2440",
"{  c #481944",
"}  c #571941",
"|  c #6A1844",
" . c #761A46",
".. c #790D41",
"X. c #4C2C49",
"o. c #462944",
"O. c #552746",
"+. c #433344",
"@. c #4B3346",
"#. c #463A42",
"$. c #4A3D43",
"%. c #44344A",
"&. c #4C334B",
"*. c #4C3C4B",
"=. c #473A4C",
"-. c #52354E",
";. c #533C4B",
":. c #523946",
">. c #4D3D53",
",. c #4A3654",
"<. c #543E54",
"1. c #553959",
"2. c #492451",
"3. c #63294B",
"4. c #673556",
"5. c #593E65",
"6. c #603C66",
"7. c #4E4244",
"8. c #4D424B",
"9. c #524445",
"0. c #5A4C46",
"q. c #54454B",
"w. c #554A4C",
"e. c #5A4C4D",
"r. c #564848",
"t. c #5D514D",
"y. c #4D4254",
"u. c #534354",
"i. c #554A53",
"p. c #5B4D54",
"a. c #54425B",
"s. c #5B455B",
"d. c #554A5D",
"f. c #5A4C5B",
"g. c #5A4353",
"h. c #5D5253",
"j. c #5E525A",
"k. c #57535D",
"l. c #65485C",
"z. c #625353",
"x. c #645954",
"c. c #63555B",
"v. c #68555E",
"b. c #655A5B",
"n. c #6A5C5D",
"m. c #61524D",
"M. c #6C615E",
"N. c #72655E",
"B. c #5B4463",
"V. c #5C4B62",
"C. c #584968",
"Z. c #5D5466",
"A. c #614D66",
"S. c #654868",
"D. c #734765",
"F. c #645462",
"G. c #665B63",
"H. c #6B5D63",
"J. c #645569",
"K. c #6A546B",
"L. c #6B5C6B",
"P. c #685767",
"I. c #735A6B",
"U. c #6C5572",
"Y. c #6B5875",
"T. c #735B75",
"R. c #765A78",
"E. c #714F79",
"W. c #6D6263",
"Q. c #6A626B",
"!. c #736565",
"~. c #746966",
"^. c #7A6C67",
"/. c #74656B",
"(. c #756A6A",
"). c #7A6C6C",
"_. c #79656E",
"`. c #7C716C",
"'. c #6B6574",
"]. c #736375",
"[. c #756B73",
"{. c #7C6D73",
"}. c #75647A",
"|. c #7C637B",
" X c #7B6D7A",
".X c #776778",
"XX c #7E7275",
"oX c #7D7078",
"OX c #8D1647",
"+X c #92254D",
"@X c #B12F5D",
"#X c #993766",
"$X c #C73B68",
"%X c #875877",
"&X c #8C5174",
"*X c #81726C",
"=X c #836D78",
"-X c #827474",
";X c #83757A",
":X c #867A7C",
">X c #8B7C7C",
",X c #877978",
"<X c #A7436B",
"1X c #CA4770",
"2X c #8D827F",
"3X c #7A5B82",
"4X c #7C6582",
"5X c #7C6A83",
"6X c #7A7086",
"7X c #835988",
"8X c #866A86",
"9X c #8C7B84",
"0X c #877489",
"qX c #917F88",
"wX c #8D7793",
"eX c #947B98",
"rX c #9D6B8A",
"tX c #A27191",
"yX c #967FA3",
"uX c #E66788",
"iX c #F170A0",
"pX c #8E8283",
"aX c #938384",
"sX c #94838B",
"dX c #988A8C",
"fX c #998798",
"gX c #9E9296",
"hX c #A5959B",
"jX c #A28994",
"kX c #9A86A2",
"lX c #9E94A8",
"zX c #A48AA8",
"xX c #AD9BA4",
"cX c #A795A8",
"vX c #B19EAA",
"bX c #AA96B2",
"nX c #B59BB7",
"mX c #B68AAA",
"MX c #B8A9AB",
"NX c #B4A59F",
"BX c #C395B3",
"VX c #C5B5B8",
"CX c #C1B2AE",
"ZX c #BC9DC2",
"AX c #BAA6C3",
"SX c #C5B4CC",
"DX c #EBB7D9",
"FX c #EDD9ED",
/* pixels */
"~.VXVXMXMXn.@ w.VXhXA o O v.VXhXxXMXqX9.9.CXCXNXn.*XhXMXMXVX0.4 6 x.^.4 9.gXM @ ~.VXgXn   c.SXqX",
"z.e.:X).:Xh.m ,XsX-Xr.A O H.xX9XaXfXxXxXe.,X^.^.m.-X^.,X>X^.v 6 x.z.R z.z.v ! >X).;Xn.(.p./. Xy ",
"pX:Xe.~.>XF Q {.qXaX(.R 1 sXqX_.dX;X).).Q x.>X^.x.0.>XdX,Xx.N R n.-X0.>X).v ).gX-XaX;XdXdX*.s C ",
").pXpXM W m c.H.>X:Xz.m p :X9Xq.G./.{.-XQ v ~.*XN.! R -X*Xe.M < R R W aX0.6 r.aX-X-XH.:X9X/.S > ",
"e.W.~.R v W (.>X>XgX:X(.m =XH.z.E H.W Q W 0.0.n.N.Q N M 9.< 4 0.).e.4 R (.e.n.dX).aX9.qXqX Xf.= ",
"-X).M b e.).).(.-X>X;X-Xp q.:.c./.vXW e.9.W R ( *X0.M M 4 9.Q ,X(.~.r.W hXz.z.;X).aX).r./.g.% u ",
"!.{.: M -X-X(.W.>X,X).v.O $./.q.{.xX9.z.b.).~.Q / 0.( N z.t.B ^.~.(.!.Q e.(.z.~.-X).,X,Xc.s s > ",
"F 2 F x.~.!.~.W.~.(.).r.v :X{.#.w.q.$.H.!.~.-Xm.4 @ b M.z.z.w.Q !.e.n.9.9.v.3 n.!.n.9.e.#.f.E i ",
"p p w.XXXXz.x.^.^.~.!.v W ;Xh.b.A ).I.z.~ W v 3 7.m h.H.x.W.h.A dX:Xm Q A !.3 e.:X9.< W p.H.m 2 ",
"1 7.x.W.`.!./ x.,X0.b 4 9.,X{.;Xq.1 $.m m v q.:.$.#.h.b.h.h.c.b.xXMX9.b.! n.e.Q m M H.{./.n + % ",
": M H.~.>X,X! / x.B 7 b R ;X;XoXG f.j.#.F._.jXjXfXaXc.#.$./.oXb.c.G.I.v.r.b.(.7.v M c.h.9.m 2   ",
"x.m 2 w.(.,Xx.0.7 N x.t.: :XL.i.H ] f.qXI.jXI.l.:.9XfXvXH././.I.p.[.I.v.b.b.b.b.x m p W A $.2 n ",
"-X2Xt.< x.,X7.B ! ^.`.~.v % G #.H .X6X5XwXf R.eX-.y S =X.XsXg.T v.{.v.v.9.H.R < i.c.n x w.$.2   ",
",X~.-Xx.x h.w.b r.^.,X).F n G S '.lXbXSXwX8XR.S.<.D l.@.- l.fX@.;.F.A E n p 2 p.:XXX7.n 2 A < + ",
"N.>X~.~.7.R A 2 z.~.,X~././.S L.fXAXFXyXY.R.U.3Xo.-.K.- a r I.cXT E p 1 $.z.q.v././.W.$.% o 2 : ",
"t.M.r.W.7.2 n W.z.n.`.M.h.Q.L.cXh yXyX,.5.5.E.B.R.K.&.e S.o., I.fXT F.;.E q.9./.).b.c.2 p sX$.F ",
"R / x.~.m x w.h.M.0.b.~.A 8.hX0X,.5.E.S.) 7X3X6.z l -.k l.1.X.o.nXs.u.E I.A Q e.p.,XH.x pXgXm   ",
"R 9.x.M.x m i.n.M.`.~.e.i.*.cX_ C.C.2.2.7X{ t t O.t j X.X.o.l a wX}.@.8XFX=Xe.z.!.).9.$.dXc.$.% ",
"F w.h.e.W b v R x.`.,XF /.].0X& C.C.1.E.K J U | P } L L k l d 8 a.wX+.;.qXp.r.9.).-XF F i./.h.+ ",
"B w.h.7.R w.F 2 R >Xx.R q.fXJ.a.[ J.3X{ K | ..+XY  .J j o.C d 8 8 SXs.<.c.c.b.! r.e.p XXW.F G $.",
"3 < R b.w.x.~.W 2 W 7.w.Z sXJ.V.9 w { t | Y @XOXOX .P t e d h C h bXs.L./.=Xb.>XM % w.c.XXH.$.+ ",
"-Xh.9.x.B / e.M < v h.c.Z cXL.& w w { K I OX@X$X1X+XP L k h a e d AXs.*./.H.H.,X+ e././.w.F   o ",
":Xz./ 9.Q < < M ~.b.A m j.G.f.d l z } P Y +X1XuXiX<XP L k l f q -.wXJ.C Z H.7.v p i.h./.R       ",
"9.9.h.w.W F R W.-Xx.i.w.Z f.cXa { t P | Y +XuXuX+X .P O.q f L L R.U.S %.#.;X2 + b.{.H.9.m 2 + < ",
"e.n.n.b.W b / ~.XX!.H.j.8.E ;Xg.4.&XJ I ^ U +X<X#X| J L t L 4.o.kXa._ u.L.c +   7.-XH.7.m A m x ",
"m w.M.F m e.x.b./.XXb.;Xj.Z F.9Xt %XO.f L J I | 3.J P L f o.a <.kX%.V.L.[.1 + F x p A W.9.$.b.A ",
"Q R 2 B ~.XX~.w.c./.c.oXG.f.#.;X|.- Z y Z @.P J O.f f r a = =.0X[ y.J.].[.; #.XXH.w.#.x 7.n A o ",
").v + m /.-XQ W.W.h.q.p.G.E j.f.VXG.* 0 = > , t q e - D 8 y.5X.Xd.y..X'.c o [.(.W.H.G.x 2   o x ",
"m m h.7.p 7.W.-X;XH.p.p.A q. X/.c.xXhXs > f t D.3.5 t j R.zX%.T.=.V.Z.s c x h.Q.W.h.G.F n XXhXF ",
": 7.W.9.A A e.H.H.h.p.q.#.{.L.I.;.g.9XcXg.5 J &XO.5 t tXmXl.-.d a.AXAX' q.W F b.b.w.$.i hXMX$.x ",
"4 n.).h.h.h.3 A b.h.p.W c.j.G./._.L.f. XvXl.5 3.t 4.BX%X4.I.T.h a.fXlXy.p.c.b h.(.G.w.8.;XW w.< ",
"x.W.).z.W.W.m 2 p A #.$.8.i.G.L.L.F.j.*.;.BXmXJ 4.DXtXO.8XK.K._ %.a.J.y.$.G.j.h.b.b.i.Q./.L.[.n ",
").h.b.!.!.W.!.p.u , ;.v.F.G.Q.[.Q.'.J.u.|.D.rXBXmX&X&XI.X.K.%.D ' >.D f.f.p.b.j.{.W.Z L.Q.P._ & ",
"h.M.W M.~.z.x.z.g @.:.;.*.f.'.Q.'. X5X|.I.%XR.rX&X&X=X%X-.T.d.>..XJ.s 8.c.b.b.c./.i.y F.f.=.8 & ",
"+ 9.n.z.n./.7.v.:.- @.@.D L.Z.J.'.'.J.A.1.-.D.DXrXO.8XD.I.K.=.+.6XP.y w.c.W ! ).h.q.n s *._ & d ",
"i.XX9X{.H.XXh.c.g k -.s.+.].L.d.Z.Z.K.R.0Xj j BX%XL l.%X8XS.s.K.].F.E {.H.!.Q r.Q W.[.i D f.d * ",
"sXW.c.[.L.b.i.E D %.a.U.U.T.5XT.kXkXzXR.-.X.k o.j j q f l.eXcX|.T.K.F.=XH.{.z.3 ).;X{.P.C C h & ",
"j.j.G./.L.j.c *.>.R.Y.1.eX0XwXAX|.eX1.` h 1.X.l f X.f j q X.I.eXfXeX8X@.I.I.T c.;Xc.f.L..X%.& & ",
"i F.j.Q.*.C n F.T.eX4X8 T.SXwXh h 2.) ` 5.2.l l f q L q T q , k S.ZXZXwXR.8X-.K.Q.F.j.f.L.' d 8 ",
"= i.oXf.. C S ].5XkXbXbXnXR.l l w 9 B.1.z h 1.l r -.1., k q r e r 1.S.zXAXzX8X|.H.W.G.i.u.u.V.8 ",
"% C G +.i.Z #.F.A.4XwXzXnXfX5XK.B.1.1.9 r w w a 9 D ` e a D 1.S.3X8XeXbXeX8XR.K.u.G.p.f.#.S y . ",
"i.= i *.f.Z C u.A.B.T.4X4XwXnX8X4XbXwX4XU.B.,.B.a.-.a.K.<.a.B.S.zXkX4X}.U.U.<.F.i.$.E f.q.p o $ ",
"i.Z y *.#.n ; S >.a.>.J.U.A.}.wXwXwXfXfXkXfXV.5XfXeX0X0X0X8X5X4XR.U.B.A.V.&.y E G A E A $.n ; ; ",
"i = i C S *.G C _ +.%._ +.a.V.u.a.A.K.V.].}.8X8X}.U.K.Y.J.J.J.V.B.a.%.>.+.+.D n n p Z s E 8.G = ",
"# ' #.> u *.C 8.S C f.y.+.u.f.S S k &.@.&.o.*.+.>.%.+.=.=.u.V u.=.>.B.>.*.C G #.p.#.p n G #.Z $ ",
"H 8.Z u g > C k.' * +.=.' *.u.S = *.<.o.<.T T s S Z S =.S Z V C D y.%.C G c i E 8.8.A Z c.G % . ",
"H i - > , u . 0 0 ; ; 0 ; y c = > u > - , - u > c ; * ; s C . # & V 0 # i ; $ p G c ; i A ; . o ",
"X . p O O s # X 0 . $ . $ . * . O o > o O O u 1 $ . . * X . ; . X # * # $ . % . o : $ ; c n p 1 "
};
