/* XPM */
static char *e14720f8e1ae482ec77a8ca54ec08384uSev7W1p6XHwgtnf[] = {
/* columns rows colors chars-per-pixel */
"64 64 256 2 ",
"   c #140412",
".  c #060526",
"X  c #17042A",
"o  c #191938",
"O  c #0E122F",
"+  c #290029",
"@  c #35022A",
"#  c #260635",
"$  c #390438",
"%  c #281538",
"&  c #30152F",
"*  c #06273D",
"=  c #17233B",
"-  c #1B3838",
";  c #282F31",
":  c #2B0C10",
">  c #470239",
",  c #59013A",
"<  c #42002B",
"1  c #630636",
"2  c #5E3638",
"3  c #310F48",
"4  c #182746",
"5  c #17374B",
"6  c #1A3B53",
"7  c #0D344B",
"8  c #282646",
"9  c #233945",
"0  c #293B55",
"q  c #363A55",
"w  c #36334B",
"e  c #363D64",
"r  c #1F1B4C",
"t  c #49064A",
"y  c #560348",
"u  c #4D0651",
"i  c #680447",
"p  c #750449",
"a  c #790655",
"s  c #76135A",
"d  c #522E54",
"f  c #67355D",
"g  c #733153",
"h  c #6A0C63",
"j  c #583A64",
"k  c #473868",
"l  c #77366D",
"z  c #511867",
"x  c #15424D",
"c  c #0A4658",
"v  c #154D5B",
"b  c #1B4C5B",
"n  c #184855",
"m  c #0D535C",
"M  c #0A5B5F",
"N  c #1B5356",
"B  c #15555D",
"V  c #1B555C",
"C  c #16595E",
"Z  c #1A595D",
"A  c #155256",
"S  c #15514F",
"D  c #24455A",
"F  c #2B435C",
"G  c #224B5B",
"H  c #264957",
"J  c #364359",
"K  c #21555A",
"L  c #205B5E",
"P  c #245258",
"I  c #22424A",
"U  c #184C63",
"Y  c #0E5B63",
"T  c #0A5563",
"R  c #155561",
"E  c #1B5661",
"W  c #155A61",
"Q  c #1B5961",
"!  c #1B5A69",
"~  c #0F5268",
"^  c #234C62",
"/  c #2B4C62",
"(  c #364963",
")  c #225462",
"_  c #215962",
"`  c #295668",
"'  c #38556A",
"]  c #2E5972",
"[  c #166163",
"{  c #2B6171",
"}  c #45425A",
"|  c #544648",
" . c #4C4E6B",
".. c #744C6E",
"X. c #67615B",
"o. c #625334",
"O. c #A2003E",
"+. c #D40F3F",
"@. c #860955",
"#. c #970559",
"$. c #8C0E58",
"%. c #A80049",
"&. c #AA0558",
"*. c #BA025A",
"=. c #B50A4D",
"-. c #8C305B",
";. c #981764",
":. c #951065",
">. c #BA0965",
",. c #A71668",
"<. c #B7156C",
"1. c #AE0F72",
"2. c #962C6A",
"3. c #B32371",
"4. c #CA0157",
"5. c #D4065C",
"6. c #D61656",
"7. c #C90B4E",
"8. c #E80E59",
"9. c #D22E56",
"0. c #C80767",
"q. c #D70667",
"w. c #C7146A",
"e. c #D51565",
"r. c #C80875",
"t. c #D80976",
"y. c #CB1677",
"u. c #D91477",
"i. c #E51468",
"p. c #E60C76",
"a. c #E61775",
"s. c #EE0F6C",
"d. c #DA2477",
"f. c #D32C74",
"g. c #E63867",
"h. c #EC2A73",
"j. c #F12C77",
"k. c #E93676",
"l. c #F3347B",
"z. c #EB2E6B",
"x. c #BA4A5F",
"c. c #904875",
"v. c #B25E79",
"b. c #AC5473",
"n. c #A76471",
"m. c #87655C",
"M. c #D64559",
"N. c #EC675D",
"B. c #DB4B79",
"V. c #D3567B",
"C. c #F6467C",
"Z. c #FD5C7A",
"A. c #F75D73",
"S. c #ED5170",
"D. c #DC7272",
"F. c #ED686D",
"G. c #F6666A",
"H. c #FD637C",
"J. c #FF6C7B",
"K. c #F86475",
"L. c #FD737A",
"P. c #F97777",
"I. c #EA6F70",
"U. c #FE8575",
"Y. c #FD8B74",
"T. c #FE847A",
"R. c #FD8C7A",
"E. c #F58C7A",
"W. c #ED9476",
"Q. c #FE947D",
"!. c #FE9B7C",
"~. c #F69678",
"^. c #EB986E",
"/. c #FFA47C",
"(. c #FEAA7C",
"). c #F9A776",
"_. c #F5AE7D",
"`. c #795580",
"'. c #756586",
"]. c #AC1886",
"[. c #AC2A89",
"{. c #CC1186",
"}. c #EB1B8A",
"|. c #D02F87",
" X c #FD2788",
".X c #FC348B",
"XX c #F82C96",
"oX c #FD3794",
"OX c #E82B88",
"+X c #B75887",
"@X c #96748B",
"#X c #AB6E91",
"$X c #C85B8C",
"%X c #D75A8A",
"&X c #CF4B87",
"*X c #FB4989",
"=X c #FE5B85",
"-X c #FF5796",
";X c #F24691",
":X c #D56A8E",
">X c #FE6383",
",X c #FB6989",
"<X c #FC7687",
"1X c #FE6594",
"2X c #F97997",
"3X c #E9698B",
"4X c #FB6FA3",
"5X c #D95BA6",
"6X c #A8A39D",
"7X c #CE8D8C",
"8X c #FD8384",
"9X c #FE8B84",
"0X c #FC8989",
"qX c #FF9D84",
"wX c #FC9680",
"eX c #FC8A97",
"rX c #E9918D",
"tX c #D3B192",
"yX c #E7A886",
"uX c #FDA384",
"iX c #FEAA84",
"pX c #FEA68A",
"aX c #FDAA8B",
"sX c #F4A688",
"dX c #F8B486",
"fX c #F8AA94",
"gX c #E8B895",
"hX c #F8B895",
"jX c #EBAC93",
"kX c #F590AA",
"lX c #FABBA9",
"zX c #EEB1B0",
"xX c #C7ABA7",
"cX c #FCC797",
"vX c #EBCC9B",
"bX c #F8C3A8",
"nX c #EBD7A2",
"mX c #F9DBA8",
"MX c #FDDAB8",
"NX c #EFCCAF",
"BX c #FDEAAD",
"VX c #FAE9B4",
"CX c #FDF5B3",
"ZX c #D3C8B2",
"AX c #FABCCA",
"SX c #D0DDD8",
"DX c #EAD0CB",
"FX c #FDE6C8",
"GX c #FFF3DC",
"HX c #FCF8DA",
"JX c #F9F2CB",
"KX c #FFFDE4",
"LX c #FEFEEB",
"PX c #FCF6EA",
"IX c #FEFAF8",
"UX c #FBEEE8",
/* pixels */
"K K K K K K N N N N N V V V V V V V V V V V Z Z Z Z C C C C C C C C C C Z Z Z Z C C C C Z C Z C Z Z Z Z E E V V V V V V N N N N ",
"K K K K K K N N N N N V V V V V V V V V V V Z Z Z Z C C C C C C C C C C Z Z Z Z C C Z C Z Z C C Z Z Z Z E E V V V V V V V N N N ",
"K K K K K K N N N N N N V V V V Z Z V V V V Z Z Z Z C C C C C C C C C C Z Z Z Z Z Z Z Z Z Z Z Z Z Z Z Z E E V V V V V V V N N N ",
"K K K K K K N N N N V V V V V V Z Z Z V V V Z Z Z Z C C C C C C C C C C Z Z Z Z Z Z Z Z Z Z Z Z Z Z Z Z E E V V V V V V V N N N ",
"K K K K K K V V V V V V V V V V Z Z V V V V Z Z Z Z C C C C C C C C C C C C C C Z Z Z Z Z Z Z Z Z Z Z Z E E V V V V V V V V V V ",
"K K K K K K V V V V V V V V V V Z Z V V V V Z Z Z Z C C C C C C C C C C C C C C Z Z Z Z Z Z Z C Z Z Z Z E E V V V V V V V V V V ",
"V V N N N N V V V V V V V V V V Z V V V V V Z Z Z Z C C C C C C C C C C C Z Z C Z C C C Z Z Z Z Z Z Z Z Q Q Q V V A A V V V V V ",
"V V N N N N N V V V V V V V Z V Z V P P ( ( ( / ) V C C C C Z Z B C V V Z Q C Z V K P P P F P P K V V V V E E V V A A A V V V V ",
"V N N N V N N V E E E V V B B Z Q V /  ...l l  . .) [ Y M M V V R R B B R ! C c n ' } j j j  .} P V V V R E E R B B V V V V V V ",
"V V N N V V N V E ) ) K V B v A A 7 q `.5X5X5X#X'.( E T Y Y B V R R C C ~ ~ m 5  .`...c.c.c.c.d 0 b b b E R R R B B V V V V V V ",
"N N N N V V N K P P P ) E b n x n = % c.&X;X;X&X..0 ] { ~ ~ R C Y T Y m c ~ c 5 ..+X+X&X&X$X2.> w 0 D ^ ) E V V B B V V B B B B ",
"N N N N V K K K P P K ) ) H 9 9 O & > b.&XC.C.B.g w ' U U R B m T T m m c n 6 8 c.$X&X%X%X:X-.< 8 0 0 / / K V V B B V V B B B R ",
"V V V V K K K N N N V b F J X.d d g -.-.x.x.M.x.g w w  .' b b c R c c n 5 - ; & c.$XV.%X:X:X1 @ d w  . .I n N V V V V V B B B R ",
"V V V V K K K K N N B n 0 } xX7X7X7X7XrXzXzXzXzXzXZXZXSXSX' 5 6 c 7 *  .6XX.X.m.n.kXkXzXzXAXzXDXDXDXUXxX9 x S N A A A B B B R R ",
"V V V V K K P P P G v 6 O | zXhXfXsXrXlXGXHXGXGXKXHXJXJXKXX.O = 7 5 O 6XNXgXdXyXtXUXPXIXIXIXGXFXFXFXGX6X- - x S A A A B B B B R ",
"V V V K K P P P F 0 6 4 o | NXhXaXsXyXbXHXHXHXHXHXJXCXVXJXX.  = 4 8 X @XbXyX).^.tXKXIXIXIXPXZXvXnXmXMXxX; ; I I b N A B R B R R ",
"Z V V K ) P K H ( 8 % & : g NXbXhXdXyXMXHXKXLXLXKXJXVXBXVXo.    . X   @XlXsX/.^.gXGXUXIXIXUXvXBXBXBXVX7X: & ; 8 J I A M C B R R ",
"Z V V K ) P P 9 @X@Xc.n.b.n.zXlXhXdXyXNXKXLXIXLXKXFXnXvXmXm.2 ..n.@X..7XlXsXuXW.gXUXPXIXIXGXnXBXCXBXVX7X2 g g f ..} P B B R R R ",
"V V V K P G G = #XkXkXeXrXD.fXbXcXcXgXvXHXKXLXLXGXMXcXcXhXgXzXzXlXlXjXyXfXsXiX).gXHXKXIXKXJXnXCXCXBXMXrX3X3X3X:X+Xf 0 V B R R R ",
"V V V K P G G O v.2X3X<XF.D.pXhXhXcXdXyXMXFXFXFXMXlXhXhXdXfXfXfXsXW.~.~.iX/.iXsXgXHXKXLXHXJXnXCXCXBXMXwXL.>X=X*X%Xl w H v R R R ",
"E E E ) K H b o v.2X,X<XI.D.W.W.!.!.!.uXsXjXjXjXfXfXpXiXiXiXpXpXuX/./././.uXiXaXbXbXNXNXNXmXcXcXmXcXhXE.F.K.H.,X%Xg w b v R U U ",
"E E E ) K D D o v.2X,X<XF.I.Y.~.Y.Y.Y.E.pXpXaXfXfXfXpXiXiX(.(.(./././././.uXiXaXfXhXhXgXhXdXdX_._._.uXU.F.G.K.K.%X-.q n B T U U ",
"E E E ) G H D % +X4X,X,XK.G.T.R.Y.Y.Y.Y.uXuXuXpXaXaXpXpXiX(.).).iXsXsXuXiXiXiXuXaXaXdXdXdXdX).).^.~.!.P.G.G.F.I.%Xg 0 A m m U U ",
"E E E E b H D % +X2X,X,XH.G.P.R.Y.Y.Y.Y.uXuXuXuXpXpXpXiXiX(.).).sXsXsXsXuXuXiXiXaXaXdXdXdX_.(./.!.Q.wXG.G.G.G.I.$Xf I A m m U U ",
"E E E E b H 0 % v.2XH.H.A.G.T.R.Y.Y.Y.Q.!.!.uXuXuXuXuXuXuXuXuXuXiXiXiXiXiXiXiXiXiXdXdXdX_.(.).!.!.R.9XP.F.A.A.F.$Xf 0 A m m v U ",
"E E E E b H 6 % v.<XH.Z.A.G.T.R.R.R.R.Q.!.!.qXqXuXuXuXuXuXuXuXuXuXuXuXpXuXuXiXiXiXdX_._.(.(.).!.!.9X0XP.F.A.A.3X$Xf 0 V m m B b ",
") E E E v G 0 % v.2X=XZ.Z.K.8X9X8XT.R.R.Q.wXqXqXqXuXuXuXuXuXuXuXqXuXuXuXuXuXpXiXiXiXdXdX(.(.!.Q.!.R.9XI.F.K.H.3X+Xf 0 V m m A b ",
") E E E b b 0 % +X4X=X=X=XZ.<X0X<X<X8X9X9XQ.qXqXqXqXqXqXqXqXqXqXqXqXqXqXqXuXpXpXiXiXiXiXiXuX!.!.9X0XeXJ.>X>X=X1X$Xf 0 b B B A A ",
") E E E V b 0 % +X4X-X*X*XC.1X,X>XH.K.eX9XR.W.W.Y.Y.R.R.Q.Q.Q.Q.Q.Q.!.!.!.!.!.!.!.!.!.!.uXqXU.G.>X1X1XC.h.h.j.OX2.d 0 v m m v v ",
") E E E V b D % ;.OXu.i.i.6.k.g.g.g.9.K.8XE.W.W.Y.Y.Y.Y.Y.Y.Y.Y.Y.Y.Y.Y.R.R.R.R.Q.Q.~.~.qXR.N.M.g.k.l.e.5.q.q.0.@.d F v m m B v ",
") E E E E b F % :.OXp.s.s.8.l.k.l.z.g.H.8XE.W.W.Y.U.U.U.U.U.U.U.Y.Y.Y.Y.R.R.R.R.R.E.E.E.R.U.N.9.S.k.l.e.5.q.q.w.@.d J b m m v v ",
") E E E E b D % $.d.t.q.i.q.l.j.l.l.g.,X8X0XE.E.U.U.U.U.U.U.U.U.U.U.U.U.U.U.U.U.U.E.9X9XT.P.G.S.C..X*Xd.w.w.q.<.s d J b m m m v ",
") ) Q Q E b b q l &X|.y.3.y.;X.Xl.k.g.3XkXkXeX0XP.P.P.P.P.P.P.P.P.P.U.T.T.T.T.T.T.T.eX2X2XeXH.C.*X;X-X;X|.|.f.3.f k F b m m m m ",
") ) Q Q ) E V F j f y i , p <.w.w.w.=.B.B.B.S.M.K.L.L.P.P.P.P.P.L.P.P.P.P.P.P.P.L.S.S.B.k.k.9.6.e.e.y.&.@.a p i j q D b B m m m ",
"_ _ _ _ _ ) E G ' o X X + > ,.>.%.%.O.w.6.6.6.+.S.H.,XH.H.H.H.J.J.J.J.J.J.L.L.J.>Xg.z.d.d.e.%.=.*.*.&.1 @ + @ # ( F G V B B B B ",
"_ _ _ _ _ _ _ E ) 7 O O X > ;.,.%.%.%.e.h.s.8.8.g.=X1X=X=X=X>X>XH.J.J.J.J.J.J.>X1Xk.OXXXXXOX*.w.0.y.3.1 + X o o / b V V B B v v ",
"_ _ _ _ _ _ Q E ! v 7 = 8 t $.,.&.&.%.d.s.s.8.6.C.=X1X=X1X1X1X1X>XJ.L.L.L.L.L.,X1XOXXXXXXXXXy.y.0.w.3., X O * * R C B B b v R R ",
"_ _ _ _ _ _ Q Q Q ! ! ) ( k l :.#.#.#.w.s.s.i.6.l.*X-X*X-X-X-X-X=XZ.Z.Z.Z.Z.Z.=X*Xd.}.}.}.{.1.:.,.;.2...q D H V C m B B b B R T ",
"Q Q Q Q Q Q Q V B B W W R F j y , , 1 #.q.8.5.4.7.5.e.5.4.e.j..Xj.j.j.j.h.h.h.h.e.4.q.r.r.:.y > , < $ j ' ` ` ! C M B E B C T M ",
"Q Q Q Q Q Q Q V Q ! W M m U ( 3 $ > > $.u.q.q.5.7.5.q.5.5.i. X.X.X.X.X.X X X X Xi.4.t.t.{.1.y $ > $ &  .] ! Q C M C B V B C T T ",
"Z Z Z Q Q Q Q V E E Q Q Q ` ^ 0 $ > > $.w.q.q.0.0.a.p.p.p.q. XoXoXoX.X X X X X Xu.4.t.t.}.1.u t $ + % J ` Q [ [ W C V V B B M M ",
"Z Z Z Z Q Q Q V Q Q E E E _ U 6 % $ > s [.y.y.y.w.OX}.}.}.u..XoXoXoXoX.XXXXXXXXXy.>.y.y.|.].u 3 3 % 8 J ` Q [ [ W Q Q V B B B B ",
"Z Z Z Z Z Q Z Z Q E E E E E V 5 % $ $ f s @.@.@.@.<.>.0.0.*.u.a.a.a.p.t.p.p.{.{.#.p a a s h k e 0 0 F ` ) Q [ [ W Z Z Z Z C C C ",
"Z Z Z Z Z Z Z Z Z E E E E E V 5 o % # d t y > , p :.&.*.>.&.0.q.q.q.q.q.q.r.r.1.a > y y t z  .` ` ` { _ Q Q Q Q Q Z Z Z Z C C C ",
"Z Z Z Z Z Z Z V Z Q Q E E E R U ^ / / e 3 $ > > p ,.>.0.0.>.0.a.p.p.p.q.t.r.{.1.h t t t 3 k ] ! W W W ! Q Q Q Q Q Q Q Z Z Z Z Z ",
"Z Z Z Z Z Z Z V Z Z Q V E E R R R E E ( 8 $ $ > i :.>.>.>.>.0.u.t.p.t.0.r.{.].].h 3 3 3 3 e ` W Y Y W W Q V V V E Q Z Z Z Z Z Z ",
"Z Z L L Z Z Z V Z Z Q V E E R R W R R / 8 # $ > p ,.<.<.<.,.#.&.0.y.r.1.1.].].[.u 3 # # r ( ! Y C C Q Q V K K K V V Z Z V V V V ",
"Z L L L Z Z Z V Z Z Q V E E E R W W R ^ 4 o % # $ s a @.p p $.<.>.r.<.:.i y h z z 3 r 4 4 ^ ! W C Z E E V V V V V V V Z V V V B ",
"Z Z Z Z _ _ Z Z Z Z Z Q E E R R R R R E n n 6 6 F 8 + @ + > @.<.t.t.y.#.< # # X 0 ] ] ^ E V Q R W E Q B V V V V E E E E E E V V ",
"Z Z L Z _ _ L Z V Z Z Q E E R R R R Q Q Q ! ! ! E 5 . X X $ p 1.r.t.y.#.@ X . . 7 { ! m R C Q R W W W C C C C B E E E E V E V V ",
"L L L L _ _ L Z V Z Z Q E R R R R R R R R R R R ) 6 . X X @ s 3.<.w.<.@.$ X . . * R ! R R C R R W W C C W C C B V V V V V V V V ",
"L L L L _ _ L Z V Z Z Z V E R R R R R R R R R E E n O O o % t s :.;.;.y j e 0 5 n R B Q R R R R W W C C W C C B B V V V V B B B ",
"L L L L L _ L V V Z Z Z Q E E E R Q Q E E Q Q W W W E ) D  .% + + + + X = ' G ) E R R W R R R R R R W W W W W R V V V V V V V V ",
"L L L L L _ L V V Z Z Z Q E E E R W W Q Q Q Q W W W W W E ` = . X X . . 7 ) v B R R R R R R R R R R W W W W C B V V V V V V V V ",
"L L L L _ _ Z V V Z Z Z Q Q Q Q E Q Q Q Q Q Q W W W Y W ! ) 5 = = 4 5 5 G ` _ Q R R R R R R R R B B C C C C C B B V V V V V V V ",
"L L L L _ _ Z V V Z Z Z Z Q Q Q Q Q W W W Q Q Q W W Y W Q R ) / ` ` ) ) E V R R R R R R R R R R B B B B B B B V V V V V V V V V ",
"L L L L _ _ L V V Z Z Z Z Z C C Q W Q Q W W W W W W W W W Q E E E E E Q V V B C C C B B B B B B B B B B B B V V V V V V V V V V ",
"L L L L _ _ L V Z Z Z Z Z Z C C Q W Q Q W W W W W W W W W W W W W W W W C C C C C C B B B B V V B B V V V V V V V V V V V V V V ",
"Z Z Z Z Q Q Z Z Z Z Z Z Z Z Z Z C C Z Z C C C C C C C C C C C C C C C C C C C C C C C C C C C C B B V V V V V V V V V V V V V V ",
"Z Z Z Z Q Q Z Z Z Z Z Z Z Z Z Z C C Z Z C C C C C C C C C C C C C C C C C C C C C B B B C C B C B B V V B B V V V V V V V V V V ",
"Z Z Z Z Q Q Z Z V V V V Z Z Z Z Z Z Z Z C C C C C C C C C C C C C C C C C C C C B B B B B B B B B B V V V V V V V V V V V V V V ",
"Z Z L Z Q Q Z Z V V V V Z Z Z Z Z Z Z Z C C C C C C C C C C C C C C C C C C C C B B B B B B V V B B V V V V V V V V V V V V V V ",
"Z Z L Z Q Q Z Z V V V V Z Z Z Z C Z Z Z C C C C C C C C C C C C C C C C C C C C B B V B B B B V B B V V V B V V V V V V V V V V ",
"Z Z L L Q Q Z Z V V V V Z Z Z Z C C Z Z C C C C C C C C C C C C C C C C C C C C B B V V B V B V B B V V V V V V V V V V V V V V "
};
