/* XPM */
static char *result[] = {
/* columns rows colors chars-per-pixel */
"32 32 177 2 ",
"   c #0E0E0C",
".  c #0E0B06",
"X  c #11110E",
"o  c #0F1111",
"O  c #141412",
"+  c #181613",
"@  c #161814",
"#  c #191A15",
"$  c #171A19",
"%  c #1A1C19",
"&  c #281D11",
"*  c #1D2416",
"=  c #1F2B16",
"-  c #1D201F",
";  c #34210F",
":  c #3A230F",
">  c #222F15",
",  c #352414",
"<  c #332D1F",
"1  c #24341A",
"2  c #27391B",
"3  c #2A3C1C",
"4  c #2F361A",
"5  c #1B1D21",
"6  c #1E2324",
"7  c #2D2D25",
"8  c #222B2E",
"9  c #242820",
"0  c #3A2E21",
"q  c #2B3B22",
"w  c #3B3B2E",
"e  c #313526",
"r  c #242B34",
"t  c #262D3A",
"y  c #3C3C31",
"u  c #44280F",
"i  c #472E15",
"p  c #442F1B",
"a  c #4A351F",
"s  c #46311B",
"d  c #5F3918",
"f  c #613B19",
"g  c #451A27",
"h  c #531F27",
"j  c #542227",
"k  c #4E3D26",
"l  c #2F451F",
"z  c #344C1D",
"x  c #314520",
"c  c #364E22",
"v  c #395425",
"b  c #3D5B25",
"n  c #3A5827",
"m  c #3F4131",
"M  c #6D431C",
"N  c #71431C",
"B  c #47412F",
"V  c #425C26",
"C  c #405829",
"Z  c #44433B",
"A  c #464B3B",
"S  c #444935",
"D  c #6A4725",
"F  c #735030",
"G  c #476B27",
"H  c #436429",
"J  c #496E2C",
"K  c #4F782F",
"L  c #456336",
"P  c #4E7630",
"I  c #537D31",
"U  c #5D7E32",
"Y  c #6E7734",
"T  c #2C3B43",
"R  c #2F4249",
"E  c #31454C",
"W  c #364B54",
"Q  c #384F5A",
"!  c #3A525C",
"~  c #38514B",
"^  c #3C5661",
"/  c #3F5A66",
"(  c #4C4B41",
")  c #474B41",
"_  c #4D5140",
"`  c #525244",
"'  c #5C5B4D",
"]  c #57564C",
"[  c #41575C",
"{  c #5D5B52",
"}  c #605E55",
"|  c #4A6C43",
" . c #50774F",
".. c #5E645D",
"X. c #517851",
"o. c #6C6A5D",
"O. c #656358",
"+. c #737D5F",
"@. c #445D65",
"#. c #516161",
"$. c #486876",
"%. c #6E6D62",
"&. c #716E60",
"*. c #757264",
"=. c #6A7570",
"-. c #9E3B2B",
";. c #91352B",
":. c #A43B2C",
">. c #984D2F",
",. c #8D5A22",
"<. c #985D25",
"1. c #825A34",
"2. c #A2412D",
"3. c #9A6637",
"4. c #936236",
"5. c #99622D",
"6. c #598636",
"7. c #5C8B37",
"8. c #5D8D38",
"9. c #578435",
"0. c #5F9038",
"q. c #63933A",
"w. c #679E3C",
"e. c #739F3C",
"r. c #668A38",
"t. c #69A23B",
"y. c #7FA33D",
"u. c #639644",
"i. c #6FAC41",
"p. c #72AE42",
"a. c #71AB4D",
"s. c #74B444",
"d. c #78B143",
"f. c #77B845",
"g. c #78BA45",
"h. c #7AB77C",
"j. c #82953D",
"k. c #80A245",
"l. c #868375",
"z. c #8C897A",
"x. c #4A6E84",
"c. c #557787",
"v. c #537E92",
"b. c #4D7389",
"n. c #6A7F81",
"m. c #5B828B",
"M. c #5B8281",
"N. c #58869A",
"B. c #5B8A9F",
"V. c #578396",
"C. c #6C8183",
"Z. c #6C9D96",
"A. c #7CB895",
"S. c #77AE9B",
"D. c #5C8EA5",
"F. c #5E91A8",
"G. c #5F91A4",
"H. c #6195AD",
"J. c #71A4A4",
"K. c #77A6B6",
"L. c #70A7C4",
"P. c #7DB4C4",
"I. c #7DB7D0",
"U. c #9C998A",
"Y. c #969385",
"T. c #A19E8E",
"R. c #81BEA1",
"E. c #83ADBD",
"W. c #85B9CF",
"Q. c #81B5C9",
"!. c #85BCD3",
"~. c #88BCD2",
"^. c #8AC3DA",
"/. c #87C1D7",
"(. c #86C1CC",
"). c #8CCCEA",
"_. c #2F6E04",
/* pixels */
"_._._._._._._._._._._._._.g g g g _.g g _._._._._._._._._._._._.",
"_._._._._._._._._._._._._.h -.-.-.h ;.j _._._._._._._._._._._._.",
"_._._._._._._._._._._._.j -.2.2.:.-.:.k 1 _._._._._._._._._._._.",
"_._._._._._._._._._._._.x q.d.d.r.>.-.-.Y n _._._._._._._._._._.",
"_._._._._._._._._._._.3 J f.f.s.s.d.q.>.j.f.H _._._._._._._._._.",
"_._._._._._._._._._.l n J s.f.g.f.s.f.d.s.f.w.n = _._._._._._._.",
"_._._._._.1 1 3 2 2 l V H q.s.s.f.s.f.s.f.f.9.1 O _._._._._._._.",
"_._._._._.= P s.s.s.0.V H H 8.s.s.p.p.s.s.q.J 1 O _._._._._._._.",
"_._._._._._.> M.A.0.w.p.i.n H 7.H * # 1 3 * O 3 n _._._._._._._.",
"_._._._._._.. $.R.h.J.G 0.t.H 7.6.> # c H > X e k a _._._._._._.",
"_._._._._.O O @.! @.J.z 1 l 6.0.u.P.| I p.n = m.C.i _._._._._._.",
"_._._._._.  } ] @ W $.X * w S a.!.^.| 9.t.b M.).C.i _._._._._._.",
"_._._._._._.# } U.O.@ * 1 q B A !.).| b H b Z.).C.i _._._._._._.",
"_._._._.O O O.U.z.o.o.' Z O.O.) !./.| K 9.t.R.).C.i _._._._._._.",
"_._._._.  ) o.l.U.l.' m B A o.&.P.G.L 3 1 G S.L...i _._._._._._.",
"_._._._._.@ 7 } *.` n 8.I n B D x q 3 * # 1 ~ T % _._._._._._._.",
"_._._._._.O ( *._ v 7.8.8.U N N D e.s.8.i.s. .x.Q   _._._._._._.",
"_._._._.X ( z.l._ v 8.8.8.I 4 f N <.y.s.f.f.X.b.!   _._._._._._.",
"_._._._.X %.U.l.l.+.H 7.P 1 2 V ,.<.<.y.f.f.X.x.!   _._._._._._.",
"_._._._.  %.U.Y.U.O.O * 1 > 1 n V ,.<.5.k.f.v + $ _._._._._._._.",
"_._._._.X o.( { T.*.7 O O O O 1 C L K.~./.[ + X O _._._._._._._.",
"_._._._.O $ X { z.{ w e O # # 5 [ P.$.@.@.K.@.X O _._._._._._._.",
"_._._._._._.X Z *.' y e 5 Q ^ N.D.!.$.v.D.I.V.8 X _._._._._._._.",
"_._._._._._.X Z *.' ( ] 6 Q ^ v.B.W.~.~.!.~.v.8 X _._._._._._._.",
"_._._._._._.  Z *.o.&.} k p p k D F 4.3.3.1.0 + + _._._._._._._.",
"_._._._._._.  Z ] ` *.=.N.V.N.v.D E.~.~.~.~.@.r ! _._._._._._._.",
"_._._._._._.O O 9 ` *.#.^ ^ ^ Q 5 V.F.F.F.H.E 6 t _._._._._._._.",
"_._._._._._._._._.y ` 6 Q Q W r $ v.D.D.D.F.T % r _._._._._._._.",
"_._._._._._._._._.# # O # # + @ + W v.D.D.$.8 O @ _._._._._._._.",
"_._._._._._._._._._.& u u u : O O $ $ + $ # ; & O _._._._._._._.",
"_._._._._._._._._._., N f f O _._._._.O ; f N f p O _._._._._._.",
"_._._._._._._._._., N N N f @ _._._._.O : f N M N i o _._._._._."
};
