/* XPM */
static char *_3ab7ae279624a3abbc979bb2e421762TjrgCPuNKFPsdySt[] = {
/* columns rows colors chars-per-pixel */
"48 48 254 2 ",
"   c #0B0205",
".  c #0D020A",
"X  c #130002",
"o  c #1A0004",
"O  c #13040B",
"+  c #18080D",
"@  c #130512",
"#  c #150B13",
"$  c #1B0C14",
"%  c #1B0E1B",
"&  c #190617",
"*  c #1C131C",
"=  c #181215",
"-  c #23010B",
";  c #2B010D",
":  c #270506",
">  c #38020B",
",  c #240512",
"<  c #2C0415",
"1  c #240A14",
"2  c #290818",
"3  c #340314",
"4  c #3B0315",
"5  c #340019",
"6  c #3C031C",
"7  c #330B1A",
"8  c #3D0B1A",
"9  c #360914",
"0  c #23151C",
"q  c #251A1C",
"w  c #271519",
"e  c #33131D",
"r  c #3B111D",
"t  c #391513",
"y  c #2B130B",
"u  c #1F201D",
"i  c #1D1122",
"p  c #170C20",
"a  c #370522",
"s  c #231524",
"d  c #251A23",
"f  c #2B1D24",
"g  c #2A1D2A",
"h  c #291827",
"j  c #3B1423",
"k  c #3B1C25",
"l  c #351A27",
"z  c #280B28",
"x  c #2B2223",
"c  c #2D232B",
"v  c #292526",
"b  c #322325",
"n  c #32242B",
"m  c #342A2C",
"M  c #3B272A",
"N  c #322432",
"B  c #362B33",
"V  c #3B2D34",
"C  c #3B2837",
"Z  c #3C3335",
"A  c #3D333A",
"S  c #353130",
"D  c #312831",
"F  c #1D2127",
"G  c #49010B",
"H  c #560409",
"J  c #440114",
"K  c #470719",
"L  c #590518",
"P  c #461218",
"I  c #54141B",
"U  c #690208",
"Y  c #76040C",
"T  c #660417",
"R  c #780516",
"E  c #70151D",
"W  c #430D23",
"Q  c #4B0B24",
"!  c #590924",
"~  c #441323",
"^  c #431D2A",
"/  c #4B1728",
"(  c #581929",
")  c #4A1B32",
"_  c #571B34",
"`  c #4A0F35",
"'  c #660B26",
"]  c #770824",
"[  c #681529",
"{  c #791629",
"}  c #691D33",
"|  c #761B34",
" . c #45252C",
".. c #442C3A",
"X. c #492934",
"o. c #5C2C3A",
"O. c #562736",
"+. c #433335",
"@. c #44343B",
"#. c #4B333C",
"$. c #453B3D",
"%. c #4C3B3D",
"&. c #463733",
"*. c #53393B",
"=. c #55272D",
"-. c #66262C",
";. c #772728",
":. c #642B3C",
">. c #68263A",
",. c #7A2439",
"<. c #713339",
"1. c #45403D",
"2. c #55433D",
"3. c #3D3241",
"4. c #592B42",
"5. c #453A43",
"6. c #4C3C43",
"7. c #4B3E4A",
"8. c #483543",
"9. c #543D44",
"0. c #593947",
"q. c #6C2D43",
"w. c #642A45",
"e. c #792943",
"r. c #693748",
"t. c #773647",
"y. c #713D54",
"u. c #4C4244",
"i. c #4D424C",
"p. c #4E4A4B",
"a. c #534445",
"s. c #53454C",
"d. c #5B434C",
"f. c #544A4D",
"g. c #5A4A49",
"h. c #554A53",
"j. c #5A4C52",
"k. c #584956",
"l. c #5C5254",
"z. c #5E555A",
"x. c #5E595B",
"c. c #5C524D",
"v. c #63434D",
"b. c #66484C",
"n. c #634C53",
"m. c #6A4D56",
"M. c #694955",
"N. c #774855",
"B. c #625355",
"V. c #63555A",
"C. c #6B545B",
"Z. c #645A5C",
"A. c #6B5B5C",
"S. c #6A5955",
"D. c #74575D",
"F. c #6D4E4F",
"G. c #6B5D62",
"H. c #665A63",
"J. c #745B63",
"K. c #7A5864",
"L. c #6C6264",
"P. c #6E666A",
"I. c #736364",
"U. c #73646A",
"Y. c #7B636A",
"T. c #73696B",
"R. c #7B6B6D",
"E. c #786864",
"W. c #7D736B",
"Q. c #7B6B72",
"!. c #766872",
"~. c #7C7374",
"^. c #7C7078",
"/. c #6F605C",
"(. c #8D0C1C",
"). c #881828",
"_. c #971B2A",
"`. c #881B38",
"'. c #8C0F2D",
"]. c #A71E32",
"[. c #852738",
"{. c #992738",
"}. c #8E2E33",
"|. c #A62B3A",
" X c #B22939",
".X c #AB333B",
"XX c #B5373D",
"oX c #852945",
"OX c #9C2946",
"+X c #873349",
"@X c #973749",
"#X c #883752",
"$X c #9C3853",
"%X c #AD3B4B",
"&X c #A63447",
"*X c #B83A4B",
"=X c #A73756",
"-X c #B83B55",
";X c #BB2F41",
":X c #972B50",
">X c #C43B48",
",X c #85485A",
"<X c #984559",
"1X c #964E51",
"2X c #AA4454",
"3X c #BB4956",
"4X c #AE484F",
"5X c #835966",
"6X c #8D5067",
"7X c #B44661",
"8X c #B24D68",
"9X c #866769",
"0X c #84736D",
"qX c #836B71",
"wX c #8B6D76",
"eX c #876775",
"rX c #956977",
"tX c #827473",
"yX c #83737A",
"uX c #897878",
"iX c #927B7C",
"pX c #95757A",
"aX c #91696D",
"sX c #A3667B",
"dX c #CB465A",
"fX c #CB6B78",
"gX c #C95069",
"hX c #8A817A",
"jX c #93827C",
"kX c #A4817E",
"lX c #8B7B84",
"zX c #927C83",
"xX c #9C7B86",
"cX c #986D85",
"vX c #A77487",
"bX c #D17B87",
"nX c #8C8584",
"mX c #988586",
"MX c #9B8E94",
"NX c #9D938C",
"BX c #A68A88",
"VX c #A78B92",
"CX c #A89799",
"ZX c #B3999A",
"AX c #AC8E8B",
"SX c #B9A7A4",
"DX c #B29CA0",
"FX c #E78D9A",
"GX c #CBB1B3",
"HX c #ED9DA7",
"JX c #CFC5BB",
"KX c #DCBDC3",
"LX c #D5C5C8",
"PX c #E8CBCF",
/* pixels */
"pXGXGXGXZXf.p.nXLXSX&.: : b.GXZXCXSXmX%.2.GXSXGXS.uXZXSXDXSXA.f 4.cXVXm p.CX2.: S.JXCXq O H.LXlX",
"N.D.xXeXzXG.m x mXmXb. .: D.ZXBXuXNXCXNXS.jXR.tXc.E.E.iXmXI.2.C.DX5XM b hX&.2.0XW.hXE.Z.s.^.!.i ",
"pXpXm.Y.iXC.J.#. .b.pXD. .jXmX9XmXtXuXhX1.c.hXW.E.g.E.mXiXSXGXiX~ ~ F.PXmXM E.NXuX0XE.nXMXs.@ g ",
"eXuXmX%.#.n.9Xr.:.>.P r.iXjXjXn.tXuX~.~.a.b W.E.uX&. .uX0XSXA.: N.-.N.GXkXy *.jX0XW.I.tXuX!.A @ ",
"v.J.Q.b  .5X:.>.+X+X=.y mXmXB.a.uXE.R.E.%.a.2.S.jX0Xy S.iXuXM t <.1X-.-.AX5XS.jXE.tXc.tXlX!.i.# ",
"zXJ.Z m M.o.( [.$X,.t.rXM W./.A.0XuXuX9Xa.*.*.2.iX9X*.*.BXGXuXkX;.;.1X<.P aX9XuXW.hXE.p.G.i.0 g ",
"I.R.= $.e =.,.&X=X] >.pXy S.CXVXAXAXpXaXaXaXaX5XwXBXiXSXGXLXmXkX;.U 4X1XH > iXNXE.E.0XtXl.c g d ",
"M f $.n.; >.[ 7XgX{.[ -.9XZXmX9.0.o.P / ( ( -.I P N.b.VXPXKXpX<.H }.4X@XI : iXNXE.I.c.c.a.h.A * ",
"w w n.D.< / >.| =X3X4XE P P 7 2 < 3 K [ <X)..X{.[.| K W K.eX~ ( { %X-X`.I : uX0XuXB.m +.z.G.m $ ",
"+ 9.C.5XM.P K ! `._.|.3X}.[ W 5 5 w.( L {..X].;X-X=X[ _ / 6 J ' 7X=X{.[ P y 0XE.+.&.A.L.U.m # 0 ",
"e X.D.wXZXxXe K L R '.&X=X7X#X! J ! L ] %XdX>X X].-X=XoX' ! L @X$X[.' K O.S.R.tXb V B.l.f.B q = ",
"B.+.f I.zXmXmXO.J T ] ] OX=X$XoX| L L ] |. X X;XdX-X=X`.L T { 2XoX! ( M.Y.B.Y.I.b b q S V u.b b ",
"uXmXn.#.A.uXn.X.3 6 K ! ! | ,.oX| { R U Y Y _. X|.*X_.R T R ).{.' J r.D.v.C.X.k B.l.m q j.@.w   ",
"qXR.R.A.M C.b. .- < a 5 4 K [ [.2X4X%X&X).Y _.R Y _.'.R {.%X&X8Xt.~ 4.m.0.r.N.xXCXlXu.b 0 m 0 $ ",
"J.qXY.K.M.r.N.4 6 a z & a Q ' { ).{.%X3XgX&X).R U U (.{.%X%X3X}.t.a < j ,X,X5XJ.C.G.f.6.$ 0 b 0 ",
"U.b M X.O.:.:.:.y.4.z z , 5 G H U Y Y U ).4X3X{.Y Y |.%X&X).U H P 2 2 ) w._ O.l G.yXB.0 b yXs.n ",
"G.Y.9Xv.j 8 ~ _ o.4.r. .< > > H { FXHXbX;.E R {.XX.XXX).U 4XfX[ ; 2 k  .) X.M.eXB.yXC.V lXmXm O ",
"m a.J.VXVXv.7 7 r ; 2 e  ./ K G H 2XFXFX[.T R (.>X X_.R { fXbXL : , k #.J.wXv.qXY.Q.6.@.MXG.s.0 ",
"#.n.n.n.d.wX9X#. .k - - ~ ( } [ oXT L G L T OX-X X(.*X{.U T { [ ; d.mXwXqXqXn.d.Y.yXV n B.L.s.+ ",
"@.6.n.9.9.b.9.f I.Q.+.X : K } +XoX$X| G | 2X7X-X X(.*X%X).$X<X[ r qXqXiXC.U.B.d.d.C.n G.Q.6.@.@.",
"M e +.A.B.A.uX%.x u.R.ZXM./ J ' [ oX{ ' 7XOXOX'.(._.{.=X8X<X[ q.9X~.A.V.lXyXG.nX@.f j.Z.yXZ.@.@ ",
"uXC.a.B.$.$.L.m $ x L.nXZXvX,X! ! [ [ [ @X=X| `.&X%X).+X,.>.sX6XuXT.L.a.Q.L.A.~.d j.U.U.j.A . O ",
"zXA.6.u.u.x u S I.B.V V C.xXrXsXK 4 Q ! } | oX+X[.[.,.} 6XrX5XK.G.U.G.m A G.u.b m z.z.L.5.+ . O ",
"n.j.B.f.$.1.v P.R.C.C.m.k X./ w.~ : 3 3 K J K J G G I 6XvXrXxXd.j.f.Z $.A Q.f O Z.U.G.f.B d # q ",
"@.A.I.L.m x 1.T.hXI.Y.8 :.:.( :.t.o.j < - ; 3 > G K ( ( Q ) J.C.mXP.z.A.V.m + + A ~.Z.f.B S B m ",
"+.f.G.$.m V.l.A.mXzX .=.N.N.o.4 / :.y.4.) W > G I -.,X( / ; , mXyXU.L.R.G.q + Z x Z A Z.u.$.l.B ",
"f.$.q Z T.R.U.qXVXe O.M.=.~ j j W W ) r.,X+X}.}.,.<X} K 3 - n lXQ.Q.Q.tXL.= @.Q.x.Z.$.b u.b S = ",
"P.x + V qXuXY.eXO.b.r.7 - - e , 5 a a 6 ! [.3X3X@X} J Q ; o f MXyXyXqXR.b + L.I.Z.T.l.x x + = b ",
"q x B.9. .K.X.^ r. .- o uXn.w , O.w.` Q L T |.&XT G J :.7 O n CXyXQ.C.w b b B.R.Z.l.x.$.m T.nXZ ",
". a.U.d.0.0.9 N.y.r o o R.MXY.1 ) _ ` ` e.] |._.T } <.~ o X 2 d.lXQ.@.f s.u.+.Z.l.f.5.m nXMXu.m ",
"x G.tXD.9X9 / 5Xr.- l L.I.U.zX9X/ _ _ 6 J e.&X&X| ( 4 8 2 2 2 j 9.nX@.B.B.V.Z l.L.Z.p.p.T.$.f.x ",
"~.L.R.Y.wX9 q.t./ 2 @.uXA.G.zXv.8 : / q.! ' `.&X| L N.k & 2 , 2 1 n.%.#.%.Z.l.l.Z.Z.f.L.L.x.L.B ",
"P.Z.G.Y.K.=.>.e.=.2 X.uXV.I.pX- o.( Q Q oX=X] '.`.<X:.o $ # # $ k ^ X.J.d.B.Z.Z.~.U.B P.P.H.3.% ",
"Z.L.$.A. .W #X( _ ^ M R.g.C.K.3 > q.q.4 ! oX=X`.| t.; - $ * # O 7 ~ 3 k wXI.V.G.P.j.q z.k.7.i % ",
"+ Z Z.a.k ,X>.q.o.*.X.M X.Y.9 6 q.:.~ : 6 3 } >./ ; 9 / 7 , # O W _ y.r.< D.%.R.l.f.c c i.3.p h ",
"Z.L.yXl.k o.:.,Xo.#.M 9.0.K.: q.,X_ ; o X , 7 - X o 7 ,Xo.2 O X w.q.q.o.- VX6.f.$.L.P.f 3.k.N i ",
"uXZ.H.~.9.1 ; 8 < k  .m.pXy.K #XQ 5 - M U.U.n O     7 _ 6XcX!.$ ~ ~ ~ k Y.tXf.x T.~.!.z.C N N & ",
"z.j.x.L.uXCXpXrXeXK.*.0.4.( >.( > ~ 0.U.!.U.mXB.* + < 4 / vXlXlXeXK.K.Y.J.L.m l.~.Z.l.H.!.5.@ % ",
"b Z.h.z.p.Q.K.0.K.r.#.0.~ ( #Xt.> rXC.C.C.G.K.eXzX, 5 N.4.j g CXR.Y.I.U.C.@.e A.P.Z.l.k.H.C g p ",
"s s.^.p.# s.9.J.v.v.v.- r _ >.q.6 5Xn.n.6.J.eXeXwX, 7 O.r.j U.U.U.U.B.$.V f s.V.G.L.Z.h.i.7.k.i ",
"* A N 5.h.B ..k.d.w o , - 5 5 < eX0...0.8.k.n...O 1 7 < o v.Q.l.z.A A m # V j.z.f.G.h.k.i.A g . ",
"h.d g 5.k.N g 6.U.n.2 j < 7 X.pXK.0.k C C ..h B + w 7 ^ - n.C.s.m c f.5.c A 5.j.h.i.5.h.h.c @ @ ",
"h.N g k.7.N g ..n.) ) O.O.< d.!.8.n.j.#...h 6.d.G.h , j e m.yX  Z Z h.$.A B c @.A B A B 7.N * * ",
"N % h B C 5.5.C 8.2 :.q.Q N.yXB s...C ..8...g n G.J.o 7  .k 9.$.s.s.5.f.i.A m V c 0 B d A 5.B % ",
"i 7.C i N C C 7...j y.r.a m.k.5.l h #.8...N 6.@.s.G.- ,  .e + O z.6.H.f.7.V A 5.h.5.d f A i.N @ ",
"C 3.N s g s N G.5.C ^ ^ j 0.7.A & 0.0.#...l C n 6.n.e ^ ^ e $ # = u.h.m A c g @.7.i.A B h.B # . ",
"C h s s & s % g v c * b h g C g 1 l , & 1 & h 0 @.#.e ^ X. .w + # m g O f * # g B c d g N % O # ",
"% @ i % & h % * F = = = * . % & & & h & & & C B f 1 X - X , 1 O     @ @ @ O # O O * $ s c h g % "
};
