/* XPM */
static char *_a9301e761694aeb92dd172b07ad68dbQwNgpNIE4otvU5VT[] = {
/* columns rows colors chars-per-pixel */
"48 48 242 2 ",
"   c #04010B",
".  c #09010B",
"X  c #0C0413",
"o  c #0C0B16",
"O  c #0E0C1A",
"+  c #040713",
"@  c #130B16",
"#  c #130C1A",
"$  c #1B0D1C",
"%  c #150514",
"&  c #14121C",
"*  c #19131E",
"=  c #1C181A",
"-  c #0F1114",
";  c #220E1E",
":  c #2C231F",
">  c #041726",
",  c #141422",
"<  c #1B1422",
"1  c #1B1A25",
"2  c #1D1D2A",
"3  c #141A27",
"4  c #0E1327",
"5  c #221524",
"6  c #231C2A",
"7  c #281B2A",
"8  c #281A33",
"9  c #09232E",
"0  c #1C232C",
"q  c #062838",
"w  c #182935",
"e  c #1C343D",
"r  c #18333A",
"t  c #24232D",
"y  c #292529",
"u  c #32292B",
"i  c #383626",
"p  c #242432",
"a  c #2B2A34",
"s  c #2D2D3B",
"d  c #272736",
"f  c #332B39",
"g  c #28333A",
"h  c #383637",
"j  c #423E3B",
"k  c #423D2C",
"l  c #3D4537",
"z  c #444334",
"x  c #44413B",
"c  c #4C4C3C",
"v  c #494738",
"b  c #524C3C",
"n  c #4E4E3B",
"m  c #052B44",
"M  c #093647",
"N  c #183847",
"B  c #123E52",
"V  c #352C41",
"C  c #243C46",
"Z  c #283947",
"A  c #323544",
"S  c #333A45",
"D  c #383B48",
"F  c #3A3C51",
"G  c #443947",
"H  c #06435A",
"J  c #1A4758",
"K  c #29424B",
"L  c #39444B",
"P  c #2A4654",
"I  c #334B55",
"U  c #334D5A",
"Y  c #384755",
"T  c #35535D",
"R  c #3B525B",
"E  c #385054",
"W  c #085067",
"Q  c #275769",
"!  c #3A5563",
"~  c #395867",
"^  c #2C546B",
"/  c #186777",
"(  c #0E6175",
")  c #246577",
"_  c #376579",
"`  c #494846",
"'  c #524D42",
"]  c #524F4B",
"[  c #4C5646",
"{  c #545343",
"}  c #54544B",
"|  c #5B5B4B",
" . c #565848",
".. c #474A56",
"X. c #48555A",
"o. c #585A54",
"O. c #615C4D",
"+. c #625D54",
"@. c #605F59",
"#. c #58624D",
"$. c #5B6352",
"%. c #596756",
"&. c #62644E",
"*. c #626354",
"=. c #696355",
"-. c #656A55",
";. c #63625B",
":. c #6A645B",
">. c #646B5A",
",. c #6C6C5C",
"<. c #6A6A55",
"1. c #726E5D",
"2. c #6B725C",
"3. c #66735B",
"4. c #74735D",
"5. c #465A67",
"6. c #585A67",
"7. c #464E62",
"8. c #46626D",
"9. c #4B646D",
"0. c #4B6467",
"q. c #586469",
"w. c #496776",
"e. c #536A77",
"r. c #5B747A",
"t. c #6B6B63",
"y. c #676866",
"u. c #726C63",
"i. c #756F6A",
"p. c #6C7463",
"a. c #6C7C6B",
"s. c #697666",
"d. c #737364",
"f. c #737A63",
"g. c #7A746C",
"h. c #757C6B",
"j. c #7B7B6C",
"k. c #777669",
"l. c #69787B",
"z. c #7D7D72",
"x. c #777A72",
"c. c #666D7A",
"v. c #645F61",
"b. c #837E76",
"n. c #837C6E",
"m. c #7A826B",
"M. c #72836D",
"N. c #7C8272",
"B. c #7A8978",
"V. c #7D9178",
"C. c #83836D",
"Z. c #838474",
"A. c #84847B",
"S. c #858C7B",
"D. c #8B8D7C",
"F. c #888877",
"G. c #86917C",
"H. c #938A7A",
"J. c #387586",
"K. c #2A7488",
"L. c #1F7B87",
"P. c #577687",
"I. c #4D7389",
"U. c #657A86",
"Y. c #767C8D",
"T. c #368998",
"R. c #268596",
"E. c #3C90A7",
"W. c #3DA6B3",
"Q. c #4B8B97",
"!. c #57879A",
"~. c #53939F",
"^. c #6C858C",
"/. c #6A8995",
"(. c #758A97",
"). c #778D93",
"_. c #4998A6",
"`. c #5A98AA",
"'. c #498EAF",
"]. c #6594A6",
"[. c #7996A4",
"{. c #6599B5",
"}. c #58A9B4",
"|. c #6CA7B5",
" X c #6ABAC9",
".X c #78BACA",
"XX c #6BB3CE",
"oX c #58ACC9",
"OX c #78C8D8",
"+X c #72C7D2",
"@X c #76C9E3",
"#X c #8C8C83",
"$X c #8A8B89",
"%X c #928E82",
"&X c #859382",
"*X c #8B9383",
"=X c #8A9988",
"-X c #929383",
";X c #939B8B",
":X c #97998B",
">X c #989B93",
",X c #869698",
"<X c #A29C93",
"1X c #97A28E",
"2X c #9AA494",
"3X c #9BA994",
"4X c #99A797",
"5X c #9FB09B",
"6X c #A3AB9A",
"7X c #A5A799",
"8X c #A3B39C",
"9X c #A4A18B",
"0X c #8795A5",
"qX c #92A8B7",
"wX c #A8ADA2",
"eX c #A5B5A4",
"rX c #A9B4A3",
"tX c #ADBCA8",
"yX c #B3BBA9",
"uX c #B2C1AD",
"iX c #B7C6B4",
"pX c #ADC1A8",
"aX c #C3CFBC",
"sX c #85B7C9",
"dX c #85C8DA",
"fX c #8FCCD5",
"gX c #89D7E6",
"hX c #96D8E6",
"jX c #95D6F1",
"kX c #9BE6EB",
"lX c #95E7F7",
"zX c #91EFF9",
"xX c #A7EAF8",
"cX c #A7F5FD",
"vX c #BBFEFF",
"bX c #B6F7FC",
"nX c #ACE9ED",
"mX c #A5DBE8",
"MX c #C3FEFF",
"NX c #CCFFFE",
"BX c #D5FFFF",
"VX c #C6D7C1",
/* pixels */
"%Xj.u.j.:.%XD. .F.H.H.F.1.k.-XD.-XF.F.-X .D.:XZ.F.D.yXf.-.D.-X4.d.F.j.#.Z.C.D.4.<.1.9Xk.C.4.1.H.",
"O.i z z b z j.{ k.k.k.k.-.*.Z.h.f.d.j.D.| -.p.[ [ $.f.p.3.m.f.-.,.m.h.| m.f.m.f.&.<.b i i k k b ",
"O.z =.<.b { k.| 3X;X;X4X>.N.S.S.&XS.=X6X$.>.[ S.uXa.[ >.a.rX2XS.Z.1X>X .*X3XV.3Xk.4.=.z =.<.' b ",
"| v &.1.b | d.-.iXeXeXiX>.&X5X>XrX5X5XrXo.s.>.B.iXa.[ [ B.iXrXiXrX>X:X$.8X5X8XyXZ.k.=.b :.=.b ' ",
"O.k v v | ' g.| h.s.h.N.| t.z.*.d.j.*Xm.[ S.h.p. .s.&Xs.s.a.B.>.*.Z.k.c j.h.h.g.=.k.=.' c ] ' | ",
"A.d.u.g.u.b.u.x i.t.t.x.} ;.x.x.x.x.a.&Xo.=XeX4X4X4XiXa.a.;X=Xo.t.#X#Xx y.i.g.u.} +.<Xi.n.g.u.A.",
"y y u u y y @ @ & @ & 1 # & a g S g w E L 0.l.r.^.0.r.I K E K r K X.S d s 6 $ $ = - u u y u : : ",
"x y.] t.x t.5 5 < $ < 6 s 2 p s p 4 w g 0 w L g g g K w w C w e > 3 0 3 p 8 8 < u = x.} t.:.| :.",
"' S.N.;X,.b.h . X 5 8 5 f 7 # 5 < f f @ X . @ # X . # O - & S , 3 2 2 1 # < p 8 . y :X-.>X&Xz.:.",
"z 2.&XtX-.Z.j @ $ 7 7 < X % u h % 7 5 @ . $ f % % % @ @ @ & & 0 * f h y # 6 1 * + t :X-.eX1Xz.,.",
"v N.G.aXd.:X` . $ 5 f p , # < $ # # < 2 o 1 f a * 5 D 6 < 6 + 1 * * < 6 y 6 @ 6 + y :X>.eXwXz.u.",
"c Z.M.eX,.b.h @ ; 5 h t # , X X o , w g Y Y S Y.c.6.p ..s S p & . , 5 # < y @ 6 . y ;X-.2X4Xg.i.",
"{ S.=XVX>.-X` . $ < < < # p # , w w ^.R K U.Z U.0X^.> 0Xw L Y D 2 X p < * a & @ # y 7X2.iXwXA.i.",
"v $.%.&X#.%Xj X < X d 6 # # , F I T [.[.! e.P K C N ~ w.9.5.0XY V V X # # s G * O y -Xv &Xx.t.,.",
"{ m.s.=X$.k.` < 2 t d $ X 8 F Z [.[.w.P N > > q J M M > P U qXU.Y.G p o X # s a 2 1 #X .1XB.d.=.",
" .*XM.iXZ.7X} * 0 ..$ X V d 5.e.! ! > q I./.I._ I.].sX].B q 9 5.7.. s d 6 6 O * & a wXp.4X=XF.u.",
"v ;Xs.iX>.,.h y ..X X 8 F P.! w.N q /.sXqX].`.OX.XJ.J ].mXw.> q Z 7.c.L s   , D t & ;X2.5X4XA.u.",
"{ S.2XtX-.%X} < # < ; V Y.[.w.q J [.I.q Q `.) M / gX|.9 J fX!.m > w.qXU.s 6 O , t D >Xf.5X2XA.d.",
"{ m.M.uXh.-X] 6 8 < s A P.I.P N I.M J fXhXhXbXxX_.H jXdXm W xX!.^ q P.U Y A , , 2 f 6Xh.eX;Xz.g.",
"{ S.=XuXf.-X` # % X A 0X[.~ N M M |.hXQ.) ) J.`.bXOXL.bXoXH E.jXI.m N (.0XL 2 O a f i.$.tX=Xg.j.",
"h p.V.uX2.:Xy.# X d Z C I.^ m M {.}._ |.MXvXhXdX_.cX XOX@X'.'.'.sXB B P.U.Z s o * a 2X2.tX&Xt.+.",
"*.h.B.G.2.-Xv.1 X p 5.w.~ N q Q.T._.vXMX.XQ.+XvXvXfXxXgX@XoXoXK.dX_ N ! 9.5.D . < h :X2.=XV.d.+.",
"7Xh.a.3.h.7X$X. + g R U.! q Q _.K.vX}. XQ.kXbXbXNXNXkXcX XXX@XH .X~.q P 5.e G $   y.rXf.%.%.x.<X",
"d.| #.$. .t.>XO o d c.qXY.> !./ +X+XT.gXkXvXnXBXBXBXkXvX_.lX@XH gX|.q ! /.5.G ; X y.F.c %.o.} } ",
"+.} s.&X$.i.$Xo & D 6.Y.e.Z P.B lXE. XzXlXxXbXNXBXnXMXxX_.MX'.) vX!.9 I (.q.G 7 X y.F. .V.N.*.' ",
":.o.} #.$.t.>X& * s f s 7.w I.H lXR.W.zX+XcXxXMXMXMXbXK.gXbXH {.mXQ q P ).q.G ; X 6.D.$.%.[ } n.",
"| } l l $.#XwXo $ 8 ` ..9.C ! B xXT.R.zX@XOXvXfXdX|.R.OXvXT.) bXJ.J > e.+ S G X + y.6X>.%.[ c z ",
"+.,.y.%.2.N.y.+ 5 $ ..e.5.~ P _ `.gXW W.cX/ OXMXkXgXvXzXL.( xX.XQ w.P (.).q.< 8 o h F.p.s.s.t.:.",
"i c l [ l >.X.+ % $ D Z /.w.q _ ) OX}.q OXOX( E.+X XL.W _.bXfXJ ~ q 8.U.Y.D 1 < O y N.i %.[ z v ",
"| D.*XiX$.z.o.O $ # 2 X.qX(.~ q H W kX`.M  XcXXXE.T.}.lXhXQ.J w.N U P.(...t + 1 # ` -X*.aX*Xg.d.",
"{ #XB.yX .$.L , f t O A Y T ! ~ M J Q dXdX( K.XXlXcXlXT.) Q./.N T U r.5.A , g t , 1 *X-.1XrXd.1.",
"z F.x.iXh.>Xc., t s 2 + w w 8.K ! N q M `.XX{.I.) J..XdXsXI.> T 9.U 9 C 4 d g 0 1 ..7X-.rX6Xh.1.",
"v -.S.iX>.2Xy.p , 1 s s d Y w K [.e.P N N N ! w.I.Q N N B P ! 5.P.P P > Z g 0 , A ` -X-.yXN.N.1.",
"{ D.;XyX>.7X..3 s d A S Z + 9 e.9.U.9.5.I R E C e N N U e./.[.K U U > e D s 0 2 d h 7Xf.yX3XZ.,.",
"v Z.p.h. .D.` d d s O S X.5.w > K E U.e e.8.I ^.8.P.N [.> T /.U C w Y R d 3 1 s 6 t -X .S.N.*.*.",
"c D.h.1X&.m.` O 1 s X.g Z Y 5.C e r I K 8.w R ^./.e.r w.K K N N e C C Z 6.A p s X y F.<.6XZ.,.,.",
"c N.2XaXf.6Xo.O s A A d w Z R R C 5.R 5.K e N 9 N N K P ~ T P P P Z Z Z S A A 1 , f 9X2.yX*Xg.,.",
"v D.G.aX2.;XL   d d L 7...e C e K R 5.R e.9.I I ! 8.~ U 8.T T 5.5.e.P g Z ..0 2 p y D.-.6XwXj.=.",
"c S.Z.uX-.-XX.d d A 3 D Z q.X.I r.U.e 9 5.e.8.e.U.9.T T w.~ T T I 9 Z 5.X.g F ..p a #X<.-X7Xj.*.",
"[ j.D.wX2.#X` 2 s s ..g w S K K I R 5.9.R I R I K R 8.9.5.9.U 9 C R Y Z > S ..s O a >X,.d.g.g.,.",
"l ' o.t.h %.= t 1 ..c.L q.q.l.R g r.r.^.U.r.^.9.K e.r.R w Z X.9.U.I g L X.A 3 & ..y :.' ,.+.{ ' ",
"i.x.z.A.x.B.] h u y ` g g X.q.o.g X.s.q.X.0.l.^.).B.X.L q.c.y.X.L X.o.X...h a h h h k.d.A.z.i.k.",
"#Xo.@.o.} x.-X;.>X>X#X7X} z.;X;X6X[ ;XtX%.1X8X1X6X1XtXN.j.7X7Xh.j.yX9X{ :X-X-X>Xg.j.:X{ +.+.c D.",
"} h o.h t.` g.' d.d.d.N.z  .F.f.2.n M.m.#.Z.m.2. .-.G.2.<.m.m.2.-.C.f.n Z.j.k.C.| u.c { ] ' } x ",
";.j ] #X' } h.p.tX3X3X8X3.M.5X1X8XB.pXpX#.3.#.M.iXs.#.%.B.rX2X6X2XeX3X#.1X2X5X6X-X} +.j t.t.h } ",
"] h @.} } x t.$.yX6X=XtX%.f.1X8X8X3.=X;X[ %.%.V.iXa. .#.p.2X2X4X1X6X=X[ &X=X;X;Xd.} } x | } ' ' ",
"x.` ] x ` ` t.$.Z.Z.*Xf.-.2.D.F.Z.v p.j.n Z.d.*.| ,.Z.,.,.D.F.-.d.-XF.2.Z.Z.F.D.,.| | z v x ` ] ",
"x.t.y.t.;.A.;.x *.>.| | {  .,.&.*.i | =.v n.k.1.4.n.H.1.{ 1.d.v  .d.| { | #.*.=.' c A.,.+.t.+.b."
};
