/* XPM */
static char *_7cf212e3dc0475bd4c72a8c88cf7439epPTVpSgYETGw0ie[] = {
/* columns rows colors chars-per-pixel */
"64 64 256 2 ",
"   c #06071A",
".  c #180A18",
"X  c #19131B",
"o  c #0D0E14",
"O  c #26191B",
"+  c #080B25",
"@  c #180826",
"#  c #081527",
"$  c #1A1529",
"%  c #191933",
"&  c #0E1632",
"*  c #230C29",
"=  c #23152B",
"-  c #25192C",
";  c #2B1D2C",
":  c #271727",
">  c #311C2D",
",  c #270B37",
"<  c #2B1634",
"1  c #2C1D34",
"2  c #2D1C3A",
"3  c #271636",
"4  c #311D35",
"5  c #321D3B",
"6  c #361A3B",
"7  c #1C2328",
"8  c #1B2638",
"9  c #102D36",
"0  c #2C202D",
"q  c #282429",
"w  c #31222C",
"e  c #362725",
"r  c #2C2134",
"t  c #2D223A",
"y  c #25293A",
"u  c #302135",
"i  c #32223A",
"p  c #3A2A3B",
"a  c #382939",
"s  c #3B3438",
"d  c #2E3534",
"f  c #33291F",
"g  c #4C1C33",
"h  c #47273A",
"j  c #493739",
"k  c #592F32",
"l  c #68343A",
"z  c #4F433D",
"x  c #77473B",
"c  c #2E1A41",
"v  c #331D44",
"b  c #381A49",
"n  c #2B0E46",
"m  c #193B53",
"M  c #143247",
"N  c #272D44",
"B  c #342342",
"V  c #3A2344",
"C  c #3A2747",
"Z  c #243748",
"A  c #3B3246",
"S  c #3D2653",
"D  c #2D3B54",
"F  c #452A48",
"G  c #473649",
"H  c #573948",
"J  c #432D53",
"K  c #472859",
"L  c #493557",
"P  c #563B59",
"I  c #562C4E",
"U  c #67394A",
"Y  c #4D3764",
"T  c #563A66",
"R  c #4F3069",
"E  c #592E5E",
"W  c #1B4554",
"Q  c #284859",
"!  c #384958",
"~  c #334F51",
"^  c #385668",
"/  c #3A5B75",
"(  c #2B5068",
")  c #3B6370",
"_  c #2E6059",
"`  c #484548",
"'  c #57474A",
"]  c #594659",
"[  c #5A5359",
"{  c #4B4E57",
"}  c #68484B",
"|  c #674857",
" . c #665859",
".. c #775459",
"X. c #734C4F",
"o. c #4E6A54",
"O. c #5A4667",
"+. c #46576A",
"@. c #595566",
"#. c #5C4975",
"$. c #4B536F",
"%. c #654A68",
"&. c #65536C",
"*. c #695867",
"=. c #745767",
"-. c #654A73",
";. c #6A5676",
":. c #765B79",
">. c #754966",
",. c #496767",
"<. c #597B67",
"1. c #476777",
"2. c #556B7A",
"3. c #567779",
"4. c #526A6C",
"5. c #776768",
"6. c #776677",
"7. c #7B7478",
"8. c #6D6E71",
"9. c #6B6159",
"0. c #31463F",
"q. c #885A3A",
"w. c #885857",
"e. c #945752",
"r. c #8D695F",
"t. c #986C56",
"y. c #996F54",
"u. c #A87B5A",
"i. c #865966",
"p. c #814E6D",
"a. c #896668",
"s. c #946A67",
"d. c #9A7569",
"f. c #876878",
"g. c #88777A",
"h. c #997677",
"j. c #926F71",
"k. c #A67968",
"l. c #A77B77",
"z. c #A96E6D",
"x. c #79997A",
"c. c #6F9070",
"v. c #5C8672",
"b. c #928374",
"n. c #B78967",
"m. c #AB857A",
"M. c #B78A7A",
"N. c #BA977C",
"B. c #AF896D",
"V. c #90AF79",
"C. c #A6BE7F",
"Z. c #C59678",
"A. c #C58876",
"S. c #D1A27C",
"D. c #386D85",
"F. c #6D5783",
"G. c #765B84",
"H. c #497785",
"J. c #577888",
"K. c #4F6C88",
"L. c #7A6787",
"P. c #647A89",
"I. c #7B7387",
"U. c #767292",
"Y. c #4B5E81",
"T. c #846A87",
"R. c #887789",
"E. c #967787",
"W. c #897798",
"Q. c #947995",
"!. c #8C6A8E",
"~. c #A87A89",
"^. c #957CA5",
"/. c #A07FAC",
"(. c #5C8188",
"). c #5B8694",
"_. c #4E8A93",
"`. c #688998",
"'. c #758B99",
"]. c #78989A",
"[. c #6D928E",
"{. c #6A94A5",
"}. c #7897A7",
"|. c #7395AC",
" X c #78A5AE",
".X c #659A9B",
"XX c #968989",
"oX c #898398",
"OX c #968899",
"+X c #999697",
"@X c #8C8E8E",
"#X c #A98687",
"$X c #B58A85",
"%X c #BA938A",
"&X c #A69799",
"*X c #B99796",
"=X c #AB9192",
"-X c #82A599",
";X c #91B38B",
":X c #AFAA93",
">X c #9789A6",
",X c #839CAA",
"<X c #9995A6",
"1X c #9291AE",
"2X c #A48BA9",
"3X c #A89AA6",
"4X c #AD9AB2",
"5X c #87A5AE",
"6X c #8AA9B5",
"7X c #97B9B8",
"8X c #93B1AE",
"9X c #A9A4A6",
"0X c #B4A9A9",
"qX c #B7A8B7",
"wX c #BBB8BA",
"eX c #AFAEB3",
"rX c #C69989",
"tX c #C79C98",
"yX c #C8948C",
"uX c #D5A998",
"iX c #CEA992",
"pX c #E7B794",
"aX c #C798A3",
"sX c #D7A8A5",
"dX c #C6B8B9",
"fX c #CFB1A9",
"gX c #E2B8AA",
"hX c #B0CB8F",
"jX c #9DC4B3",
"kX c #AFCBAB",
"lX c #9DC794",
"zX c #CAC4BA",
"xX c #D1D0B6",
"cX c #F5C8B2",
"vX c #D4E9B2",
"bX c #E0ECBD",
"nX c #D8CC97",
"mX c #96B7C6",
"MX c #8CB1C7",
"NX c #AEB1C5",
"BX c #BC9FC7",
"VX c #CAB7C6",
"CX c #CCB6C9",
"ZX c #ADC8D1",
"AX c #D5C6CA",
"SX c #DAD5C9",
"DX c #D7C6D4",
"FX c #DAD3D2",
"GX c #CAC8C9",
"HX c #E3D9CC",
"JX c #E6DCD4",
"KX c #E0C7D6",
"LX c #ECEBCF",
"PX c #D8C8E3",
"IX c #F7EEEC",
"UX c #D6E1D1",
/* pixels */
"i i i u u u u u u u u u u u u u u u u i v v v c ; q 0 0 u u ; - ; ; ; ; ; ; ; ; 1 1 1 1 r r u u u u u u u u u u u u u u u u u u ",
"i i i u u u u u u u u u u u u u u u u i v v v c 1 ; 0 0 u r ; ; ; ; ; ; ; ; ; ; 1 1 1 1 r r u u u u u u u u u u u u u u u u u u ",
"i i i u u u u u u u u u u u u u u u u i i 5 5 2 1 1 1 1 $ = : - : : : - 1 1 1 ; ; ; 0 ; r r u u u u u u u u u u u u u u u u u u ",
"i i i u u u u u u u u u u u u u r r r r u u u r 1 1 ; ; ; w a a a p p p ; ; ; ; ; ; 0 0 r r i 2 1 r u u u u u u u u u u u u u u ",
"i i i u u u u u u u u u u u r r r r 1 ; p ; w : ; . [ ` 9.IXHXHXJXJXJXIX&Xf  .O O w w r r 2 2 2 2 r r r u u u u u u u u u u u u ",
"i i u u u u u u u u u u u u r r 1 1 ; ; w O : w [ qXFXXX&XLXxXxXxXzXzXdXzX .JXdX5.O O ; 0 - 3 2 2 r r r u u u u u u u u u u u u ",
"i u u u u u u u u u u u u u r r 1 1 ; ; . s g.SXJXHXdX5. .9Xg.7.7.5.g.&XXX .dXSXLXHX=Xz O ; 1 1 r r r r u u u u u u u u u u u u ",
"u u u u u u u u u u u r r u r r 0 0 q q 3XFXHXxXxX=X5.j ' 3X5.XX=X&X5.g.g.h g.=X0XxXSXJX&X' X w r r r r u u u u u u i i u u u u ",
"i i u u r ; r p =.u 1 r r r 1 u O O &Xg.0XCX&Xg.z j =.H | g.*Xr.fXr.iXm.=.F j.j j 5.+XwXGX7.:Xe : i 1 ; u G a i u i i 4 u u i i ",
"i i u u u ; r a OXu - r r - r : s &XIX0X| g.5.#X=X#Xf.f.h ~.m.rXfXiXu.rX| >.#Xs.#XXX5.g.*.qXIXzXj : u u : 6.G < i i 4 4 u u i i ",
"u u i i a 1 2 i t ; ; u u 1 :  .LXbXzX&Xj ..gXm.m.%X$X..g *XuXiXk tXuXtXI >.%XrXZ.N.uXX.h 4X9XGXJX7.X u - 4 5 V i u u u u u u u ",
"u u i i B t 2 2 t - > : u : 7.FXxXwXg.H a.tXk.rXgXw.uXi.g *XM.Z.rXsXM.sXg X.iXn.pXZ.n.uXa.P 6.eXzXSX7.O ; 4 4 6 4 u w w u u u u ",
"i i u u - a G r ; ; i : O &XFX0X@X@.u 5.=XtXl.tXyX%Xl.a.g p.sXt.iXt.uXd.k ..rXiXy.Z.Z.Z.l.f.> ' @X0XSX:X: : ; 4 < u s j ; ; u r ",
"i i u u X  .R.. 0 r 1 : XXJX0X5.G *.6.=.j.sXd.$XuXs.aX>.I :.} m.m.$Xw.i.H ..tXt.rXZ.n.uXs.X.=.5.z 5.fXHX+X: ; ; i @  .b.. a a r ",
"i i u w j zXSXj ; 1 X *.9X9X5.j.fXfX#X} ..E.fXs.h.*Xf.:.K G.f.| %.-.6.T.p =.g.*Xm.M.gXh.X.U d.gXuXb.a.0X9X7.% y 3 G 0XSX[ ; r r ",
"i i u w ' JXJX' : = ` GX9Xg.9.%XN.k.gXa.H E.f.*X*Xf.-.T , n , , , n , 2 * P *.6.#X#Xj.=.H a.uXZ.pXcXa.5.XX9X{ % 3 A 0XJX*.- u a ",
"t t r r . [ 6.o 2 t wXkX+X' b.B.pXrXl.tX| %.:.T.L F @ , K K K K K K S J L B $ 4 F =.=.H ..tXl.M.S.n.m.' XX3XoX$ 3 : ` g.: 1 u a ",
"t t t r t i i 1 = G +X+X[ *.*Xk.gXgX$X#X=.=.O.5 , b S K Y #.F.F.F.F.;.G.-.L Y S 2 v F | i.l.$Xk.pXy.uX} ' qX@Xq t a s j 1 1 u a ",
"t t t i i r - : ` AX7.@.G R.*Xm.l.%XtXa.E.%.* L #.-.G.L.>X>XOXOXOXOXOX<XW.U.#.;.#.Y , P E...yXrXZ.k.*Xf.P P 8.NX@.= : X i i r ; ",
"t t r t L - a X [ JXwX' a =.r.%XtXtXa.E.H 4 A C O.W.NXI.{ A r X o # # & D ;.1X1XF.S O.V h h...%X%X$Xi.U 6 ] VXGX] : ; 1 p i 1 - ",
"t a 1 A A 1 2 a dX:Xg.| h.X.k k ..| E.h * ] ;.;.U.I.y +   & N Z M m Q M & + $ I.W.;.6.&.< h !.>.=.=.l i.*X| L.4X2Xa - = a ] i 1 ",
"i A r r @ = = *.FX:XX.#XiXcX$Xa.| %.%.6 P a I.<X{ + # Z ! +.Y.K.K./ K.Y.$.+.D   A qXOXJ O.P K -.G =.=XsXsX#X] <X3XG < 1 p 3Xp 1 ",
"i p ; C C t i OX4Xg.j.uXZ.n.gX=X:.%.. O.L.6.oXN # m Y.^ Y.Q m Q ^ 9 / Q m 1.1.( # % oXW.G.O., ;.*.XXsXtXk.$X5.8.XX*.5 i p qXp 4 ",
"r $ : [ @.$ r 6.qX| %Xy.pXpXB.a.:.%.J V &.eXN & ^ K.Q / ( J.{.}.`.}.}.{.1.W ( 1.J.N & 4XI.V T &.8.b.d.gXZ.t.*X .0X*.< 1 OXIXOX< ",
"1 ; 0 ; $ - G OXQ.| rXu.pXpXM.a.:.5 %.T.<XN & 1./ ^ / ).{. X).m 1. XW 1.'.`.H.1./ K.Z N OXI.U.v *.j.N.n.S.Z.*X| OX6.G 4 > dXF < ",
"1 p r 0 - - 6.DX:.H $XuXn.rXsX..;.5 %.OX&.  K.) Q ) mXJ.`.H.Q W  X^ ^ }.  ,.P.`.m Q P.8 ! <XU.Y &.} %Xu.q.pXh.I | 2XG < 4 6.a ; ",
"r u s 0 1 - 6.qXT.>.h.~.sX#X..Q.v J T.OX$ $.^ ) ).{.M Z ZXD # J.`.M 1.`.9 mX'.P.|.K.Q 1.7 oXU.#.C E.X.tXsXl.i.U f.2X%.< ; a 4 4 ",
"1 ; ;  .= B oXqX%.F U k g k H ;.J #.oX` ! P.1.).`.W }.# 1.}.7X`.J.'.mX`.3.7X1X+ 1. XQ J.+.! 1XL.P %.U g k l U h ] OX&.< = 1 4 p ",
"- ; 5.FXG $ *.*.P =Xl.rXuXs.=.6 Y L.<Xy 2.^ `.`.^ m }.(.mXP.D @ @ + D 1.}.5X8 ^ K.H.{.W / $.4XT.O.: ~.$X$XyX$Xh.H G ] < a G < u ",
"- r  .wXA = 7.OXG =XM.Z.n.%Xf.W.b L 8.4.) Q {.^ mXW `.J.+ y 3 3 F B   # # `.6XJ.mXM _.D.m Y.L.O.4 E.#XtXpXA.gX%Xj R.:.: p ] - C ",
"r 0 q ` - B 3X3X' %Xt.cXrXl.E.L.Y $.8.o.1.{.Q 9 Q  X5X+ + C J @ % + O.{ +   P.}.J.W _  XD./ U.&.J 6.h.M.n.pXt.*XH 2X6.= < 1 i = ",
"r r : : - t <X4X..%XB.LXuXh.3XG.#.U.eX~ ).{.{.`.) 6X+ N >X@ $ $ 8 + &.C B y   ].J..X_..XH./ 1XR.O.&.#Xy.n.cXk.*X=.Q.&.4 1 i 1 i ",
"r r 0 r t t <XqXh h.d.k.k.tX=.G.K #.@X7 `.H.) J.ZX~ N *.JX` + # + & @ @ T.P p N ZX1.( ( mXM oX@.O.%.i.$XS.u.k.l.h OX%.i 1 t t t ",
"r r r r t t oXOXP =.z.M.l.i.T.-.#.U.3Xd }.W `.1.'.& L = ' o y ^ 1.+.N 3 < * F o '.1.1.Q 5XQ <XW.&.;.Q.X.Z.S.k.} P Q.%.4 1 t t t ",
"r r r r 2 B R.OXF f.X.U l f.%.F.T L.9X` mX{.) `.$.+ * * : # ^ MX{.MXJ.& = < i   ! }.}.{.{.J.<XL.O.G.!.p.x x X...F L.;.4 1 t t t ",
"r r r r t i @.] | #X$XsXaXE.T.W.S Y OX@.}.{./ 6X$.@ < : $ 8  XD.{.( ,X+.  &.2X  Z 7X`.5X{.(.oXS C G.2X~.$XA.$Xa.| P L < 1 t t t ",
"2 r r r 1 C <X3XH =X$Xe.z.*XE.T.K L.3X8.,XmXmX,X$.. | 5.o d ZXH.{.H.`.2.@ qXPXt Z 6X1.J.(.P.oXL.O.:.~.m.Z.u.M.$XH Q.L.i 1 t t t ",
"2 r r r 2 2 oX&XH $XyXt.M.%Xf.L.O.;.eX8.2.M ( }.! % dXHXa 7 }.6XH.|.,XN @ C P   8 mX2.M (.P.<XoX%.:.a.B.k.S.q.$X| Q.&.V 1 t t t ",
"2 r r r i i oX&X..m.w.cXm.s.#X6.Y L.eX8.}.W J.}.1.+ 7.R.- % N `.mX|.$.@ < < < $ ! 6X,X5XJ.P.1XoXP =.l.u.n.n.n.k.=.!.:.6 1 t t t ",
"2 r r r 3 t oXQ.k #Xw.$Xw.#X=.6.S ;.VX` 6X XMXK.MX# X $ = 3 % & N N $ * :.< L $ '.3.Q 1.{.^ NX;.F | j.M.y.Z.u.l.H Q.:.i 2 t t t ",
"2 r r r - t W.R.I i.$X#X$Xh.=.L.Y O.9X7 '.).) ( }.1.  $ G 4XA % 8 8 $ 7.IX6.+ ! 7X,.'.W }.& <X] T :.a.r.M.M.M.w.I ^.:.6 2 r r t ",
"2 r r r t 2 @.;.F | k } k j T F.R W.qXs `.|.m 1.^ 5X!   A 4XA % ! N $ [ DX[ % mX,.].{.J.`.Z eX<X%.P | k x X.k U I ;.T 4 2 r r r ",
"2 r r r t 2 &.6.P #Xs.d.s.#X&.J K F.*.8.Z `.J.`.5X2.ZX{   $ % N 8 y q $ p y 6X2.,.^ Q 6X( 2.4.6.O.I E.h.l.l.s.~.P G.-.V 4 r r r ",
"2 2 r r - B >X2XH h.$XM.%Xh.f.W., T +X7.2./ |.1.ZXZ +.eX'.y 8 ! # Z 8 8 @.PXP.3.~ 9 6XJ./ 2.<XG < T.E.h.tXm.yX~.I /.:.5 4 r r r ",
"2 2 2 2 t t oXOXh h.d.uXB.m.f.L.L G.qX` './ J.5X`.'.! ! ,XZX'.,.P.P.2.6X5X! ~ UX-X3.}.m `.^ 9XI.L :.E.#Xl.l.l.h.I !.-.V 4 u r r ",
"2 2 2 2 t t I.T.| l.k.pXrXs.E.;.L ;.dXq 2.|.1.J.mX~ Z NX5X[.].5X,X5X}.2.}.mX+.+.[.}.3.{.P.8 eXI.P -.=Xj.$XcXw.h.T F.T 6 4 u r r ",
"2 2 2 r 3 B I.Q.h z.e.A.z.l.=.G.S L 0Xs Z `.K.P.].6X2.].7X,.[..X-X~ }./ |.6X,.-X8Xv.J.`.m & 9X*.L %.f.j.r.l.w.~.I ;.O.4 4 u r 0 ",
"2 r r r - r *.6.g l z.e.e.w.H :.C ;.4Xq 8 Q '.J.J.(.7X}.3.(. X) jX,. X).`.(.ZX-X,.(. X^ ^ y 9X5.p P =.X.s.X.l.| 6 ;.O.4 u ; u 0 ",
"r 0 0 q s ` `  .H U } a...U ..| H ' g.s ~ _ ,.-X].3.3.8X7XjXv.5X].[.].7XjX7X[.3.(.6X2.4.{ d 7.' ' H ..j } ..} ' P %.| F G u u ; ",
"r 0 0 q 9XzXzXdXAXDXCXCXCXDXDXCXJXdXdX9X7 ~ ~ ,.-X-X[.<.c.[.jXjXjXjX8X-X8Xv.v.8X5X,._ 4.` +XAXdXFXDXAXg.VX&XVXDXVXCXVX4XT.p - a ",
"2 2 1 r 6.R.@X<X<XW.6.R.OXOXoX7.9X0X*X0Xd ,.,.3.o.v.8X8X-Xc.].v.-Xv.[.v.8X8XjXc.~ ,.4.4.{ +X&XdXVXT.!.Q.R.R.OX&.R.T.L.6.] u u 1 ",
"2 t 2 2 L.W.I.L.oX>XoX1XU.;.U.I.6.0X=X0X0.4.3.].;Xo.c.V.;XkXkXlX;XkXkXkX;Xx.x.o.c.c.<.8.[ +XXXdX2XL.^.W.Q.>XO.L.W.L.L.6.] i u 1 ",
"2 B 2 3 G.W.F.U.^.^.>XU.Y L.!.:.Q.VXdX9X~ c.c.c.x.c.x.c.c.x.V.;X;X;XV.V.c.c.V.;Xx.x.x.x.9.+XdX0X2XW.W.L.W.F.O.^.!.L.;.-.O.v B 2 ",
"2 t 2 3 J O.J L Y T L J J L T J T P &.G <.x.c.V.V.V.;XC.hXC.;XhXV.V.hXhX;XhX;XV.;X;Xx.x.8.s 5.H P K T Y -.B v T J J L O.J v c V ",
"0 - 1 i @ % c L S C 2 @ F 6 * 2 n K J $ <.V.V.C.hXC.hXhXhXvXbXvXhXhXvXvXhXhXvXC.lXlX;X;X@Xz ' H i @ 3 L L @ v Y J v , , * c c c ",
"q $ q s 6.R.6.G ] O.5 T.PX>X< c T K G.@.@XkXkXkXvXvXLXLXvXbXLXLXbXLXLXLXbXvXLXxXvXvXUXSX9X[ XXg.F %.2XBXL.C L O.O.O.L S 2 L b v ",
"q 7 d c.kXwXkX+XoXa R.DXOX] F 6 S Y < L.DXDXFXFXSXJXAXg.0XJXAXJXJXGXGXSXdXzXSXdXGXJXwXNXDX*.a G g.DXPX:.L O.; ] ;.L V * 6.OXO.V ",
"d 7 ` 9XeXwX9XFXOXa ] ;.] T.CXPX;.C * F &.=.=.5.6.6.5.] =.XXR.R.R.[ 6.5.6.*.6.6.*.6.*.*.G G . *.CXCX4XG.T V P CXCX;.* F 2XT.%.b ",
": a *.3X4X4XOX:.O.J V P O.PXPXqXL.5 F ] ] |  . .....' '  .5.=.5.z '  .5.9. .*.*.5.5.*.5.]  .a f.DXW.W.F.T T VXCXBXG.F Y G.T T K ",
". *.T.&.L.O.-.G.#.T J v >X>XT.T #.V 6.VXqXdXdXVXdXVXXX7.DX0X0XAX*.&XFXdXdXVXAXwXDXdXqXqX3X3Xf.p :.;.-.O.b Y 2X/.W.T K b T T E K ",
"4 G %.-.%.-.-.-.T J v 2 ;.#.T O.-.b b -.-.%.%.%.&.:.-.J :.:.:.:.L ;.:.O.&.&.&.&.&.&.&.&.] L C V T T T P < v K T E K b b T -.T K ",
"6 F F F V V V V V V 5 4 F C V S S b b J J F F F C L J v J J J J V L T J J J J J J J J L L F 6 V C S C C 4 4 v b b b b b K K K b ",
"V 2 3 < 4 4 4 4 4 4 u u 4 i i < 5 V V 4 < > > > 4 5 6 4 < < 2 3 3 < 5 2 3 3 3 - = = = = * : > 4 v 4 ; w w u 2 2 2 6 6 6 2 6 6 5 ",
"B 3 3 2 1 1 ; ; ; ; u p : 4 4 = < 6 5 < > > > > 4 4 4 4 < < < 3 3 3 2 i 4 1 4 4 4 u u u u > > > 2 4 > e e w 1 2 4 4 4 1 1 i B 4 "
};
