/* XPM */
static char *_a7acfeae53c4c469aaed686e697734cw3TheKldJaDXHS0R[] = {
/* columns rows colors chars-per-pixel */
"48 48 189 2 ",
"   c #010204",
".  c #06060B",
"X  c #09070B",
"o  c #0B0A0E",
"O  c #0A0701",
"+  c #100D0E",
"@  c #0E100D",
"#  c #131106",
"$  c #0D0D13",
"%  c #080710",
"&  c #110E15",
"*  c #120E18",
"=  c #0F1014",
"-  c #131215",
";  c #181516",
":  c #15141A",
">  c #19161B",
",  c #1B191D",
"<  c #161819",
"1  c #211E1B",
"2  c #25231D",
"3  c #191621",
"4  c #1D1B21",
"5  c #211E21",
"6  c #232325",
"7  c #292724",
"8  c #2C2A26",
"9  c #252429",
"0  c #28262B",
"q  c #2C2B2B",
"w  c #322F25",
"e  c #312E2E",
"r  c #34322D",
"t  c #3A372B",
"y  c #2C2C32",
"u  c #302F32",
"i  c #2F3135",
"p  c #343334",
"a  c #393636",
"s  c #3B3A35",
"d  c #343439",
"f  c #39373B",
"g  c #37393D",
"h  c #3C3B3C",
"j  c #403D35",
"k  c #403E3B",
"l  c #3D403F",
"z  c #424037",
"x  c #44423C",
"c  c #49463C",
"v  c #4C4B3D",
"b  c #47493F",
"n  c #51503E",
"m  c #393741",
"M  c #3D3C41",
"N  c #413E42",
"B  c #3E4045",
"V  c #444344",
"C  c #494744",
"Z  c #4C4A44",
"A  c #45454A",
"S  c #49464A",
"D  c #47484D",
"F  c #4B4A4C",
"G  c #524E45",
"H  c #514E4C",
"J  c #4E504E",
"K  c #545245",
"L  c #54534C",
"P  c #59564E",
"I  c #5A594E",
"U  c #494750",
"Y  c #4D4C52",
"T  c #524E51",
"R  c #545255",
"E  c #5A5654",
"W  c #5C5B54",
"Q  c #56565A",
"!  c #59555B",
"~  c #57595C",
"^  c #5C5B5C",
"/  c #615E54",
"(  c #615E5C",
")  c #5E605F",
"_  c #636156",
"`  c #64625C",
"'  c #6A655C",
"]  c #6C6A5E",
"[  c #716A5E",
"{  c #5D5C62",
"}  c #625E63",
"|  c #646364",
" . c #696662",
".. c #6D6B63",
"X. c #65656A",
"o. c #69666B",
"O. c #6D6C6B",
"+. c #676A65",
"@. c #726E64",
"#. c #716E6B",
"$. c #786E64",
"%. c #6F7069",
"&. c #737266",
"*. c #797566",
"=. c #74736B",
"-. c #79756C",
";. c #7B796D",
":. c #6D6D71",
">. c #706F74",
",. c #757472",
"<. c #797673",
"1. c #7D7B74",
"2. c #7A777A",
"3. c #7E7D7A",
"4. c #767777",
"5. c #807D6D",
"6. c #817D74",
"7. c #827E7A",
"8. c #7F8070",
"9. c #838176",
"0. c #898276",
"q. c #85837B",
"w. c #89857C",
"e. c #8B8A7E",
"r. c #888979",
"t. c #91877F",
"y. c #92917D",
"u. c #868480",
"i. c #898682",
"p. c #8D8B83",
"a. c #8D8C89",
"s. c #888887",
"d. c #918D84",
"f. c #918D89",
"g. c #8E9285",
"h. c #949285",
"j. c #9A9487",
"k. c #9B9984",
"l. c #95938A",
"z. c #99968D",
"x. c #9B998C",
"c. c #959491",
"v. c #9A9692",
"b. c #9C9B93",
"n. c #9D9C99",
"m. c #979798",
"M. c #A19B8C",
"N. c #A19E94",
"B. c #A19F9A",
"V. c #9EA19B",
"C. c #A3A296",
"Z. c #A5A39C",
"A. c #AAA69B",
"S. c #ACAA9E",
"D. c #AEAA97",
"F. c #B0A69C",
"G. c #B5B29A",
"H. c #A29FA3",
"J. c #A6A4A0",
"K. c #ADABA3",
"L. c #A7A8A1",
"P. c #B2ADA4",
"I. c #B1AEAD",
"U. c #B4B2A7",
"Y. c #B4B3AB",
"T. c #BAB5AB",
"R. c #BBB9AE",
"E. c #BCBAB3",
"W. c #B6B4B1",
"Q. c #C1B7AD",
"!. c #C1BEB3",
"~. c #C4C1B6",
"^. c #C5C4BC",
"/. c #CBC6BC",
"(. c #CBCBBC",
"). c #CDCAB4",
"_. c #C9C6C1",
"`. c #CECCC4",
"'. c #C8C6C7",
"]. c #D1CDC4",
"[. c #D3D1C6",
"{. c #D9D6C3",
"}. c #DAD5CA",
"|. c #D9D6C8",
" X c #D6D5D5",
".X c #E4DAD0",
"XX c #E8E4D8",
"oX c #F2EDE1",
"OX c #F3F0E6",
/* pixels */
"Z.Z.l.i.B.p.p.z.P.@./.XXQ.}..XM.].}. X^ q.p.Z.l.g.C.p.] y.{.{.{.A.oXz.U.OXR.1.!.j.9.T.K.e.C.R.] ",
"Z.` O.=.7.,.,.Z e.$.j.N.$.0.j.0.0.q.#.h V.%.x K x b r.8.t ;.k.h.;.d.-.p.A.6.&.-.' 6.1.-.6.G 1.=.",
"i.H u.^ (  .=...' / ' ' [ *.$.$.' ' s c.^ V ' ~.e.W s h.K n *.*.6.-.../ ..I ] L w.] / W ] w.K q.",
"Z.c.^ W E.f.G 6.e.' 0.w.F.T.t.*.i.-.q.n.V | ' N.=.+.b ] j.*.[ A.z.P.A.l.w.9.w.p.W v !.Z.x _ Z.;.",
"a.a.#.( f.f.c 1.z.7.0.' d.w.6.d.7.1.=.L.h ^ -.-.3.,.s ..h.*.h.d.w...=.N.w.6.w.j...G A.9.j @.h.1.",
"i.^ q.W Z W -...' ' M.d.z.w.N.z.f.=.E s.+.V P 3.O.L s Z.Z ] z.e.1.q.1.f.h.@._ ] 6./ v c ..q.Z q.",
"Y.=.` =.z.q...-.K./ w.d.<.f.i.z.f.f.O.6 c.1.P H J | n.^ 2 1.l.f.q.n.q.f.z.=.-.l._ @.N.d.-...h.w.",
"p.=...' ,. ./ ..w.j 7.i.P  .6.=.i.p.,.p x Z l.c.m.O.h a s #.i.1.7.a.` q.p./ _ w.=._ *.&.@.-.9.L ",
"p./ K ..` 3.P l.f.O 2 8 1 1 1 6 > > 4 5 q @ 7 q q < 4 y 6 5 4 > , 1 2 2 2 # w U.W &.&.] _ H e.K ",
"[.1.q.l.z.q.p.z.v.7 x a V V c V D U A V V h V q p D A B A A U U F F C V r r Z T.-.x.5.h.1...!.C.",
"R.-.q.p.;.b.3.q.b.8 c s H S x a M m d p h q Z l ~ B M d d g m M N V C C j s G U.q.6.r.d.p.O.U.x.",
"9.;.;.q.q.e.=.K.Y.q C R a 0 ; . . o $ $ - @ ) F | d % $ & $ % o & 5 p k H r z T.w.d.5.C.p._ S.x.",
"(.9.;.j.] @.q.L.Z.8 a H 6 < 9 o : - - $ $ < F D X.d % $ > - & : > > ; C c w P ~.w.C.-.e.z. .S.x.",
"A.*.*.;.q.h...K.J.1 R } > . > $ $ $ < o - = J R | y > : & : < $ > o X x H j ' [.=.6.w.x.p...C.&.",
"R.&.-.C.e.l.=.b.E.7 H T f h & X $ . o $ 6 < ~ R X.y 4 > - . . $ X q f V C t / /.6.w.5.;.f...Z.-.",
"S.;.0.b.=.=.b.3.n.7 h ! Y Y } > d A 4 .   . ^ R | i % $ > D A $ T Q V O.C r W /.#.N._ w.l.` A.l.",
"j.;.@.6.-.~...z.n.e F S d m { } { M O.M S h ~ Q | A A V X.f R >.} T V s W p P ^.' l.*.x.1...e.I ",
"[.6.6.p.;.b.-.z.K.q H V > 9 & > Y M Y Q p M S M R D y { Q V Q u   , ; V C 8 P `.3.=.;.l.l.W b.C.",
"S.5.w.p...q.1.z.n.8 N T > : : * > 0 < $ f 6 f h A 9 f 6 $ u 0 < - 5 - x W r Z E.3.Z.&.Z.b.` h.E ",
"j.&./ C.Z.z.' K.I.8 S F > : > : - : - 4 $ o | Q | M $ - o $ - $ , o , k E p W `.( h.h.&.9.K C.&.",
"}.;.5.P.] 0.w.d.l.e S D 0 3 * $ : - < : - - { Q Q y : - > o X - & ; , C C q ( L.3.z.&...z...Z.C.",
"~.;.&.S.d.d.0.C.u.1 N T 4 & * : : > - < p :.X.D ^ 2.Y < - - ; - - o - C C a p L.q.b.p.p.i.,.K.l.",
"h.@.&.9.;.w.@.-. .#.f F y > * : X <   $ 2.> A M R p ,.p - o o - X + ; N a E 1.| 4.u.u.v.1. .p.W ",
"K.@.@.6.1.P =.Z F H 5 V Y ! N X h Y p A | 4 M 0 D p { V , A A > 0 F E | e q E x ~  .` i.2. .m.3.",
"7.H E ( s C q S ^ > 0 h e a | ( R 6 | Y f Y D 9 M Q A V | h h | O.C u ~ q 6 p ( p f R F o.V } 2.",
"V N V p E ( | c.H.q M S q s 7 , a f h < > 4 N D V 6 $ $ 6 A A 6 6 a p V F 0 R '.^ | ^ V f } A A ",
"Z L E b.=.i.i.Z.L.6 C F 6 o - ; - > $ > $ < R N O.h - 4 - - - - X X - S F a ( _.i.3.,.m.o.T ^ N ",
"h.;.9.U.;.e.=.Z.Y.7 x F q > > & : < - 4 : $ | Q { f : < - ; ; - - & > F C u (  X3.i.,.c.n.2.a.E ",
"~.q.-.K.=.;.;.b.l.8 C R 5 > - > - 6 < < > - X.Y o.p : > ; - - ; - > - S E V L W.#.1.B.1.i.` Z.u.",
"(.0.9.C.-.-.0.p.Z.r C R p 5 o - . $ - > - : ^ U { f - < - - - - X > > V L s c B.1.7.=.q.q.O.W.b.",
"^.1.&.q.1.e.&.Z.I.q f F ^ E V X p V 4 $ R M { R { D A y - M M - 4 D ! Q a r F E.=.U.1.N.9...A.=.",
"A.8.=.C.l.L.=.v.s.0 S R h q O.| | h X.>.f M ^ 0 R R 0 { | F Y X.X.Y u T C s P E.1.=.h.K.;.&.E.q.",
"Z.1.9.R.q.n.q.1.4.0 S C 0 0 6 q F M Y 9 M d h g D f V 6 A D D M > 0 6 f C r E Y.3.N...e.x...x._ ",
"U.1.9.q.3.a.=.Z.I.a S E ; > < < 6 0 > $ < - { ^ X.g $ = < y y : - & > S S p W R.1.b.&.h.j.] C.*.",
"`.1.9.b.7.3.,.K.W.0 a F < - < : $ $ < - : > R Y X.g = < - . % > 4 $ - Y F p W E.=.z.=.z.p...K.e.",
"z.1.9.K.p.=.a.c.L.e C R u 4 < 4 4 < - $ - < Q D { p : - - > 4 4 3 : > D F r W E.&.z.=.b.q...R.b.",
"Z...3.b.1.p.i.l.a.7 h a f q 4 < 5 > > < > - Y A Q y < = < 4 4 3 4 3 9 M F r C b.=.1.E z.q...K.q.",
"b...=.b.l.3.O.Z.L.e V L C S F F D A V N M i ~ Y { A M M V D U U U D A D C a W E.=.q.q.p.1.=.K...",
"Z.3.=.Z.p.Y.p.l.J.8 x F C F Q ^ ^ ! ! Q R Y ~ B Q D Y Q ~ { { { ! ! Y N s s L (.9.Y.q.z.z...C.1.",
"e...I l.p.l.W a.q.1 r 8 e p p p p e q 8 r 7 p 0 p 0 q p p a f f q h h q e r s P.K ;.1.b...L q.x ",
"l.f.1.=.1.3.1.q.p.x q.q.q.i.7.=.Z -.w.K r.w.9.L ' 6.w...' q.P =.u.a.' O.i.O...b.q.1.p.q.,.=.l.` ",
"B.' =.=.i.1.O...Z.,.^.].E._._.!.;.(.(.e.{.).|.d./.}.!.d.A.XXj.!.^._.b._.[.Z.q.p.....z.z.=.W q.3.",
"=.P l.` E L 3. ...K e.p.p.B.P.K.p.z.j.] G.M.M.W N.K.h.S.N.A.;.C.b.b.K.N.b.` ' C 3...I c =.3.Z 1.",
"=.q.W C Z.,.C ..1.W .._ / 1.l.z.=...` 6.D.M.*.E O.l.A.N...' ..z.K.w._ P ..1...q.' c N.3.c =.O.=.",
" .1.C s b.O.c =._ ..x &...G I W V 4.( E P W E S H E E E Z q.C W W W Z =.x P ..=.P C b.1.s L #.^ ",
" .r =.E s E 3.k ` z Z W P _ z.q.V } Z P z.7.T } E #.v...Z @.x 1.N.-.W P P L K Z E K C E O.` r C ",
"c.1.E  .a.q.O.` z.K 1.q.;.R.~.`.,.7.h.C.w.v.A.' S.!.~.0.z.S.x.j.`.C._ l.T.=...b.K O.f.q.` W ,.O.",
"#.O.=.=. .=.=.1.f.c ..9./ ;.6.1.k c y.k.P E l.G *.y.j.v e.5.j.K ' ] ] ;.p.I E f.=...#.O.+.3.#.V "
};
