/* XPM */
static char *_1e33e1e8c874d05d1a85401938fc613pS4S0YZZ4eok6TBX[] = {
/* columns rows colors chars-per-pixel */
"32 32 237 2 ",
"   c #1E0D1C",
".  c #140816",
"X  c #170A14",
"o  c #21111F",
"O  c #200E19",
"+  c #13172A",
"@  c #141B35",
"#  c #050F25",
"$  c #220D24",
"%  c #241524",
"&  c #25142B",
"*  c #241A2B",
"=  c #2B1C2D",
"-  c #281726",
";  c #2A1531",
":  c #261932",
">  c #2B1D33",
",  c #2A1E39",
"<  c #311C34",
"1  c #351C3A",
"2  c #3A1F3F",
"3  c #301928",
"4  c #1D2738",
"5  c #17212E",
"6  c #2D212E",
"7  c #32202D",
"8  c #2D2133",
"9  c #2D223C",
"0  c #292933",
"q  c #322334",
"w  c #32223A",
"e  c #3A213F",
"r  c #342B3D",
"t  c #3A2B3C",
"y  c #362835",
"u  c #3F313D",
"i  c #2D343F",
"p  c #422D3E",
"a  c #482739",
"s  c #47343A",
"d  c #503334",
"f  c #19384A",
"g  c #232A43",
"h  c #2B2A43",
"j  c #3C2343",
"k  c #352A42",
"l  c #3A2C43",
"z  c #352946",
"x  c #25334A",
"c  c #2D334A",
"v  c #2B3748",
"b  c #3C3143",
"n  c #343B47",
"m  c #273C50",
"M  c #373D53",
"N  c #422946",
"B  c #472A49",
"V  c #433342",
"C  c #44354B",
"Z  c #483848",
"A  c #533A4B",
"S  c #543548",
"D  c #4D3C54",
"F  c #4A3754",
"G  c #553B57",
"H  c #3A4859",
"J  c #334451",
"K  c #3C4C63",
"L  c #3B5766",
"P  c #386065",
"I  c #58424B",
"U  c #494459",
"Y  c #544251",
"T  c #5B435C",
"R  c #55495E",
"E  c #5C4C5C",
"W  c #55455B",
"Q  c #544D4F",
"!  c #644449",
"~  c #674A49",
"^  c #6C4C54",
"/  c #674A56",
"(  c #724D54",
")  c #62515C",
"_  c #7B5A5D",
"`  c #775358",
"'  c #71534F",
"]  c #686C5B",
"[  c #474A66",
"{  c #574A61",
"}  c #5D4C63",
"|  c #574668",
" . c #465766",
".. c #5E5166",
"X. c #53556E",
"o. c #4B5973",
"O. c #575877",
"+. c #644969",
"@. c #664964",
"#. c #645366",
"$. c #64546B",
"%. c #6B546C",
"&. c #6A5768",
"*. c #745363",
"=. c #7A5C63",
"-. c #775A68",
";. c #6D5C75",
":. c #725E77",
">. c #566568",
",. c #4B6778",
"<. c #526B72",
"1. c #5D6279",
"2. c #526A7B",
"3. c #566678",
"4. c #49727A",
"5. c #59767F",
"6. c #5E7063",
"7. c #7C6364",
"8. c #75676E",
"9. c #61657B",
"0. c #6A687A",
"q. c #7B6A7A",
"w. c #767F74",
"e. c #666F72",
"r. c #815D59",
"t. c #84645A",
"y. c #805E6C",
"u. c #846364",
"i. c #8C6B6B",
"p. c #87656A",
"a. c #8C6D74",
"s. c #8D6B79",
"d. c #846A75",
"f. c #926D78",
"g. c #867279",
"h. c #887376",
"j. c #957376",
"k. c #9A7679",
"l. c #946A6B",
"z. c #A27E7A",
"x. c #788576",
"c. c #798E76",
"v. c #8B8977",
"b. c #8C9877",
"n. c #A48378",
"m. c #725F83",
"M. c #586981",
"N. c #5A7583",
"B. c #587886",
"V. c #4E7880",
"C. c #6C6C82",
"Z. c #676980",
"A. c #7A6D84",
"S. c #6B758A",
"D. c #627B8C",
"F. c #667787",
"G. c #7B748A",
"H. c #7A7B94",
"J. c #777992",
"K. c #826A88",
"L. c #8C7B8C",
"P. c #897688",
"I. c #90728B",
"U. c #987A86",
"Y. c #8C7C92",
"T. c #897893",
"R. c #987C9A",
"E. c #A77F85",
"W. c #5F878E",
"Q. c #63828C",
"!. c #76868C",
"~. c #6C8494",
"^. c #698596",
"/. c #748294",
"(. c #788999",
"). c #7F9791",
"_. c #7FA389",
"`. c #7790A1",
"'. c #88878B",
"]. c #948284",
"[. c #98868A",
"{. c #8A9484",
"}. c #8E8295",
"|. c #848C9B",
" X c #948594",
".X c #9C8394",
"XX c #9B8C9A",
"oX c #998896",
"OX c #9B9599",
"+X c #8F9D90",
"@X c #A28B8C",
"#X c #AC8A8C",
"$X c #A88486",
"%X c #B38D88",
"&X c #A09E8F",
"*X c #A88892",
"=X c #B28C93",
"-X c #AD9394",
";X c #A4979B",
":X c #B49596",
">X c #BC9B9C",
",X c #B89799",
"<X c #B79689",
"1X c #94A988",
"2X c #87A696",
"3X c #96A295",
"4X c #9AB98D",
"5X c #A7B597",
"6X c #878CA4",
"7X c #8894A5",
"8X c #9794AB",
"9X c #AF97A0",
"0X c #A895AA",
"qX c #B69DA6",
"wX c #AB93AE",
"eX c #8EA9A4",
"rX c #9EA5A6",
"tX c #B7A2A9",
"yX c #B7A7B7",
"uX c #BCBBB0",
"iX c #CCA99C",
"pX c #C69AA0",
"aX c #C6A6A6",
"sX c #D1AAAB",
"dX c #C8B1B5",
"fX c #CCD5BC",
"gX c #C4CCB7",
"hX c #D5E8BD",
"jX c #B6A9C0",
"kX c #C5B4C4",
"lX c #D0BFC7",
"zX c #D7C1C8",
"xX c #D4C5D5",
"cX c #CCD3C7",
"vX c #E2CED3",
"bX c #D6E5C9",
"nX c #E6F8D4",
/* pixels */
"w w w w w 8 8 w w > q w q q = - * > > 8 q q = > 8 8 8 8 8 8 8 8 ",
"w w w w w 8 w q w < < = $ - y V Z V t . = q = y y 8 = = 8 8 q q ",
"w w w q q 8 q q q <   7 -.g.qXvXlXxXL.P.Y - = 7 q 8 = 6 8 8 q q ",
"q q q q q 8 q q - 3 q.dXzXh.h.@X].].g.qXzXqXI % 7 6 q 8 q q q 8 ",
"= y = t Y = q o &.qX@X-X7.^ 7.-X@X@X/ =.U.*X;X9Xp - p t q y l = ",
"6 6 q q q 6 % g.vXU.=.,XqXa.=.aX#X:X! tXaXj.=.:XkXV o t = % 8 8 ",
"q - u Z % O  XdX_ ~ -X:XqXs./ *X=Xi.` ,X#XaX_ !  XxXZ   = E y q ",
"q % XXXX. 8.tXh.>Xj._ *XU.@.B B S a s a.#Xk.( >X9XL. X= q kXY = ",
"w * Z s y tXh.@XaX=X*.@.B j G | | { F r V A a.=XsXu.I.@.= E y t ",
": r y X oXg.I [.,XU.G 2 m.H.O.O.X.X.M.J.U t -.=X%Xr.a wXY   6 = ",
"r 8 % Z tXh.[.u.` I N G.X.g @ x m f f J F.0.p ` ' z.U..X-.O Z b ",
"8 b = ) *XU.dX:X! p G.[ x K 2.2.4.V.4.L m Z.$.S i.aX$Xs.d.- XXD ",
"8 8 % P.d.#XsX$XV 0. .m 2.B.^. .B.P 4.W.L m Z.} =.#X:Xi.p.p #.C ",
"* b q .X^ _ i.( E 0.H N.V.L Q.<.<.5.Q.B.N.L X.A.A u.t.d p.A - l ",
"* P.D &.u.#XE.^ E 9.L B.,.B. .v 0 n 5.2.,.,.o.9.A k.<Xn./ Z l , ",
"8 q l .Xj.sXpXk...Z.B.,.D. .n + . r 4 F.D.D.M.9.#.=XiX<Xa.G > 9 ",
"q   w oX( k.k.^ 0.S.2.B.o.g 1.+ J 5 v 4 ~.,.F.T.%.f.%Xr.-.T > 9 ",
"y t k ;._ l.a.-...J.(.^.x # @ J.(. .c M ,.`./.0./ U.k.u.*.G w z ",
"q - w L.j.$X$Xg...6X2.(.H /.c 6X7X3.U X.2.~.F.G.%.*X%Xz.d.T : , ",
"q - w L.p.%X=Xd.$.H.M.(.K U h M 3.x c + D.2.S.H.@.f.>Xk.-.G , z ",
"q < > #.! ` _ / :.C.D.,./.+ O.x #  .J.[ ~.2.5.0.T *.u.r.*.G : h ",
"< w l q.` E.$X*.W J.o.^./.9.M c v 4 X.|.K D.1.C.A s.$Xi.y.G : , ",
"> w l q.u.>X>X8.;.J.,.^.F.1.8X/././.6XS.(.N.3.C.T E.>Xj.-.G : 9 ",
"q > > #.I a.d.I D $.H ~.(.(./.(.!.!.7X|./.F.J 0.Z -.a.^ A N ; k ",
"> > A.Y.L. XoX X XA.0 >.!.).2XeXeX7XrX'.!.>.>.|.L.I.I.I.I.R.F 1 ",
"- r Y.8X0X}.oXoXyXyX) e.x.c.2X2X2X3X3X{.w.6.x.cXyXR.XXR.R.T.D 2 ",
"r r { R ;.W C } q.q.8.{.{.1X4X4X1X5X1X{.b.x.] w.E T +.+.%.T j 1 ",
"> > W U C C ;.. t Y ;XuXfXhXhXnXbXnXbXbXfXgXx.Q V ;.C N e ; 1 2 ",
"> 0.xXjX{ A.T.Y.D Z  X;X&Xv.b.5X3XrXOX'.[. X8.Z kXwXF K.T.j K.G ",
"r A.}.A.R l  XwXD .. X].].] v.v.8.P. X}.L.}.A.$.Y.:.D wXT.N +.G ",
"l { l C k k C l l F } W #.Z ) Y } $.$.R $.} D l l l < N B < F N ",
"8 : > > > > r > , : & w 1 < ; $ ; w > & & & & ; w w j e j 2 j 1 "
};
