/* XPM */
static char *f9a5a5cda5194ea6cf1f9ef7ccbba30c4EV41owDKmnF6DtF[] = {
/* columns rows colors chars-per-pixel */
"64 64 256 2 ",
"   c #001B1F",
".  c #012B1A",
"X  c #173117",
"o  c #303A1C",
"O  c #021C29",
"+  c #021B34",
"@  c #01232C",
"#  c #022727",
"$  c #052636",
"%  c #183739",
"&  c #113031",
"*  c #28362B",
"=  c #293837",
"-  c #31352F",
";  c #473B2C",
":  c #394516",
">  c #28462C",
",  c #3A4C27",
"<  c #3B522B",
"1  c #2A4639",
"2  c #3A4C3C",
"3  c #384637",
"4  c #385538",
"5  c #2A533B",
"6  c #234D39",
"7  c #51531C",
"8  c #64721E",
"9  c #46492B",
"0  c #485628",
"q  c #464A39",
"w  c #495839",
"e  c #575837",
"r  c #53582D",
"t  c #635C37",
"y  c #665627",
"u  c #5B6A2A",
"i  c #4A6539",
"p  c #586738",
"a  c #587034",
"s  c #646C2C",
"d  c #68762A",
"f  c #666939",
"g  c #746B38",
"h  c #687737",
"j  c #747939",
"k  c #72742E",
"l  c #54651A",
"z  c #193746",
"x  c #0A2A45",
"c  c #2B3A46",
"v  c #363D44",
"b  c #2A3E50",
"n  c #2A4747",
"m  c #384947",
"M  c #3B5344",
"N  c #39574A",
"B  c #2B4854",
"V  c #374A56",
"C  c #395756",
"Z  c #2A5552",
"A  c #3A6546",
"S  c #37645B",
"D  c #3A5767",
"F  c #325569",
"G  c #3B6865",
"H  c #1C4758",
"J  c #464D49",
"K  c #435444",
"L  c #4B5B45",
"P  c #47594A",
"I  c #575A46",
"U  c #464B54",
"Y  c #4B5C53",
"T  c #475858",
"R  c #565C56",
"E  c #554E45",
"W  c #645C4F",
"Q  c #4A6649",
"!  c #586748",
"~  c #5B7449",
"^  c #496657",
"/  c #566856",
"(  c #5A7558",
")  c #4A7254",
"_  c #636C4B",
"`  c #686946",
"'  c #687848",
"]  c #757C4B",
"[  c #777847",
"{  c #636C54",
"}  c #626C5B",
"|  c #696856",
" . c #756C57",
".. c #687658",
"X. c #747353",
"o. c #747A5B",
"O. c #7B7C5B",
"+. c #777856",
"@. c #746B47",
"#. c #455A64",
"$. c #545E64",
"%. c #486866",
"&. c #566A65",
"*. c #4B7367",
"=. c #597767",
"-. c #4C6B72",
";. c #556A73",
":. c #597676",
">. c #4E7476",
",. c #666A64",
"<. c #6B7B63",
"1. c #657767",
"2. c #787965",
"3. c #667977",
"4. c #787A76",
"5. c #796F64",
"6. c #85753D",
"7. c #887B4A",
"8. c #857B59",
"9. c #937D50",
"0. c #817C64",
"q. c #857B6B",
"w. c #857B70",
"e. c #798637",
"r. c #758A34",
"t. c #5B8857",
"y. c #6A8349",
"u. c #778648",
"i. c #688558",
"p. c #7A8454",
"a. c #7D8B53",
"s. c #74845C",
"d. c #788758",
"f. c #789358",
"g. c #79914E",
"h. c #5A8478",
"j. c #58836B",
"k. c #698566",
"l. c #738363",
"z. c #798868",
"x. c #779468",
"c. c #698578",
"v. c #778778",
"b. c #7A9575",
"n. c #69926D",
"m. c #77A367",
"M. c #828A3A",
"N. c #88953B",
"B. c #80962F",
"V. c #9AAF3F",
"C. c #858A49",
"Z. c #899748",
"A. c #94994A",
"S. c #868758",
"D. c #968554",
"F. c #889658",
"G. c #969957",
"H. c #958E47",
"J. c #A3965C",
"K. c #96A44A",
"L. c #99A557",
"P. c #8DA655",
"I. c #A4AA59",
"U. c #A7B75A",
"Y. c #A9B751",
"T. c #8A8B63",
"R. c #82846C",
"E. c #8B8C6C",
"W. c #868667",
"Q. c #938B68",
"!. c #889567",
"~. c #979769",
"^. c #888A76",
"/. c #948A76",
"(. c #889677",
"). c #949374",
"_. c #94957A",
"`. c #9A9A79",
"'. c #A69869",
"]. c #A49A76",
"[. c #AC956C",
"{. c #8AA36B",
"}. c #98A766",
"|. c #9DB269",
" X c #84A475",
".X c #99A777",
"XX c #9FB374",
"oX c #A6A767",
"OX c #A8B768",
"+X c #B2BB69",
"@X c #A6A778",
"#X c #B9AA77",
"$X c #A7B776",
"%X c #B5B679",
"&X c #B6A56E",
"*X c #C1A672",
"=X c #B8C959",
"-X c #B8C76A",
";X c #B9C977",
":X c #B3CC70",
">X c #C9D876",
",X c #C4D16F",
"<X c #CDE06C",
"1X c #537582",
"2X c #667982",
"3X c #698888",
"4X c #768884",
"5X c #7A9588",
"6X c #739196",
"7X c #7AA28C",
"8X c #7DA9A3",
"9X c #8A9787",
"0X c #979986",
"qX c #879A96",
"wX c #8E8D85",
"eX c #A39D86",
"rX c #A59C94",
"tX c #9AA487",
"yX c #96B684",
"uX c #98A697",
"iX c #89A495",
"pX c #A4A38B",
"aX c #ADAC8B",
"sX c #A7A786",
"dX c #B4AC89",
"fX c #B5B58A",
"gX c #AAA994",
"hX c #B5AB95",
"jX c #AAB497",
"kX c #B7B696",
"lX c #ADB488",
"zX c #89A5A5",
"xX c #97A8A6",
"cX c #9AB4A7",
"vX c #A9BCB7",
"bX c #ABB3A8",
"nX c #889FA4",
"mX c #C4BA95",
"MX c #CCBA8B",
"NX c #CABCA6",
"BX c #B8C78B",
"VX c #B9CAB9",
"CX c #AFC3B5",
"ZX c #C6C497",
"AX c #D2CA94",
"SX c #D1E786",
"DX c #CAC7A6",
"FX c #D0CEAD",
"GX c #EFDAB0",
"HX c #F4E9B0",
"JX c #E0D59E",
"KX c #B3CCC9",
"LX c #BBD4E2",
"PX c #C7D5CC",
"IX c #EAEAD0",
"UX c #A0B5C0",
/* pixels */
"$ @ O @ . . # # #   & & & @   @ @ @ @ %   & @ @ $ @ @ # & . . @ $ @ # . . % # % $ $ O % $ $ @   @ . & . . . O O % & + $ O $ $ x ",
"G -.1X>.C *.*.C 1 C KXKXKXZ -.6X3X>.C -.%.Z S S S %.C n *.A S G z -.>.n *.^ ^ ^ %.%.C %.%.D #.3X3.Z h.) A N C xXKXvXV D zX3XH + ",
"-.3X6X6X^ =.=.Y ^ iXKXCXcX4X4XiXcXc.C %.:.^ *.( ..! / 1.M j.h.^ 0XDXuX2 2 ..@Xp.P C 5Xc.=.n 4XxXv.=.> Q ) ^ 9XKXPXPX&.2XKXzXF x ",
"B %.-.T N M M M P 2 v.qX4XJ Y qX5X/ = N C ^ P L BX].| 3 Q ( ) > eXhX0XP K X.ZX].w =.c.v.Y m 4.qXv.K P k.k./ m 1.uX3.v V 3.-.z x ",
"V %.^ M Y ^ 1.K - * U U J = m T &.&.&.&.3.T & uXkXGXE q } ( Q 3 - bXm Y M ! W. .} R P Y P m U Y R * M c./ 2 = U R U b V m V B $ ",
"c vXCXv.= uXbX} 2 * - R &.* J * m = J / &.Y = 3 FXfXI o < w Q P - * 3 X , ..e I I q P } 3 X - J ,.* 3 > 2 2 - = v m V b n %.B $ ",
"4XvXCXVX=.Y <.! ( / P VXIXP 1.9Xv.v.K 1.1.1.P Q ~ , , ' f.g.a < i o.p a a g.F.F.p s.z.l.! ! (.^.^.{ i ~ l...Q / tXbX&.&.c.%.-.@ ",
"U qXbX9XK P ..l.<./ L L v.Y 9X^.(.(.( ( l.tXw ....f.0 f.F.g.y.a ' F.|.$Xu.Z.F.u.u.f.!.!.z._ jXkXo.9 ' (.f.i L 0XVXjX&.&.c.N Z # ",
"& T 4.I 3 l.E.R.} R / * J * w.^.0Xl.' f.{.' ' ~ i.i.a {.{.a y.u h u.L.+XC.j C.H.s u h d._ K  ./.2...o.] d._ w ..v.3.V T =.*.Z # ",
"= c m - K ..O.^.,.P ( / R v ^./.0XE.' u.a.F.u.d.i.s.i < 0 ~ 0 h u.C.Z.A.j 7.H.G.C.[ u p w q E E e e @.[ Q.8.O.{ K J n c M *.n @ ",
"D V c J - 3 q | K * w ( P q I |  .I X 0 r s r p s.! w w < w w w p p u j 7 D.#XJ.7.g u p w 3 q 9 , 7 y D.J.7.@.p 0 * 2 / =.:.n O ",
"D #.m U 3 I W  ...~ ~ (.<.q eX`.gXpX' a.F.j ] p.! ! o.!.!.o.z.p p.S.u.s g &XHXJXD.g C.lXW.~ +.E.!.S.6.&XGX&X[ F.F.' ..Q 5X^ B @ ",
"n zXvXv.q X.mXDX..i f.yX..! aXkXdX@Xh OXI.A.C.F.S.!..Xp @XlXa.a L.+X-XI.C.&XHXJXD.G.OX$X{.p p.~.S.] y *XHX#X~.p.F.f.~ 4 > 1 % $ ",
"T xXPXvXw E.FXFXl.0 f.x.l._ eXdXdX~.u.A.N.A.A.C.F.S.] ] F.@XS.] L.I.K.M.j C.J.J.[ [ F.F.d.0 S.] [ f D.7.[.7.S.~.y.' ..K c.3XB + ",
"% #.4.4.3 L pXpX..w ~ s.<.! W.`.].@Xj G.H.I.%Xj @.T.@.t e ` T.` [ C.A.G.G.C.6.7.@._ p.s._ e t X.X.` S.g g f f W.] ..K 5XKXzXD $ ",
"v v v 3 - <.2.R.~ , ~ i.( L ` 8.+.f 7 C.J.J.g g 8.Q.S.` ` @.' 0 F.C.C.C.s k G.G.e w ! e I q Q.NXaXe e r f r o r e w K 4XzX3X1X$ ",
"N ^ &.L 4 z.!.z.s.~ F.{.x._ `.`.S.[ @.~.GXGX7.#X#X#X%XG.+XL.I.j I.+X+XM.G.oX+XL.S.!.sXW.0.8.].FXhXX.C.g.}.u._ R.jX0X} 3 3.2X-.+ ",
"N P 1.( Q ..!.!.s.0 g.f.' ' !.~.O.~.7.@XMXMX9.J.[.&X'.k I.U.L.A.I.+XU.A.N.A.L.+XG.S.@XkXaX8.].Q. .8.p.g.e.u.' (.jX0X1.3 U V B + ",
"N ^ ^ k...(.!.!.' ' ' ' ' e d.T.Q.[ [ '.[.[.9.J.[.#X'.g G.I.M.e.A.L.A.N.N.A.U.K.[ ~.~.aXkX+./.E./.0.f a.p.0 ..9XR.v.<./ m #.#.O ",
"P M P 1.w i ! o._ ! ..s.' f ' ] .X~.7.~.'.'.7.[.[.[.].D.H.L.G.Z.K.K.N.M.N.K.U.L.u.S.~.Q.E.X.S.S.0.` p ' p.! | 4.2.2.} Y T V B O ",
"* ^ 1.w < ! , p L o ' p.` 0 e.e.C.f t 7.D.D.y g '.D.8.y j C.j d N.Z.k k e.Z.Z.k s ` S.' @.0 h j ' 0 f ` ` | E | ..2.q 1.4X:.b + ",
"M 5Xb.v.~ l.s.!.^. .fXkXaXS.-X;X$X] S.ZXAXmX9.#XMXMXdXG.,X,X;XA.N.>X,Xe.d -XA.G.G.~.@Xp.` ] |.:X$Xy.T.sXaXeX2.gXpXjXv.J T 6XV $ ",
"1 ( 1.( ~ ! z.sXT.8.dXsXkXO.a.|.C.f ~.mXmXmXdX'.&X&XoXC.,X>X>XK.Y.<X<X=XN.K.L.A.G.C.G.oXh u P.|.P.h u.@XdX`.| z...(.^.P ;.V z + ",
"N c.1.( w w (.sX` Q.sX`.hXW.r a fXf S.dXmXmX].'.oXoXoXC.L.>X-XK.Y.=X=XY.Z.L.U.L.j j U.+Xa.h r.r.u.r.p.@XfXsX0.^.z.^.} Y qXnXD + ",
"C N P k...b.z.^._.0.).]._.2.' ] S.~.~.dXdXmX].'.oX&X'.[ -X-X+XC.+XI.K.N.L.L.+X+XF.F.}.|..Xp.' p.' p E.tX/.0. .(.(.^.<./ T %.% + ",
"m 1 / ( < ..{ <._ 9 ` ` | e r ] f t t Q.8.T.t [ G.OXC.s e.K.oXk 8 e.N.r.l A.N.r.u.u u h f 9 _ +.! ! w ^._.0.9 ! w ! w &.&.n V + ",
"1 ^ ( ~ < l.z.tX^.R.lX!.aX).@X@XS.S.T.FXmXQ.@.g U.Y.OXe.=X<X-Xr.V.=X,XY.B.L.-XK.j s h ] ` X.lXE.R.I _ `.DXE.X._.o.^./ ^ 5XnX-.@ ",
"1 / v.9Xz.VXtX(.tX(.sXsXaXQ.].@X@X'.~.mXZXFXdXj I.-X+XL.>X>X-XN.=X<X=XY.K.L.Y.+X}.~.~.[ X.+.sXW.`.`.R.! o.R.o.tXjX(.k./ c.8Xn @ ",
"M =./ 1.1.bXtX0X0X2.R.tX2.` ].Q.~.'.~.fXfXZX@XoXL.OX~.f OX;XF.u OX-X;Xr.k P.L.I.j ~.fXQ.O.+.kX).`.E.hXpXo.l._ (._.z.<.^ ^ V z @ ",
"P P Y ,.J <.2.^.2. .| X.R.I 8.~.fXG.[ @X%X%XS.j L.G.S.f k e.u.s 8 r.I.N.L.F.K.L.S.`.@XdXsX .).W.W.X._.tXtX^.w ! _ ~ w K 4XV B & ",
"3 9Xv.R q v.).O.2.q ` ` 2.9 0 [ C.s 7 j [ C.h d e.N.C.h K.r.OXr.B.B.r.N.d C.M.F.e X.`.sXE.e E.).W.q 9 I I ! ! ..w w w P &.n B & ",
"9XFXVXuX/ pXfXfX`.+.~.`.kXS.f a.u.oX}.oX}.%X}.L.-X>X+Xe.U.>XSXU.<XSX>X-XL.OXL.G.@.kXFXDXkX).DXDXFXE._ E.o...l.!..Xz.o.Q M -.V O ",
"1.uXbXwXq ^.E.!.s.s.a.@XfX] a.P.L.G.A.I.+XU.L.M.+X,XoXZ.U.-X-X-XY.,X-XK.s F.OXL.] ~.fXfXpXW.aXaXfX!.' x.x.i.d.F.}.g.~ ( =.^ C O ",
"Y 1.4.,./ z.`.!.x.i y.F.~.] F.|.F.j K.-X,X-XL.e.A.OXG.u L.U.P.Z.K.U.N.Z.G.F.P.oXS.`.@XsXsX/.kXsX`.] p i. Xx.~ d.h u ' z.../ #.@ ",
"= T $.U = ,._ s.~ x.!.' p.' a.u.g.j 8 Z.U.e.s u.G.C.C.e.8 d ' p d d P.g.] h u h e O.W.E.^.I 5.2.o._ ..k.( w ! w 0 0 T.eXaXR c + ",
"& T &.m M 1.(.tX~ 0 u.a.p p..Xa.y.s d d Z.L.F.[ u.u.G.C.A.g.f.a F.OXAX$Xp.~.G.[ e .XfXp./.| ^.2.I I z.^.! ( ..l.! r /.hXhXR m @ ",
"M =.^ M / b.s.!.' p g.XXF.{.a.F.BXC.l h F.C.] @XZX%X@XOX;X-XOXr.e.SX:Xu.a.!.$XL.S.ZXZXkXkX_.`. .gX_.O.gXjX(.0 ! x.l.3 } } ^ >.# ",
"( c.&.^ Q i.' y.' z.{.f.!.' p.F.S.F.] h u.~.f kXfXBXC.F.OXU.P.r.P.Z.P.P.u .XF.C.~.@XfXT.aX+.).eXaX)./.`.`.tXw ! i.k.m &./ :.*.# ",
"n %.C n 1.v.s.s.{ L ..(.b.w ..p.p.d.p.f ' ] ` @X$X$X@Xp.] F.y.a }.|.h h ' S.!.a.p p.`.`.gX^.gX0X0Xw.5.w.0XgX/ Q ^ / N ^ c.*.Z # ",
"1 c.c.T ^ ^ ! i w 3 w L L q o.).X.p O.T.` ` 0 S.oXoX`.r ' F.p.' l d a a : 0 ] a.d.r X.X. .E 2. .^.| ;  .| 5.q / 4 M N N A 5 G @ ",
"% C qXcX=.=.x.f.x.i..Xz.` O.`.lXZXaXT.ZXFX@XX.kXZXJXZX` %X|.$Xg.r.:XP.u.u XX;X}.f ).jXgXgX^.kXW.W.q./.gX0X0X{ b.XXm.t.b.Q =.n & ",
"m &.v.=.^ ^ m.f. Xi.a.@XsXW.T.`.fX`.T.aXfXfX8.Q.mX@X@X8.~.s ] h U.;X|.F.y.|.;XBXT.tXgXpXhX^.gXeX .| _.0X0XuX{ (.XXm.Q A j.c.Z & ",
"1 T &.=.N ^ x.y.i.i.u.T.aX0.`.lXsXaXO.aXsXaXE.dXDX].hXe S.@XX.p P.L.P.P.a e.OXOX).^.).gX0X^.pX_.gX/.rXrX0X4.1.v.n.t.^ *.A N n O ",
"m = 1 =.1 ^ i i i i ! ` 0.I W.E.E.W.X.E.E.`.+.W.`.).0.e f @.e ] Z.r.h a h P.e.h : ! l.E.2.I  .W.R.I | wX<./ K / Q M n :.*.h.z $ ",
"T 1.^ m 1 =.~ i 4 ( .XO./. .2.0X0X0XI pX0XgX| @.T.r e +.fX~.fXS.: u y.h e.Z.g.u.e { E.E.q. ._._.X.| ! ....( < 4 P =.n >.3X8XZ @ ",
"m &.&./ 1 k.yX XQ b.tXpX/.5.pXpXhX0Xo.0XpXkX^.e X.X.).].DXZXDXT.] !.y.f.}.$XOX}._ pXjXgXkX^.pXjX).! tX(.b.(.i k.v.9XN Z :.>.1X$ ",
"= 3.c.1.N 1.x.x.k.b.tXhXrXW wXgX0X^.2.wXgX/.2.W ).pXgX/.kXmXNXW._ x.{.y.u.F.Z.a.e ^.`._.0XR.pX_.z...3 ( k.k.=.n.x.~ ^ %.*.G Z $ ",
"c.PXPXcX^ =.i x.b.<._.0XrXW 5.^.2.^.5.0XrXwX2.R.R.^.^.W /././.q.z.(.] h u.G.F.p.` 2.0X0XR.| ^._.9X..4 / ! ( 4 ) jXz.L =.zXG H $ ",
"4.cXVXvX%.% > ) / 3 ! ` W q I | ,.R J ,.| R E I | R.2.9 O.W  .e x.a ' ] ] [ S.` ; W 0.W.2.3 I ..1./ P Q ~ < > ~ yXl.m C :.-.F x ",
"J 1.v.3.C %.7X7XQ / ).O.R.W 0X0XbX^.| 4.| / | rXgXjX0XE.hXaXaXO.x.f.~.~.T.ZXS.X. ./.jXjXgXz.(.z.uXv.( t. X~ i.b.z.( &.T %.6XF + ",
"v U T U c 3.1.( ( Q d.p.2.I 9XuXv.R.O.!.T.+.I 0XtX0X(.z.pX`.eXX.! i.s.] `.HXBXp.| 2.W.+.(.} l.! v.<.( i.!.a.y. Xl.L T :.qX3XD + ",
"= v = * = M 4 4 Q w d.T.O.{ v.9X0Xz.f p.@X`.! 9X_.tX(.<.tXW._.l...x.' p.[ .Xu.' ..z.(.z.(.{ z.l.^.<.! ~ ] p p ~ ~ / Y :.:.:.B + ",
"1 C > 5 X Q m.y.! ! ] ] 8.I o.^.2.} ! f ' ! } &.k.l./ 1.i ~ .....X{..X!.e r i ~ Q k.s.l.<.L { ! ,.R L ! e e w _.^.4.m = T %.B + ",
"N =.( j.Q x.BX;X!._ [ 8.@.` _.0XwX,.I w ....J Y k.~ ^ 5 x. Xb.~ d.{.XX' p i.x.n.) n.(.! w } 0Xz.4.4.{ _ O.8.{ l.2.v.&.m N n D x ",
"Z %.=.1.Q b.XX$XE.X.'.MX#X8.8.0.wXwXK / } 9XR Q x.n.^ 5  XyXiX( i y.a..X' y.t.t.A t.( k./ L (.jXbX,.l.).Q.S.+.o.o.} Y &.qX;.x + ",
"n C ^ ^ P <.p.F.@.@.#XHXGX'././.wX^.R / ( } w ..s.( =.5 i.i.j.Q i.z._.w i f.m.t.A A Q Q ! } tX_./.5.` ~.#XD.@.` { ! 3 m nXqXB $ ",
"m Y m N T Y I @.e t D.MX&X` +. .,.R Y } Q ! e S.` w L K > > N 1 2 L w w Q n.t.4 5 4 t.~ ! 2 <.} 5.5.8.*XAXJ.@.e q q K M n C c $ ",
"/ =./ ^ &./  .0.` @.7.D.S.t E.^.^.,.2 ..( d.[ ~.S. .I / k.^ ^ N ^ 1.2 3 4 ( Q 1 5 ( n.x.( / 9X<.4.| 7.JXHX*X@.O.{ 3 P cXvX%.n # ",
"N k.k.1.Y 1.NXGX/. .T.p.+.! eXgX0X9X/ i. X!.F.JXZX+.{ ! ..b.v.=.^ =.v./ P c.c.c.c.Q i.x.v.1.uXwX^.w.8.'.MX'.).2.2.,.3.KXKXKXC @ ",
"M Q L ! Q / hXNXW w s..X(./ ^.^.0X1./ k.n.i.p `.T.+.! q ! ../ ^ N *.c.^ 1 1.4XqX^ P !  X1.^ 4Xv.4.4. .W.T.p.| { Y P m 4XzX8XC @ ",
"1 ^ tXz.L L ` ` R M i.k.=.^ 4.wX3.&.N =./ ( / / o._ ! P jXtXm N *.S S N % m 4Xc.T N 4 ( 2 Y 4Xc.4.1./ } } / q 9XvXv.* m C C z @ ",
"1 xXjXFX! / w L T N 4 N M 1 v T 1 N n ^ N M M ^ Q 3 * 9XPXVXxX%.C *.C S C ^ C = & 3.VXCX5X1 m ^ T = m ^ M 1 v.PXPXPXT m 6XB z + ",
"c qXNXpXq Y P ^ S S ) =.&.m ;.&.c.N =.c.c.^ 1 M =.2 T 3.bXbXxXV V 3Xh.%.C h.h.G V xXbXuXvX^ ^ 3.;.#.n *.h.N =.xXxX4Xm UXLX6Xx + ",
"V U rX .* 1 &.h.h.G c.4X%.#.;.3X5X=.^ ^ iX5XN ^ / m T U $.2X;.c %.-.>.G S S G Z & U v.uX&.C h.3X:.;.1X3X8X*.& &.,.T & C 1X1Xz $ "
};
