/* XPM */
static char *fbfd2e73dd0c465da6ff1947824f74baYQsXqImFqdicnYwp[] = {
/* columns rows colors chars-per-pixel */
"48 48 194 2 ",
"   c #0D0103",
".  c #050009",
"X  c #0C010C",
"o  c #0F080A",
"O  c #120505",
"+  c #110804",
"@  c #12040B",
"#  c #19030A",
"$  c #160A0D",
"%  c #1A0D0C",
"&  c #1D100E",
"*  c #0D0212",
"=  c #0F0D19",
"-  c #120414",
";  c #1B0416",
":  c #150A14",
">  c #1B0D12",
",  c #130618",
"<  c #1F071A",
"1  c #160A1A",
"2  c #1B0D1D",
"3  c #1E1314",
"4  c #1E121A",
"5  c #22160E",
"6  c #270C1C",
"7  c #2A0A19",
"8  c #221414",
"9  c #291C17",
"0  c #23161B",
"q  c #2A131A",
"w  c #251A1B",
"e  c #2A1C1D",
"r  c #271A15",
"t  c #2E211D",
"y  c #1C0D20",
"u  c #1E1224",
"i  c #230E21",
"p  c #2A0C21",
"a  c #231524",
"s  c #2B1324",
"d  c #271B21",
"f  c #2B1D23",
"g  c #231729",
"h  c #2B1629",
"j  c #261A29",
"k  c #2B1D2C",
"l  c #321424",
"z  c #301B23",
"x  c #3C172C",
"c  c #331C2D",
"v  c #39162B",
"b  c #2D2224",
"n  c #2F2826",
"m  c #2D222B",
"M  c #322524",
"N  c #362926",
"B  c #382B27",
"V  c #33252B",
"C  c #39222B",
"Z  c #352A2C",
"A  c #3A2D2D",
"S  c #3C312D",
"D  c #2F2333",
"F  c #332534",
"G  c #3A2635",
"H  c #352934",
"J  c #3A2C33",
"K  c #332738",
"L  c #362C3A",
"P  c #3A2C3B",
"I  c #3D3234",
"U  c #36313C",
"Y  c #3D323D",
"T  c #431F34",
"R  c #41342E",
"E  c #442438",
"W  c #442B3B",
"Q  c #422836",
"!  c #423535",
"~  c #453935",
"^  c #493D36",
"/  c #42353A",
"(  c #45393B",
")  c #4A3D3C",
"_  c #4D413D",
"`  c #46403B",
"'  c #52453E",
"]  c #3E3342",
"[  c #3C3842",
"{  c #522C42",
"}  c #433543",
"|  c #4C3546",
" . c #453A44",
".. c #4B3D43",
"X. c #453A49",
"o. c #4B3D4B",
"O. c #523B46",
"+. c #523E4C",
"@. c #4D4244",
"#. c #47404D",
"$. c #4D424B",
"%. c #4B4647",
"&. c #524545",
"*. c #554A45",
"=. c #594C47",
"-. c #53454C",
";. c #5B454D",
":. c #564B4C",
">. c #5A4C4B",
",. c #5C5047",
"<. c #5D514D",
"1. c #4F4151",
"2. c #4E4851",
"3. c #524553",
"4. c #554A53",
"5. c #5A4D53",
"6. c #544A59",
"7. c #5B4E5A",
"8. c #5D5253",
"9. c #5E525A",
"0. c #60534E",
"q. c #625454",
"w. c #645955",
"e. c #695C55",
"r. c #62555B",
"t. c #655A5C",
"y. c #695D5C",
"u. c #6D6057",
"i. c #6D615D",
"p. c #65615E",
"a. c #71655D",
"s. c #635562",
"d. c #655B63",
"f. c #6B5E62",
"g. c #6C5F68",
"h. c #666263",
"j. c #6D6363",
"k. c #6E6966",
"l. c #676268",
"z. c #6E6169",
"x. c #6D6A6A",
"c. c #726564",
"v. c #746A66",
"b. c #796D67",
"n. c #736669",
"m. c #756B6B",
"M. c #7A6D6B",
"N. c #7D7167",
"B. c #77716D",
"V. c #7D716C",
"C. c #7A6D72",
"Z. c #776A75",
"A. c #7D7272",
"S. c #7F7378",
"D. c #81746D",
"F. c #85796D",
"G. c #827573",
"H. c #857974",
"J. c #8A7D76",
"K. c #827679",
"L. c #857A7A",
"P. c #8A7D7B",
"I. c #8C8075",
"U. c #8D817D",
"Y. c #92857E",
"T. c #8B7D82",
"R. c #8D7F8A",
"E. c #8E8282",
"W. c #928583",
"Q. c #958986",
"!. c #998D84",
"~. c #9A8D8B",
"^. c #968A8C",
"/. c #9C908A",
"(. c #9A8D94",
"). c #9E919C",
"_. c #A1958D",
"`. c #A4998D",
"'. c #A29493",
"]. c #A89B96",
"[. c #AFA29D",
"{. c #ADA0AB",
"}. c #B0A3A0",
"|. c #BCAFA8",
" X c #B9ADA2",
".X c #BEB2AB",
"XX c #BCB0A6",
"oX c #C1B4B2",
"OX c #C6B9B7",
"+X c #C7BAB8",
"@X c #C9BCB7",
"#X c #CEC1BD",
"$X c #D2C6BC",
"%X c #D9CAD1",
/* pixels */
"c.+XoX.XOXy.  _ |.}.A @ > q.#X X`.XX!.~ R .X.XoXq.K.[. X.X@Xf.V M >.i.  &.].M   e.$X].r O n.%XT.",
">.>.L.A.L.q.t J.J.M.&.J $ t.[.Y.F.!._._.e.J.V.H.-.n.b.I.U.M.J d q.c.) >.y.N ^ Y.V.H.a.y.>.C.S.- ",
"E.A.&.i.W.B ~ V.H.W.C.J 0 ~.J.D.I.H.b.V.R ,.Y.A.f.:.V./.D.*.A M y.A.>.W.v.M M._.F.H.b.U.'...> a ",
"M.L.U.M ~ B 0.b.V.J.r.J d K.H.' N.D.G.G.~ t V.b.A.! ! U.y.>.A 8 ( M _ Q.q.8 _ J.b.H.v.M.G.C.J > ",
">.v.c.A t ~ v.H.Y.Q.C.g.J K.q.,.H.M.J.M._ *.&.c.H.H.O 5.-.> 3 _ M.q.% ~ M.<.i.~.V.J.>.H.P.K.&.> ",
"P.M.A M =.V.b.v.D.J.G.K.f &.R *.c.U.H.V.' ~ S _ Q.v.-.> @ I ( H.G.~._ ) '.y.w.U.J.Y.c.&.t.&.w w ",
"f.G.% A H.V.c.D.J.J.M.>.@ ) M.*._ 0.G.b.i.G.G.*.^ >.w V m.t.B U.G.D.M.) &.v.~ M.V.M.G.G.q.8 d w ",
"V w A y.M.a.V.N.b.M.A.&.A P.G.e.u.i.=.c.u.V.J.0.5 O f t.C.M.) =.G.c.V.M._ q.N b.V.c.=.=.) >.J 0 ",
"w 0 >.L.V.e.u.V.M.v.V.M ~ L.v.a.N G.i.q.) _ B 9 *.& @.c.c.H.e.t i.G.V.q.t.M.% *.Q.q.e A q.f.V @ ",
"> -.q.c.V.V.^ e.H.>.N 8 :.E.G.J.*.O 9 8 8 % 9 _ b.^ ! c.U.w.*.e.0.c.M.i.( j.*.~ S ! w.v.M.V @ > ",
"4 V y.A.W.Y.S R e.S t N ~ P.H.L.~ 8 v.=.O S V.>.w.<.=.J.v.v.H./.b.D.H.H.&.t.G.0.e A w.y.:.Z 8 # ",
"j.B e >.b.J.>._ 9 M c.w.% G.V.w.&.y.W.>.N q.y.V.*.w.i.a.i.v.V.G.G.V.v.v.c.8.v.=.q M e I H ..f z ",
"V.W.>.% 0.P.) ! ~ A.A.v.M % t J.v.j.y.N q.w.j.G.<.! 0.v.V.H.i.w.G.G.v.i.8.t.A w :.8.V q ;...f   ",
"H.a.D.q.8 5.:.M >.G.L.V.! M & y.y.:.>.&.q.c.v.M.L.& _ H.M.V.M.B _ >.M I b M M 8.K.A.;.C > z 3 o ",
"a.Y.v.v.( / ! e y.b.L.M.v.M.&.t 8 I b.L.n.n.j.t.U.S t ^ =.U.j.) & M N & ~ >.q.j.n.n.f...$ O 0 > ",
"=.u.) i.&.f J n.y.t.V.y.q.H.V.N O >.H.L.y.f.m.M.c.S e.B.@.8.&.3 3 v.v.=.~ &.8.A.c.c.f.3 m T.&.J ",
") ^ t.v.( w &.5.n.8.y.v.N &.&.>.t.&.@.8.&.c.j.w._ w.=.v.v.b % + q.M.m.B.8.I ) q.r.A.t.Z E.^.Z O ",
") @.=.c.f f q.c.M.P.A.>.! ~.P.G.T.E.@.A t.L.A.A.w.A.i.8.L.@.  t.H.U.B.G.G.G.) c.n.C.&.&.(.y.&.0 ",
"I &.5.&.I b Z I j.L.P.N v.E.v.H.A.C.A.&.I >.G.v.8.m.V.B.:.3 @.j.B.H.m.A.A.A.>.@.K.E.Z Z 5.j.&.$ ",
"Z -.y.../ q./   A L.=.t c.n.n.G.M.A.n.n.% w W.v.t.B.t.i.3 ! t.M.v.A.c.A.f.A.f.) ..t.w n.y.I A I ",
"f e J t.5.r.G./ 8 ) >.w.:.n.P.M.:.j.A.@.> J b 8.M.i.n I N 8.i.i.A.A.t.y.K.M.r.L.I w :.r.K.t...4 ",
"T.f.-.t.....c.Z % M e.c.&.n.G.n.f.@.Z ! r.K.J b A.t.( h.k.i.H.A.L.A.n.&.G.n.j.L.0 5.n.n.8.I @ $ ",
"K.y./ ..-.e e A c.t.B B t.c.q.j.@.A >.n.j.A.C.I :.<.8.k.k.m.8.w.k.K.M.V ( n.:.Z V 5.8.j.(       ",
"q.q.r.:./ / V n.B.q.>.>.Z B.n.v.A A c.i.c.K.M.t.N b @.m.k.k.w.S :.@.Z I ! A.e O t.m.f.:.Z 4   > ",
"/ y.n.y./ e &.A.P.y.j.j.! 8.k.8.$ 8.G.A.t.n.c.:.9.o @.m.:.:.Z t.W.j.8.t.f.J > $ V A.f.8.Y Z b f ",
"V &.f./ f q.8.j.n.L.B.A.i.B.p.S e j.A.8.( y.M.j.y.3 S 8.t.&.@.W.A.j.f.M.n.f > / w J I f.-.( 4.Z ",
":.! 0 I K.C.A.&.8.H.A.A.A.B.I <.j._ S ! j.n.n.A.k.( J I f t.K.K.M.n.M.A.Z.0 ( K.t.t.( f -.m V @ ",
"K.f @ V C.T./ j.j.y.v.v.:.S w.B.B.v.8.&.:.t.n.v.A.m.8.V > I y.K.G.G.A.m.Z $ m.m.n.C.5.4 V @ X k ",
"f f 8...f 5.n.G.A.k.j.A.w :.A.m.v.m.v.j.b j.v.M.K.n.b 0 &.0 > z.j.C.8.0 4 0 t.G.j.t.j.V m R.).L ",
"$ ..c.&.J > @.n.M.t.k.` I E.v.m.v.m.v.j.A ! c.c.C./ 4 ( m.y./ f c.n.Z 0 &.@.Z f.r.@. .a (.{.o.V ",
"f f.C.t.q.t.w ! M.y.v.I k.B.m.A.B.A.B.m.i.8 c.t.:.> :.m.j.A.t.0 >.K.Z 8.r.8.I r.m.8.@.$.S.X.3.4 ",
"C.c.m.c.r.v.Z % f Z ) 8.t.A.A.B.m.B.M.v.h.V 8 ! &.8.f.C.c.M.m.I $ 3 f ....f.8.n.f.t.-.n.n.d.Z.k ",
"n.w.y.i.c.i.y.>.l 7 +.f.5.j.n.v.x.x.h.m.m.w w f.A.n.f.m.c.n.A.V / / 3 8.5.8.t.y.A.j.Z z.Z.s.} - ",
"t.y.~ u.b.w.t.q.E { | -.@.8.c.c.x.x.x.S...3 0 8.C.f.5.C.f.M.5.Z C.j.e @.f.t.r.j.n.8.4 t.7.o.a X ",
"> ) y.<.y.j.@.q.O.6 } $.I y.w.p.x.h.d.3.d t.t.J @.:./ 5.t.n.Z I C.t.e @.r.( ! M.8.@.> d -.} 1 g ",
"5.A.G.V.j.A.8.t.c F +.r.I m.k.:.:.%. .Y t.K.S.K./ / f ( n.8.b K.C.5.A A.n.M./ @./ j.C.d } s.F y ",
"R.f.r.c.c.y.$./ J X.| q.r.M.m.A.b : h.m.s.h.x.m.M.m.-.I ! @.@.K.m.t.r.m.t.M.-.4 A.K.m.s.F k j - ",
"7.7.t.j.y.5.k m Y o.G Q ..C.n.8.b 4.M.n.r.l.x.k.n.8.$.0 :.M.f.j.n.t.r.f.m.n.Z t.S.f.5.r.Z.X.- - ",
"j 9.r.t...V m } s.o.C q q O.>.% e 5.5.r.8.h.x.h.8.: m d :.i.y.h.9.t.t.f.t./ 4 f.f.j.r.4.s.P a 1 ",
": 3.Z.4.X F L d.3.F -.;.6 # > V J q.r.r.4.h.x.s.w w H ( 8.t.9.d.m.n.4./ Z 4 5.j.Z.z.f.7.4.o.s.1 ",
"i K Y Y 7.J ] 3.4.5.q.3.f J o.f.$. . .#. .5.-.s b ..-.9.4.-.9.s.r.Y J f X J 9.d.-.g.7.4.3.P a * ",
"3.2 g o.7.K F o.7.5.5.o.4 5. .4.4. .L H f W l s J .. .-.} $.3. .k f 4.} F P X.r.4. ./ 7.6.k * * ",
"3.F a +.X.K a L $.X.X.J f -.V Y $.$.#.Y J s E v P [ H [ } $.Y , L L 3.Y L K a Y L H Y H o.L a 2 ",
"k u k G P o.] H }  .o./ } -.} H 2.Y U  .J W x x  . .Y $.3.4.} 1 3.3.[ 4.3.} F F k g H g } 1.] 2 ",
"1 X.X.i h | K #.H F 3.X.} o.3.P m m [ X. .W { E o.[ [ X.] X.D X.o.X.6.3.o.K } X.7.} a k } 1.K , ",
"L o.L h c i D 6.] 2 ] } } o.3.Y 2  .#.Y  .Q T v } ] [ o.L H D K P 4.} K } F g X.o.3.P L 7.P 1 . ",
"L a 2 s < a , j a u u a g j k a 1 k a 1 1 ; p p k g u u j k , , 2 K a , j a 1 k } k , g D , X - ",
"= * h ; ; h * * u , 1 - - * , X , - 1 - X @ 6 i - * * 1 * * 1 * X . 1 , - , a X * 2 , a a j j 2 "
};
