/* XPM */
static char *result[] = {
/* columns rows colors chars-per-pixel */
"32 32 134 2 ",
"   c #0D0E0D",
".  c #13120F",
"X  c #0E1211",
"o  c #131311",
"O  c #1A1613",
"+  c #1C1914",
"@  c #1D1C19",
"#  c #201517",
"$  c #221D16",
"%  c #231518",
"&  c #2F161F",
"*  c #211E1A",
"=  c #31161D",
"-  c #35181F",
";  c #2C2319",
":  c #362A1B",
">  c #3A2C1C",
",  c #351721",
"<  c #341820",
"1  c #3B1923",
"2  c #242C2F",
"3  c #3B2F22",
"4  c #3E3021",
"5  c #451B1F",
"6  c #49351F",
"7  c #411725",
"8  c #431A27",
"9  c #4A1C25",
"0  c #461D2C",
"q  c #4D1A28",
"w  c #551D24",
"e  c #5D1E25",
"r  c #521C28",
"t  c #5D1F2B",
"y  c #641F2A",
"u  c #44212F",
"i  c #572027",
"p  c #5D2D22",
"a  c #4C3924",
"s  c #4C3C2C",
"d  c #5E353F",
"f  c #632920",
"g  c #6D2C22",
"h  c #65212A",
"j  c #69212A",
"k  c #712D22",
"l  c #74212B",
"z  c #7A232C",
"x  c #7C2B2B",
"c  c #7F3129",
"v  c #7B2830",
"b  c #774815",
"n  c #7A4A16",
"m  c #5C4327",
"M  c #55422E",
"N  c #5D452C",
"B  c #61472C",
"V  c #6A4D2F",
"C  c #6E4F30",
"Z  c #624F3D",
"A  c #6E5030",
"S  c #725332",
"D  c #2C3940",
"F  c #3E3D49",
"G  c #314A53",
"H  c #7B5F44",
"J  c #654656",
"K  c #6D5E50",
"L  c #7C6147",
"P  c #4F5E71",
"I  c #456877",
"U  c #852C2B",
"Y  c #8C2D2B",
"T  c #932F2A",
"R  c #84302A",
"E  c #8F302C",
"W  c #92312C",
"Q  c #9D392B",
"!  c #933530",
"~  c #A53C2C",
"^  c #A93D2C",
"/  c #935517",
"(  c #9C5B17",
")  c #9E5E18",
"_  c #A06019",
"`  c #B3671A",
"'  c #974027",
"]  c #99452C",
"[  c #9F4A28",
"{  c #825E3A",
"}  c #AA412C",
"|  c #AB4430",
" . c #85603C",
".. c #8A643F",
"X. c #CB741B",
"o. c #816141",
"O. c #8C6640",
"+. c #85674B",
"@. c #86684C",
"#. c #98714A",
"$. c #8F7154",
"%. c #8B7258",
"&. c #9D7651",
"*. c #A57C54",
"=. c #A87F57",
"-. c #DA801F",
";. c #B48755",
":. c #95806C",
">. c #9C8773",
",. c #B68D67",
"<. c #BA8E65",
"1. c #BD9167",
"2. c #BD9168",
"3. c #A28C77",
"4. c #A68F79",
"5. c #A9917B",
"6. c #B2967A",
"7. c #DD9348",
"8. c #E19240",
"9. c #EAAF73",
"0. c #ECB273",
"q. c #679BB2",
"w. c #75AAC2",
"e. c #CCA785",
"r. c #CDA988",
"t. c #D1AA85",
"y. c #D3AE8A",
"u. c #D6B08D",
"i. c #D5B291",
"p. c #DFC0A3",
"a. c #E2C2A5",
"s. c #E7C6A8",
"d. c #ECCBAC",
"f. c #2F6E04",
/* pixels */
"f.f.f.f.f.f.f.f.f.f.f.f.@ $ * * @ @ * * @ f.f.f.f.f.f.f.f.f.f.f.",
"f.f.f.f.f.f.f.f.f.f.f.o H <.r.a.a.a.p.s.>.O f.f.f.f.f.f.f.f.f.f.",
"f.f.f.f.f.f.f.f.f.f.o L <.u.d.d.d.d.d.d.d.3.o f.f.f.f.f.f.f.f.f.",
"f.f.f.f.f.f.f.f.f.o m =.1.y.d.d.d.d.d.d.d.d.4.  f.f.f.f.f.f.f.f.",
"f.f.f.f.f.f.f.f.o N S =.1.1.u.d.d.d.d.d.d.d.5.  f.f.f.f.f.f.f.f.",
"f.f.f.f.f.f.f.f.X B ..{ *.1.<.y.s.p.p.a.s.i.+.  f.f.f.f.f.f.f.f.",
"f.f.f.f.f.f.f.f.. N { { {  . ...M @ @ Z $.+ ; 6 f.f.f.f.f.f.f.f.",
"f.f.f.f.f.f.f.f.o > S { { { {  .s X   K 4.  * a f.f.f.f.f.f.f.f.",
"f.f.f.f.f.f.f.f.o : A { { B V ..M @ ; $.6.> $ a f.f.f.f.f.f.f.f.",
"f.f.f.f.f.f.f.f.f.o > C { s  .t.a.a.u.L 3 #.@.  f.f.f.f.f.f.f.f.",
"f.f.f.f.f.f.f.f.f.f.o : V a a &.e.a.s.:.s 1.+.X f.f.f.f.f.f.f.f.",
"f.f.f.f.f.f.f.f.f.f.f.o + o + $ @ : H ,.&.B + f.f.f.f.f.f.f.f.f.",
"f.f.f.f.f.f.f.f.f.f.f.f.f.o ; 6 ; o + @ @ O f.f.f.f.f.f.f.f.f.f.",
"f.f.f.f.f.f.f.f.f.f.f.f.f.o o o O f.f.f.f.f.f.f.f.f.f.f.f.f.f.f.",
"f.f.f.f.f.f.f.f.f.f.O O O O O f.f.f.f.o o o o % 8 f.f.f.f.f.f.f.",
"f.f.f.f.f.f.f.f.f.o g Q Q Y 5 o o o o o o O % r i o f.f.f.f.f.f.",
"f.f.f.f.f.f.f.f.f.o - y E ~ Q E 9 o O O % r y l e o f.f.f.f.f.f.",
"f.f.f.f.f.f.f.f.f.o = 8 8 t E Q Q Q Q f = l y 8 1 o f.f.f.f.f.f.",
"f.f.f.f.f.f.f.f.f.f.o - 8 8 q h z z h u u 0 , % , o f.f.f.f.f.f.",
"f.f.f.f.f.f.f.f.f.f.X g ~ U U ~ ^ Y J q.w.P , o o f.f.f.f.f.f.f.",
"f.f.f.f.f.f.f.f.f.f.X k ^ ~ ~ ~ ^ T i G I * , o o f.f.f.f.f.f.f.",
"f.f.f.f.f.f.f.f.f.o & U ^ ~ ~ ~ ~ T d 2 2 F 7 8 8 f.f.f.f.f.f.f.",
"f.f.f.f.f.f.f.f.f.o w W ~ ~ ~ ~ ~ ~ W t r h 0 l l f.f.f.f.f.f.f.",
"f.f.f.f.f.f.f.f.o = h W ~ ~ ~ ~ ~ ~ W U ~ R q z e o f.f.f.f.f.f.",
"f.f.f.f.f.f.f.f.o - y W ^ ^ ~ ~ ~ ~ T U ~ R q z e o f.f.f.f.f.f.",
"f.f.f.f.f.f.f.f.o i l W ~ ~ ~ ~ ~ ~ T U ^ U q l e o f.f.f.f.f.f.",
"f.f.f.f.f.f.f.o < j l E ~ U W ~ ~ ~ E U ~ R 8 8 , o f.f.f.f.f.f.",
"f.f.f.f.f.f.f.X _ ' l l z l Y ^ ~ ~ T l z h 1 8 1 o f.f.f.f.f.f.",
"f.f.f.f.f.f.f.X ) -.] v x z E ~ ~ ^ x r z j 1 p n o f.f.f.f.f.f.",
"f.f.f.f.f.f.f.f.. ;.0.9.7.[ W } | ^ R i z j p ( b o f.f.f.f.f.f.",
"f.f.f.f.f.f.f.f.f.; @ + *.0.9.9.7.X.X.` / / / n o f.f.f.f.f.f.f.",
"f.f.f.f.f.f.f.f.f.f.f.f.+ ; ; $ + $ + + O O + + f.f.f.f.f.f.f.f."
};
