/* XPM */
static char *e18f6eb601dc4a83bbfb96865183640dcrP9vT4m2FPQMGNc[] = {
/* columns rows colors chars-per-pixel */
"48 48 251 2 ",
"   c #010004",
".  c #0D0203",
"X  c #04000B",
"o  c #0B020C",
"O  c #1C0C0D",
"+  c #14050B",
"@  c #060213",
"#  c #0C0513",
"$  c #0D0A14",
"%  c #0E081A",
"&  c #130513",
"*  c #130B14",
"=  c #1A0B13",
"-  c #130D1B",
";  c #190B19",
":  c #1D1215",
">  c #1B131C",
",  c #18141C",
"<  c #1C1009",
"1  c #360008",
"2  c #240E18",
"3  c #370816",
"4  c #22141C",
"5  c #241A1D",
"6  c #28191A",
"7  c #2C020C",
"8  c #2F211F",
"9  c #150D22",
"0  c #170E2A",
"q  c #1B1424",
"w  c #1D152B",
"e  c #1E1B28",
"r  c #0F0620",
"t  c #221524",
"y  c #241B23",
"u  c #2A1E24",
"i  c #231C2B",
"p  c #2B1C29",
"a  c #261628",
"s  c #391828",
"d  c #221A33",
"f  c #2C2124",
"g  c #2C232C",
"h  c #29262A",
"j  c #332524",
"k  c #33262B",
"l  c #352B2D",
"z  c #3A2C2D",
"x  c #3B2629",
"c  c #262231",
"v  c #2B2533",
"b  c #2C2935",
"n  c #2D253A",
"m  c #2F2B3A",
"M  c #322632",
"N  c #342B34",
"B  c #392C34",
"V  c #332D3A",
"C  c #3A2D3A",
"Z  c #37263C",
"A  c #3C3235",
"S  c #3C343C",
"D  c #3E393C",
"F  c #353139",
"G  c #353632",
"H  c #56040D",
"J  c #470718",
"K  c #591118",
"L  c #520D11",
"P  c #6F0F15",
"I  c #54261F",
"U  c #5B1825",
"Y  c #4B1824",
"T  c #6D1424",
"R  c #452E34",
"E  c #5C2736",
"W  c #423433",
"Q  c #41353B",
"!  c #443B3D",
"~  c #4C3D3D",
"^  c #473935",
"/  c #563A3D",
"(  c #4A282B",
")  c #692334",
"_  c #772B2D",
"`  c #673818",
"'  c #5B4632",
"]  c #352D43",
"[  c #3B3443",
"{  c #3E3A4A",
"}  c #3B3544",
"|  c #3A3052",
" . c #413643",
".. c #433B44",
"X. c #4A3E44",
"o. c #433C4A",
"O. c #493B49",
"+. c #533E48",
"@. c #483E53",
"#. c #6F3945",
"$. c #3C4C4A",
"%. c #4C4245",
"&. c #47414B",
"*. c #4B434C",
"=. c #494448",
"-. c #534344",
";. c #52464B",
":. c #544B4D",
">. c #5B4C4C",
",. c #584847",
"<. c #5A544D",
"1. c #4C4552",
"2. c #4A4656",
"3. c #534B53",
"4. c #5A4E53",
"5. c #534D5A",
"6. c #554957",
"7. c #5C5355",
"8. c #5B525C",
"9. c #585359",
"0. c #4F5D5D",
"q. c #624E52",
"w. c #625454",
"e. c #635659",
"r. c #645A5D",
"t. c #6A5D5C",
"y. c #665757",
"u. c #76565B",
"i. c #704650",
"p. c #74665B",
"a. c #6C605D",
"s. c #5B5564",
"d. c #5E5964",
"f. c #5A5666",
"g. c #5A5168",
"h. c #635B63",
"j. c #6B5E61",
"k. c #645E6A",
"l. c #675964",
"z. c #755C67",
"x. c #6E5A76",
"c. c #576A65",
"v. c #6B6264",
"b. c #6C636B",
"n. c #676468",
"m. c #736464",
"M. c #73666A",
"N. c #746A6C",
"B. c #7C6C6D",
"V. c #776867",
"C. c #6C6573",
"Z. c #6F6973",
"A. c #686474",
"S. c #736C74",
"D. c #736D7B",
"F. c #786976",
"G. c #7C7274",
"H. c #7B737B",
"J. c #787479",
"K. c #76716E",
"L. c #5D635B",
"P. c #84151E",
"I. c #962C1A",
"U. c #851B2B",
"Y. c #973228",
"T. c #8E2A30",
"R. c #A63232",
"E. c #955037",
"W. c #B24B33",
"Q. c #C55D3B",
"!. c #8C3946",
"~. c #B03E40",
"^. c #AE524E",
"/. c #84666B",
"(. c #876F71",
"). c #837474",
"_. c #817679",
"`. c #84797C",
"'. c #8B7D7D",
"]. c #897876",
"[. c #877573",
"{. c #A77075",
"}. c #925257",
"|. c #C86356",
" X c #D67757",
".X c #CC6F4A",
"XX c #CC7066",
"oX c #C35D47",
"OX c #94867C",
"+X c #8E827D",
"@X c #AA8974",
"#X c #D2956F",
"$X c #E79A70",
"%X c #E19466",
"&X c #7A7581",
"*X c #7F7A88",
"=X c #837C83",
"-X c #8D7E80",
";X c #877C8A",
":X c #907E88",
">X c #778180",
",X c #8C8284",
"<X c #8A838B",
"1X c #8B868C",
"2X c #928384",
"3X c #978B8C",
"4X c #8C8893",
"5X c #938C95",
"6X c #958E9A",
"7X c #978B94",
"8X c #9B949C",
"9X c #999398",
"0X c #A49899",
"qX c #A9938C",
"wX c #9C97A3",
"eX c #A49DA4",
"rX c #A49EAA",
"tX c #AB9FAE",
"yX c #B29AA2",
"uX c #ACA4AE",
"iX c #AAA1A6",
"pX c #B0AAAE",
"aX c #B6A3A6",
"sX c #B8B0AD",
"dX c #ACA7B3",
"fX c #B3ACB3",
"gX c #B4ADB8",
"hX c #B9B4B6",
"jX c #BBAA92",
"kX c #EDAF88",
"lX c #C09CA6",
"zX c #C3B5B7",
"xX c #C9B1AD",
"cX c #FFB3A0",
"vX c #F19689",
"bX c #F8D2AF",
"nX c #EDC5A5",
"mX c #BAB6C2",
"MX c #C2BBC2",
"NX c #C6B9CB",
"BX c #CDBBCE",
"VX c #C9C5C7",
"CX c #D6C8CA",
"ZX c #DAD5D8",
"AX c #CEC9D2",
"SX c #ECDAD1",
"DX c #F5ECD4",
"FX c #E3DDE7",
"GX c #DFE0E7",
"HX c #E7E3E6",
"JX c #F4F1F0",
/* pixels */
"V.zXsXiXsXt.. %.sXiXA . O y.VX0XqXaX2X-.~ yXyX0X).B.).-XxXzXt.j 8 -.e.. ,.3X^ < w.CX0X6 + l.BX:X",
"e.:.`.V.).>.j _.,XG.:.z + t.aX'.).2X3X3Xz.].].2X(.B.(.'.'.(.W 6 w.a.~ >.<.z ^ [.).].m.a.+.z.F.; ",
",X'.>.B.,XW ~ v.).,XV.z O ,X'.B.'.).B.).~ q.].).B.V.B.].B.w.z 8 t.B.>.+Xa.6 p.qX].].B.+X3X+.2 p ",
"B.,X3XW ! z r.m.).'.e.l O ).).,.).).).-XW R V.V.V.m.V.).V.w.W 2 W 8 ^ `.,.j ,.+Xm.OX).V.-X-XR o ",
"7.m.M.l z ! v.).2X3XG.V.B ).m.j.).B.B.).q.y.,.m.B.).6 w.w.j x -.B.e.j W t.w.t.'.B.].<.).'.F.+.= ",
"G.G.z j e.V.M.V.`.'.G.V.u ;.-.7.V.'.'.M.q.~ ^ -.).m.,.j O W ~ ).`.,X%.%.2Xy.t.).].2XV.-.j.+.4 p ",
"v.G.: l _.G.j.N.'.).V.7.+ %.B.w.e.m.m.e.,.-.~ ~ R -.~ ~ ~ ~ -.).B.V.a.~ ,.m.,.V.B.V.).).4.k p u ",
"! 5 z 4.v.j.V.v.G.V.B.e.A `.'.M.,.z z >.u.#.R (./.u./ /.u.R >.x m.V.m.a.:.<.-.p.B.m.>.>.;.4.R 4 ",
"5 5 4.).B.v.v.N.`.G.G.l %._.r.w.:XqX:X/.{.}.) i.E E }.#.) {.yXaXy.( w.r.v.).6 t.`.t.A z 4.r.k = ",
": -.r.j.B.G.-.7.G.7.A 5 ~ V.r.M.CXlXi.1 T H H H J K _ !.H K #.z.u.aX-X7.l :.y.%.>.B.v.m.m.k + 4 ",
"5 A r.e.`.2XA ! 7.Q l l ! hXJXhX( 3 1 ) T U.H T K H T.XXT.H ) 7 3 u.CXm.! f M.e.f W V.t.;.l 4 = ",
"e.k 5 :.V.,X;.:.f l r.7.0X,X=XO 7 Y K T P Y.R.Y.P P ^.|.Y.T T U 1 Y +.2X7XH.f e.f f ~ ;.l ~ f k ",
"_.,X:.: r.`.:.! D N.l AXHXMXf . 1 U U.P W.Y.W.I.Y.E.|.oXI.Y.^._ J E + ].hX7Xv.* 7.e.X.l %.X.k . ",
"`.N._.r.u 7.4.A 7.X.D AXhX:.  O J K U.P.Y.|.Q.W.oXW. XW.W.W.|.U.T J s 6 B._.7.y 4.N.e.z 4 l 5 . ",
"M.-XN.N.X.! A 5 N.%.AXfX,X7.: 2 U T.P.R.W. X%X.X%X X X XQ. XW.Y.!.) 3 R zX_.7.: %.j.r.;.: : u : ",
"7.v.;.v.X.k B 4.G.! v.1XHXpX`.2 U _ ^.XX.X%X$X$X#X$XcX$X$X X X|.!.E 3 xXBX0Xe.5 ;.r.r.5 k _.:.Q ",
"X.X.v.N.Q 5 ;.r.N.G =.AXJXFX8X>.I K _ XX$XkXkXDXbXnXbXbXnXcXvX^.( w.aXv.0X,X* = :.-Xv.A `.3Xu . ",
"! =.4.v.h f 7.N.G.! h 3XhX,XpXZXCX@X` ` E.#XxXDXDXDXSXDXSX{.}.I xXHXVX0X! l o f v.J.%.! 7X4.X.2 ",
"A :.7.:.! k l D N.r.G n.:.! VXZXJXSXp.qXjXOX<.%.n.L.<.G OXaX(.'.3XZXfX`.%.  G D v.`.A l 4.m.4.: ",
"B ;.r.%.=.7.D + A n.D =.7.3.S.9XVXn.sXJXHXJXJ.4XJXGXHXS.eXJXFX3Xh...S.S y * X.*.X.8.N M.r.B B Q ",
"5 5 A v.:.r.H.A > :.8.> } &.n.&X1.e 1XhXhXhXC.NXNXNXNX4X .uX6XH.} i M > f M F h.*.4 ;.h.G.l...= ",
"`.r.;.7.X.%.n.l y N 9.*   h 8.s.5.V 0.>XZ.n.} C.F.x.x.x.Z @.6.1.i i i v o.- X =.g 4.M.F.4.C o = ",
"H.r.! Q :.f f A n.r.D ..D $ e v d.m c.c.c.0.b [ g.] g.g.a C a C C t ..N , * * ..S 8.4.M...o o + ",
";.4.r.:.%.D h S.S.3.h H.H.h h , $ , h $.G $.e { @.[ } [ t  .6.t i - - # q - - ..S.J.l.3.N y * y ",
"! r.v.r.! u %.N.=XS.> 5.&.dX9X> c , @ X $ m e - m n q w X - @ @ - q q - % @ i i N <Xk.1.S N M v ",
"Q 3.j.D h 3.7.v.S.H.S D 1.gX5X&XD.dX2.c c # # - @ # q 9 i @ i m n Z d - w % m o.v N } S.6...8.F ",
"3.! 5 D `.b.S.*.n.=X..F N 9.5XAX1.<X5.C.gXf.] } A.A.o.i n 5.o.] ] [ n q - 9 o.1.A.s.&.i 6.v N * ",
"v.f : D _.H.3.M.,X9X> h h d.4X*Xd.dXdXA.mXs.mXC.5.;X2.2.2.f.f.] i c c i v Z V @ 1.D.d.i g # # v ",
"u u ;.%.X.b.,X1XH.S 8.N e o.k.D.d.*X&X&Xc f.;XD.*Xo.*X5.A.d.2.5.w n ] q n 5.q m i o.8.6.v C.5XS ",
"+ Q S.j.3X9X=X:.=.*.VX5.* v 1.s.s.C.s.5.{ 5.D.D.4X{ f.5.2.f.b c d n w c } w - [ V - V k.6XuX&.i ",
"h N.3X0X7X<Xn.! g 3.8XN o - b &.e F 2.;Xs.} D.d.D.} V 2.c e { n c w n d w 9 i i 1.i i y s...d.i ",
"j.H.F.eXeX,XN.b.v * > - # * i o.q 2.f.d.] o.{ { 2.{ c m m i m ] q ] n w % 9 - i V - v i C 8.<X&.",
"b.r.,XeXMXS.S.3.5.O.h.b.q o @ q q v * v v i V q n n n n n { @ % q 9 w 9 @ @ 9 i i i N 1.6.F.C.- ",
"h.b.:.<X5XuX5Xb.b.h.AXS.y v - -   V C.v X # c v e e e e - 9 % ] d r @ @ @ [ o.9 V &.o.=X6XuXS # ",
"5 :.v.8.b.5X8X9XS.1.g h ..1.c * g FXFX4Xs.v   - - - - - - C.rX*Xg.d 0 9 i v N S } S.rX6X6X8.i M ",
"8.`.=XJ.S.S.J.MX8X5X=Xd.9.C.1.# ..dX&XgX;X1.% - @ @ @ @ n.NXZX[ d | 0 w N N =.r.5X4XrX6X6.8.g y ",
"<Xk.h.S.S.h.3.3.h.=XfXuX`.S.3...y h.8.h.V o X   $ $   b D.k.D.i d | w i 5.h.G.7XfXH.l.b.C M i * ",
"9.9.h.b.C.9.p M D :.=XeXfX<XS.b.C F C e o o ] V V { } V e b F q c 0 f.&.6XhXhX3XF.b.l.b.b. .* * ",
"i 8.h.k...F g X.7.X.B b.1XpXMX8Xk.&.h } N V n.5.} wX5X5.k.o.&.v o.1.k.8XuXeX9X,Xb.b.h.9.9.B y , ",
"* 1.H.6.& N C k.7.A %.:.:.=XpXMXhXn.H.8X8.1.D.k.} wX2.i 5.d.d.C.4XuXeXfXuX<XS.S.Z.M.k.8.;...3.; ",
"> M C Q 8.B S 1.3.:.7.:.f S 3.J.8X8XhX=XZ.b.C.n.s.V V 1.D.6XdXwXdXgXrX*XH.l.h.h.;.h.4.3.X.B t + ",
"3.; t +.8.B k =.7.3.3.%.y 3...9.8.N.pXMXwX<X4XD.C.H.eXD.6X6X;XuXuX<XH.5. ...O.8.4.X...4.*.g & + ",
"3.g 4 +. .M y N =.....F f *.N S *.=.n.5X9X5XiX8XrX4X5XgXAX=XD.v  .&.1. .V V y N B N S B Q k 4 : ",
"p 4 p M C O.S M  ...&.S S *...N *.S S 8.k.H.fXuXMXrXgXdXwXs.o.# &.3...8.1.*.p N u y k y S ..B 4 ",
"- ..O.4 p O.N o.C N 1.o.S &.1.C v i S  .N  .D.Z.dXgX&X&X} 1.i 1.o.o.5.5.o.V S  .3.Q y g Q ..k + ",
"C O.C a p t M 1.[ q [  .[ o.1.S # &.*.S &.b b *.H.4X=X5.v v v S } 1.} M S M i  .O.*.Q A X.B 4 + ",
"C t ; t ; t * t t q q t q y p q - i * $ , q > - g o.k...v V @ * q M q # y t ; p Q k 4 f k 4 + = ",
"* o t & & p & # q % - # # # - @ $ # > o * o h , - X X , - - q   o o , , & & : o & 4 : u u u u k "
};
